%TF.GenerationSoftware,KiCad,Pcbnew,9.0.7*%
%TF.CreationDate,2026-02-06T13:46:22+00:00*%
%TF.ProjectId,VANDIMMER-8CH,56414e44-494d-44d4-9552-2d3843482e6b,rev?*%
%TF.SameCoordinates,Original*%
%TF.FileFunction,Legend,Top*%
%TF.FilePolarity,Positive*%
%FSLAX46Y46*%
G04 Gerber Fmt 4.6, Leading zero omitted, Abs format (unit mm)*
G04 Created by KiCad (PCBNEW 9.0.7) date 2026-02-06 13:46:22*
%MOMM*%
%LPD*%
G01*
G04 APERTURE LIST*
%ADD10C,0.150000*%
%ADD11C,0.100000*%
%ADD12C,0.120000*%
G04 APERTURE END LIST*
D10*
X47324819Y-57652857D02*
X46848628Y-57986190D01*
X47324819Y-58224285D02*
X46324819Y-58224285D01*
X46324819Y-58224285D02*
X46324819Y-57843333D01*
X46324819Y-57843333D02*
X46372438Y-57748095D01*
X46372438Y-57748095D02*
X46420057Y-57700476D01*
X46420057Y-57700476D02*
X46515295Y-57652857D01*
X46515295Y-57652857D02*
X46658152Y-57652857D01*
X46658152Y-57652857D02*
X46753390Y-57700476D01*
X46753390Y-57700476D02*
X46801009Y-57748095D01*
X46801009Y-57748095D02*
X46848628Y-57843333D01*
X46848628Y-57843333D02*
X46848628Y-58224285D01*
X47324819Y-56700476D02*
X47324819Y-57271904D01*
X47324819Y-56986190D02*
X46324819Y-56986190D01*
X46324819Y-56986190D02*
X46467676Y-57081428D01*
X46467676Y-57081428D02*
X46562914Y-57176666D01*
X46562914Y-57176666D02*
X46610533Y-57271904D01*
X46753390Y-56129047D02*
X46705771Y-56224285D01*
X46705771Y-56224285D02*
X46658152Y-56271904D01*
X46658152Y-56271904D02*
X46562914Y-56319523D01*
X46562914Y-56319523D02*
X46515295Y-56319523D01*
X46515295Y-56319523D02*
X46420057Y-56271904D01*
X46420057Y-56271904D02*
X46372438Y-56224285D01*
X46372438Y-56224285D02*
X46324819Y-56129047D01*
X46324819Y-56129047D02*
X46324819Y-55938571D01*
X46324819Y-55938571D02*
X46372438Y-55843333D01*
X46372438Y-55843333D02*
X46420057Y-55795714D01*
X46420057Y-55795714D02*
X46515295Y-55748095D01*
X46515295Y-55748095D02*
X46562914Y-55748095D01*
X46562914Y-55748095D02*
X46658152Y-55795714D01*
X46658152Y-55795714D02*
X46705771Y-55843333D01*
X46705771Y-55843333D02*
X46753390Y-55938571D01*
X46753390Y-55938571D02*
X46753390Y-56129047D01*
X46753390Y-56129047D02*
X46801009Y-56224285D01*
X46801009Y-56224285D02*
X46848628Y-56271904D01*
X46848628Y-56271904D02*
X46943866Y-56319523D01*
X46943866Y-56319523D02*
X47134342Y-56319523D01*
X47134342Y-56319523D02*
X47229580Y-56271904D01*
X47229580Y-56271904D02*
X47277200Y-56224285D01*
X47277200Y-56224285D02*
X47324819Y-56129047D01*
X47324819Y-56129047D02*
X47324819Y-55938571D01*
X47324819Y-55938571D02*
X47277200Y-55843333D01*
X47277200Y-55843333D02*
X47229580Y-55795714D01*
X47229580Y-55795714D02*
X47134342Y-55748095D01*
X47134342Y-55748095D02*
X46943866Y-55748095D01*
X46943866Y-55748095D02*
X46848628Y-55795714D01*
X46848628Y-55795714D02*
X46801009Y-55843333D01*
X46801009Y-55843333D02*
X46753390Y-55938571D01*
X39890682Y-139069580D02*
X39843063Y-139117200D01*
X39843063Y-139117200D02*
X39700206Y-139164819D01*
X39700206Y-139164819D02*
X39604968Y-139164819D01*
X39604968Y-139164819D02*
X39462111Y-139117200D01*
X39462111Y-139117200D02*
X39366873Y-139021961D01*
X39366873Y-139021961D02*
X39319254Y-138926723D01*
X39319254Y-138926723D02*
X39271635Y-138736247D01*
X39271635Y-138736247D02*
X39271635Y-138593390D01*
X39271635Y-138593390D02*
X39319254Y-138402914D01*
X39319254Y-138402914D02*
X39366873Y-138307676D01*
X39366873Y-138307676D02*
X39462111Y-138212438D01*
X39462111Y-138212438D02*
X39604968Y-138164819D01*
X39604968Y-138164819D02*
X39700206Y-138164819D01*
X39700206Y-138164819D02*
X39843063Y-138212438D01*
X39843063Y-138212438D02*
X39890682Y-138260057D01*
X40747825Y-138498152D02*
X40747825Y-139164819D01*
X40509730Y-138117200D02*
X40271635Y-138831485D01*
X40271635Y-138831485D02*
X40890682Y-138831485D01*
X54293333Y-126472231D02*
X54245714Y-126519851D01*
X54245714Y-126519851D02*
X54102857Y-126567470D01*
X54102857Y-126567470D02*
X54007619Y-126567470D01*
X54007619Y-126567470D02*
X53864762Y-126519851D01*
X53864762Y-126519851D02*
X53769524Y-126424612D01*
X53769524Y-126424612D02*
X53721905Y-126329374D01*
X53721905Y-126329374D02*
X53674286Y-126138898D01*
X53674286Y-126138898D02*
X53674286Y-125996041D01*
X53674286Y-125996041D02*
X53721905Y-125805565D01*
X53721905Y-125805565D02*
X53769524Y-125710327D01*
X53769524Y-125710327D02*
X53864762Y-125615089D01*
X53864762Y-125615089D02*
X54007619Y-125567470D01*
X54007619Y-125567470D02*
X54102857Y-125567470D01*
X54102857Y-125567470D02*
X54245714Y-125615089D01*
X54245714Y-125615089D02*
X54293333Y-125662708D01*
X55245714Y-126567470D02*
X54674286Y-126567470D01*
X54960000Y-126567470D02*
X54960000Y-125567470D01*
X54960000Y-125567470D02*
X54864762Y-125710327D01*
X54864762Y-125710327D02*
X54769524Y-125805565D01*
X54769524Y-125805565D02*
X54674286Y-125853184D01*
X109860057Y-74035238D02*
X109812438Y-74130476D01*
X109812438Y-74130476D02*
X109717200Y-74225714D01*
X109717200Y-74225714D02*
X109574342Y-74368571D01*
X109574342Y-74368571D02*
X109526723Y-74463809D01*
X109526723Y-74463809D02*
X109526723Y-74559047D01*
X109764819Y-74511428D02*
X109717200Y-74606666D01*
X109717200Y-74606666D02*
X109621961Y-74701904D01*
X109621961Y-74701904D02*
X109431485Y-74749523D01*
X109431485Y-74749523D02*
X109098152Y-74749523D01*
X109098152Y-74749523D02*
X108907676Y-74701904D01*
X108907676Y-74701904D02*
X108812438Y-74606666D01*
X108812438Y-74606666D02*
X108764819Y-74511428D01*
X108764819Y-74511428D02*
X108764819Y-74320952D01*
X108764819Y-74320952D02*
X108812438Y-74225714D01*
X108812438Y-74225714D02*
X108907676Y-74130476D01*
X108907676Y-74130476D02*
X109098152Y-74082857D01*
X109098152Y-74082857D02*
X109431485Y-74082857D01*
X109431485Y-74082857D02*
X109621961Y-74130476D01*
X109621961Y-74130476D02*
X109717200Y-74225714D01*
X109717200Y-74225714D02*
X109764819Y-74320952D01*
X109764819Y-74320952D02*
X109764819Y-74511428D01*
X108764819Y-73749523D02*
X108764819Y-73130476D01*
X108764819Y-73130476D02*
X109145771Y-73463809D01*
X109145771Y-73463809D02*
X109145771Y-73320952D01*
X109145771Y-73320952D02*
X109193390Y-73225714D01*
X109193390Y-73225714D02*
X109241009Y-73178095D01*
X109241009Y-73178095D02*
X109336247Y-73130476D01*
X109336247Y-73130476D02*
X109574342Y-73130476D01*
X109574342Y-73130476D02*
X109669580Y-73178095D01*
X109669580Y-73178095D02*
X109717200Y-73225714D01*
X109717200Y-73225714D02*
X109764819Y-73320952D01*
X109764819Y-73320952D02*
X109764819Y-73606666D01*
X109764819Y-73606666D02*
X109717200Y-73701904D01*
X109717200Y-73701904D02*
X109669580Y-73749523D01*
X50690476Y-50134819D02*
X50690476Y-50849104D01*
X50690476Y-50849104D02*
X50642857Y-50991961D01*
X50642857Y-50991961D02*
X50547619Y-51087200D01*
X50547619Y-51087200D02*
X50404762Y-51134819D01*
X50404762Y-51134819D02*
X50309524Y-51134819D01*
X51690476Y-51134819D02*
X51119048Y-51134819D01*
X51404762Y-51134819D02*
X51404762Y-50134819D01*
X51404762Y-50134819D02*
X51309524Y-50277676D01*
X51309524Y-50277676D02*
X51214286Y-50372914D01*
X51214286Y-50372914D02*
X51119048Y-50420533D01*
X52309524Y-50134819D02*
X52404762Y-50134819D01*
X52404762Y-50134819D02*
X52500000Y-50182438D01*
X52500000Y-50182438D02*
X52547619Y-50230057D01*
X52547619Y-50230057D02*
X52595238Y-50325295D01*
X52595238Y-50325295D02*
X52642857Y-50515771D01*
X52642857Y-50515771D02*
X52642857Y-50753866D01*
X52642857Y-50753866D02*
X52595238Y-50944342D01*
X52595238Y-50944342D02*
X52547619Y-51039580D01*
X52547619Y-51039580D02*
X52500000Y-51087200D01*
X52500000Y-51087200D02*
X52404762Y-51134819D01*
X52404762Y-51134819D02*
X52309524Y-51134819D01*
X52309524Y-51134819D02*
X52214286Y-51087200D01*
X52214286Y-51087200D02*
X52166667Y-51039580D01*
X52166667Y-51039580D02*
X52119048Y-50944342D01*
X52119048Y-50944342D02*
X52071429Y-50753866D01*
X52071429Y-50753866D02*
X52071429Y-50515771D01*
X52071429Y-50515771D02*
X52119048Y-50325295D01*
X52119048Y-50325295D02*
X52166667Y-50230057D01*
X52166667Y-50230057D02*
X52214286Y-50182438D01*
X52214286Y-50182438D02*
X52309524Y-50134819D01*
X121374819Y-147653333D02*
X122089104Y-147653333D01*
X122089104Y-147653333D02*
X122231961Y-147700952D01*
X122231961Y-147700952D02*
X122327200Y-147796190D01*
X122327200Y-147796190D02*
X122374819Y-147939047D01*
X122374819Y-147939047D02*
X122374819Y-148034285D01*
X122374819Y-147129523D02*
X122374819Y-146939047D01*
X122374819Y-146939047D02*
X122327200Y-146843809D01*
X122327200Y-146843809D02*
X122279580Y-146796190D01*
X122279580Y-146796190D02*
X122136723Y-146700952D01*
X122136723Y-146700952D02*
X121946247Y-146653333D01*
X121946247Y-146653333D02*
X121565295Y-146653333D01*
X121565295Y-146653333D02*
X121470057Y-146700952D01*
X121470057Y-146700952D02*
X121422438Y-146748571D01*
X121422438Y-146748571D02*
X121374819Y-146843809D01*
X121374819Y-146843809D02*
X121374819Y-147034285D01*
X121374819Y-147034285D02*
X121422438Y-147129523D01*
X121422438Y-147129523D02*
X121470057Y-147177142D01*
X121470057Y-147177142D02*
X121565295Y-147224761D01*
X121565295Y-147224761D02*
X121803390Y-147224761D01*
X121803390Y-147224761D02*
X121898628Y-147177142D01*
X121898628Y-147177142D02*
X121946247Y-147129523D01*
X121946247Y-147129523D02*
X121993866Y-147034285D01*
X121993866Y-147034285D02*
X121993866Y-146843809D01*
X121993866Y-146843809D02*
X121946247Y-146748571D01*
X121946247Y-146748571D02*
X121898628Y-146700952D01*
X121898628Y-146700952D02*
X121803390Y-146653333D01*
X77303333Y-104424819D02*
X76970000Y-103948628D01*
X76731905Y-104424819D02*
X76731905Y-103424819D01*
X76731905Y-103424819D02*
X77112857Y-103424819D01*
X77112857Y-103424819D02*
X77208095Y-103472438D01*
X77208095Y-103472438D02*
X77255714Y-103520057D01*
X77255714Y-103520057D02*
X77303333Y-103615295D01*
X77303333Y-103615295D02*
X77303333Y-103758152D01*
X77303333Y-103758152D02*
X77255714Y-103853390D01*
X77255714Y-103853390D02*
X77208095Y-103901009D01*
X77208095Y-103901009D02*
X77112857Y-103948628D01*
X77112857Y-103948628D02*
X76731905Y-103948628D01*
X77779524Y-104424819D02*
X77970000Y-104424819D01*
X77970000Y-104424819D02*
X78065238Y-104377200D01*
X78065238Y-104377200D02*
X78112857Y-104329580D01*
X78112857Y-104329580D02*
X78208095Y-104186723D01*
X78208095Y-104186723D02*
X78255714Y-103996247D01*
X78255714Y-103996247D02*
X78255714Y-103615295D01*
X78255714Y-103615295D02*
X78208095Y-103520057D01*
X78208095Y-103520057D02*
X78160476Y-103472438D01*
X78160476Y-103472438D02*
X78065238Y-103424819D01*
X78065238Y-103424819D02*
X77874762Y-103424819D01*
X77874762Y-103424819D02*
X77779524Y-103472438D01*
X77779524Y-103472438D02*
X77731905Y-103520057D01*
X77731905Y-103520057D02*
X77684286Y-103615295D01*
X77684286Y-103615295D02*
X77684286Y-103853390D01*
X77684286Y-103853390D02*
X77731905Y-103948628D01*
X77731905Y-103948628D02*
X77779524Y-103996247D01*
X77779524Y-103996247D02*
X77874762Y-104043866D01*
X77874762Y-104043866D02*
X78065238Y-104043866D01*
X78065238Y-104043866D02*
X78160476Y-103996247D01*
X78160476Y-103996247D02*
X78208095Y-103948628D01*
X78208095Y-103948628D02*
X78255714Y-103853390D01*
X109860057Y-134715238D02*
X109812438Y-134810476D01*
X109812438Y-134810476D02*
X109717200Y-134905714D01*
X109717200Y-134905714D02*
X109574342Y-135048571D01*
X109574342Y-135048571D02*
X109526723Y-135143809D01*
X109526723Y-135143809D02*
X109526723Y-135239047D01*
X109764819Y-135191428D02*
X109717200Y-135286666D01*
X109717200Y-135286666D02*
X109621961Y-135381904D01*
X109621961Y-135381904D02*
X109431485Y-135429523D01*
X109431485Y-135429523D02*
X109098152Y-135429523D01*
X109098152Y-135429523D02*
X108907676Y-135381904D01*
X108907676Y-135381904D02*
X108812438Y-135286666D01*
X108812438Y-135286666D02*
X108764819Y-135191428D01*
X108764819Y-135191428D02*
X108764819Y-135000952D01*
X108764819Y-135000952D02*
X108812438Y-134905714D01*
X108812438Y-134905714D02*
X108907676Y-134810476D01*
X108907676Y-134810476D02*
X109098152Y-134762857D01*
X109098152Y-134762857D02*
X109431485Y-134762857D01*
X109431485Y-134762857D02*
X109621961Y-134810476D01*
X109621961Y-134810476D02*
X109717200Y-134905714D01*
X109717200Y-134905714D02*
X109764819Y-135000952D01*
X109764819Y-135000952D02*
X109764819Y-135191428D01*
X108764819Y-134429523D02*
X108764819Y-133762857D01*
X108764819Y-133762857D02*
X109764819Y-134191428D01*
X77303333Y-89464819D02*
X76970000Y-88988628D01*
X76731905Y-89464819D02*
X76731905Y-88464819D01*
X76731905Y-88464819D02*
X77112857Y-88464819D01*
X77112857Y-88464819D02*
X77208095Y-88512438D01*
X77208095Y-88512438D02*
X77255714Y-88560057D01*
X77255714Y-88560057D02*
X77303333Y-88655295D01*
X77303333Y-88655295D02*
X77303333Y-88798152D01*
X77303333Y-88798152D02*
X77255714Y-88893390D01*
X77255714Y-88893390D02*
X77208095Y-88941009D01*
X77208095Y-88941009D02*
X77112857Y-88988628D01*
X77112857Y-88988628D02*
X76731905Y-88988628D01*
X77636667Y-88464819D02*
X78303333Y-88464819D01*
X78303333Y-88464819D02*
X77874762Y-89464819D01*
X77303333Y-43464819D02*
X76970000Y-42988628D01*
X76731905Y-43464819D02*
X76731905Y-42464819D01*
X76731905Y-42464819D02*
X77112857Y-42464819D01*
X77112857Y-42464819D02*
X77208095Y-42512438D01*
X77208095Y-42512438D02*
X77255714Y-42560057D01*
X77255714Y-42560057D02*
X77303333Y-42655295D01*
X77303333Y-42655295D02*
X77303333Y-42798152D01*
X77303333Y-42798152D02*
X77255714Y-42893390D01*
X77255714Y-42893390D02*
X77208095Y-42941009D01*
X77208095Y-42941009D02*
X77112857Y-42988628D01*
X77112857Y-42988628D02*
X76731905Y-42988628D01*
X78255714Y-43464819D02*
X77684286Y-43464819D01*
X77970000Y-43464819D02*
X77970000Y-42464819D01*
X77970000Y-42464819D02*
X77874762Y-42607676D01*
X77874762Y-42607676D02*
X77779524Y-42702914D01*
X77779524Y-42702914D02*
X77684286Y-42750533D01*
X77303333Y-58704819D02*
X76970000Y-58228628D01*
X76731905Y-58704819D02*
X76731905Y-57704819D01*
X76731905Y-57704819D02*
X77112857Y-57704819D01*
X77112857Y-57704819D02*
X77208095Y-57752438D01*
X77208095Y-57752438D02*
X77255714Y-57800057D01*
X77255714Y-57800057D02*
X77303333Y-57895295D01*
X77303333Y-57895295D02*
X77303333Y-58038152D01*
X77303333Y-58038152D02*
X77255714Y-58133390D01*
X77255714Y-58133390D02*
X77208095Y-58181009D01*
X77208095Y-58181009D02*
X77112857Y-58228628D01*
X77112857Y-58228628D02*
X76731905Y-58228628D01*
X77636667Y-57704819D02*
X78255714Y-57704819D01*
X78255714Y-57704819D02*
X77922381Y-58085771D01*
X77922381Y-58085771D02*
X78065238Y-58085771D01*
X78065238Y-58085771D02*
X78160476Y-58133390D01*
X78160476Y-58133390D02*
X78208095Y-58181009D01*
X78208095Y-58181009D02*
X78255714Y-58276247D01*
X78255714Y-58276247D02*
X78255714Y-58514342D01*
X78255714Y-58514342D02*
X78208095Y-58609580D01*
X78208095Y-58609580D02*
X78160476Y-58657200D01*
X78160476Y-58657200D02*
X78065238Y-58704819D01*
X78065238Y-58704819D02*
X77779524Y-58704819D01*
X77779524Y-58704819D02*
X77684286Y-58657200D01*
X77684286Y-58657200D02*
X77636667Y-58609580D01*
X76827142Y-147384819D02*
X76493809Y-146908628D01*
X76255714Y-147384819D02*
X76255714Y-146384819D01*
X76255714Y-146384819D02*
X76636666Y-146384819D01*
X76636666Y-146384819D02*
X76731904Y-146432438D01*
X76731904Y-146432438D02*
X76779523Y-146480057D01*
X76779523Y-146480057D02*
X76827142Y-146575295D01*
X76827142Y-146575295D02*
X76827142Y-146718152D01*
X76827142Y-146718152D02*
X76779523Y-146813390D01*
X76779523Y-146813390D02*
X76731904Y-146861009D01*
X76731904Y-146861009D02*
X76636666Y-146908628D01*
X76636666Y-146908628D02*
X76255714Y-146908628D01*
X77779523Y-147384819D02*
X77208095Y-147384819D01*
X77493809Y-147384819D02*
X77493809Y-146384819D01*
X77493809Y-146384819D02*
X77398571Y-146527676D01*
X77398571Y-146527676D02*
X77303333Y-146622914D01*
X77303333Y-146622914D02*
X77208095Y-146670533D01*
X78636666Y-146384819D02*
X78446190Y-146384819D01*
X78446190Y-146384819D02*
X78350952Y-146432438D01*
X78350952Y-146432438D02*
X78303333Y-146480057D01*
X78303333Y-146480057D02*
X78208095Y-146622914D01*
X78208095Y-146622914D02*
X78160476Y-146813390D01*
X78160476Y-146813390D02*
X78160476Y-147194342D01*
X78160476Y-147194342D02*
X78208095Y-147289580D01*
X78208095Y-147289580D02*
X78255714Y-147337200D01*
X78255714Y-147337200D02*
X78350952Y-147384819D01*
X78350952Y-147384819D02*
X78541428Y-147384819D01*
X78541428Y-147384819D02*
X78636666Y-147337200D01*
X78636666Y-147337200D02*
X78684285Y-147289580D01*
X78684285Y-147289580D02*
X78731904Y-147194342D01*
X78731904Y-147194342D02*
X78731904Y-146956247D01*
X78731904Y-146956247D02*
X78684285Y-146861009D01*
X78684285Y-146861009D02*
X78636666Y-146813390D01*
X78636666Y-146813390D02*
X78541428Y-146765771D01*
X78541428Y-146765771D02*
X78350952Y-146765771D01*
X78350952Y-146765771D02*
X78255714Y-146813390D01*
X78255714Y-146813390D02*
X78208095Y-146861009D01*
X78208095Y-146861009D02*
X78160476Y-146956247D01*
X54324819Y-57832857D02*
X53848628Y-58166190D01*
X54324819Y-58404285D02*
X53324819Y-58404285D01*
X53324819Y-58404285D02*
X53324819Y-58023333D01*
X53324819Y-58023333D02*
X53372438Y-57928095D01*
X53372438Y-57928095D02*
X53420057Y-57880476D01*
X53420057Y-57880476D02*
X53515295Y-57832857D01*
X53515295Y-57832857D02*
X53658152Y-57832857D01*
X53658152Y-57832857D02*
X53753390Y-57880476D01*
X53753390Y-57880476D02*
X53801009Y-57928095D01*
X53801009Y-57928095D02*
X53848628Y-58023333D01*
X53848628Y-58023333D02*
X53848628Y-58404285D01*
X54324819Y-56880476D02*
X54324819Y-57451904D01*
X54324819Y-57166190D02*
X53324819Y-57166190D01*
X53324819Y-57166190D02*
X53467676Y-57261428D01*
X53467676Y-57261428D02*
X53562914Y-57356666D01*
X53562914Y-57356666D02*
X53610533Y-57451904D01*
X53324819Y-56547142D02*
X53324819Y-55880476D01*
X53324819Y-55880476D02*
X54324819Y-56309047D01*
X109860057Y-58515238D02*
X109812438Y-58610476D01*
X109812438Y-58610476D02*
X109717200Y-58705714D01*
X109717200Y-58705714D02*
X109574342Y-58848571D01*
X109574342Y-58848571D02*
X109526723Y-58943809D01*
X109526723Y-58943809D02*
X109526723Y-59039047D01*
X109764819Y-58991428D02*
X109717200Y-59086666D01*
X109717200Y-59086666D02*
X109621961Y-59181904D01*
X109621961Y-59181904D02*
X109431485Y-59229523D01*
X109431485Y-59229523D02*
X109098152Y-59229523D01*
X109098152Y-59229523D02*
X108907676Y-59181904D01*
X108907676Y-59181904D02*
X108812438Y-59086666D01*
X108812438Y-59086666D02*
X108764819Y-58991428D01*
X108764819Y-58991428D02*
X108764819Y-58800952D01*
X108764819Y-58800952D02*
X108812438Y-58705714D01*
X108812438Y-58705714D02*
X108907676Y-58610476D01*
X108907676Y-58610476D02*
X109098152Y-58562857D01*
X109098152Y-58562857D02*
X109431485Y-58562857D01*
X109431485Y-58562857D02*
X109621961Y-58610476D01*
X109621961Y-58610476D02*
X109717200Y-58705714D01*
X109717200Y-58705714D02*
X109764819Y-58800952D01*
X109764819Y-58800952D02*
X109764819Y-58991428D01*
X108860057Y-58181904D02*
X108812438Y-58134285D01*
X108812438Y-58134285D02*
X108764819Y-58039047D01*
X108764819Y-58039047D02*
X108764819Y-57800952D01*
X108764819Y-57800952D02*
X108812438Y-57705714D01*
X108812438Y-57705714D02*
X108860057Y-57658095D01*
X108860057Y-57658095D02*
X108955295Y-57610476D01*
X108955295Y-57610476D02*
X109050533Y-57610476D01*
X109050533Y-57610476D02*
X109193390Y-57658095D01*
X109193390Y-57658095D02*
X109764819Y-58229523D01*
X109764819Y-58229523D02*
X109764819Y-57610476D01*
X53658095Y-154187470D02*
X53658095Y-154996993D01*
X53658095Y-154996993D02*
X53705714Y-155092231D01*
X53705714Y-155092231D02*
X53753333Y-155139851D01*
X53753333Y-155139851D02*
X53848571Y-155187470D01*
X53848571Y-155187470D02*
X54039047Y-155187470D01*
X54039047Y-155187470D02*
X54134285Y-155139851D01*
X54134285Y-155139851D02*
X54181904Y-155092231D01*
X54181904Y-155092231D02*
X54229523Y-154996993D01*
X54229523Y-154996993D02*
X54229523Y-154187470D01*
X55229523Y-155187470D02*
X54658095Y-155187470D01*
X54943809Y-155187470D02*
X54943809Y-154187470D01*
X54943809Y-154187470D02*
X54848571Y-154330327D01*
X54848571Y-154330327D02*
X54753333Y-154425565D01*
X54753333Y-154425565D02*
X54658095Y-154473184D01*
X121374819Y-89513333D02*
X122089104Y-89513333D01*
X122089104Y-89513333D02*
X122231961Y-89560952D01*
X122231961Y-89560952D02*
X122327200Y-89656190D01*
X122327200Y-89656190D02*
X122374819Y-89799047D01*
X122374819Y-89799047D02*
X122374819Y-89894285D01*
X121374819Y-88560952D02*
X121374819Y-89037142D01*
X121374819Y-89037142D02*
X121851009Y-89084761D01*
X121851009Y-89084761D02*
X121803390Y-89037142D01*
X121803390Y-89037142D02*
X121755771Y-88941904D01*
X121755771Y-88941904D02*
X121755771Y-88703809D01*
X121755771Y-88703809D02*
X121803390Y-88608571D01*
X121803390Y-88608571D02*
X121851009Y-88560952D01*
X121851009Y-88560952D02*
X121946247Y-88513333D01*
X121946247Y-88513333D02*
X122184342Y-88513333D01*
X122184342Y-88513333D02*
X122279580Y-88560952D01*
X122279580Y-88560952D02*
X122327200Y-88608571D01*
X122327200Y-88608571D02*
X122374819Y-88703809D01*
X122374819Y-88703809D02*
X122374819Y-88941904D01*
X122374819Y-88941904D02*
X122327200Y-89037142D01*
X122327200Y-89037142D02*
X122279580Y-89084761D01*
X77303333Y-43804819D02*
X76970000Y-43328628D01*
X76731905Y-43804819D02*
X76731905Y-42804819D01*
X76731905Y-42804819D02*
X77112857Y-42804819D01*
X77112857Y-42804819D02*
X77208095Y-42852438D01*
X77208095Y-42852438D02*
X77255714Y-42900057D01*
X77255714Y-42900057D02*
X77303333Y-42995295D01*
X77303333Y-42995295D02*
X77303333Y-43138152D01*
X77303333Y-43138152D02*
X77255714Y-43233390D01*
X77255714Y-43233390D02*
X77208095Y-43281009D01*
X77208095Y-43281009D02*
X77112857Y-43328628D01*
X77112857Y-43328628D02*
X76731905Y-43328628D01*
X77684286Y-42900057D02*
X77731905Y-42852438D01*
X77731905Y-42852438D02*
X77827143Y-42804819D01*
X77827143Y-42804819D02*
X78065238Y-42804819D01*
X78065238Y-42804819D02*
X78160476Y-42852438D01*
X78160476Y-42852438D02*
X78208095Y-42900057D01*
X78208095Y-42900057D02*
X78255714Y-42995295D01*
X78255714Y-42995295D02*
X78255714Y-43090533D01*
X78255714Y-43090533D02*
X78208095Y-43233390D01*
X78208095Y-43233390D02*
X77636667Y-43804819D01*
X77636667Y-43804819D02*
X78255714Y-43804819D01*
X121374819Y-104473333D02*
X122089104Y-104473333D01*
X122089104Y-104473333D02*
X122231961Y-104520952D01*
X122231961Y-104520952D02*
X122327200Y-104616190D01*
X122327200Y-104616190D02*
X122374819Y-104759047D01*
X122374819Y-104759047D02*
X122374819Y-104854285D01*
X121374819Y-103568571D02*
X121374819Y-103759047D01*
X121374819Y-103759047D02*
X121422438Y-103854285D01*
X121422438Y-103854285D02*
X121470057Y-103901904D01*
X121470057Y-103901904D02*
X121612914Y-103997142D01*
X121612914Y-103997142D02*
X121803390Y-104044761D01*
X121803390Y-104044761D02*
X122184342Y-104044761D01*
X122184342Y-104044761D02*
X122279580Y-103997142D01*
X122279580Y-103997142D02*
X122327200Y-103949523D01*
X122327200Y-103949523D02*
X122374819Y-103854285D01*
X122374819Y-103854285D02*
X122374819Y-103663809D01*
X122374819Y-103663809D02*
X122327200Y-103568571D01*
X122327200Y-103568571D02*
X122279580Y-103520952D01*
X122279580Y-103520952D02*
X122184342Y-103473333D01*
X122184342Y-103473333D02*
X121946247Y-103473333D01*
X121946247Y-103473333D02*
X121851009Y-103520952D01*
X121851009Y-103520952D02*
X121803390Y-103568571D01*
X121803390Y-103568571D02*
X121755771Y-103663809D01*
X121755771Y-103663809D02*
X121755771Y-103854285D01*
X121755771Y-103854285D02*
X121803390Y-103949523D01*
X121803390Y-103949523D02*
X121851009Y-103997142D01*
X121851009Y-103997142D02*
X121946247Y-104044761D01*
X77303333Y-58874819D02*
X76970000Y-58398628D01*
X76731905Y-58874819D02*
X76731905Y-57874819D01*
X76731905Y-57874819D02*
X77112857Y-57874819D01*
X77112857Y-57874819D02*
X77208095Y-57922438D01*
X77208095Y-57922438D02*
X77255714Y-57970057D01*
X77255714Y-57970057D02*
X77303333Y-58065295D01*
X77303333Y-58065295D02*
X77303333Y-58208152D01*
X77303333Y-58208152D02*
X77255714Y-58303390D01*
X77255714Y-58303390D02*
X77208095Y-58351009D01*
X77208095Y-58351009D02*
X77112857Y-58398628D01*
X77112857Y-58398628D02*
X76731905Y-58398628D01*
X78160476Y-58208152D02*
X78160476Y-58874819D01*
X77922381Y-57827200D02*
X77684286Y-58541485D01*
X77684286Y-58541485D02*
X78303333Y-58541485D01*
X121374819Y-74273333D02*
X122089104Y-74273333D01*
X122089104Y-74273333D02*
X122231961Y-74320952D01*
X122231961Y-74320952D02*
X122327200Y-74416190D01*
X122327200Y-74416190D02*
X122374819Y-74559047D01*
X122374819Y-74559047D02*
X122374819Y-74654285D01*
X121708152Y-73368571D02*
X122374819Y-73368571D01*
X121327200Y-73606666D02*
X122041485Y-73844761D01*
X122041485Y-73844761D02*
X122041485Y-73225714D01*
X76827142Y-135244819D02*
X76493809Y-134768628D01*
X76255714Y-135244819D02*
X76255714Y-134244819D01*
X76255714Y-134244819D02*
X76636666Y-134244819D01*
X76636666Y-134244819D02*
X76731904Y-134292438D01*
X76731904Y-134292438D02*
X76779523Y-134340057D01*
X76779523Y-134340057D02*
X76827142Y-134435295D01*
X76827142Y-134435295D02*
X76827142Y-134578152D01*
X76827142Y-134578152D02*
X76779523Y-134673390D01*
X76779523Y-134673390D02*
X76731904Y-134721009D01*
X76731904Y-134721009D02*
X76636666Y-134768628D01*
X76636666Y-134768628D02*
X76255714Y-134768628D01*
X77779523Y-135244819D02*
X77208095Y-135244819D01*
X77493809Y-135244819D02*
X77493809Y-134244819D01*
X77493809Y-134244819D02*
X77398571Y-134387676D01*
X77398571Y-134387676D02*
X77303333Y-134482914D01*
X77303333Y-134482914D02*
X77208095Y-134530533D01*
X78636666Y-134578152D02*
X78636666Y-135244819D01*
X78398571Y-134197200D02*
X78160476Y-134911485D01*
X78160476Y-134911485D02*
X78779523Y-134911485D01*
X77303333Y-74224819D02*
X76970000Y-73748628D01*
X76731905Y-74224819D02*
X76731905Y-73224819D01*
X76731905Y-73224819D02*
X77112857Y-73224819D01*
X77112857Y-73224819D02*
X77208095Y-73272438D01*
X77208095Y-73272438D02*
X77255714Y-73320057D01*
X77255714Y-73320057D02*
X77303333Y-73415295D01*
X77303333Y-73415295D02*
X77303333Y-73558152D01*
X77303333Y-73558152D02*
X77255714Y-73653390D01*
X77255714Y-73653390D02*
X77208095Y-73701009D01*
X77208095Y-73701009D02*
X77112857Y-73748628D01*
X77112857Y-73748628D02*
X76731905Y-73748628D01*
X78208095Y-73224819D02*
X77731905Y-73224819D01*
X77731905Y-73224819D02*
X77684286Y-73701009D01*
X77684286Y-73701009D02*
X77731905Y-73653390D01*
X77731905Y-73653390D02*
X77827143Y-73605771D01*
X77827143Y-73605771D02*
X78065238Y-73605771D01*
X78065238Y-73605771D02*
X78160476Y-73653390D01*
X78160476Y-73653390D02*
X78208095Y-73701009D01*
X78208095Y-73701009D02*
X78255714Y-73796247D01*
X78255714Y-73796247D02*
X78255714Y-74034342D01*
X78255714Y-74034342D02*
X78208095Y-74129580D01*
X78208095Y-74129580D02*
X78160476Y-74177200D01*
X78160476Y-74177200D02*
X78065238Y-74224819D01*
X78065238Y-74224819D02*
X77827143Y-74224819D01*
X77827143Y-74224819D02*
X77731905Y-74177200D01*
X77731905Y-74177200D02*
X77684286Y-74129580D01*
X76827142Y-104764819D02*
X76493809Y-104288628D01*
X76255714Y-104764819D02*
X76255714Y-103764819D01*
X76255714Y-103764819D02*
X76636666Y-103764819D01*
X76636666Y-103764819D02*
X76731904Y-103812438D01*
X76731904Y-103812438D02*
X76779523Y-103860057D01*
X76779523Y-103860057D02*
X76827142Y-103955295D01*
X76827142Y-103955295D02*
X76827142Y-104098152D01*
X76827142Y-104098152D02*
X76779523Y-104193390D01*
X76779523Y-104193390D02*
X76731904Y-104241009D01*
X76731904Y-104241009D02*
X76636666Y-104288628D01*
X76636666Y-104288628D02*
X76255714Y-104288628D01*
X77779523Y-104764819D02*
X77208095Y-104764819D01*
X77493809Y-104764819D02*
X77493809Y-103764819D01*
X77493809Y-103764819D02*
X77398571Y-103907676D01*
X77398571Y-103907676D02*
X77303333Y-104002914D01*
X77303333Y-104002914D02*
X77208095Y-104050533D01*
X78398571Y-103764819D02*
X78493809Y-103764819D01*
X78493809Y-103764819D02*
X78589047Y-103812438D01*
X78589047Y-103812438D02*
X78636666Y-103860057D01*
X78636666Y-103860057D02*
X78684285Y-103955295D01*
X78684285Y-103955295D02*
X78731904Y-104145771D01*
X78731904Y-104145771D02*
X78731904Y-104383866D01*
X78731904Y-104383866D02*
X78684285Y-104574342D01*
X78684285Y-104574342D02*
X78636666Y-104669580D01*
X78636666Y-104669580D02*
X78589047Y-104717200D01*
X78589047Y-104717200D02*
X78493809Y-104764819D01*
X78493809Y-104764819D02*
X78398571Y-104764819D01*
X78398571Y-104764819D02*
X78303333Y-104717200D01*
X78303333Y-104717200D02*
X78255714Y-104669580D01*
X78255714Y-104669580D02*
X78208095Y-104574342D01*
X78208095Y-104574342D02*
X78160476Y-104383866D01*
X78160476Y-104383866D02*
X78160476Y-104145771D01*
X78160476Y-104145771D02*
X78208095Y-103955295D01*
X78208095Y-103955295D02*
X78255714Y-103860057D01*
X78255714Y-103860057D02*
X78303333Y-103812438D01*
X78303333Y-103812438D02*
X78398571Y-103764819D01*
X76827142Y-150144819D02*
X76493809Y-149668628D01*
X76255714Y-150144819D02*
X76255714Y-149144819D01*
X76255714Y-149144819D02*
X76636666Y-149144819D01*
X76636666Y-149144819D02*
X76731904Y-149192438D01*
X76731904Y-149192438D02*
X76779523Y-149240057D01*
X76779523Y-149240057D02*
X76827142Y-149335295D01*
X76827142Y-149335295D02*
X76827142Y-149478152D01*
X76827142Y-149478152D02*
X76779523Y-149573390D01*
X76779523Y-149573390D02*
X76731904Y-149621009D01*
X76731904Y-149621009D02*
X76636666Y-149668628D01*
X76636666Y-149668628D02*
X76255714Y-149668628D01*
X77779523Y-150144819D02*
X77208095Y-150144819D01*
X77493809Y-150144819D02*
X77493809Y-149144819D01*
X77493809Y-149144819D02*
X77398571Y-149287676D01*
X77398571Y-149287676D02*
X77303333Y-149382914D01*
X77303333Y-149382914D02*
X77208095Y-149430533D01*
X78684285Y-149144819D02*
X78208095Y-149144819D01*
X78208095Y-149144819D02*
X78160476Y-149621009D01*
X78160476Y-149621009D02*
X78208095Y-149573390D01*
X78208095Y-149573390D02*
X78303333Y-149525771D01*
X78303333Y-149525771D02*
X78541428Y-149525771D01*
X78541428Y-149525771D02*
X78636666Y-149573390D01*
X78636666Y-149573390D02*
X78684285Y-149621009D01*
X78684285Y-149621009D02*
X78731904Y-149716247D01*
X78731904Y-149716247D02*
X78731904Y-149954342D01*
X78731904Y-149954342D02*
X78684285Y-150049580D01*
X78684285Y-150049580D02*
X78636666Y-150097200D01*
X78636666Y-150097200D02*
X78541428Y-150144819D01*
X78541428Y-150144819D02*
X78303333Y-150144819D01*
X78303333Y-150144819D02*
X78208095Y-150097200D01*
X78208095Y-150097200D02*
X78160476Y-150049580D01*
X109860057Y-147415238D02*
X109812438Y-147510476D01*
X109812438Y-147510476D02*
X109717200Y-147605714D01*
X109717200Y-147605714D02*
X109574342Y-147748571D01*
X109574342Y-147748571D02*
X109526723Y-147843809D01*
X109526723Y-147843809D02*
X109526723Y-147939047D01*
X109764819Y-147891428D02*
X109717200Y-147986666D01*
X109717200Y-147986666D02*
X109621961Y-148081904D01*
X109621961Y-148081904D02*
X109431485Y-148129523D01*
X109431485Y-148129523D02*
X109098152Y-148129523D01*
X109098152Y-148129523D02*
X108907676Y-148081904D01*
X108907676Y-148081904D02*
X108812438Y-147986666D01*
X108812438Y-147986666D02*
X108764819Y-147891428D01*
X108764819Y-147891428D02*
X108764819Y-147700952D01*
X108764819Y-147700952D02*
X108812438Y-147605714D01*
X108812438Y-147605714D02*
X108907676Y-147510476D01*
X108907676Y-147510476D02*
X109098152Y-147462857D01*
X109098152Y-147462857D02*
X109431485Y-147462857D01*
X109431485Y-147462857D02*
X109621961Y-147510476D01*
X109621961Y-147510476D02*
X109717200Y-147605714D01*
X109717200Y-147605714D02*
X109764819Y-147700952D01*
X109764819Y-147700952D02*
X109764819Y-147891428D01*
X109193390Y-146891428D02*
X109145771Y-146986666D01*
X109145771Y-146986666D02*
X109098152Y-147034285D01*
X109098152Y-147034285D02*
X109002914Y-147081904D01*
X109002914Y-147081904D02*
X108955295Y-147081904D01*
X108955295Y-147081904D02*
X108860057Y-147034285D01*
X108860057Y-147034285D02*
X108812438Y-146986666D01*
X108812438Y-146986666D02*
X108764819Y-146891428D01*
X108764819Y-146891428D02*
X108764819Y-146700952D01*
X108764819Y-146700952D02*
X108812438Y-146605714D01*
X108812438Y-146605714D02*
X108860057Y-146558095D01*
X108860057Y-146558095D02*
X108955295Y-146510476D01*
X108955295Y-146510476D02*
X109002914Y-146510476D01*
X109002914Y-146510476D02*
X109098152Y-146558095D01*
X109098152Y-146558095D02*
X109145771Y-146605714D01*
X109145771Y-146605714D02*
X109193390Y-146700952D01*
X109193390Y-146700952D02*
X109193390Y-146891428D01*
X109193390Y-146891428D02*
X109241009Y-146986666D01*
X109241009Y-146986666D02*
X109288628Y-147034285D01*
X109288628Y-147034285D02*
X109383866Y-147081904D01*
X109383866Y-147081904D02*
X109574342Y-147081904D01*
X109574342Y-147081904D02*
X109669580Y-147034285D01*
X109669580Y-147034285D02*
X109717200Y-146986666D01*
X109717200Y-146986666D02*
X109764819Y-146891428D01*
X109764819Y-146891428D02*
X109764819Y-146700952D01*
X109764819Y-146700952D02*
X109717200Y-146605714D01*
X109717200Y-146605714D02*
X109669580Y-146558095D01*
X109669580Y-146558095D02*
X109574342Y-146510476D01*
X109574342Y-146510476D02*
X109383866Y-146510476D01*
X109383866Y-146510476D02*
X109288628Y-146558095D01*
X109288628Y-146558095D02*
X109241009Y-146605714D01*
X109241009Y-146605714D02*
X109193390Y-146700952D01*
X121374819Y-134953333D02*
X122089104Y-134953333D01*
X122089104Y-134953333D02*
X122231961Y-135000952D01*
X122231961Y-135000952D02*
X122327200Y-135096190D01*
X122327200Y-135096190D02*
X122374819Y-135239047D01*
X122374819Y-135239047D02*
X122374819Y-135334285D01*
X121803390Y-134334285D02*
X121755771Y-134429523D01*
X121755771Y-134429523D02*
X121708152Y-134477142D01*
X121708152Y-134477142D02*
X121612914Y-134524761D01*
X121612914Y-134524761D02*
X121565295Y-134524761D01*
X121565295Y-134524761D02*
X121470057Y-134477142D01*
X121470057Y-134477142D02*
X121422438Y-134429523D01*
X121422438Y-134429523D02*
X121374819Y-134334285D01*
X121374819Y-134334285D02*
X121374819Y-134143809D01*
X121374819Y-134143809D02*
X121422438Y-134048571D01*
X121422438Y-134048571D02*
X121470057Y-134000952D01*
X121470057Y-134000952D02*
X121565295Y-133953333D01*
X121565295Y-133953333D02*
X121612914Y-133953333D01*
X121612914Y-133953333D02*
X121708152Y-134000952D01*
X121708152Y-134000952D02*
X121755771Y-134048571D01*
X121755771Y-134048571D02*
X121803390Y-134143809D01*
X121803390Y-134143809D02*
X121803390Y-134334285D01*
X121803390Y-134334285D02*
X121851009Y-134429523D01*
X121851009Y-134429523D02*
X121898628Y-134477142D01*
X121898628Y-134477142D02*
X121993866Y-134524761D01*
X121993866Y-134524761D02*
X122184342Y-134524761D01*
X122184342Y-134524761D02*
X122279580Y-134477142D01*
X122279580Y-134477142D02*
X122327200Y-134429523D01*
X122327200Y-134429523D02*
X122374819Y-134334285D01*
X122374819Y-134334285D02*
X122374819Y-134143809D01*
X122374819Y-134143809D02*
X122327200Y-134048571D01*
X122327200Y-134048571D02*
X122279580Y-134000952D01*
X122279580Y-134000952D02*
X122184342Y-133953333D01*
X122184342Y-133953333D02*
X121993866Y-133953333D01*
X121993866Y-133953333D02*
X121898628Y-134000952D01*
X121898628Y-134000952D02*
X121851009Y-134048571D01*
X121851009Y-134048571D02*
X121803390Y-134143809D01*
X109860057Y-104235238D02*
X109812438Y-104330476D01*
X109812438Y-104330476D02*
X109717200Y-104425714D01*
X109717200Y-104425714D02*
X109574342Y-104568571D01*
X109574342Y-104568571D02*
X109526723Y-104663809D01*
X109526723Y-104663809D02*
X109526723Y-104759047D01*
X109764819Y-104711428D02*
X109717200Y-104806666D01*
X109717200Y-104806666D02*
X109621961Y-104901904D01*
X109621961Y-104901904D02*
X109431485Y-104949523D01*
X109431485Y-104949523D02*
X109098152Y-104949523D01*
X109098152Y-104949523D02*
X108907676Y-104901904D01*
X108907676Y-104901904D02*
X108812438Y-104806666D01*
X108812438Y-104806666D02*
X108764819Y-104711428D01*
X108764819Y-104711428D02*
X108764819Y-104520952D01*
X108764819Y-104520952D02*
X108812438Y-104425714D01*
X108812438Y-104425714D02*
X108907676Y-104330476D01*
X108907676Y-104330476D02*
X109098152Y-104282857D01*
X109098152Y-104282857D02*
X109431485Y-104282857D01*
X109431485Y-104282857D02*
X109621961Y-104330476D01*
X109621961Y-104330476D02*
X109717200Y-104425714D01*
X109717200Y-104425714D02*
X109764819Y-104520952D01*
X109764819Y-104520952D02*
X109764819Y-104711428D01*
X108764819Y-103378095D02*
X108764819Y-103854285D01*
X108764819Y-103854285D02*
X109241009Y-103901904D01*
X109241009Y-103901904D02*
X109193390Y-103854285D01*
X109193390Y-103854285D02*
X109145771Y-103759047D01*
X109145771Y-103759047D02*
X109145771Y-103520952D01*
X109145771Y-103520952D02*
X109193390Y-103425714D01*
X109193390Y-103425714D02*
X109241009Y-103378095D01*
X109241009Y-103378095D02*
X109336247Y-103330476D01*
X109336247Y-103330476D02*
X109574342Y-103330476D01*
X109574342Y-103330476D02*
X109669580Y-103378095D01*
X109669580Y-103378095D02*
X109717200Y-103425714D01*
X109717200Y-103425714D02*
X109764819Y-103520952D01*
X109764819Y-103520952D02*
X109764819Y-103759047D01*
X109764819Y-103759047D02*
X109717200Y-103854285D01*
X109717200Y-103854285D02*
X109669580Y-103901904D01*
X43690476Y-49954819D02*
X43690476Y-50669104D01*
X43690476Y-50669104D02*
X43642857Y-50811961D01*
X43642857Y-50811961D02*
X43547619Y-50907200D01*
X43547619Y-50907200D02*
X43404762Y-50954819D01*
X43404762Y-50954819D02*
X43309524Y-50954819D01*
X44690476Y-50954819D02*
X44119048Y-50954819D01*
X44404762Y-50954819D02*
X44404762Y-49954819D01*
X44404762Y-49954819D02*
X44309524Y-50097676D01*
X44309524Y-50097676D02*
X44214286Y-50192914D01*
X44214286Y-50192914D02*
X44119048Y-50240533D01*
X45642857Y-50954819D02*
X45071429Y-50954819D01*
X45357143Y-50954819D02*
X45357143Y-49954819D01*
X45357143Y-49954819D02*
X45261905Y-50097676D01*
X45261905Y-50097676D02*
X45166667Y-50192914D01*
X45166667Y-50192914D02*
X45071429Y-50240533D01*
X109860057Y-43275238D02*
X109812438Y-43370476D01*
X109812438Y-43370476D02*
X109717200Y-43465714D01*
X109717200Y-43465714D02*
X109574342Y-43608571D01*
X109574342Y-43608571D02*
X109526723Y-43703809D01*
X109526723Y-43703809D02*
X109526723Y-43799047D01*
X109764819Y-43751428D02*
X109717200Y-43846666D01*
X109717200Y-43846666D02*
X109621961Y-43941904D01*
X109621961Y-43941904D02*
X109431485Y-43989523D01*
X109431485Y-43989523D02*
X109098152Y-43989523D01*
X109098152Y-43989523D02*
X108907676Y-43941904D01*
X108907676Y-43941904D02*
X108812438Y-43846666D01*
X108812438Y-43846666D02*
X108764819Y-43751428D01*
X108764819Y-43751428D02*
X108764819Y-43560952D01*
X108764819Y-43560952D02*
X108812438Y-43465714D01*
X108812438Y-43465714D02*
X108907676Y-43370476D01*
X108907676Y-43370476D02*
X109098152Y-43322857D01*
X109098152Y-43322857D02*
X109431485Y-43322857D01*
X109431485Y-43322857D02*
X109621961Y-43370476D01*
X109621961Y-43370476D02*
X109717200Y-43465714D01*
X109717200Y-43465714D02*
X109764819Y-43560952D01*
X109764819Y-43560952D02*
X109764819Y-43751428D01*
X109764819Y-42370476D02*
X109764819Y-42941904D01*
X109764819Y-42656190D02*
X108764819Y-42656190D01*
X108764819Y-42656190D02*
X108907676Y-42751428D01*
X108907676Y-42751428D02*
X109002914Y-42846666D01*
X109002914Y-42846666D02*
X109050533Y-42941904D01*
X77303333Y-89804819D02*
X76970000Y-89328628D01*
X76731905Y-89804819D02*
X76731905Y-88804819D01*
X76731905Y-88804819D02*
X77112857Y-88804819D01*
X77112857Y-88804819D02*
X77208095Y-88852438D01*
X77208095Y-88852438D02*
X77255714Y-88900057D01*
X77255714Y-88900057D02*
X77303333Y-88995295D01*
X77303333Y-88995295D02*
X77303333Y-89138152D01*
X77303333Y-89138152D02*
X77255714Y-89233390D01*
X77255714Y-89233390D02*
X77208095Y-89281009D01*
X77208095Y-89281009D02*
X77112857Y-89328628D01*
X77112857Y-89328628D02*
X76731905Y-89328628D01*
X77874762Y-89233390D02*
X77779524Y-89185771D01*
X77779524Y-89185771D02*
X77731905Y-89138152D01*
X77731905Y-89138152D02*
X77684286Y-89042914D01*
X77684286Y-89042914D02*
X77684286Y-88995295D01*
X77684286Y-88995295D02*
X77731905Y-88900057D01*
X77731905Y-88900057D02*
X77779524Y-88852438D01*
X77779524Y-88852438D02*
X77874762Y-88804819D01*
X77874762Y-88804819D02*
X78065238Y-88804819D01*
X78065238Y-88804819D02*
X78160476Y-88852438D01*
X78160476Y-88852438D02*
X78208095Y-88900057D01*
X78208095Y-88900057D02*
X78255714Y-88995295D01*
X78255714Y-88995295D02*
X78255714Y-89042914D01*
X78255714Y-89042914D02*
X78208095Y-89138152D01*
X78208095Y-89138152D02*
X78160476Y-89185771D01*
X78160476Y-89185771D02*
X78065238Y-89233390D01*
X78065238Y-89233390D02*
X77874762Y-89233390D01*
X77874762Y-89233390D02*
X77779524Y-89281009D01*
X77779524Y-89281009D02*
X77731905Y-89328628D01*
X77731905Y-89328628D02*
X77684286Y-89423866D01*
X77684286Y-89423866D02*
X77684286Y-89614342D01*
X77684286Y-89614342D02*
X77731905Y-89709580D01*
X77731905Y-89709580D02*
X77779524Y-89757200D01*
X77779524Y-89757200D02*
X77874762Y-89804819D01*
X77874762Y-89804819D02*
X78065238Y-89804819D01*
X78065238Y-89804819D02*
X78160476Y-89757200D01*
X78160476Y-89757200D02*
X78208095Y-89709580D01*
X78208095Y-89709580D02*
X78255714Y-89614342D01*
X78255714Y-89614342D02*
X78255714Y-89423866D01*
X78255714Y-89423866D02*
X78208095Y-89328628D01*
X78208095Y-89328628D02*
X78160476Y-89281009D01*
X78160476Y-89281009D02*
X78065238Y-89233390D01*
X121374819Y-119433333D02*
X122089104Y-119433333D01*
X122089104Y-119433333D02*
X122231961Y-119480952D01*
X122231961Y-119480952D02*
X122327200Y-119576190D01*
X122327200Y-119576190D02*
X122374819Y-119719047D01*
X122374819Y-119719047D02*
X122374819Y-119814285D01*
X121374819Y-119052380D02*
X121374819Y-118385714D01*
X121374819Y-118385714D02*
X122374819Y-118814285D01*
X33834819Y-158293333D02*
X34549104Y-158293333D01*
X34549104Y-158293333D02*
X34691961Y-158340952D01*
X34691961Y-158340952D02*
X34787200Y-158436190D01*
X34787200Y-158436190D02*
X34834819Y-158579047D01*
X34834819Y-158579047D02*
X34834819Y-158674285D01*
X34834819Y-157293333D02*
X34834819Y-157864761D01*
X34834819Y-157579047D02*
X33834819Y-157579047D01*
X33834819Y-157579047D02*
X33977676Y-157674285D01*
X33977676Y-157674285D02*
X34072914Y-157769523D01*
X34072914Y-157769523D02*
X34120533Y-157864761D01*
X76827142Y-119724819D02*
X76493809Y-119248628D01*
X76255714Y-119724819D02*
X76255714Y-118724819D01*
X76255714Y-118724819D02*
X76636666Y-118724819D01*
X76636666Y-118724819D02*
X76731904Y-118772438D01*
X76731904Y-118772438D02*
X76779523Y-118820057D01*
X76779523Y-118820057D02*
X76827142Y-118915295D01*
X76827142Y-118915295D02*
X76827142Y-119058152D01*
X76827142Y-119058152D02*
X76779523Y-119153390D01*
X76779523Y-119153390D02*
X76731904Y-119201009D01*
X76731904Y-119201009D02*
X76636666Y-119248628D01*
X76636666Y-119248628D02*
X76255714Y-119248628D01*
X77779523Y-119724819D02*
X77208095Y-119724819D01*
X77493809Y-119724819D02*
X77493809Y-118724819D01*
X77493809Y-118724819D02*
X77398571Y-118867676D01*
X77398571Y-118867676D02*
X77303333Y-118962914D01*
X77303333Y-118962914D02*
X77208095Y-119010533D01*
X78160476Y-118820057D02*
X78208095Y-118772438D01*
X78208095Y-118772438D02*
X78303333Y-118724819D01*
X78303333Y-118724819D02*
X78541428Y-118724819D01*
X78541428Y-118724819D02*
X78636666Y-118772438D01*
X78636666Y-118772438D02*
X78684285Y-118820057D01*
X78684285Y-118820057D02*
X78731904Y-118915295D01*
X78731904Y-118915295D02*
X78731904Y-119010533D01*
X78731904Y-119010533D02*
X78684285Y-119153390D01*
X78684285Y-119153390D02*
X78112857Y-119724819D01*
X78112857Y-119724819D02*
X78731904Y-119724819D01*
X121374819Y-58753333D02*
X122089104Y-58753333D01*
X122089104Y-58753333D02*
X122231961Y-58800952D01*
X122231961Y-58800952D02*
X122327200Y-58896190D01*
X122327200Y-58896190D02*
X122374819Y-59039047D01*
X122374819Y-59039047D02*
X122374819Y-59134285D01*
X121374819Y-58372380D02*
X121374819Y-57753333D01*
X121374819Y-57753333D02*
X121755771Y-58086666D01*
X121755771Y-58086666D02*
X121755771Y-57943809D01*
X121755771Y-57943809D02*
X121803390Y-57848571D01*
X121803390Y-57848571D02*
X121851009Y-57800952D01*
X121851009Y-57800952D02*
X121946247Y-57753333D01*
X121946247Y-57753333D02*
X122184342Y-57753333D01*
X122184342Y-57753333D02*
X122279580Y-57800952D01*
X122279580Y-57800952D02*
X122327200Y-57848571D01*
X122327200Y-57848571D02*
X122374819Y-57943809D01*
X122374819Y-57943809D02*
X122374819Y-58229523D01*
X122374819Y-58229523D02*
X122327200Y-58324761D01*
X122327200Y-58324761D02*
X122279580Y-58372380D01*
X76827142Y-134904819D02*
X76493809Y-134428628D01*
X76255714Y-134904819D02*
X76255714Y-133904819D01*
X76255714Y-133904819D02*
X76636666Y-133904819D01*
X76636666Y-133904819D02*
X76731904Y-133952438D01*
X76731904Y-133952438D02*
X76779523Y-134000057D01*
X76779523Y-134000057D02*
X76827142Y-134095295D01*
X76827142Y-134095295D02*
X76827142Y-134238152D01*
X76827142Y-134238152D02*
X76779523Y-134333390D01*
X76779523Y-134333390D02*
X76731904Y-134381009D01*
X76731904Y-134381009D02*
X76636666Y-134428628D01*
X76636666Y-134428628D02*
X76255714Y-134428628D01*
X77779523Y-134904819D02*
X77208095Y-134904819D01*
X77493809Y-134904819D02*
X77493809Y-133904819D01*
X77493809Y-133904819D02*
X77398571Y-134047676D01*
X77398571Y-134047676D02*
X77303333Y-134142914D01*
X77303333Y-134142914D02*
X77208095Y-134190533D01*
X78112857Y-133904819D02*
X78731904Y-133904819D01*
X78731904Y-133904819D02*
X78398571Y-134285771D01*
X78398571Y-134285771D02*
X78541428Y-134285771D01*
X78541428Y-134285771D02*
X78636666Y-134333390D01*
X78636666Y-134333390D02*
X78684285Y-134381009D01*
X78684285Y-134381009D02*
X78731904Y-134476247D01*
X78731904Y-134476247D02*
X78731904Y-134714342D01*
X78731904Y-134714342D02*
X78684285Y-134809580D01*
X78684285Y-134809580D02*
X78636666Y-134857200D01*
X78636666Y-134857200D02*
X78541428Y-134904819D01*
X78541428Y-134904819D02*
X78255714Y-134904819D01*
X78255714Y-134904819D02*
X78160476Y-134857200D01*
X78160476Y-134857200D02*
X78112857Y-134809580D01*
X76827142Y-119384819D02*
X76493809Y-118908628D01*
X76255714Y-119384819D02*
X76255714Y-118384819D01*
X76255714Y-118384819D02*
X76636666Y-118384819D01*
X76636666Y-118384819D02*
X76731904Y-118432438D01*
X76731904Y-118432438D02*
X76779523Y-118480057D01*
X76779523Y-118480057D02*
X76827142Y-118575295D01*
X76827142Y-118575295D02*
X76827142Y-118718152D01*
X76827142Y-118718152D02*
X76779523Y-118813390D01*
X76779523Y-118813390D02*
X76731904Y-118861009D01*
X76731904Y-118861009D02*
X76636666Y-118908628D01*
X76636666Y-118908628D02*
X76255714Y-118908628D01*
X77779523Y-119384819D02*
X77208095Y-119384819D01*
X77493809Y-119384819D02*
X77493809Y-118384819D01*
X77493809Y-118384819D02*
X77398571Y-118527676D01*
X77398571Y-118527676D02*
X77303333Y-118622914D01*
X77303333Y-118622914D02*
X77208095Y-118670533D01*
X78731904Y-119384819D02*
X78160476Y-119384819D01*
X78446190Y-119384819D02*
X78446190Y-118384819D01*
X78446190Y-118384819D02*
X78350952Y-118527676D01*
X78350952Y-118527676D02*
X78255714Y-118622914D01*
X78255714Y-118622914D02*
X78160476Y-118670533D01*
X109860057Y-89275238D02*
X109812438Y-89370476D01*
X109812438Y-89370476D02*
X109717200Y-89465714D01*
X109717200Y-89465714D02*
X109574342Y-89608571D01*
X109574342Y-89608571D02*
X109526723Y-89703809D01*
X109526723Y-89703809D02*
X109526723Y-89799047D01*
X109764819Y-89751428D02*
X109717200Y-89846666D01*
X109717200Y-89846666D02*
X109621961Y-89941904D01*
X109621961Y-89941904D02*
X109431485Y-89989523D01*
X109431485Y-89989523D02*
X109098152Y-89989523D01*
X109098152Y-89989523D02*
X108907676Y-89941904D01*
X108907676Y-89941904D02*
X108812438Y-89846666D01*
X108812438Y-89846666D02*
X108764819Y-89751428D01*
X108764819Y-89751428D02*
X108764819Y-89560952D01*
X108764819Y-89560952D02*
X108812438Y-89465714D01*
X108812438Y-89465714D02*
X108907676Y-89370476D01*
X108907676Y-89370476D02*
X109098152Y-89322857D01*
X109098152Y-89322857D02*
X109431485Y-89322857D01*
X109431485Y-89322857D02*
X109621961Y-89370476D01*
X109621961Y-89370476D02*
X109717200Y-89465714D01*
X109717200Y-89465714D02*
X109764819Y-89560952D01*
X109764819Y-89560952D02*
X109764819Y-89751428D01*
X109098152Y-88465714D02*
X109764819Y-88465714D01*
X108717200Y-88703809D02*
X109431485Y-88941904D01*
X109431485Y-88941904D02*
X109431485Y-88322857D01*
X121374819Y-43513333D02*
X122089104Y-43513333D01*
X122089104Y-43513333D02*
X122231961Y-43560952D01*
X122231961Y-43560952D02*
X122327200Y-43656190D01*
X122327200Y-43656190D02*
X122374819Y-43799047D01*
X122374819Y-43799047D02*
X122374819Y-43894285D01*
X121470057Y-43084761D02*
X121422438Y-43037142D01*
X121422438Y-43037142D02*
X121374819Y-42941904D01*
X121374819Y-42941904D02*
X121374819Y-42703809D01*
X121374819Y-42703809D02*
X121422438Y-42608571D01*
X121422438Y-42608571D02*
X121470057Y-42560952D01*
X121470057Y-42560952D02*
X121565295Y-42513333D01*
X121565295Y-42513333D02*
X121660533Y-42513333D01*
X121660533Y-42513333D02*
X121803390Y-42560952D01*
X121803390Y-42560952D02*
X122374819Y-43132380D01*
X122374819Y-43132380D02*
X122374819Y-42513333D01*
X109860057Y-119195238D02*
X109812438Y-119290476D01*
X109812438Y-119290476D02*
X109717200Y-119385714D01*
X109717200Y-119385714D02*
X109574342Y-119528571D01*
X109574342Y-119528571D02*
X109526723Y-119623809D01*
X109526723Y-119623809D02*
X109526723Y-119719047D01*
X109764819Y-119671428D02*
X109717200Y-119766666D01*
X109717200Y-119766666D02*
X109621961Y-119861904D01*
X109621961Y-119861904D02*
X109431485Y-119909523D01*
X109431485Y-119909523D02*
X109098152Y-119909523D01*
X109098152Y-119909523D02*
X108907676Y-119861904D01*
X108907676Y-119861904D02*
X108812438Y-119766666D01*
X108812438Y-119766666D02*
X108764819Y-119671428D01*
X108764819Y-119671428D02*
X108764819Y-119480952D01*
X108764819Y-119480952D02*
X108812438Y-119385714D01*
X108812438Y-119385714D02*
X108907676Y-119290476D01*
X108907676Y-119290476D02*
X109098152Y-119242857D01*
X109098152Y-119242857D02*
X109431485Y-119242857D01*
X109431485Y-119242857D02*
X109621961Y-119290476D01*
X109621961Y-119290476D02*
X109717200Y-119385714D01*
X109717200Y-119385714D02*
X109764819Y-119480952D01*
X109764819Y-119480952D02*
X109764819Y-119671428D01*
X108764819Y-118385714D02*
X108764819Y-118576190D01*
X108764819Y-118576190D02*
X108812438Y-118671428D01*
X108812438Y-118671428D02*
X108860057Y-118719047D01*
X108860057Y-118719047D02*
X109002914Y-118814285D01*
X109002914Y-118814285D02*
X109193390Y-118861904D01*
X109193390Y-118861904D02*
X109574342Y-118861904D01*
X109574342Y-118861904D02*
X109669580Y-118814285D01*
X109669580Y-118814285D02*
X109717200Y-118766666D01*
X109717200Y-118766666D02*
X109764819Y-118671428D01*
X109764819Y-118671428D02*
X109764819Y-118480952D01*
X109764819Y-118480952D02*
X109717200Y-118385714D01*
X109717200Y-118385714D02*
X109669580Y-118338095D01*
X109669580Y-118338095D02*
X109574342Y-118290476D01*
X109574342Y-118290476D02*
X109336247Y-118290476D01*
X109336247Y-118290476D02*
X109241009Y-118338095D01*
X109241009Y-118338095D02*
X109193390Y-118385714D01*
X109193390Y-118385714D02*
X109145771Y-118480952D01*
X109145771Y-118480952D02*
X109145771Y-118671428D01*
X109145771Y-118671428D02*
X109193390Y-118766666D01*
X109193390Y-118766666D02*
X109241009Y-118814285D01*
X109241009Y-118814285D02*
X109336247Y-118861904D01*
X77303333Y-74564819D02*
X76970000Y-74088628D01*
X76731905Y-74564819D02*
X76731905Y-73564819D01*
X76731905Y-73564819D02*
X77112857Y-73564819D01*
X77112857Y-73564819D02*
X77208095Y-73612438D01*
X77208095Y-73612438D02*
X77255714Y-73660057D01*
X77255714Y-73660057D02*
X77303333Y-73755295D01*
X77303333Y-73755295D02*
X77303333Y-73898152D01*
X77303333Y-73898152D02*
X77255714Y-73993390D01*
X77255714Y-73993390D02*
X77208095Y-74041009D01*
X77208095Y-74041009D02*
X77112857Y-74088628D01*
X77112857Y-74088628D02*
X76731905Y-74088628D01*
X78160476Y-73564819D02*
X77970000Y-73564819D01*
X77970000Y-73564819D02*
X77874762Y-73612438D01*
X77874762Y-73612438D02*
X77827143Y-73660057D01*
X77827143Y-73660057D02*
X77731905Y-73802914D01*
X77731905Y-73802914D02*
X77684286Y-73993390D01*
X77684286Y-73993390D02*
X77684286Y-74374342D01*
X77684286Y-74374342D02*
X77731905Y-74469580D01*
X77731905Y-74469580D02*
X77779524Y-74517200D01*
X77779524Y-74517200D02*
X77874762Y-74564819D01*
X77874762Y-74564819D02*
X78065238Y-74564819D01*
X78065238Y-74564819D02*
X78160476Y-74517200D01*
X78160476Y-74517200D02*
X78208095Y-74469580D01*
X78208095Y-74469580D02*
X78255714Y-74374342D01*
X78255714Y-74374342D02*
X78255714Y-74136247D01*
X78255714Y-74136247D02*
X78208095Y-74041009D01*
X78208095Y-74041009D02*
X78160476Y-73993390D01*
X78160476Y-73993390D02*
X78065238Y-73945771D01*
X78065238Y-73945771D02*
X77874762Y-73945771D01*
X77874762Y-73945771D02*
X77779524Y-73993390D01*
X77779524Y-73993390D02*
X77731905Y-74041009D01*
X77731905Y-74041009D02*
X77684286Y-74136247D01*
X54293333Y-121392231D02*
X54245714Y-121439851D01*
X54245714Y-121439851D02*
X54102857Y-121487470D01*
X54102857Y-121487470D02*
X54007619Y-121487470D01*
X54007619Y-121487470D02*
X53864762Y-121439851D01*
X53864762Y-121439851D02*
X53769524Y-121344612D01*
X53769524Y-121344612D02*
X53721905Y-121249374D01*
X53721905Y-121249374D02*
X53674286Y-121058898D01*
X53674286Y-121058898D02*
X53674286Y-120916041D01*
X53674286Y-120916041D02*
X53721905Y-120725565D01*
X53721905Y-120725565D02*
X53769524Y-120630327D01*
X53769524Y-120630327D02*
X53864762Y-120535089D01*
X53864762Y-120535089D02*
X54007619Y-120487470D01*
X54007619Y-120487470D02*
X54102857Y-120487470D01*
X54102857Y-120487470D02*
X54245714Y-120535089D01*
X54245714Y-120535089D02*
X54293333Y-120582708D01*
X54674286Y-120582708D02*
X54721905Y-120535089D01*
X54721905Y-120535089D02*
X54817143Y-120487470D01*
X54817143Y-120487470D02*
X55055238Y-120487470D01*
X55055238Y-120487470D02*
X55150476Y-120535089D01*
X55150476Y-120535089D02*
X55198095Y-120582708D01*
X55198095Y-120582708D02*
X55245714Y-120677946D01*
X55245714Y-120677946D02*
X55245714Y-120773184D01*
X55245714Y-120773184D02*
X55198095Y-120916041D01*
X55198095Y-120916041D02*
X54626667Y-121487470D01*
X54626667Y-121487470D02*
X55245714Y-121487470D01*
D11*
X50401904Y-87002580D02*
X50401904Y-86193057D01*
X50401904Y-86193057D02*
X50354285Y-86097819D01*
X50354285Y-86097819D02*
X50306666Y-86050200D01*
X50306666Y-86050200D02*
X50211428Y-86002580D01*
X50211428Y-86002580D02*
X50020952Y-86002580D01*
X50020952Y-86002580D02*
X49925714Y-86050200D01*
X49925714Y-86050200D02*
X49878095Y-86097819D01*
X49878095Y-86097819D02*
X49830476Y-86193057D01*
X49830476Y-86193057D02*
X49830476Y-87002580D01*
X49401904Y-86907342D02*
X49354285Y-86954961D01*
X49354285Y-86954961D02*
X49259047Y-87002580D01*
X49259047Y-87002580D02*
X49020952Y-87002580D01*
X49020952Y-87002580D02*
X48925714Y-86954961D01*
X48925714Y-86954961D02*
X48878095Y-86907342D01*
X48878095Y-86907342D02*
X48830476Y-86812104D01*
X48830476Y-86812104D02*
X48830476Y-86716866D01*
X48830476Y-86716866D02*
X48878095Y-86574009D01*
X48878095Y-86574009D02*
X49449523Y-86002580D01*
X49449523Y-86002580D02*
X48830476Y-86002580D01*
D10*
X41608684Y-70383966D02*
X41175350Y-70383966D01*
X41175350Y-70383966D02*
X41408684Y-70117300D01*
X41408684Y-70117300D02*
X41308684Y-70117300D01*
X41308684Y-70117300D02*
X41242017Y-70083966D01*
X41242017Y-70083966D02*
X41208684Y-70050633D01*
X41208684Y-70050633D02*
X41175350Y-69983966D01*
X41175350Y-69983966D02*
X41175350Y-69817300D01*
X41175350Y-69817300D02*
X41208684Y-69750633D01*
X41208684Y-69750633D02*
X41242017Y-69717300D01*
X41242017Y-69717300D02*
X41308684Y-69683966D01*
X41308684Y-69683966D02*
X41508684Y-69683966D01*
X41508684Y-69683966D02*
X41575350Y-69717300D01*
X41575350Y-69717300D02*
X41608684Y-69750633D01*
X40875350Y-69750633D02*
X40842017Y-69717300D01*
X40842017Y-69717300D02*
X40875350Y-69683966D01*
X40875350Y-69683966D02*
X40908683Y-69717300D01*
X40908683Y-69717300D02*
X40875350Y-69750633D01*
X40875350Y-69750633D02*
X40875350Y-69683966D01*
X40608684Y-70383966D02*
X40175350Y-70383966D01*
X40175350Y-70383966D02*
X40408684Y-70117300D01*
X40408684Y-70117300D02*
X40308684Y-70117300D01*
X40308684Y-70117300D02*
X40242017Y-70083966D01*
X40242017Y-70083966D02*
X40208684Y-70050633D01*
X40208684Y-70050633D02*
X40175350Y-69983966D01*
X40175350Y-69983966D02*
X40175350Y-69817300D01*
X40175350Y-69817300D02*
X40208684Y-69750633D01*
X40208684Y-69750633D02*
X40242017Y-69717300D01*
X40242017Y-69717300D02*
X40308684Y-69683966D01*
X40308684Y-69683966D02*
X40508684Y-69683966D01*
X40508684Y-69683966D02*
X40575350Y-69717300D01*
X40575350Y-69717300D02*
X40608684Y-69750633D01*
X39942017Y-70150633D02*
X39775350Y-69683966D01*
X39775350Y-69683966D02*
X39608683Y-70150633D01*
X59564649Y-70383966D02*
X59331316Y-69683966D01*
X59331316Y-69683966D02*
X59097982Y-70383966D01*
X58864649Y-69683966D02*
X58864649Y-70383966D01*
X58531316Y-69683966D02*
X58531316Y-70383966D01*
X58531316Y-70383966D02*
X58131316Y-69683966D01*
X58131316Y-69683966D02*
X58131316Y-70383966D01*
X59464649Y-97623966D02*
X59464649Y-98323966D01*
X59464649Y-98323966D02*
X59297982Y-98323966D01*
X59297982Y-98323966D02*
X59197982Y-98290633D01*
X59197982Y-98290633D02*
X59131316Y-98223966D01*
X59131316Y-98223966D02*
X59097982Y-98157300D01*
X59097982Y-98157300D02*
X59064649Y-98023966D01*
X59064649Y-98023966D02*
X59064649Y-97923966D01*
X59064649Y-97923966D02*
X59097982Y-97790633D01*
X59097982Y-97790633D02*
X59131316Y-97723966D01*
X59131316Y-97723966D02*
X59197982Y-97657300D01*
X59197982Y-97657300D02*
X59297982Y-97623966D01*
X59297982Y-97623966D02*
X59464649Y-97623966D01*
X58831316Y-98323966D02*
X58397982Y-98323966D01*
X58397982Y-98323966D02*
X58631316Y-98057300D01*
X58631316Y-98057300D02*
X58531316Y-98057300D01*
X58531316Y-98057300D02*
X58464649Y-98023966D01*
X58464649Y-98023966D02*
X58431316Y-97990633D01*
X58431316Y-97990633D02*
X58397982Y-97923966D01*
X58397982Y-97923966D02*
X58397982Y-97757300D01*
X58397982Y-97757300D02*
X58431316Y-97690633D01*
X58431316Y-97690633D02*
X58464649Y-97657300D01*
X58464649Y-97657300D02*
X58531316Y-97623966D01*
X58531316Y-97623966D02*
X58731316Y-97623966D01*
X58731316Y-97623966D02*
X58797982Y-97657300D01*
X58797982Y-97657300D02*
X58831316Y-97690633D01*
X57797982Y-98090633D02*
X57797982Y-97623966D01*
X57964649Y-98357300D02*
X58131315Y-97857300D01*
X58131315Y-97857300D02*
X57697982Y-97857300D01*
X59464649Y-87463966D02*
X59464649Y-88163966D01*
X59464649Y-88163966D02*
X59297982Y-88163966D01*
X59297982Y-88163966D02*
X59197982Y-88130633D01*
X59197982Y-88130633D02*
X59131316Y-88063966D01*
X59131316Y-88063966D02*
X59097982Y-87997300D01*
X59097982Y-87997300D02*
X59064649Y-87863966D01*
X59064649Y-87863966D02*
X59064649Y-87763966D01*
X59064649Y-87763966D02*
X59097982Y-87630633D01*
X59097982Y-87630633D02*
X59131316Y-87563966D01*
X59131316Y-87563966D02*
X59197982Y-87497300D01*
X59197982Y-87497300D02*
X59297982Y-87463966D01*
X59297982Y-87463966D02*
X59464649Y-87463966D01*
X58797982Y-88097300D02*
X58764649Y-88130633D01*
X58764649Y-88130633D02*
X58697982Y-88163966D01*
X58697982Y-88163966D02*
X58531316Y-88163966D01*
X58531316Y-88163966D02*
X58464649Y-88130633D01*
X58464649Y-88130633D02*
X58431316Y-88097300D01*
X58431316Y-88097300D02*
X58397982Y-88030633D01*
X58397982Y-88030633D02*
X58397982Y-87963966D01*
X58397982Y-87963966D02*
X58431316Y-87863966D01*
X58431316Y-87863966D02*
X58831316Y-87463966D01*
X58831316Y-87463966D02*
X58397982Y-87463966D01*
X57764649Y-88163966D02*
X58097982Y-88163966D01*
X58097982Y-88163966D02*
X58131315Y-87830633D01*
X58131315Y-87830633D02*
X58097982Y-87863966D01*
X58097982Y-87863966D02*
X58031315Y-87897300D01*
X58031315Y-87897300D02*
X57864649Y-87897300D01*
X57864649Y-87897300D02*
X57797982Y-87863966D01*
X57797982Y-87863966D02*
X57764649Y-87830633D01*
X57764649Y-87830633D02*
X57731315Y-87763966D01*
X57731315Y-87763966D02*
X57731315Y-87597300D01*
X57731315Y-87597300D02*
X57764649Y-87530633D01*
X57764649Y-87530633D02*
X57797982Y-87497300D01*
X57797982Y-87497300D02*
X57864649Y-87463966D01*
X57864649Y-87463966D02*
X58031315Y-87463966D01*
X58031315Y-87463966D02*
X58097982Y-87497300D01*
X58097982Y-87497300D02*
X58131315Y-87530633D01*
X59464649Y-79843966D02*
X59464649Y-80543966D01*
X59464649Y-80543966D02*
X59297982Y-80543966D01*
X59297982Y-80543966D02*
X59197982Y-80510633D01*
X59197982Y-80510633D02*
X59131316Y-80443966D01*
X59131316Y-80443966D02*
X59097982Y-80377300D01*
X59097982Y-80377300D02*
X59064649Y-80243966D01*
X59064649Y-80243966D02*
X59064649Y-80143966D01*
X59064649Y-80143966D02*
X59097982Y-80010633D01*
X59097982Y-80010633D02*
X59131316Y-79943966D01*
X59131316Y-79943966D02*
X59197982Y-79877300D01*
X59197982Y-79877300D02*
X59297982Y-79843966D01*
X59297982Y-79843966D02*
X59464649Y-79843966D01*
X58397982Y-79843966D02*
X58797982Y-79843966D01*
X58597982Y-79843966D02*
X58597982Y-80543966D01*
X58597982Y-80543966D02*
X58664649Y-80443966D01*
X58664649Y-80443966D02*
X58731316Y-80377300D01*
X58731316Y-80377300D02*
X58797982Y-80343966D01*
X57797982Y-80310633D02*
X57797982Y-79843966D01*
X57964649Y-80577300D02*
X58131315Y-80077300D01*
X58131315Y-80077300D02*
X57697982Y-80077300D01*
X59464649Y-105610633D02*
X59231316Y-105610633D01*
X59131316Y-105243966D02*
X59464649Y-105243966D01*
X59464649Y-105243966D02*
X59464649Y-105943966D01*
X59464649Y-105943966D02*
X59131316Y-105943966D01*
X58831316Y-105243966D02*
X58831316Y-105943966D01*
X58831316Y-105943966D02*
X58431316Y-105243966D01*
X58431316Y-105243966D02*
X58431316Y-105943966D01*
X59464649Y-84923966D02*
X59464649Y-85623966D01*
X59464649Y-85623966D02*
X59297982Y-85623966D01*
X59297982Y-85623966D02*
X59197982Y-85590633D01*
X59197982Y-85590633D02*
X59131316Y-85523966D01*
X59131316Y-85523966D02*
X59097982Y-85457300D01*
X59097982Y-85457300D02*
X59064649Y-85323966D01*
X59064649Y-85323966D02*
X59064649Y-85223966D01*
X59064649Y-85223966D02*
X59097982Y-85090633D01*
X59097982Y-85090633D02*
X59131316Y-85023966D01*
X59131316Y-85023966D02*
X59197982Y-84957300D01*
X59197982Y-84957300D02*
X59297982Y-84923966D01*
X59297982Y-84923966D02*
X59464649Y-84923966D01*
X58797982Y-85557300D02*
X58764649Y-85590633D01*
X58764649Y-85590633D02*
X58697982Y-85623966D01*
X58697982Y-85623966D02*
X58531316Y-85623966D01*
X58531316Y-85623966D02*
X58464649Y-85590633D01*
X58464649Y-85590633D02*
X58431316Y-85557300D01*
X58431316Y-85557300D02*
X58397982Y-85490633D01*
X58397982Y-85490633D02*
X58397982Y-85423966D01*
X58397982Y-85423966D02*
X58431316Y-85323966D01*
X58431316Y-85323966D02*
X58831316Y-84923966D01*
X58831316Y-84923966D02*
X58397982Y-84923966D01*
X57797982Y-85623966D02*
X57931315Y-85623966D01*
X57931315Y-85623966D02*
X57997982Y-85590633D01*
X57997982Y-85590633D02*
X58031315Y-85557300D01*
X58031315Y-85557300D02*
X58097982Y-85457300D01*
X58097982Y-85457300D02*
X58131315Y-85323966D01*
X58131315Y-85323966D02*
X58131315Y-85057300D01*
X58131315Y-85057300D02*
X58097982Y-84990633D01*
X58097982Y-84990633D02*
X58064649Y-84957300D01*
X58064649Y-84957300D02*
X57997982Y-84923966D01*
X57997982Y-84923966D02*
X57864649Y-84923966D01*
X57864649Y-84923966D02*
X57797982Y-84957300D01*
X57797982Y-84957300D02*
X57764649Y-84990633D01*
X57764649Y-84990633D02*
X57731315Y-85057300D01*
X57731315Y-85057300D02*
X57731315Y-85223966D01*
X57731315Y-85223966D02*
X57764649Y-85290633D01*
X57764649Y-85290633D02*
X57797982Y-85323966D01*
X57797982Y-85323966D02*
X57864649Y-85357300D01*
X57864649Y-85357300D02*
X57997982Y-85357300D01*
X57997982Y-85357300D02*
X58064649Y-85323966D01*
X58064649Y-85323966D02*
X58097982Y-85290633D01*
X58097982Y-85290633D02*
X58131315Y-85223966D01*
X59464649Y-77303966D02*
X59464649Y-78003966D01*
X59464649Y-78003966D02*
X59297982Y-78003966D01*
X59297982Y-78003966D02*
X59197982Y-77970633D01*
X59197982Y-77970633D02*
X59131316Y-77903966D01*
X59131316Y-77903966D02*
X59097982Y-77837300D01*
X59097982Y-77837300D02*
X59064649Y-77703966D01*
X59064649Y-77703966D02*
X59064649Y-77603966D01*
X59064649Y-77603966D02*
X59097982Y-77470633D01*
X59097982Y-77470633D02*
X59131316Y-77403966D01*
X59131316Y-77403966D02*
X59197982Y-77337300D01*
X59197982Y-77337300D02*
X59297982Y-77303966D01*
X59297982Y-77303966D02*
X59464649Y-77303966D01*
X58397982Y-77303966D02*
X58797982Y-77303966D01*
X58597982Y-77303966D02*
X58597982Y-78003966D01*
X58597982Y-78003966D02*
X58664649Y-77903966D01*
X58664649Y-77903966D02*
X58731316Y-77837300D01*
X58731316Y-77837300D02*
X58797982Y-77803966D01*
X58131315Y-77937300D02*
X58097982Y-77970633D01*
X58097982Y-77970633D02*
X58031315Y-78003966D01*
X58031315Y-78003966D02*
X57864649Y-78003966D01*
X57864649Y-78003966D02*
X57797982Y-77970633D01*
X57797982Y-77970633D02*
X57764649Y-77937300D01*
X57764649Y-77937300D02*
X57731315Y-77870633D01*
X57731315Y-77870633D02*
X57731315Y-77803966D01*
X57731315Y-77803966D02*
X57764649Y-77703966D01*
X57764649Y-77703966D02*
X58164649Y-77303966D01*
X58164649Y-77303966D02*
X57731315Y-77303966D01*
X40875351Y-97623966D02*
X41108684Y-97957300D01*
X41275351Y-97623966D02*
X41275351Y-98323966D01*
X41275351Y-98323966D02*
X41008684Y-98323966D01*
X41008684Y-98323966D02*
X40942018Y-98290633D01*
X40942018Y-98290633D02*
X40908684Y-98257300D01*
X40908684Y-98257300D02*
X40875351Y-98190633D01*
X40875351Y-98190633D02*
X40875351Y-98090633D01*
X40875351Y-98090633D02*
X40908684Y-98023966D01*
X40908684Y-98023966D02*
X40942018Y-97990633D01*
X40942018Y-97990633D02*
X41008684Y-97957300D01*
X41008684Y-97957300D02*
X41275351Y-97957300D01*
X40642018Y-97623966D02*
X40275351Y-98090633D01*
X40642018Y-98090633D02*
X40275351Y-97623966D01*
X39875351Y-98323966D02*
X39808684Y-98323966D01*
X39808684Y-98323966D02*
X39742017Y-98290633D01*
X39742017Y-98290633D02*
X39708684Y-98257300D01*
X39708684Y-98257300D02*
X39675351Y-98190633D01*
X39675351Y-98190633D02*
X39642017Y-98057300D01*
X39642017Y-98057300D02*
X39642017Y-97890633D01*
X39642017Y-97890633D02*
X39675351Y-97757300D01*
X39675351Y-97757300D02*
X39708684Y-97690633D01*
X39708684Y-97690633D02*
X39742017Y-97657300D01*
X39742017Y-97657300D02*
X39808684Y-97623966D01*
X39808684Y-97623966D02*
X39875351Y-97623966D01*
X39875351Y-97623966D02*
X39942017Y-97657300D01*
X39942017Y-97657300D02*
X39975351Y-97690633D01*
X39975351Y-97690633D02*
X40008684Y-97757300D01*
X40008684Y-97757300D02*
X40042017Y-97890633D01*
X40042017Y-97890633D02*
X40042017Y-98057300D01*
X40042017Y-98057300D02*
X40008684Y-98190633D01*
X40008684Y-98190633D02*
X39975351Y-98257300D01*
X39975351Y-98257300D02*
X39942017Y-98290633D01*
X39942017Y-98290633D02*
X39875351Y-98323966D01*
X41375351Y-95083966D02*
X41375351Y-95783966D01*
X41375351Y-95783966D02*
X41208684Y-95783966D01*
X41208684Y-95783966D02*
X41108684Y-95750633D01*
X41108684Y-95750633D02*
X41042018Y-95683966D01*
X41042018Y-95683966D02*
X41008684Y-95617300D01*
X41008684Y-95617300D02*
X40975351Y-95483966D01*
X40975351Y-95483966D02*
X40975351Y-95383966D01*
X40975351Y-95383966D02*
X41008684Y-95250633D01*
X41008684Y-95250633D02*
X41042018Y-95183966D01*
X41042018Y-95183966D02*
X41108684Y-95117300D01*
X41108684Y-95117300D02*
X41208684Y-95083966D01*
X41208684Y-95083966D02*
X41375351Y-95083966D01*
X40708684Y-95717300D02*
X40675351Y-95750633D01*
X40675351Y-95750633D02*
X40608684Y-95783966D01*
X40608684Y-95783966D02*
X40442018Y-95783966D01*
X40442018Y-95783966D02*
X40375351Y-95750633D01*
X40375351Y-95750633D02*
X40342018Y-95717300D01*
X40342018Y-95717300D02*
X40308684Y-95650633D01*
X40308684Y-95650633D02*
X40308684Y-95583966D01*
X40308684Y-95583966D02*
X40342018Y-95483966D01*
X40342018Y-95483966D02*
X40742018Y-95083966D01*
X40742018Y-95083966D02*
X40308684Y-95083966D01*
X39642017Y-95083966D02*
X40042017Y-95083966D01*
X39842017Y-95083966D02*
X39842017Y-95783966D01*
X39842017Y-95783966D02*
X39908684Y-95683966D01*
X39908684Y-95683966D02*
X39975351Y-95617300D01*
X39975351Y-95617300D02*
X40042017Y-95583966D01*
X59464649Y-92543966D02*
X59464649Y-93243966D01*
X59464649Y-93243966D02*
X59297982Y-93243966D01*
X59297982Y-93243966D02*
X59197982Y-93210633D01*
X59197982Y-93210633D02*
X59131316Y-93143966D01*
X59131316Y-93143966D02*
X59097982Y-93077300D01*
X59097982Y-93077300D02*
X59064649Y-92943966D01*
X59064649Y-92943966D02*
X59064649Y-92843966D01*
X59064649Y-92843966D02*
X59097982Y-92710633D01*
X59097982Y-92710633D02*
X59131316Y-92643966D01*
X59131316Y-92643966D02*
X59197982Y-92577300D01*
X59197982Y-92577300D02*
X59297982Y-92543966D01*
X59297982Y-92543966D02*
X59464649Y-92543966D01*
X58831316Y-93243966D02*
X58397982Y-93243966D01*
X58397982Y-93243966D02*
X58631316Y-92977300D01*
X58631316Y-92977300D02*
X58531316Y-92977300D01*
X58531316Y-92977300D02*
X58464649Y-92943966D01*
X58464649Y-92943966D02*
X58431316Y-92910633D01*
X58431316Y-92910633D02*
X58397982Y-92843966D01*
X58397982Y-92843966D02*
X58397982Y-92677300D01*
X58397982Y-92677300D02*
X58431316Y-92610633D01*
X58431316Y-92610633D02*
X58464649Y-92577300D01*
X58464649Y-92577300D02*
X58531316Y-92543966D01*
X58531316Y-92543966D02*
X58731316Y-92543966D01*
X58731316Y-92543966D02*
X58797982Y-92577300D01*
X58797982Y-92577300D02*
X58831316Y-92610633D01*
X58131315Y-93177300D02*
X58097982Y-93210633D01*
X58097982Y-93210633D02*
X58031315Y-93243966D01*
X58031315Y-93243966D02*
X57864649Y-93243966D01*
X57864649Y-93243966D02*
X57797982Y-93210633D01*
X57797982Y-93210633D02*
X57764649Y-93177300D01*
X57764649Y-93177300D02*
X57731315Y-93110633D01*
X57731315Y-93110633D02*
X57731315Y-93043966D01*
X57731315Y-93043966D02*
X57764649Y-92943966D01*
X57764649Y-92943966D02*
X58164649Y-92543966D01*
X58164649Y-92543966D02*
X57731315Y-92543966D01*
X40708684Y-87463966D02*
X40708684Y-88163966D01*
X40708684Y-88163966D02*
X40542017Y-88163966D01*
X40542017Y-88163966D02*
X40442017Y-88130633D01*
X40442017Y-88130633D02*
X40375351Y-88063966D01*
X40375351Y-88063966D02*
X40342017Y-87997300D01*
X40342017Y-87997300D02*
X40308684Y-87863966D01*
X40308684Y-87863966D02*
X40308684Y-87763966D01*
X40308684Y-87763966D02*
X40342017Y-87630633D01*
X40342017Y-87630633D02*
X40375351Y-87563966D01*
X40375351Y-87563966D02*
X40442017Y-87497300D01*
X40442017Y-87497300D02*
X40542017Y-87463966D01*
X40542017Y-87463966D02*
X40708684Y-87463966D01*
X39675351Y-88163966D02*
X40008684Y-88163966D01*
X40008684Y-88163966D02*
X40042017Y-87830633D01*
X40042017Y-87830633D02*
X40008684Y-87863966D01*
X40008684Y-87863966D02*
X39942017Y-87897300D01*
X39942017Y-87897300D02*
X39775351Y-87897300D01*
X39775351Y-87897300D02*
X39708684Y-87863966D01*
X39708684Y-87863966D02*
X39675351Y-87830633D01*
X39675351Y-87830633D02*
X39642017Y-87763966D01*
X39642017Y-87763966D02*
X39642017Y-87597300D01*
X39642017Y-87597300D02*
X39675351Y-87530633D01*
X39675351Y-87530633D02*
X39708684Y-87497300D01*
X39708684Y-87497300D02*
X39775351Y-87463966D01*
X39775351Y-87463966D02*
X39942017Y-87463966D01*
X39942017Y-87463966D02*
X40008684Y-87497300D01*
X40008684Y-87497300D02*
X40042017Y-87530633D01*
X59464649Y-95083966D02*
X59464649Y-95783966D01*
X59464649Y-95783966D02*
X59297982Y-95783966D01*
X59297982Y-95783966D02*
X59197982Y-95750633D01*
X59197982Y-95750633D02*
X59131316Y-95683966D01*
X59131316Y-95683966D02*
X59097982Y-95617300D01*
X59097982Y-95617300D02*
X59064649Y-95483966D01*
X59064649Y-95483966D02*
X59064649Y-95383966D01*
X59064649Y-95383966D02*
X59097982Y-95250633D01*
X59097982Y-95250633D02*
X59131316Y-95183966D01*
X59131316Y-95183966D02*
X59197982Y-95117300D01*
X59197982Y-95117300D02*
X59297982Y-95083966D01*
X59297982Y-95083966D02*
X59464649Y-95083966D01*
X58831316Y-95783966D02*
X58397982Y-95783966D01*
X58397982Y-95783966D02*
X58631316Y-95517300D01*
X58631316Y-95517300D02*
X58531316Y-95517300D01*
X58531316Y-95517300D02*
X58464649Y-95483966D01*
X58464649Y-95483966D02*
X58431316Y-95450633D01*
X58431316Y-95450633D02*
X58397982Y-95383966D01*
X58397982Y-95383966D02*
X58397982Y-95217300D01*
X58397982Y-95217300D02*
X58431316Y-95150633D01*
X58431316Y-95150633D02*
X58464649Y-95117300D01*
X58464649Y-95117300D02*
X58531316Y-95083966D01*
X58531316Y-95083966D02*
X58731316Y-95083966D01*
X58731316Y-95083966D02*
X58797982Y-95117300D01*
X58797982Y-95117300D02*
X58831316Y-95150633D01*
X57764649Y-95783966D02*
X58097982Y-95783966D01*
X58097982Y-95783966D02*
X58131315Y-95450633D01*
X58131315Y-95450633D02*
X58097982Y-95483966D01*
X58097982Y-95483966D02*
X58031315Y-95517300D01*
X58031315Y-95517300D02*
X57864649Y-95517300D01*
X57864649Y-95517300D02*
X57797982Y-95483966D01*
X57797982Y-95483966D02*
X57764649Y-95450633D01*
X57764649Y-95450633D02*
X57731315Y-95383966D01*
X57731315Y-95383966D02*
X57731315Y-95217300D01*
X57731315Y-95217300D02*
X57764649Y-95150633D01*
X57764649Y-95150633D02*
X57797982Y-95117300D01*
X57797982Y-95117300D02*
X57864649Y-95083966D01*
X57864649Y-95083966D02*
X58031315Y-95083966D01*
X58031315Y-95083966D02*
X58097982Y-95117300D01*
X58097982Y-95117300D02*
X58131315Y-95150633D01*
X41108683Y-72890633D02*
X41175350Y-72923966D01*
X41175350Y-72923966D02*
X41275350Y-72923966D01*
X41275350Y-72923966D02*
X41375350Y-72890633D01*
X41375350Y-72890633D02*
X41442017Y-72823966D01*
X41442017Y-72823966D02*
X41475350Y-72757300D01*
X41475350Y-72757300D02*
X41508683Y-72623966D01*
X41508683Y-72623966D02*
X41508683Y-72523966D01*
X41508683Y-72523966D02*
X41475350Y-72390633D01*
X41475350Y-72390633D02*
X41442017Y-72323966D01*
X41442017Y-72323966D02*
X41375350Y-72257300D01*
X41375350Y-72257300D02*
X41275350Y-72223966D01*
X41275350Y-72223966D02*
X41208683Y-72223966D01*
X41208683Y-72223966D02*
X41108683Y-72257300D01*
X41108683Y-72257300D02*
X41075350Y-72290633D01*
X41075350Y-72290633D02*
X41075350Y-72523966D01*
X41075350Y-72523966D02*
X41208683Y-72523966D01*
X40775350Y-72223966D02*
X40775350Y-72923966D01*
X40775350Y-72923966D02*
X40375350Y-72223966D01*
X40375350Y-72223966D02*
X40375350Y-72923966D01*
X40042017Y-72223966D02*
X40042017Y-72923966D01*
X40042017Y-72923966D02*
X39875350Y-72923966D01*
X39875350Y-72923966D02*
X39775350Y-72890633D01*
X39775350Y-72890633D02*
X39708684Y-72823966D01*
X39708684Y-72823966D02*
X39675350Y-72757300D01*
X39675350Y-72757300D02*
X39642017Y-72623966D01*
X39642017Y-72623966D02*
X39642017Y-72523966D01*
X39642017Y-72523966D02*
X39675350Y-72390633D01*
X39675350Y-72390633D02*
X39708684Y-72323966D01*
X39708684Y-72323966D02*
X39775350Y-72257300D01*
X39775350Y-72257300D02*
X39875350Y-72223966D01*
X39875350Y-72223966D02*
X40042017Y-72223966D01*
X41208684Y-85623966D02*
X40808684Y-85623966D01*
X41008684Y-84923966D02*
X41008684Y-85623966D01*
X40642018Y-84923966D02*
X40275351Y-85390633D01*
X40642018Y-85390633D02*
X40275351Y-84923966D01*
X40042017Y-85557300D02*
X40008684Y-85590633D01*
X40008684Y-85590633D02*
X39942017Y-85623966D01*
X39942017Y-85623966D02*
X39775351Y-85623966D01*
X39775351Y-85623966D02*
X39708684Y-85590633D01*
X39708684Y-85590633D02*
X39675351Y-85557300D01*
X39675351Y-85557300D02*
X39642017Y-85490633D01*
X39642017Y-85490633D02*
X39642017Y-85423966D01*
X39642017Y-85423966D02*
X39675351Y-85323966D01*
X39675351Y-85323966D02*
X40075351Y-84923966D01*
X40075351Y-84923966D02*
X39642017Y-84923966D01*
X59464649Y-82383966D02*
X59464649Y-83083966D01*
X59464649Y-83083966D02*
X59297982Y-83083966D01*
X59297982Y-83083966D02*
X59197982Y-83050633D01*
X59197982Y-83050633D02*
X59131316Y-82983966D01*
X59131316Y-82983966D02*
X59097982Y-82917300D01*
X59097982Y-82917300D02*
X59064649Y-82783966D01*
X59064649Y-82783966D02*
X59064649Y-82683966D01*
X59064649Y-82683966D02*
X59097982Y-82550633D01*
X59097982Y-82550633D02*
X59131316Y-82483966D01*
X59131316Y-82483966D02*
X59197982Y-82417300D01*
X59197982Y-82417300D02*
X59297982Y-82383966D01*
X59297982Y-82383966D02*
X59464649Y-82383966D01*
X58797982Y-83017300D02*
X58764649Y-83050633D01*
X58764649Y-83050633D02*
X58697982Y-83083966D01*
X58697982Y-83083966D02*
X58531316Y-83083966D01*
X58531316Y-83083966D02*
X58464649Y-83050633D01*
X58464649Y-83050633D02*
X58431316Y-83017300D01*
X58431316Y-83017300D02*
X58397982Y-82950633D01*
X58397982Y-82950633D02*
X58397982Y-82883966D01*
X58397982Y-82883966D02*
X58431316Y-82783966D01*
X58431316Y-82783966D02*
X58831316Y-82383966D01*
X58831316Y-82383966D02*
X58397982Y-82383966D01*
X58164649Y-83083966D02*
X57697982Y-83083966D01*
X57697982Y-83083966D02*
X57997982Y-82383966D01*
X41375351Y-105243966D02*
X41375351Y-105943966D01*
X41375351Y-105943966D02*
X41208684Y-105943966D01*
X41208684Y-105943966D02*
X41108684Y-105910633D01*
X41108684Y-105910633D02*
X41042018Y-105843966D01*
X41042018Y-105843966D02*
X41008684Y-105777300D01*
X41008684Y-105777300D02*
X40975351Y-105643966D01*
X40975351Y-105643966D02*
X40975351Y-105543966D01*
X40975351Y-105543966D02*
X41008684Y-105410633D01*
X41008684Y-105410633D02*
X41042018Y-105343966D01*
X41042018Y-105343966D02*
X41108684Y-105277300D01*
X41108684Y-105277300D02*
X41208684Y-105243966D01*
X41208684Y-105243966D02*
X41375351Y-105243966D01*
X40708684Y-105877300D02*
X40675351Y-105910633D01*
X40675351Y-105910633D02*
X40608684Y-105943966D01*
X40608684Y-105943966D02*
X40442018Y-105943966D01*
X40442018Y-105943966D02*
X40375351Y-105910633D01*
X40375351Y-105910633D02*
X40342018Y-105877300D01*
X40342018Y-105877300D02*
X40308684Y-105810633D01*
X40308684Y-105810633D02*
X40308684Y-105743966D01*
X40308684Y-105743966D02*
X40342018Y-105643966D01*
X40342018Y-105643966D02*
X40742018Y-105243966D01*
X40742018Y-105243966D02*
X40308684Y-105243966D01*
X40075351Y-105943966D02*
X39642017Y-105943966D01*
X39642017Y-105943966D02*
X39875351Y-105677300D01*
X39875351Y-105677300D02*
X39775351Y-105677300D01*
X39775351Y-105677300D02*
X39708684Y-105643966D01*
X39708684Y-105643966D02*
X39675351Y-105610633D01*
X39675351Y-105610633D02*
X39642017Y-105543966D01*
X39642017Y-105543966D02*
X39642017Y-105377300D01*
X39642017Y-105377300D02*
X39675351Y-105310633D01*
X39675351Y-105310633D02*
X39708684Y-105277300D01*
X39708684Y-105277300D02*
X39775351Y-105243966D01*
X39775351Y-105243966D02*
X39975351Y-105243966D01*
X39975351Y-105243966D02*
X40042017Y-105277300D01*
X40042017Y-105277300D02*
X40075351Y-105310633D01*
X40708684Y-77303966D02*
X40708684Y-78003966D01*
X40708684Y-78003966D02*
X40542017Y-78003966D01*
X40542017Y-78003966D02*
X40442017Y-77970633D01*
X40442017Y-77970633D02*
X40375351Y-77903966D01*
X40375351Y-77903966D02*
X40342017Y-77837300D01*
X40342017Y-77837300D02*
X40308684Y-77703966D01*
X40308684Y-77703966D02*
X40308684Y-77603966D01*
X40308684Y-77603966D02*
X40342017Y-77470633D01*
X40342017Y-77470633D02*
X40375351Y-77403966D01*
X40375351Y-77403966D02*
X40442017Y-77337300D01*
X40442017Y-77337300D02*
X40542017Y-77303966D01*
X40542017Y-77303966D02*
X40708684Y-77303966D01*
X40042017Y-77937300D02*
X40008684Y-77970633D01*
X40008684Y-77970633D02*
X39942017Y-78003966D01*
X39942017Y-78003966D02*
X39775351Y-78003966D01*
X39775351Y-78003966D02*
X39708684Y-77970633D01*
X39708684Y-77970633D02*
X39675351Y-77937300D01*
X39675351Y-77937300D02*
X39642017Y-77870633D01*
X39642017Y-77870633D02*
X39642017Y-77803966D01*
X39642017Y-77803966D02*
X39675351Y-77703966D01*
X39675351Y-77703966D02*
X40075351Y-77303966D01*
X40075351Y-77303966D02*
X39642017Y-77303966D01*
X40708684Y-79843966D02*
X40708684Y-80543966D01*
X40708684Y-80543966D02*
X40542017Y-80543966D01*
X40542017Y-80543966D02*
X40442017Y-80510633D01*
X40442017Y-80510633D02*
X40375351Y-80443966D01*
X40375351Y-80443966D02*
X40342017Y-80377300D01*
X40342017Y-80377300D02*
X40308684Y-80243966D01*
X40308684Y-80243966D02*
X40308684Y-80143966D01*
X40308684Y-80143966D02*
X40342017Y-80010633D01*
X40342017Y-80010633D02*
X40375351Y-79943966D01*
X40375351Y-79943966D02*
X40442017Y-79877300D01*
X40442017Y-79877300D02*
X40542017Y-79843966D01*
X40542017Y-79843966D02*
X40708684Y-79843966D01*
X39708684Y-80310633D02*
X39708684Y-79843966D01*
X39875351Y-80577300D02*
X40042017Y-80077300D01*
X40042017Y-80077300D02*
X39608684Y-80077300D01*
X59564649Y-100863966D02*
X59331316Y-100163966D01*
X59331316Y-100163966D02*
X59097982Y-100863966D01*
X58864649Y-100163966D02*
X58864649Y-100863966D01*
X58864649Y-100863966D02*
X58464649Y-100163966D01*
X58464649Y-100163966D02*
X58464649Y-100863966D01*
X59097982Y-72890633D02*
X59164649Y-72923966D01*
X59164649Y-72923966D02*
X59264649Y-72923966D01*
X59264649Y-72923966D02*
X59364649Y-72890633D01*
X59364649Y-72890633D02*
X59431316Y-72823966D01*
X59431316Y-72823966D02*
X59464649Y-72757300D01*
X59464649Y-72757300D02*
X59497982Y-72623966D01*
X59497982Y-72623966D02*
X59497982Y-72523966D01*
X59497982Y-72523966D02*
X59464649Y-72390633D01*
X59464649Y-72390633D02*
X59431316Y-72323966D01*
X59431316Y-72323966D02*
X59364649Y-72257300D01*
X59364649Y-72257300D02*
X59264649Y-72223966D01*
X59264649Y-72223966D02*
X59197982Y-72223966D01*
X59197982Y-72223966D02*
X59097982Y-72257300D01*
X59097982Y-72257300D02*
X59064649Y-72290633D01*
X59064649Y-72290633D02*
X59064649Y-72523966D01*
X59064649Y-72523966D02*
X59197982Y-72523966D01*
X58764649Y-72223966D02*
X58764649Y-72923966D01*
X58764649Y-72923966D02*
X58364649Y-72223966D01*
X58364649Y-72223966D02*
X58364649Y-72923966D01*
X58031316Y-72223966D02*
X58031316Y-72923966D01*
X58031316Y-72923966D02*
X57864649Y-72923966D01*
X57864649Y-72923966D02*
X57764649Y-72890633D01*
X57764649Y-72890633D02*
X57697983Y-72823966D01*
X57697983Y-72823966D02*
X57664649Y-72757300D01*
X57664649Y-72757300D02*
X57631316Y-72623966D01*
X57631316Y-72623966D02*
X57631316Y-72523966D01*
X57631316Y-72523966D02*
X57664649Y-72390633D01*
X57664649Y-72390633D02*
X57697983Y-72323966D01*
X57697983Y-72323966D02*
X57764649Y-72257300D01*
X57764649Y-72257300D02*
X57864649Y-72223966D01*
X57864649Y-72223966D02*
X58031316Y-72223966D01*
X40875351Y-82383966D02*
X41108684Y-82717300D01*
X41275351Y-82383966D02*
X41275351Y-83083966D01*
X41275351Y-83083966D02*
X41008684Y-83083966D01*
X41008684Y-83083966D02*
X40942018Y-83050633D01*
X40942018Y-83050633D02*
X40908684Y-83017300D01*
X40908684Y-83017300D02*
X40875351Y-82950633D01*
X40875351Y-82950633D02*
X40875351Y-82850633D01*
X40875351Y-82850633D02*
X40908684Y-82783966D01*
X40908684Y-82783966D02*
X40942018Y-82750633D01*
X40942018Y-82750633D02*
X41008684Y-82717300D01*
X41008684Y-82717300D02*
X41275351Y-82717300D01*
X40642018Y-82383966D02*
X40275351Y-82850633D01*
X40642018Y-82850633D02*
X40275351Y-82383966D01*
X40042017Y-83017300D02*
X40008684Y-83050633D01*
X40008684Y-83050633D02*
X39942017Y-83083966D01*
X39942017Y-83083966D02*
X39775351Y-83083966D01*
X39775351Y-83083966D02*
X39708684Y-83050633D01*
X39708684Y-83050633D02*
X39675351Y-83017300D01*
X39675351Y-83017300D02*
X39642017Y-82950633D01*
X39642017Y-82950633D02*
X39642017Y-82883966D01*
X39642017Y-82883966D02*
X39675351Y-82783966D01*
X39675351Y-82783966D02*
X40075351Y-82383966D01*
X40075351Y-82383966D02*
X39642017Y-82383966D01*
X41375351Y-74763966D02*
X41375351Y-75463966D01*
X41375351Y-75463966D02*
X41208684Y-75463966D01*
X41208684Y-75463966D02*
X41108684Y-75430633D01*
X41108684Y-75430633D02*
X41042018Y-75363966D01*
X41042018Y-75363966D02*
X41008684Y-75297300D01*
X41008684Y-75297300D02*
X40975351Y-75163966D01*
X40975351Y-75163966D02*
X40975351Y-75063966D01*
X40975351Y-75063966D02*
X41008684Y-74930633D01*
X41008684Y-74930633D02*
X41042018Y-74863966D01*
X41042018Y-74863966D02*
X41108684Y-74797300D01*
X41108684Y-74797300D02*
X41208684Y-74763966D01*
X41208684Y-74763966D02*
X41375351Y-74763966D01*
X40308684Y-74763966D02*
X40708684Y-74763966D01*
X40508684Y-74763966D02*
X40508684Y-75463966D01*
X40508684Y-75463966D02*
X40575351Y-75363966D01*
X40575351Y-75363966D02*
X40642018Y-75297300D01*
X40642018Y-75297300D02*
X40708684Y-75263966D01*
X39675351Y-75463966D02*
X40008684Y-75463966D01*
X40008684Y-75463966D02*
X40042017Y-75130633D01*
X40042017Y-75130633D02*
X40008684Y-75163966D01*
X40008684Y-75163966D02*
X39942017Y-75197300D01*
X39942017Y-75197300D02*
X39775351Y-75197300D01*
X39775351Y-75197300D02*
X39708684Y-75163966D01*
X39708684Y-75163966D02*
X39675351Y-75130633D01*
X39675351Y-75130633D02*
X39642017Y-75063966D01*
X39642017Y-75063966D02*
X39642017Y-74897300D01*
X39642017Y-74897300D02*
X39675351Y-74830633D01*
X39675351Y-74830633D02*
X39708684Y-74797300D01*
X39708684Y-74797300D02*
X39775351Y-74763966D01*
X39775351Y-74763966D02*
X39942017Y-74763966D01*
X39942017Y-74763966D02*
X40008684Y-74797300D01*
X40008684Y-74797300D02*
X40042017Y-74830633D01*
X59464649Y-90003966D02*
X59464649Y-90703966D01*
X59464649Y-90703966D02*
X59297982Y-90703966D01*
X59297982Y-90703966D02*
X59197982Y-90670633D01*
X59197982Y-90670633D02*
X59131316Y-90603966D01*
X59131316Y-90603966D02*
X59097982Y-90537300D01*
X59097982Y-90537300D02*
X59064649Y-90403966D01*
X59064649Y-90403966D02*
X59064649Y-90303966D01*
X59064649Y-90303966D02*
X59097982Y-90170633D01*
X59097982Y-90170633D02*
X59131316Y-90103966D01*
X59131316Y-90103966D02*
X59197982Y-90037300D01*
X59197982Y-90037300D02*
X59297982Y-90003966D01*
X59297982Y-90003966D02*
X59464649Y-90003966D01*
X58831316Y-90703966D02*
X58397982Y-90703966D01*
X58397982Y-90703966D02*
X58631316Y-90437300D01*
X58631316Y-90437300D02*
X58531316Y-90437300D01*
X58531316Y-90437300D02*
X58464649Y-90403966D01*
X58464649Y-90403966D02*
X58431316Y-90370633D01*
X58431316Y-90370633D02*
X58397982Y-90303966D01*
X58397982Y-90303966D02*
X58397982Y-90137300D01*
X58397982Y-90137300D02*
X58431316Y-90070633D01*
X58431316Y-90070633D02*
X58464649Y-90037300D01*
X58464649Y-90037300D02*
X58531316Y-90003966D01*
X58531316Y-90003966D02*
X58731316Y-90003966D01*
X58731316Y-90003966D02*
X58797982Y-90037300D01*
X58797982Y-90037300D02*
X58831316Y-90070633D01*
X58164649Y-90703966D02*
X57731315Y-90703966D01*
X57731315Y-90703966D02*
X57964649Y-90437300D01*
X57964649Y-90437300D02*
X57864649Y-90437300D01*
X57864649Y-90437300D02*
X57797982Y-90403966D01*
X57797982Y-90403966D02*
X57764649Y-90370633D01*
X57764649Y-90370633D02*
X57731315Y-90303966D01*
X57731315Y-90303966D02*
X57731315Y-90137300D01*
X57731315Y-90137300D02*
X57764649Y-90070633D01*
X57764649Y-90070633D02*
X57797982Y-90037300D01*
X57797982Y-90037300D02*
X57864649Y-90003966D01*
X57864649Y-90003966D02*
X58064649Y-90003966D01*
X58064649Y-90003966D02*
X58131315Y-90037300D01*
X58131315Y-90037300D02*
X58164649Y-90070633D01*
X41208684Y-100863966D02*
X40808684Y-100863966D01*
X41008684Y-100163966D02*
X41008684Y-100863966D01*
X40642018Y-100163966D02*
X40275351Y-100630633D01*
X40642018Y-100630633D02*
X40275351Y-100163966D01*
X39875351Y-100863966D02*
X39808684Y-100863966D01*
X39808684Y-100863966D02*
X39742017Y-100830633D01*
X39742017Y-100830633D02*
X39708684Y-100797300D01*
X39708684Y-100797300D02*
X39675351Y-100730633D01*
X39675351Y-100730633D02*
X39642017Y-100597300D01*
X39642017Y-100597300D02*
X39642017Y-100430633D01*
X39642017Y-100430633D02*
X39675351Y-100297300D01*
X39675351Y-100297300D02*
X39708684Y-100230633D01*
X39708684Y-100230633D02*
X39742017Y-100197300D01*
X39742017Y-100197300D02*
X39808684Y-100163966D01*
X39808684Y-100163966D02*
X39875351Y-100163966D01*
X39875351Y-100163966D02*
X39942017Y-100197300D01*
X39942017Y-100197300D02*
X39975351Y-100230633D01*
X39975351Y-100230633D02*
X40008684Y-100297300D01*
X40008684Y-100297300D02*
X40042017Y-100430633D01*
X40042017Y-100430633D02*
X40042017Y-100597300D01*
X40042017Y-100597300D02*
X40008684Y-100730633D01*
X40008684Y-100730633D02*
X39975351Y-100797300D01*
X39975351Y-100797300D02*
X39942017Y-100830633D01*
X39942017Y-100830633D02*
X39875351Y-100863966D01*
X59464649Y-74763966D02*
X59464649Y-75463966D01*
X59464649Y-75463966D02*
X59297982Y-75463966D01*
X59297982Y-75463966D02*
X59197982Y-75430633D01*
X59197982Y-75430633D02*
X59131316Y-75363966D01*
X59131316Y-75363966D02*
X59097982Y-75297300D01*
X59097982Y-75297300D02*
X59064649Y-75163966D01*
X59064649Y-75163966D02*
X59064649Y-75063966D01*
X59064649Y-75063966D02*
X59097982Y-74930633D01*
X59097982Y-74930633D02*
X59131316Y-74863966D01*
X59131316Y-74863966D02*
X59197982Y-74797300D01*
X59197982Y-74797300D02*
X59297982Y-74763966D01*
X59297982Y-74763966D02*
X59464649Y-74763966D01*
X58397982Y-74763966D02*
X58797982Y-74763966D01*
X58597982Y-74763966D02*
X58597982Y-75463966D01*
X58597982Y-75463966D02*
X58664649Y-75363966D01*
X58664649Y-75363966D02*
X58731316Y-75297300D01*
X58731316Y-75297300D02*
X58797982Y-75263966D01*
X58164649Y-75463966D02*
X57731315Y-75463966D01*
X57731315Y-75463966D02*
X57964649Y-75197300D01*
X57964649Y-75197300D02*
X57864649Y-75197300D01*
X57864649Y-75197300D02*
X57797982Y-75163966D01*
X57797982Y-75163966D02*
X57764649Y-75130633D01*
X57764649Y-75130633D02*
X57731315Y-75063966D01*
X57731315Y-75063966D02*
X57731315Y-74897300D01*
X57731315Y-74897300D02*
X57764649Y-74830633D01*
X57764649Y-74830633D02*
X57797982Y-74797300D01*
X57797982Y-74797300D02*
X57864649Y-74763966D01*
X57864649Y-74763966D02*
X58064649Y-74763966D01*
X58064649Y-74763966D02*
X58131315Y-74797300D01*
X58131315Y-74797300D02*
X58164649Y-74830633D01*
X41375351Y-90003966D02*
X41375351Y-90703966D01*
X41375351Y-90703966D02*
X41208684Y-90703966D01*
X41208684Y-90703966D02*
X41108684Y-90670633D01*
X41108684Y-90670633D02*
X41042018Y-90603966D01*
X41042018Y-90603966D02*
X41008684Y-90537300D01*
X41008684Y-90537300D02*
X40975351Y-90403966D01*
X40975351Y-90403966D02*
X40975351Y-90303966D01*
X40975351Y-90303966D02*
X41008684Y-90170633D01*
X41008684Y-90170633D02*
X41042018Y-90103966D01*
X41042018Y-90103966D02*
X41108684Y-90037300D01*
X41108684Y-90037300D02*
X41208684Y-90003966D01*
X41208684Y-90003966D02*
X41375351Y-90003966D01*
X40308684Y-90003966D02*
X40708684Y-90003966D01*
X40508684Y-90003966D02*
X40508684Y-90703966D01*
X40508684Y-90703966D02*
X40575351Y-90603966D01*
X40575351Y-90603966D02*
X40642018Y-90537300D01*
X40642018Y-90537300D02*
X40708684Y-90503966D01*
X39908684Y-90403966D02*
X39975351Y-90437300D01*
X39975351Y-90437300D02*
X40008684Y-90470633D01*
X40008684Y-90470633D02*
X40042017Y-90537300D01*
X40042017Y-90537300D02*
X40042017Y-90570633D01*
X40042017Y-90570633D02*
X40008684Y-90637300D01*
X40008684Y-90637300D02*
X39975351Y-90670633D01*
X39975351Y-90670633D02*
X39908684Y-90703966D01*
X39908684Y-90703966D02*
X39775351Y-90703966D01*
X39775351Y-90703966D02*
X39708684Y-90670633D01*
X39708684Y-90670633D02*
X39675351Y-90637300D01*
X39675351Y-90637300D02*
X39642017Y-90570633D01*
X39642017Y-90570633D02*
X39642017Y-90537300D01*
X39642017Y-90537300D02*
X39675351Y-90470633D01*
X39675351Y-90470633D02*
X39708684Y-90437300D01*
X39708684Y-90437300D02*
X39775351Y-90403966D01*
X39775351Y-90403966D02*
X39908684Y-90403966D01*
X39908684Y-90403966D02*
X39975351Y-90370633D01*
X39975351Y-90370633D02*
X40008684Y-90337300D01*
X40008684Y-90337300D02*
X40042017Y-90270633D01*
X40042017Y-90270633D02*
X40042017Y-90137300D01*
X40042017Y-90137300D02*
X40008684Y-90070633D01*
X40008684Y-90070633D02*
X39975351Y-90037300D01*
X39975351Y-90037300D02*
X39908684Y-90003966D01*
X39908684Y-90003966D02*
X39775351Y-90003966D01*
X39775351Y-90003966D02*
X39708684Y-90037300D01*
X39708684Y-90037300D02*
X39675351Y-90070633D01*
X39675351Y-90070633D02*
X39642017Y-90137300D01*
X39642017Y-90137300D02*
X39642017Y-90270633D01*
X39642017Y-90270633D02*
X39675351Y-90337300D01*
X39675351Y-90337300D02*
X39708684Y-90370633D01*
X39708684Y-90370633D02*
X39775351Y-90403966D01*
X41375351Y-92543966D02*
X41375351Y-93243966D01*
X41375351Y-93243966D02*
X41208684Y-93243966D01*
X41208684Y-93243966D02*
X41108684Y-93210633D01*
X41108684Y-93210633D02*
X41042018Y-93143966D01*
X41042018Y-93143966D02*
X41008684Y-93077300D01*
X41008684Y-93077300D02*
X40975351Y-92943966D01*
X40975351Y-92943966D02*
X40975351Y-92843966D01*
X40975351Y-92843966D02*
X41008684Y-92710633D01*
X41008684Y-92710633D02*
X41042018Y-92643966D01*
X41042018Y-92643966D02*
X41108684Y-92577300D01*
X41108684Y-92577300D02*
X41208684Y-92543966D01*
X41208684Y-92543966D02*
X41375351Y-92543966D01*
X40308684Y-92543966D02*
X40708684Y-92543966D01*
X40508684Y-92543966D02*
X40508684Y-93243966D01*
X40508684Y-93243966D02*
X40575351Y-93143966D01*
X40575351Y-93143966D02*
X40642018Y-93077300D01*
X40642018Y-93077300D02*
X40708684Y-93043966D01*
X39975351Y-92543966D02*
X39842017Y-92543966D01*
X39842017Y-92543966D02*
X39775351Y-92577300D01*
X39775351Y-92577300D02*
X39742017Y-92610633D01*
X39742017Y-92610633D02*
X39675351Y-92710633D01*
X39675351Y-92710633D02*
X39642017Y-92843966D01*
X39642017Y-92843966D02*
X39642017Y-93110633D01*
X39642017Y-93110633D02*
X39675351Y-93177300D01*
X39675351Y-93177300D02*
X39708684Y-93210633D01*
X39708684Y-93210633D02*
X39775351Y-93243966D01*
X39775351Y-93243966D02*
X39908684Y-93243966D01*
X39908684Y-93243966D02*
X39975351Y-93210633D01*
X39975351Y-93210633D02*
X40008684Y-93177300D01*
X40008684Y-93177300D02*
X40042017Y-93110633D01*
X40042017Y-93110633D02*
X40042017Y-92943966D01*
X40042017Y-92943966D02*
X40008684Y-92877300D01*
X40008684Y-92877300D02*
X39975351Y-92843966D01*
X39975351Y-92843966D02*
X39908684Y-92810633D01*
X39908684Y-92810633D02*
X39775351Y-92810633D01*
X39775351Y-92810633D02*
X39708684Y-92843966D01*
X39708684Y-92843966D02*
X39675351Y-92877300D01*
X39675351Y-92877300D02*
X39642017Y-92943966D01*
X41375351Y-102703966D02*
X41375351Y-103403966D01*
X41375351Y-103403966D02*
X41208684Y-103403966D01*
X41208684Y-103403966D02*
X41108684Y-103370633D01*
X41108684Y-103370633D02*
X41042018Y-103303966D01*
X41042018Y-103303966D02*
X41008684Y-103237300D01*
X41008684Y-103237300D02*
X40975351Y-103103966D01*
X40975351Y-103103966D02*
X40975351Y-103003966D01*
X40975351Y-103003966D02*
X41008684Y-102870633D01*
X41008684Y-102870633D02*
X41042018Y-102803966D01*
X41042018Y-102803966D02*
X41108684Y-102737300D01*
X41108684Y-102737300D02*
X41208684Y-102703966D01*
X41208684Y-102703966D02*
X41375351Y-102703966D01*
X40708684Y-103337300D02*
X40675351Y-103370633D01*
X40675351Y-103370633D02*
X40608684Y-103403966D01*
X40608684Y-103403966D02*
X40442018Y-103403966D01*
X40442018Y-103403966D02*
X40375351Y-103370633D01*
X40375351Y-103370633D02*
X40342018Y-103337300D01*
X40342018Y-103337300D02*
X40308684Y-103270633D01*
X40308684Y-103270633D02*
X40308684Y-103203966D01*
X40308684Y-103203966D02*
X40342018Y-103103966D01*
X40342018Y-103103966D02*
X40742018Y-102703966D01*
X40742018Y-102703966D02*
X40308684Y-102703966D01*
X40042017Y-103337300D02*
X40008684Y-103370633D01*
X40008684Y-103370633D02*
X39942017Y-103403966D01*
X39942017Y-103403966D02*
X39775351Y-103403966D01*
X39775351Y-103403966D02*
X39708684Y-103370633D01*
X39708684Y-103370633D02*
X39675351Y-103337300D01*
X39675351Y-103337300D02*
X39642017Y-103270633D01*
X39642017Y-103270633D02*
X39642017Y-103203966D01*
X39642017Y-103203966D02*
X39675351Y-103103966D01*
X39675351Y-103103966D02*
X40075351Y-102703966D01*
X40075351Y-102703966D02*
X39642017Y-102703966D01*
X59564649Y-103403966D02*
X59331316Y-102703966D01*
X59331316Y-102703966D02*
X59097982Y-103403966D01*
X58864649Y-102703966D02*
X58864649Y-103403966D01*
X58864649Y-103403966D02*
X58597982Y-103403966D01*
X58597982Y-103403966D02*
X58531316Y-103370633D01*
X58531316Y-103370633D02*
X58497982Y-103337300D01*
X58497982Y-103337300D02*
X58464649Y-103270633D01*
X58464649Y-103270633D02*
X58464649Y-103170633D01*
X58464649Y-103170633D02*
X58497982Y-103103966D01*
X58497982Y-103103966D02*
X58531316Y-103070633D01*
X58531316Y-103070633D02*
X58597982Y-103037300D01*
X58597982Y-103037300D02*
X58864649Y-103037300D01*
D12*
%TO.C,R18*%
X43130000Y-60280000D02*
X43460000Y-60280000D01*
X45870000Y-60280000D02*
X45540000Y-60280000D01*
X43130000Y-53740000D02*
X43130000Y-60280000D01*
X43460000Y-53740000D02*
X43130000Y-53740000D01*
X45540000Y-53740000D02*
X45870000Y-53740000D01*
X45870000Y-53740000D02*
X45870000Y-60280000D01*
%TO.C,C4*%
X35647651Y-141645000D02*
X36447651Y-141645000D01*
X36047651Y-141245000D02*
X36047651Y-142045000D01*
X40057349Y-139880000D02*
X40057349Y-148040000D01*
X40097349Y-139880000D02*
X40097349Y-148040000D01*
X40137349Y-139881000D02*
X40137349Y-148039000D01*
X40177349Y-139882000D02*
X40177349Y-148038000D01*
X40217349Y-139883000D02*
X40217349Y-148037000D01*
X40257349Y-139885000D02*
X40257349Y-148035000D01*
X40297349Y-139887000D02*
X40297349Y-148033000D01*
X40337349Y-139890000D02*
X40337349Y-148030000D01*
X40377349Y-139892000D02*
X40377349Y-148028000D01*
X40417349Y-139896000D02*
X40417349Y-148024000D01*
X40457349Y-139899000D02*
X40457349Y-148021000D01*
X40497349Y-139904000D02*
X40497349Y-148016000D01*
X40537349Y-139908000D02*
X40537349Y-148012000D01*
X40577349Y-139913000D02*
X40577349Y-148007000D01*
X40617349Y-139918000D02*
X40617349Y-148002000D01*
X40657349Y-139924000D02*
X40657349Y-147996000D01*
X40697349Y-139930000D02*
X40697349Y-147990000D01*
X40737349Y-139937000D02*
X40737349Y-147983000D01*
X40777349Y-139943000D02*
X40777349Y-142920000D01*
X40777349Y-145000000D02*
X40777349Y-147977000D01*
X40817349Y-139951000D02*
X40817349Y-142920000D01*
X40817349Y-145000000D02*
X40817349Y-147969000D01*
X40857349Y-139958000D02*
X40857349Y-142920000D01*
X40857349Y-145000000D02*
X40857349Y-147962000D01*
X40897349Y-139967000D02*
X40897349Y-142920000D01*
X40897349Y-145000000D02*
X40897349Y-147953000D01*
X40937349Y-139975000D02*
X40937349Y-142920000D01*
X40937349Y-145000000D02*
X40937349Y-147945000D01*
X40977349Y-139984000D02*
X40977349Y-142920000D01*
X40977349Y-145000000D02*
X40977349Y-147936000D01*
X41017349Y-139993000D02*
X41017349Y-142920000D01*
X41017349Y-145000000D02*
X41017349Y-147927000D01*
X41057349Y-140003000D02*
X41057349Y-142920000D01*
X41057349Y-145000000D02*
X41057349Y-147917000D01*
X41097349Y-140013000D02*
X41097349Y-142920000D01*
X41097349Y-145000000D02*
X41097349Y-147907000D01*
X41137349Y-140024000D02*
X41137349Y-142920000D01*
X41137349Y-145000000D02*
X41137349Y-147896000D01*
X41177349Y-140035000D02*
X41177349Y-142920000D01*
X41177349Y-145000000D02*
X41177349Y-147885000D01*
X41217349Y-140047000D02*
X41217349Y-142920000D01*
X41217349Y-145000000D02*
X41217349Y-147873000D01*
X41257349Y-140059000D02*
X41257349Y-142920000D01*
X41257349Y-145000000D02*
X41257349Y-147861000D01*
X41297349Y-140071000D02*
X41297349Y-142920000D01*
X41297349Y-145000000D02*
X41297349Y-147849000D01*
X41337349Y-140084000D02*
X41337349Y-142920000D01*
X41337349Y-145000000D02*
X41337349Y-147836000D01*
X41377349Y-140097000D02*
X41377349Y-142920000D01*
X41377349Y-145000000D02*
X41377349Y-147823000D01*
X41417349Y-140111000D02*
X41417349Y-142920000D01*
X41417349Y-145000000D02*
X41417349Y-147809000D01*
X41457349Y-140125000D02*
X41457349Y-142920000D01*
X41457349Y-145000000D02*
X41457349Y-147795000D01*
X41497349Y-140140000D02*
X41497349Y-142920000D01*
X41497349Y-145000000D02*
X41497349Y-147780000D01*
X41537349Y-140155000D02*
X41537349Y-142920000D01*
X41537349Y-145000000D02*
X41537349Y-147765000D01*
X41577349Y-140171000D02*
X41577349Y-142920000D01*
X41577349Y-145000000D02*
X41577349Y-147749000D01*
X41617349Y-140187000D02*
X41617349Y-142920000D01*
X41617349Y-145000000D02*
X41617349Y-147733000D01*
X41657349Y-140203000D02*
X41657349Y-142920000D01*
X41657349Y-145000000D02*
X41657349Y-147717000D01*
X41697349Y-140220000D02*
X41697349Y-142920000D01*
X41697349Y-145000000D02*
X41697349Y-147700000D01*
X41737349Y-140238000D02*
X41737349Y-142920000D01*
X41737349Y-145000000D02*
X41737349Y-147682000D01*
X41777349Y-140256000D02*
X41777349Y-142920000D01*
X41777349Y-145000000D02*
X41777349Y-147664000D01*
X41817349Y-140275000D02*
X41817349Y-142920000D01*
X41817349Y-145000000D02*
X41817349Y-147645000D01*
X41857349Y-140294000D02*
X41857349Y-142920000D01*
X41857349Y-145000000D02*
X41857349Y-147626000D01*
X41897349Y-140314000D02*
X41897349Y-142920000D01*
X41897349Y-145000000D02*
X41897349Y-147606000D01*
X41937349Y-140334000D02*
X41937349Y-142920000D01*
X41937349Y-145000000D02*
X41937349Y-147586000D01*
X41977349Y-140355000D02*
X41977349Y-142920000D01*
X41977349Y-145000000D02*
X41977349Y-147565000D01*
X42017349Y-140376000D02*
X42017349Y-142920000D01*
X42017349Y-145000000D02*
X42017349Y-147544000D01*
X42057349Y-140398000D02*
X42057349Y-142920000D01*
X42057349Y-145000000D02*
X42057349Y-147522000D01*
X42097349Y-140421000D02*
X42097349Y-142920000D01*
X42097349Y-145000000D02*
X42097349Y-147499000D01*
X42137349Y-140444000D02*
X42137349Y-142920000D01*
X42137349Y-145000000D02*
X42137349Y-147476000D01*
X42177349Y-140467000D02*
X42177349Y-142920000D01*
X42177349Y-145000000D02*
X42177349Y-147453000D01*
X42217349Y-140492000D02*
X42217349Y-142920000D01*
X42217349Y-145000000D02*
X42217349Y-147428000D01*
X42257349Y-140517000D02*
X42257349Y-142920000D01*
X42257349Y-145000000D02*
X42257349Y-147403000D01*
X42297349Y-140542000D02*
X42297349Y-142920000D01*
X42297349Y-145000000D02*
X42297349Y-147378000D01*
X42337349Y-140568000D02*
X42337349Y-142920000D01*
X42337349Y-145000000D02*
X42337349Y-147352000D01*
X42377349Y-140595000D02*
X42377349Y-142920000D01*
X42377349Y-145000000D02*
X42377349Y-147325000D01*
X42417349Y-140623000D02*
X42417349Y-142920000D01*
X42417349Y-145000000D02*
X42417349Y-147297000D01*
X42457349Y-140651000D02*
X42457349Y-142920000D01*
X42457349Y-145000000D02*
X42457349Y-147269000D01*
X42497349Y-140680000D02*
X42497349Y-142920000D01*
X42497349Y-145000000D02*
X42497349Y-147240000D01*
X42537349Y-140710000D02*
X42537349Y-142920000D01*
X42537349Y-145000000D02*
X42537349Y-147210000D01*
X42577349Y-140741000D02*
X42577349Y-142920000D01*
X42577349Y-145000000D02*
X42577349Y-147179000D01*
X42617349Y-140772000D02*
X42617349Y-142920000D01*
X42617349Y-145000000D02*
X42617349Y-147148000D01*
X42657349Y-140804000D02*
X42657349Y-142920000D01*
X42657349Y-145000000D02*
X42657349Y-147116000D01*
X42697349Y-140837000D02*
X42697349Y-142920000D01*
X42697349Y-145000000D02*
X42697349Y-147083000D01*
X42737349Y-140871000D02*
X42737349Y-142920000D01*
X42737349Y-145000000D02*
X42737349Y-147049000D01*
X42777349Y-140905000D02*
X42777349Y-142920000D01*
X42777349Y-145000000D02*
X42777349Y-147015000D01*
X42817349Y-140941000D02*
X42817349Y-142920000D01*
X42817349Y-145000000D02*
X42817349Y-146979000D01*
X42857349Y-140978000D02*
X42857349Y-146942000D01*
X42897349Y-141015000D02*
X42897349Y-146905000D01*
X42937349Y-141054000D02*
X42937349Y-146866000D01*
X42977349Y-141093000D02*
X42977349Y-146827000D01*
X43017349Y-141134000D02*
X43017349Y-146786000D01*
X43057349Y-141176000D02*
X43057349Y-146744000D01*
X43097349Y-141219000D02*
X43097349Y-146701000D01*
X43137349Y-141264000D02*
X43137349Y-146656000D01*
X43177349Y-141309000D02*
X43177349Y-146611000D01*
X43217349Y-141356000D02*
X43217349Y-146564000D01*
X43257349Y-141405000D02*
X43257349Y-146515000D01*
X43297349Y-141455000D02*
X43297349Y-146465000D01*
X43337349Y-141507000D02*
X43337349Y-146413000D01*
X43377349Y-141560000D02*
X43377349Y-146360000D01*
X43417349Y-141616000D02*
X43417349Y-146304000D01*
X43457349Y-141673000D02*
X43457349Y-146247000D01*
X43497349Y-141733000D02*
X43497349Y-146187000D01*
X43537349Y-141795000D02*
X43537349Y-146125000D01*
X43577349Y-141859000D02*
X43577349Y-146061000D01*
X43617349Y-141926000D02*
X43617349Y-145994000D01*
X43657349Y-141996000D02*
X43657349Y-145924000D01*
X43697349Y-142070000D02*
X43697349Y-145850000D01*
X43737349Y-142147000D02*
X43737349Y-145773000D01*
X43777349Y-142229000D02*
X43777349Y-145691000D01*
X43817349Y-142316000D02*
X43817349Y-145604000D01*
X43857349Y-142408000D02*
X43857349Y-145512000D01*
X43897349Y-142507000D02*
X43897349Y-145413000D01*
X43937349Y-142614000D02*
X43937349Y-145306000D01*
X43977349Y-142732000D02*
X43977349Y-145188000D01*
X44017349Y-142863000D02*
X44017349Y-145057000D01*
X44057349Y-143013000D02*
X44057349Y-144907000D01*
X44097349Y-143192000D02*
X44097349Y-144728000D01*
X44137349Y-143427000D02*
X44137349Y-144493000D01*
X44177349Y-143960000D02*
G75*
G02*
X35937349Y-143960000I-4120000J0D01*
G01*
X35937349Y-143960000D02*
G75*
G02*
X44177349Y-143960000I4120000J0D01*
G01*
%TO.C,C1*%
X52190000Y-127242651D02*
X56730000Y-127242651D01*
X52190000Y-127298651D02*
X52190000Y-127242651D01*
X56730000Y-129326651D02*
X56730000Y-129382651D01*
X56730000Y-129382651D02*
X52190000Y-129382651D01*
%TO.C,Q3*%
X92600000Y-68830000D02*
X92600000Y-79050000D01*
X92600000Y-68830000D02*
X108470000Y-68830000D01*
X92600000Y-70915000D02*
X90160000Y-70915000D01*
X92600000Y-71885000D02*
X90160000Y-71885000D01*
X92600000Y-73455000D02*
X90160000Y-73455000D01*
X92600000Y-74425000D02*
X90160000Y-74425000D01*
X92600000Y-75995000D02*
X90160000Y-75995000D01*
X92600000Y-76965000D02*
X90160000Y-76965000D01*
X92600000Y-79050000D02*
X108470000Y-79050000D01*
X108470000Y-68830000D02*
X108470000Y-79050000D01*
%TO.C,J10*%
X52880000Y-49680000D02*
X51500000Y-49680000D01*
X52880000Y-48300000D02*
X52880000Y-49680000D01*
X50120000Y-47030000D02*
X50120000Y-44380000D01*
X52880000Y-47030000D02*
X50120000Y-47030000D01*
X52880000Y-47030000D02*
X52880000Y-44380000D01*
X52880000Y-44380000D02*
X50120000Y-44380000D01*
%TO.C,J9*%
X113030000Y-144780000D02*
X113030000Y-154940000D01*
X113030000Y-154940000D02*
X120650000Y-154940000D01*
X114300000Y-154940000D02*
X114300000Y-144780000D01*
X120650000Y-144780000D02*
X113030000Y-144780000D01*
X120650000Y-154940000D02*
X120650000Y-144780000D01*
%TO.C,R9*%
X74200000Y-100230000D02*
X74200000Y-100560000D01*
X74200000Y-102970000D02*
X74200000Y-102640000D01*
X80740000Y-100230000D02*
X74200000Y-100230000D01*
X80740000Y-100560000D02*
X80740000Y-100230000D01*
X80740000Y-102640000D02*
X80740000Y-102970000D01*
X80740000Y-102970000D02*
X74200000Y-102970000D01*
%TO.C,Q7*%
X92600000Y-129510000D02*
X92600000Y-139730000D01*
X92600000Y-129510000D02*
X108470000Y-129510000D01*
X92600000Y-131595000D02*
X90160000Y-131595000D01*
X92600000Y-132565000D02*
X90160000Y-132565000D01*
X92600000Y-134135000D02*
X90160000Y-134135000D01*
X92600000Y-135105000D02*
X90160000Y-135105000D01*
X92600000Y-136675000D02*
X90160000Y-136675000D01*
X92600000Y-137645000D02*
X90160000Y-137645000D01*
X92600000Y-139730000D02*
X108470000Y-139730000D01*
X108470000Y-129510000D02*
X108470000Y-139730000D01*
%TO.C,R7*%
X74200000Y-85270000D02*
X74200000Y-85600000D01*
X74200000Y-88010000D02*
X74200000Y-87680000D01*
X80740000Y-85270000D02*
X74200000Y-85270000D01*
X80740000Y-85600000D02*
X80740000Y-85270000D01*
X80740000Y-87680000D02*
X80740000Y-88010000D01*
X80740000Y-88010000D02*
X74200000Y-88010000D01*
%TO.C,R1*%
X74200000Y-39270000D02*
X74200000Y-39600000D01*
X74200000Y-42010000D02*
X74200000Y-41680000D01*
X80740000Y-39270000D02*
X74200000Y-39270000D01*
X80740000Y-39600000D02*
X80740000Y-39270000D01*
X80740000Y-41680000D02*
X80740000Y-42010000D01*
X80740000Y-42010000D02*
X74200000Y-42010000D01*
%TO.C,R3*%
X74200000Y-54510000D02*
X74200000Y-54840000D01*
X74200000Y-57250000D02*
X74200000Y-56920000D01*
X80740000Y-54510000D02*
X74200000Y-54510000D01*
X80740000Y-54840000D02*
X80740000Y-54510000D01*
X80740000Y-56920000D02*
X80740000Y-57250000D01*
X80740000Y-57250000D02*
X74200000Y-57250000D01*
%TO.C,R16*%
X74200000Y-150470000D02*
X80740000Y-150470000D01*
X74200000Y-150800000D02*
X74200000Y-150470000D01*
X74200000Y-152880000D02*
X74200000Y-153210000D01*
X74200000Y-153210000D02*
X80740000Y-153210000D01*
X80740000Y-150470000D02*
X80740000Y-150800000D01*
X80740000Y-153210000D02*
X80740000Y-152880000D01*
%TO.C,R17*%
X50130000Y-60460000D02*
X50460000Y-60460000D01*
X52870000Y-60460000D02*
X52540000Y-60460000D01*
X50130000Y-53920000D02*
X50130000Y-60460000D01*
X50460000Y-53920000D02*
X50130000Y-53920000D01*
X52540000Y-53920000D02*
X52870000Y-53920000D01*
X52870000Y-53920000D02*
X52870000Y-60460000D01*
%TO.C,Q2*%
X92600000Y-53310000D02*
X92600000Y-63530000D01*
X92600000Y-53310000D02*
X108470000Y-53310000D01*
X92600000Y-55395000D02*
X90160000Y-55395000D01*
X92600000Y-56365000D02*
X90160000Y-56365000D01*
X92600000Y-57935000D02*
X90160000Y-57935000D01*
X92600000Y-58905000D02*
X90160000Y-58905000D01*
X92600000Y-60475000D02*
X90160000Y-60475000D01*
X92600000Y-61445000D02*
X90160000Y-61445000D01*
X92600000Y-63530000D02*
X108470000Y-63530000D01*
X108470000Y-53310000D02*
X108470000Y-63530000D01*
%TO.C,U1*%
X49310000Y-138022651D02*
X49310000Y-153892651D01*
X51395000Y-138022651D02*
X51395000Y-135582651D01*
X52365000Y-138022651D02*
X52365000Y-135582651D01*
X53935000Y-138022651D02*
X53935000Y-135582651D01*
X54905000Y-138022651D02*
X54905000Y-135582651D01*
X56475000Y-138022651D02*
X56475000Y-135582651D01*
X57445000Y-138022651D02*
X57445000Y-135582651D01*
X59530000Y-138022651D02*
X49310000Y-138022651D01*
X59530000Y-138022651D02*
X59530000Y-153892651D01*
X59530000Y-153892651D02*
X49310000Y-153892651D01*
%TO.C,J5*%
X113030000Y-84100000D02*
X113030000Y-94260000D01*
X113030000Y-94260000D02*
X120650000Y-94260000D01*
X114300000Y-94260000D02*
X114300000Y-84100000D01*
X120650000Y-84100000D02*
X113030000Y-84100000D01*
X120650000Y-94260000D02*
X120650000Y-84100000D01*
%TO.C,R2*%
X74200000Y-44350000D02*
X80740000Y-44350000D01*
X74200000Y-44680000D02*
X74200000Y-44350000D01*
X74200000Y-46760000D02*
X74200000Y-47090000D01*
X74200000Y-47090000D02*
X80740000Y-47090000D01*
X80740000Y-44350000D02*
X80740000Y-44680000D01*
X80740000Y-47090000D02*
X80740000Y-46760000D01*
%TO.C,J6*%
X113030000Y-99060000D02*
X113030000Y-109220000D01*
X113030000Y-109220000D02*
X120650000Y-109220000D01*
X114300000Y-109220000D02*
X114300000Y-99060000D01*
X120650000Y-99060000D02*
X113030000Y-99060000D01*
X120650000Y-109220000D02*
X120650000Y-99060000D01*
%TO.C,R4*%
X74200000Y-59590000D02*
X80740000Y-59590000D01*
X74200000Y-59920000D02*
X74200000Y-59590000D01*
X74200000Y-62000000D02*
X74200000Y-62330000D01*
X74200000Y-62330000D02*
X80740000Y-62330000D01*
X80740000Y-59590000D02*
X80740000Y-59920000D01*
X80740000Y-62330000D02*
X80740000Y-62000000D01*
%TO.C,J4*%
X113030000Y-68860000D02*
X113030000Y-79020000D01*
X113030000Y-79020000D02*
X120650000Y-79020000D01*
X114300000Y-79020000D02*
X114300000Y-68860000D01*
X120650000Y-68860000D02*
X113030000Y-68860000D01*
X120650000Y-79020000D02*
X120650000Y-68860000D01*
%TO.C,R14*%
X74200000Y-135790000D02*
X80740000Y-135790000D01*
X74200000Y-136120000D02*
X74200000Y-135790000D01*
X74200000Y-138200000D02*
X74200000Y-138530000D01*
X74200000Y-138530000D02*
X80740000Y-138530000D01*
X80740000Y-135790000D02*
X80740000Y-136120000D01*
X80740000Y-138530000D02*
X80740000Y-138200000D01*
%TO.C,R5*%
X74200000Y-70030000D02*
X74200000Y-70360000D01*
X74200000Y-72770000D02*
X74200000Y-72440000D01*
X80740000Y-70030000D02*
X74200000Y-70030000D01*
X80740000Y-70360000D02*
X80740000Y-70030000D01*
X80740000Y-72440000D02*
X80740000Y-72770000D01*
X80740000Y-72770000D02*
X74200000Y-72770000D01*
%TO.C,R10*%
X74200000Y-105310000D02*
X80740000Y-105310000D01*
X74200000Y-105640000D02*
X74200000Y-105310000D01*
X74200000Y-107720000D02*
X74200000Y-108050000D01*
X74200000Y-108050000D02*
X80740000Y-108050000D01*
X80740000Y-105310000D02*
X80740000Y-105640000D01*
X80740000Y-108050000D02*
X80740000Y-107720000D01*
%TO.C,R15*%
X74200000Y-145950000D02*
X74200000Y-146280000D01*
X74200000Y-148690000D02*
X74200000Y-148360000D01*
X80740000Y-145950000D02*
X74200000Y-145950000D01*
X80740000Y-146280000D02*
X80740000Y-145950000D01*
X80740000Y-148360000D02*
X80740000Y-148690000D01*
X80740000Y-148690000D02*
X74200000Y-148690000D01*
%TO.C,Q8*%
X92600000Y-144750000D02*
X92600000Y-154970000D01*
X92600000Y-144750000D02*
X108470000Y-144750000D01*
X92600000Y-146835000D02*
X90160000Y-146835000D01*
X92600000Y-147805000D02*
X90160000Y-147805000D01*
X92600000Y-149375000D02*
X90160000Y-149375000D01*
X92600000Y-150345000D02*
X90160000Y-150345000D01*
X92600000Y-151915000D02*
X90160000Y-151915000D01*
X92600000Y-152885000D02*
X90160000Y-152885000D01*
X92600000Y-154970000D02*
X108470000Y-154970000D01*
X108470000Y-144750000D02*
X108470000Y-154970000D01*
%TO.C,J8*%
X113030000Y-129540000D02*
X113030000Y-139700000D01*
X113030000Y-139700000D02*
X120650000Y-139700000D01*
X114300000Y-139700000D02*
X114300000Y-129540000D01*
X120650000Y-129540000D02*
X113030000Y-129540000D01*
X120650000Y-139700000D02*
X120650000Y-129540000D01*
%TO.C,Q5*%
X92600000Y-99030000D02*
X92600000Y-109250000D01*
X92600000Y-99030000D02*
X108470000Y-99030000D01*
X92600000Y-101115000D02*
X90160000Y-101115000D01*
X92600000Y-102085000D02*
X90160000Y-102085000D01*
X92600000Y-103655000D02*
X90160000Y-103655000D01*
X92600000Y-104625000D02*
X90160000Y-104625000D01*
X92600000Y-106195000D02*
X90160000Y-106195000D01*
X92600000Y-107165000D02*
X90160000Y-107165000D01*
X92600000Y-109250000D02*
X108470000Y-109250000D01*
X108470000Y-99030000D02*
X108470000Y-109250000D01*
%TO.C,J11*%
X45880000Y-49500000D02*
X44500000Y-49500000D01*
X45880000Y-48120000D02*
X45880000Y-49500000D01*
X43120000Y-46850000D02*
X43120000Y-44200000D01*
X45880000Y-46850000D02*
X43120000Y-46850000D01*
X45880000Y-46850000D02*
X45880000Y-44200000D01*
X45880000Y-44200000D02*
X43120000Y-44200000D01*
%TO.C,Q1*%
X92600000Y-38070000D02*
X92600000Y-48290000D01*
X92600000Y-38070000D02*
X108470000Y-38070000D01*
X92600000Y-40155000D02*
X90160000Y-40155000D01*
X92600000Y-41125000D02*
X90160000Y-41125000D01*
X92600000Y-42695000D02*
X90160000Y-42695000D01*
X92600000Y-43665000D02*
X90160000Y-43665000D01*
X92600000Y-45235000D02*
X90160000Y-45235000D01*
X92600000Y-46205000D02*
X90160000Y-46205000D01*
X92600000Y-48290000D02*
X108470000Y-48290000D01*
X108470000Y-38070000D02*
X108470000Y-48290000D01*
%TO.C,R8*%
X74200000Y-90350000D02*
X80740000Y-90350000D01*
X74200000Y-90680000D02*
X74200000Y-90350000D01*
X74200000Y-92760000D02*
X74200000Y-93090000D01*
X74200000Y-93090000D02*
X80740000Y-93090000D01*
X80740000Y-90350000D02*
X80740000Y-90680000D01*
X80740000Y-93090000D02*
X80740000Y-92760000D01*
%TO.C,J7*%
X113030000Y-114020000D02*
X113030000Y-124180000D01*
X113030000Y-124180000D02*
X120650000Y-124180000D01*
X114300000Y-124180000D02*
X114300000Y-114020000D01*
X120650000Y-114020000D02*
X113030000Y-114020000D01*
X120650000Y-124180000D02*
X120650000Y-114020000D01*
%TO.C,J1*%
X35650000Y-163040000D02*
X43270000Y-163040000D01*
X43270000Y-163040000D02*
X43270000Y-152880000D01*
X35650000Y-152880000D02*
X35650000Y-163040000D01*
X42000000Y-152880000D02*
X42000000Y-163040000D01*
X43270000Y-152880000D02*
X35650000Y-152880000D01*
%TO.C,R12*%
X74200000Y-120270000D02*
X80740000Y-120270000D01*
X74200000Y-120600000D02*
X74200000Y-120270000D01*
X74200000Y-122680000D02*
X74200000Y-123010000D01*
X74200000Y-123010000D02*
X80740000Y-123010000D01*
X80740000Y-120270000D02*
X80740000Y-120600000D01*
X80740000Y-123010000D02*
X80740000Y-122680000D01*
%TO.C,J3*%
X113030000Y-53340000D02*
X113030000Y-63500000D01*
X113030000Y-63500000D02*
X120650000Y-63500000D01*
X114300000Y-63500000D02*
X114300000Y-53340000D01*
X120650000Y-53340000D02*
X113030000Y-53340000D01*
X120650000Y-63500000D02*
X120650000Y-53340000D01*
%TO.C,R13*%
X74200000Y-130710000D02*
X74200000Y-131040000D01*
X74200000Y-133450000D02*
X74200000Y-133120000D01*
X80740000Y-130710000D02*
X74200000Y-130710000D01*
X80740000Y-131040000D02*
X80740000Y-130710000D01*
X80740000Y-133120000D02*
X80740000Y-133450000D01*
X80740000Y-133450000D02*
X74200000Y-133450000D01*
%TO.C,R11*%
X74200000Y-115190000D02*
X74200000Y-115520000D01*
X74200000Y-117930000D02*
X74200000Y-117600000D01*
X80740000Y-115190000D02*
X74200000Y-115190000D01*
X80740000Y-115520000D02*
X80740000Y-115190000D01*
X80740000Y-117600000D02*
X80740000Y-117930000D01*
X80740000Y-117930000D02*
X74200000Y-117930000D01*
%TO.C,Q4*%
X92600000Y-84070000D02*
X92600000Y-94290000D01*
X92600000Y-84070000D02*
X108470000Y-84070000D01*
X92600000Y-86155000D02*
X90160000Y-86155000D01*
X92600000Y-87125000D02*
X90160000Y-87125000D01*
X92600000Y-88695000D02*
X90160000Y-88695000D01*
X92600000Y-89665000D02*
X90160000Y-89665000D01*
X92600000Y-91235000D02*
X90160000Y-91235000D01*
X92600000Y-92205000D02*
X90160000Y-92205000D01*
X92600000Y-94290000D02*
X108470000Y-94290000D01*
X108470000Y-84070000D02*
X108470000Y-94290000D01*
%TO.C,J2*%
X113030000Y-38100000D02*
X113030000Y-48260000D01*
X113030000Y-48260000D02*
X120650000Y-48260000D01*
X114300000Y-48260000D02*
X114300000Y-38100000D01*
X120650000Y-38100000D02*
X113030000Y-38100000D01*
X120650000Y-48260000D02*
X120650000Y-38100000D01*
%TO.C,Q6*%
X92600000Y-113990000D02*
X92600000Y-124210000D01*
X92600000Y-113990000D02*
X108470000Y-113990000D01*
X92600000Y-116075000D02*
X90160000Y-116075000D01*
X92600000Y-117045000D02*
X90160000Y-117045000D01*
X92600000Y-118615000D02*
X90160000Y-118615000D01*
X92600000Y-119585000D02*
X90160000Y-119585000D01*
X92600000Y-121155000D02*
X90160000Y-121155000D01*
X92600000Y-122125000D02*
X90160000Y-122125000D01*
X92600000Y-124210000D02*
X108470000Y-124210000D01*
X108470000Y-113990000D02*
X108470000Y-124210000D01*
%TO.C,R6*%
X74200000Y-75110000D02*
X80740000Y-75110000D01*
X74200000Y-75440000D02*
X74200000Y-75110000D01*
X74200000Y-77520000D02*
X74200000Y-77850000D01*
X74200000Y-77850000D02*
X80740000Y-77850000D01*
X80740000Y-75110000D02*
X80740000Y-75440000D01*
X80740000Y-77850000D02*
X80740000Y-77520000D01*
%TO.C,C2*%
X52190000Y-122162651D02*
X56730000Y-122162651D01*
X52190000Y-122218651D02*
X52190000Y-122162651D01*
X56730000Y-124246651D02*
X56730000Y-124302651D01*
X56730000Y-124302651D02*
X52190000Y-124302651D01*
%TO.C,U2*%
D11*
X55570000Y-112580000D02*
X43570000Y-112580000D01*
X43570000Y-107080000D01*
X55570000Y-107080000D01*
X55570000Y-112580000D01*
X62520000Y-107080000D02*
X36620000Y-107080000D01*
X36620000Y-68270000D01*
X62520000Y-68270000D01*
X62520000Y-107080000D01*
%TD*%
M02*
