%TF.GenerationSoftware,KiCad,Pcbnew,9.0.7*%
%TF.CreationDate,2026-02-17T16:05:45+00:00*%
%TF.ProjectId,VANDIMMER-8CH,56414e44-494d-44d4-9552-2d3843482e6b,rev?*%
%TF.SameCoordinates,Original*%
%TF.FileFunction,Copper,L1,Top*%
%TF.FilePolarity,Positive*%
%FSLAX46Y46*%
G04 Gerber Fmt 4.6, Leading zero omitted, Abs format (unit mm)*
G04 Created by KiCad (PCBNEW 9.0.7) date 2026-02-17 16:05:45*
%MOMM*%
%LPD*%
G01*
G04 APERTURE LIST*
G04 Aperture macros list*
%AMRoundRect*
0 Rectangle with rounded corners*
0 $1 Rounding radius*
0 $2 $3 $4 $5 $6 $7 $8 $9 X,Y pos of 4 corners*
0 Add a 4 corners polygon primitive as box body*
4,1,4,$2,$3,$4,$5,$6,$7,$8,$9,$2,$3,0*
0 Add four circle primitives for the rounded corners*
1,1,$1+$1,$2,$3*
1,1,$1+$1,$4,$5*
1,1,$1+$1,$6,$7*
1,1,$1+$1,$8,$9*
0 Add four rect primitives between the rounded corners*
20,1,$1+$1,$2,$3,$4,$5,0*
20,1,$1+$1,$4,$5,$6,$7,0*
20,1,$1+$1,$6,$7,$8,$9,0*
20,1,$1+$1,$8,$9,$2,$3,0*%
G04 Aperture macros list end*
%TA.AperFunction,ComponentPad*%
%ADD10C,1.600000*%
%TD*%
%TA.AperFunction,ComponentPad*%
%ADD11RoundRect,0.250000X-0.550000X-0.550000X0.550000X-0.550000X0.550000X0.550000X-0.550000X0.550000X0*%
%TD*%
%TA.AperFunction,ComponentPad*%
%ADD12R,2.000000X1.905000*%
%TD*%
%TA.AperFunction,ComponentPad*%
%ADD13O,2.000000X1.905000*%
%TD*%
%TA.AperFunction,ComponentPad*%
%ADD14R,1.700000X1.700000*%
%TD*%
%TA.AperFunction,ComponentPad*%
%ADD15C,1.700000*%
%TD*%
%TA.AperFunction,ComponentPad*%
%ADD16RoundRect,0.250000X-0.750000X0.750000X-0.750000X-0.750000X0.750000X-0.750000X0.750000X0.750000X0*%
%TD*%
%TA.AperFunction,ComponentPad*%
%ADD17C,2.000000*%
%TD*%
%TA.AperFunction,ComponentPad*%
%ADD18R,1.905000X2.000000*%
%TD*%
%TA.AperFunction,ComponentPad*%
%ADD19O,1.905000X2.000000*%
%TD*%
%TA.AperFunction,ComponentPad*%
%ADD20R,2.000000X1.200000*%
%TD*%
%TA.AperFunction,ComponentPad*%
%ADD21O,2.000000X1.200000*%
%TD*%
%TA.AperFunction,ComponentPad*%
%ADD22R,3.000000X3.000000*%
%TD*%
%TA.AperFunction,ComponentPad*%
%ADD23C,3.000000*%
%TD*%
G04 APERTURE END LIST*
D10*
%TO.P,R18,1*%
%TO.N,Net-(J11-Pin_1)*%
X39990000Y-107770000D03*
%TO.P,R18,2*%
%TO.N,+3.3V*%
X39990000Y-115390000D03*
%TD*%
D11*
%TO.P,C4,1*%
%TO.N,VIN*%
X42307349Y-140297349D03*
D10*
%TO.P,C4,2*%
%TO.N,GND*%
X45807349Y-140297349D03*
%TD*%
%TO.P,C1,1*%
%TO.N,VIN*%
X55960000Y-124650000D03*
%TO.P,C1,2*%
%TO.N,GND*%
X60960000Y-124650000D03*
%TD*%
D12*
%TO.P,Q3,1,G*%
%TO.N,Net-(Q3-G)*%
X88900000Y-71400000D03*
D13*
%TO.P,Q3,2,S*%
%TO.N,Net-(J4-Pin_2)*%
X88900000Y-73940000D03*
%TO.P,Q3,3,D*%
%TO.N,GND*%
X88900000Y-76480000D03*
%TD*%
D14*
%TO.P,J10,1,Pin_1*%
%TO.N,Net-(J10-Pin_1)*%
X46990000Y-102870000D03*
D15*
%TO.P,J10,2,Pin_2*%
%TO.N,GND*%
X46990000Y-100330000D03*
%TD*%
D16*
%TO.P,J9,1,Pin_1*%
%TO.N,VIN*%
X114300000Y-147320000D03*
D17*
%TO.P,J9,2,Pin_2*%
%TO.N,Net-(J9-Pin_2)*%
X114300000Y-149860000D03*
%TD*%
D10*
%TO.P,R9,1*%
%TO.N,Net-(Q5-G)*%
X81280000Y-101600000D03*
%TO.P,R9,2*%
%TO.N,CH5*%
X73660000Y-101600000D03*
%TD*%
D12*
%TO.P,Q7,1,G*%
%TO.N,Net-(Q7-G)*%
X88900000Y-132080000D03*
D13*
%TO.P,Q7,2,S*%
%TO.N,Net-(J8-Pin_2)*%
X88900000Y-134620000D03*
%TO.P,Q7,3,D*%
%TO.N,GND*%
X88900000Y-137160000D03*
%TD*%
D10*
%TO.P,R7,1*%
%TO.N,Net-(Q4-G)*%
X81280000Y-86640000D03*
%TO.P,R7,2*%
%TO.N,CH4*%
X73660000Y-86640000D03*
%TD*%
%TO.P,R1,1*%
%TO.N,Net-(Q1-G)*%
X81280000Y-40640000D03*
%TO.P,R1,2*%
%TO.N,CH1*%
X73660000Y-40640000D03*
%TD*%
%TO.P,R3,1*%
%TO.N,Net-(Q2-G)*%
X81280000Y-55880000D03*
%TO.P,R3,2*%
%TO.N,CH2*%
X73660000Y-55880000D03*
%TD*%
%TO.P,R16,1*%
%TO.N,GND*%
X73660000Y-151840000D03*
%TO.P,R16,2*%
%TO.N,Net-(Q8-G)*%
X81280000Y-151840000D03*
%TD*%
%TO.P,R17,1*%
%TO.N,Net-(J10-Pin_1)*%
X46990000Y-107950000D03*
%TO.P,R17,2*%
%TO.N,+3.3V*%
X46990000Y-115570000D03*
%TD*%
D12*
%TO.P,Q2,1,G*%
%TO.N,Net-(Q2-G)*%
X88900000Y-55880000D03*
D13*
%TO.P,Q2,2,S*%
%TO.N,Net-(J3-Pin_2)*%
X88900000Y-58420000D03*
%TO.P,Q2,3,D*%
%TO.N,GND*%
X88900000Y-60960000D03*
%TD*%
D18*
%TO.P,U1,1,GND*%
%TO.N,GND*%
X60960000Y-130660000D03*
D19*
%TO.P,U1,2,VO*%
%TO.N,+3.3V*%
X58420000Y-130660000D03*
%TO.P,U1,3,VI*%
%TO.N,VIN*%
X55880000Y-130660000D03*
%TD*%
D20*
%TO.P,U2,1,EN*%
%TO.N,unconnected-(U2-EN-Pad1)*%
X64226320Y-79987280D03*
D21*
%TO.P,U2,2,VP*%
%TO.N,unconnected-(U2-VP-Pad2)*%
X64226320Y-77447280D03*
%TO.P,U2,3,VN*%
%TO.N,unconnected-(U2-VN-Pad3)*%
X64226320Y-74907280D03*
%TO.P,U2,4,D34*%
%TO.N,unconnected-(U2-D34-Pad4)*%
X64226320Y-72367280D03*
%TO.P,U2,5,D35*%
%TO.N,unconnected-(U2-D35-Pad5)*%
X64226320Y-69827280D03*
%TO.P,U2,6,D32*%
%TO.N,CH8*%
X64226320Y-67287280D03*
%TO.P,U2,7,D33*%
%TO.N,CH7*%
X64226320Y-64747280D03*
%TO.P,U2,8,D25*%
%TO.N,CH6*%
X64226320Y-62207280D03*
%TO.P,U2,9,D26*%
%TO.N,CH5*%
X64226320Y-59667280D03*
%TO.P,U2,10,D27*%
%TO.N,CH4*%
X64226320Y-57127280D03*
%TO.P,U2,11,D14*%
%TO.N,CH3*%
X64226320Y-54587280D03*
%TO.P,U2,12,D12*%
%TO.N,CH2*%
X64226320Y-52047280D03*
%TO.P,U2,13,D13*%
%TO.N,CH1*%
X64226320Y-49507280D03*
%TO.P,U2,14,Gnd*%
%TO.N,GND*%
X64226320Y-46967280D03*
%TO.P,U2,15,Vin*%
%TO.N,unconnected-(U2-Vin-Pad15)*%
X64226320Y-44427280D03*
%TO.P,U2,16,3.3v*%
%TO.N,+3.3V*%
X39370000Y-44450000D03*
%TO.P,U2,17,Gnd*%
%TO.N,GND*%
X39370000Y-46990000D03*
%TO.P,U2,18,D15*%
%TO.N,unconnected-(U2-D15-Pad18)*%
X39366320Y-49527280D03*
%TO.P,U2,19,D2*%
%TO.N,unconnected-(U2-D2-Pad19)*%
X39366320Y-52067280D03*
%TO.P,U2,20,D4*%
%TO.N,unconnected-(U2-D4-Pad20)*%
X39366320Y-54607280D03*
%TO.P,U2,21,Rx2*%
%TO.N,unconnected-(U2-Rx2-Pad21)*%
X39366320Y-57147280D03*
%TO.P,U2,22,Tx2*%
%TO.N,unconnected-(U2-Tx2-Pad22)*%
X39366320Y-59687280D03*
%TO.P,U2,23,D5*%
%TO.N,unconnected-(U2-D5-Pad23)*%
X39366320Y-62227280D03*
%TO.P,U2,24,D18*%
%TO.N,Net-(J11-Pin_1)*%
X39366320Y-64767280D03*
%TO.P,U2,25,D19*%
%TO.N,Net-(J10-Pin_1)*%
X39366320Y-67307280D03*
%TO.P,U2,26,D21*%
%TO.N,unconnected-(U2-D21-Pad26)*%
X39366320Y-69847280D03*
%TO.P,U2,27,Rx0*%
%TO.N,unconnected-(U2-Rx0-Pad27)*%
X39366320Y-72387280D03*
%TO.P,U2,28,Tx0*%
%TO.N,unconnected-(U2-Tx0-Pad28)*%
X39366320Y-74927280D03*
%TO.P,U2,29,D22*%
%TO.N,unconnected-(U2-D22-Pad29)*%
X39366320Y-77467280D03*
%TO.P,U2,30,D23*%
%TO.N,unconnected-(U2-D23-Pad30)*%
X39366320Y-80007280D03*
%TD*%
D16*
%TO.P,J5,1,Pin_1*%
%TO.N,VIN*%
X114300000Y-86640000D03*
D17*
%TO.P,J5,2,Pin_2*%
%TO.N,Net-(J5-Pin_2)*%
X114300000Y-89180000D03*
%TD*%
D10*
%TO.P,R2,1*%
%TO.N,GND*%
X73660000Y-45720000D03*
%TO.P,R2,2*%
%TO.N,Net-(Q1-G)*%
X81280000Y-45720000D03*
%TD*%
D16*
%TO.P,J6,1,Pin_1*%
%TO.N,VIN*%
X114300000Y-101600000D03*
D17*
%TO.P,J6,2,Pin_2*%
%TO.N,Net-(J6-Pin_2)*%
X114300000Y-104140000D03*
%TD*%
D10*
%TO.P,R4,1*%
%TO.N,GND*%
X73660000Y-60960000D03*
%TO.P,R4,2*%
%TO.N,Net-(Q2-G)*%
X81280000Y-60960000D03*
%TD*%
D16*
%TO.P,J4,1,Pin_1*%
%TO.N,VIN*%
X114300000Y-71400000D03*
D17*
%TO.P,J4,2,Pin_2*%
%TO.N,Net-(J4-Pin_2)*%
X114300000Y-73940000D03*
%TD*%
D10*
%TO.P,R14,1*%
%TO.N,GND*%
X73660000Y-137160000D03*
%TO.P,R14,2*%
%TO.N,Net-(Q7-G)*%
X81280000Y-137160000D03*
%TD*%
%TO.P,R5,1*%
%TO.N,Net-(Q3-G)*%
X81280000Y-71400000D03*
%TO.P,R5,2*%
%TO.N,CH3*%
X73660000Y-71400000D03*
%TD*%
%TO.P,R10,1*%
%TO.N,GND*%
X73660000Y-106680000D03*
%TO.P,R10,2*%
%TO.N,Net-(Q5-G)*%
X81280000Y-106680000D03*
%TD*%
%TO.P,R15,1*%
%TO.N,Net-(Q8-G)*%
X81280000Y-147320000D03*
%TO.P,R15,2*%
%TO.N,CH8*%
X73660000Y-147320000D03*
%TD*%
D12*
%TO.P,Q8,1,G*%
%TO.N,Net-(Q8-G)*%
X88900000Y-147320000D03*
D13*
%TO.P,Q8,2,S*%
%TO.N,Net-(J9-Pin_2)*%
X88900000Y-149860000D03*
%TO.P,Q8,3,D*%
%TO.N,GND*%
X88900000Y-152400000D03*
%TD*%
D16*
%TO.P,J8,1,Pin_1*%
%TO.N,VIN*%
X114300000Y-132080000D03*
D17*
%TO.P,J8,2,Pin_2*%
%TO.N,Net-(J8-Pin_2)*%
X114300000Y-134620000D03*
%TD*%
D12*
%TO.P,Q5,1,G*%
%TO.N,Net-(Q5-G)*%
X88900000Y-101600000D03*
D13*
%TO.P,Q5,2,S*%
%TO.N,Net-(J6-Pin_2)*%
X88900000Y-104140000D03*
%TO.P,Q5,3,D*%
%TO.N,GND*%
X88900000Y-106680000D03*
%TD*%
D14*
%TO.P,J11,1,Pin_1*%
%TO.N,Net-(J11-Pin_1)*%
X39990000Y-102690000D03*
D15*
%TO.P,J11,2,Pin_2*%
%TO.N,GND*%
X39990000Y-100150000D03*
%TD*%
D12*
%TO.P,Q1,1,G*%
%TO.N,Net-(Q1-G)*%
X88900000Y-40640000D03*
D13*
%TO.P,Q1,2,S*%
%TO.N,Net-(J2-Pin_2)*%
X88900000Y-43180000D03*
%TO.P,Q1,3,D*%
%TO.N,GND*%
X88900000Y-45720000D03*
%TD*%
D10*
%TO.P,R8,1*%
%TO.N,GND*%
X73660000Y-91720000D03*
%TO.P,R8,2*%
%TO.N,Net-(Q4-G)*%
X81280000Y-91720000D03*
%TD*%
D16*
%TO.P,J7,1,Pin_1*%
%TO.N,VIN*%
X114300000Y-116560000D03*
D17*
%TO.P,J7,2,Pin_2*%
%TO.N,Net-(J7-Pin_2)*%
X114300000Y-119100000D03*
%TD*%
D22*
%TO.P,J1,1,Pin_1*%
%TO.N,VIN*%
X43460000Y-156837349D03*
D23*
%TO.P,J1,2,Pin_2*%
%TO.N,GND*%
X43460000Y-151757349D03*
%TD*%
D10*
%TO.P,R12,1*%
%TO.N,GND*%
X73660000Y-121640000D03*
%TO.P,R12,2*%
%TO.N,Net-(Q6-G)*%
X81280000Y-121640000D03*
%TD*%
D16*
%TO.P,J3,1,Pin_1*%
%TO.N,VIN*%
X114300000Y-55880000D03*
D17*
%TO.P,J3,2,Pin_2*%
%TO.N,Net-(J3-Pin_2)*%
X114300000Y-58420000D03*
%TD*%
D10*
%TO.P,R13,1*%
%TO.N,Net-(Q7-G)*%
X81280000Y-132080000D03*
%TO.P,R13,2*%
%TO.N,CH7*%
X73660000Y-132080000D03*
%TD*%
%TO.P,R11,1*%
%TO.N,Net-(Q6-G)*%
X81280000Y-116560000D03*
%TO.P,R11,2*%
%TO.N,CH6*%
X73660000Y-116560000D03*
%TD*%
D12*
%TO.P,Q4,1,G*%
%TO.N,Net-(Q4-G)*%
X88900000Y-86640000D03*
D13*
%TO.P,Q4,2,S*%
%TO.N,Net-(J5-Pin_2)*%
X88900000Y-89180000D03*
%TO.P,Q4,3,D*%
%TO.N,GND*%
X88900000Y-91720000D03*
%TD*%
D16*
%TO.P,J2,1,Pin_1*%
%TO.N,VIN*%
X114300000Y-40640000D03*
D17*
%TO.P,J2,2,Pin_2*%
%TO.N,Net-(J2-Pin_2)*%
X114300000Y-43180000D03*
%TD*%
D12*
%TO.P,Q6,1,G*%
%TO.N,Net-(Q6-G)*%
X88900000Y-116560000D03*
D13*
%TO.P,Q6,2,S*%
%TO.N,Net-(J7-Pin_2)*%
X88900000Y-119100000D03*
%TO.P,Q6,3,D*%
%TO.N,GND*%
X88900000Y-121640000D03*
%TD*%
D10*
%TO.P,R6,1*%
%TO.N,GND*%
X73660000Y-76480000D03*
%TO.P,R6,2*%
%TO.N,Net-(Q3-G)*%
X81280000Y-76480000D03*
%TD*%
%TO.P,C2,1*%
%TO.N,+3.3V*%
X55960000Y-119570000D03*
%TO.P,C2,2*%
%TO.N,GND*%
X60960000Y-119570000D03*
%TD*%
M02*
