%TF.GenerationSoftware,KiCad,Pcbnew,9.0.7*%
%TF.CreationDate,2026-02-06T13:46:22+00:00*%
%TF.ProjectId,VANDIMMER-8CH,56414e44-494d-44d4-9552-2d3843482e6b,rev?*%
%TF.SameCoordinates,Original*%
%TF.FileFunction,Copper,L1,Top*%
%TF.FilePolarity,Positive*%
%FSLAX46Y46*%
G04 Gerber Fmt 4.6, Leading zero omitted, Abs format (unit mm)*
G04 Created by KiCad (PCBNEW 9.0.7) date 2026-02-06 13:46:22*
%MOMM*%
%LPD*%
G01*
G04 APERTURE LIST*
G04 Aperture macros list*
%AMRoundRect*
0 Rectangle with rounded corners*
0 $1 Rounding radius*
0 $2 $3 $4 $5 $6 $7 $8 $9 X,Y pos of 4 corners*
0 Add a 4 corners polygon primitive as box body*
4,1,4,$2,$3,$4,$5,$6,$7,$8,$9,$2,$3,0*
0 Add four circle primitives for the rounded corners*
1,1,$1+$1,$2,$3*
1,1,$1+$1,$4,$5*
1,1,$1+$1,$6,$7*
1,1,$1+$1,$8,$9*
0 Add four rect primitives between the rounded corners*
20,1,$1+$1,$2,$3,$4,$5,0*
20,1,$1+$1,$4,$5,$6,$7,0*
20,1,$1+$1,$6,$7,$8,$9,0*
20,1,$1+$1,$8,$9,$2,$3,0*%
G04 Aperture macros list end*
%TA.AperFunction,ComponentPad*%
%ADD10C,1.600000*%
%TD*%
%TA.AperFunction,ComponentPad*%
%ADD11RoundRect,0.250000X-0.550000X-0.550000X0.550000X-0.550000X0.550000X0.550000X-0.550000X0.550000X0*%
%TD*%
%TA.AperFunction,ComponentPad*%
%ADD12R,2.000000X1.905000*%
%TD*%
%TA.AperFunction,ComponentPad*%
%ADD13O,2.000000X1.905000*%
%TD*%
%TA.AperFunction,ComponentPad*%
%ADD14R,1.700000X1.700000*%
%TD*%
%TA.AperFunction,ComponentPad*%
%ADD15C,1.700000*%
%TD*%
%TA.AperFunction,ComponentPad*%
%ADD16R,3.000000X3.000000*%
%TD*%
%TA.AperFunction,ComponentPad*%
%ADD17C,3.000000*%
%TD*%
%TA.AperFunction,ComponentPad*%
%ADD18R,1.905000X2.000000*%
%TD*%
%TA.AperFunction,ComponentPad*%
%ADD19O,1.905000X2.000000*%
%TD*%
%TA.AperFunction,ComponentPad*%
%ADD20R,2.000000X1.200000*%
%TD*%
%TA.AperFunction,ComponentPad*%
%ADD21O,2.000000X1.200000*%
%TD*%
%TA.AperFunction,ViaPad*%
%ADD22C,0.800000*%
%TD*%
%TA.AperFunction,Conductor*%
%ADD23C,1.500000*%
%TD*%
G04 APERTURE END LIST*
D10*
%TO.P,R18,1*%
%TO.N,Net-(J11-Pin_1)*%
X44500000Y-53200000D03*
%TO.P,R18,2*%
%TO.N,+3.3V*%
X44500000Y-60820000D03*
%TD*%
D11*
%TO.P,C4,1*%
%TO.N,VIN*%
X38307349Y-143960000D03*
D10*
%TO.P,C4,2*%
%TO.N,GND*%
X41807349Y-143960000D03*
%TD*%
%TO.P,C1,1*%
%TO.N,VIN*%
X51960000Y-128312651D03*
%TO.P,C1,2*%
%TO.N,GND*%
X56960000Y-128312651D03*
%TD*%
D12*
%TO.P,Q3,1,G*%
%TO.N,Net-(Q3-G)*%
X88900000Y-71400000D03*
D13*
%TO.P,Q3,2,S*%
%TO.N,GND*%
X88900000Y-73940000D03*
%TO.P,Q3,3,D*%
%TO.N,Net-(J4-Pin_2)*%
X88900000Y-76480000D03*
%TD*%
D14*
%TO.P,J10,1,Pin_1*%
%TO.N,Net-(J10-Pin_1)*%
X51500000Y-48300000D03*
D15*
%TO.P,J10,2,Pin_2*%
%TO.N,GND*%
X51500000Y-45760000D03*
%TD*%
D16*
%TO.P,J9,1,Pin_1*%
%TO.N,VIN*%
X116840000Y-147320000D03*
D17*
%TO.P,J9,2,Pin_2*%
%TO.N,Net-(J9-Pin_2)*%
X116840000Y-152400000D03*
%TD*%
D10*
%TO.P,R9,1*%
%TO.N,Net-(Q5-G)*%
X81280000Y-101600000D03*
%TO.P,R9,2*%
%TO.N,CH5*%
X73660000Y-101600000D03*
%TD*%
D12*
%TO.P,Q7,1,G*%
%TO.N,Net-(Q7-G)*%
X88900000Y-132080000D03*
D13*
%TO.P,Q7,2,S*%
%TO.N,GND*%
X88900000Y-134620000D03*
%TO.P,Q7,3,D*%
%TO.N,Net-(J8-Pin_2)*%
X88900000Y-137160000D03*
%TD*%
D10*
%TO.P,R7,1*%
%TO.N,Net-(Q4-G)*%
X81280000Y-86640000D03*
%TO.P,R7,2*%
%TO.N,CH4*%
X73660000Y-86640000D03*
%TD*%
%TO.P,R1,1*%
%TO.N,Net-(Q1-G)*%
X81280000Y-40640000D03*
%TO.P,R1,2*%
%TO.N,CH1*%
X73660000Y-40640000D03*
%TD*%
%TO.P,R3,1*%
%TO.N,Net-(Q2-G)*%
X81280000Y-55880000D03*
%TO.P,R3,2*%
%TO.N,CH2*%
X73660000Y-55880000D03*
%TD*%
%TO.P,R16,1*%
%TO.N,GND*%
X73660000Y-151840000D03*
%TO.P,R16,2*%
%TO.N,Net-(Q8-G)*%
X81280000Y-151840000D03*
%TD*%
%TO.P,R17,1*%
%TO.N,Net-(J10-Pin_1)*%
X51500000Y-53380000D03*
%TO.P,R17,2*%
%TO.N,+3.3V*%
X51500000Y-61000000D03*
%TD*%
D12*
%TO.P,Q2,1,G*%
%TO.N,Net-(Q2-G)*%
X88900000Y-55880000D03*
D13*
%TO.P,Q2,2,S*%
%TO.N,GND*%
X88900000Y-58420000D03*
%TO.P,Q2,3,D*%
%TO.N,Net-(J3-Pin_2)*%
X88900000Y-60960000D03*
%TD*%
D18*
%TO.P,U1,1,GND*%
%TO.N,GND*%
X56960000Y-134322651D03*
D19*
%TO.P,U1,2,VO*%
%TO.N,+3.3V*%
X54420000Y-134322651D03*
%TO.P,U1,3,VI*%
%TO.N,VIN*%
X51880000Y-134322651D03*
%TD*%
D16*
%TO.P,J5,1,Pin_1*%
%TO.N,VIN*%
X116840000Y-86640000D03*
D17*
%TO.P,J5,2,Pin_2*%
%TO.N,Net-(J5-Pin_2)*%
X116840000Y-91720000D03*
%TD*%
D10*
%TO.P,R2,1*%
%TO.N,GND*%
X73660000Y-45720000D03*
%TO.P,R2,2*%
%TO.N,Net-(Q1-G)*%
X81280000Y-45720000D03*
%TD*%
D16*
%TO.P,J6,1,Pin_1*%
%TO.N,VIN*%
X116840000Y-101600000D03*
D17*
%TO.P,J6,2,Pin_2*%
%TO.N,Net-(J6-Pin_2)*%
X116840000Y-106680000D03*
%TD*%
D10*
%TO.P,R4,1*%
%TO.N,GND*%
X73660000Y-60960000D03*
%TO.P,R4,2*%
%TO.N,Net-(Q2-G)*%
X81280000Y-60960000D03*
%TD*%
D16*
%TO.P,J4,1,Pin_1*%
%TO.N,VIN*%
X116840000Y-71400000D03*
D17*
%TO.P,J4,2,Pin_2*%
%TO.N,Net-(J4-Pin_2)*%
X116840000Y-76480000D03*
%TD*%
D10*
%TO.P,R14,1*%
%TO.N,GND*%
X73660000Y-137160000D03*
%TO.P,R14,2*%
%TO.N,Net-(Q7-G)*%
X81280000Y-137160000D03*
%TD*%
%TO.P,R5,1*%
%TO.N,Net-(Q3-G)*%
X81280000Y-71400000D03*
%TO.P,R5,2*%
%TO.N,CH3*%
X73660000Y-71400000D03*
%TD*%
%TO.P,R10,1*%
%TO.N,GND*%
X73660000Y-106680000D03*
%TO.P,R10,2*%
%TO.N,Net-(Q5-G)*%
X81280000Y-106680000D03*
%TD*%
%TO.P,R15,1*%
%TO.N,Net-(Q8-G)*%
X81280000Y-147320000D03*
%TO.P,R15,2*%
%TO.N,CH8*%
X73660000Y-147320000D03*
%TD*%
D12*
%TO.P,Q8,1,G*%
%TO.N,Net-(Q8-G)*%
X88900000Y-147320000D03*
D13*
%TO.P,Q8,2,S*%
%TO.N,GND*%
X88900000Y-149860000D03*
%TO.P,Q8,3,D*%
%TO.N,Net-(J9-Pin_2)*%
X88900000Y-152400000D03*
%TD*%
D16*
%TO.P,J8,1,Pin_1*%
%TO.N,VIN*%
X116840000Y-132080000D03*
D17*
%TO.P,J8,2,Pin_2*%
%TO.N,Net-(J8-Pin_2)*%
X116840000Y-137160000D03*
%TD*%
D12*
%TO.P,Q5,1,G*%
%TO.N,Net-(Q5-G)*%
X88900000Y-101600000D03*
D13*
%TO.P,Q5,2,S*%
%TO.N,GND*%
X88900000Y-104140000D03*
%TO.P,Q5,3,D*%
%TO.N,Net-(J6-Pin_2)*%
X88900000Y-106680000D03*
%TD*%
D14*
%TO.P,J11,1,Pin_1*%
%TO.N,Net-(J11-Pin_1)*%
X44500000Y-48120000D03*
D15*
%TO.P,J11,2,Pin_2*%
%TO.N,GND*%
X44500000Y-45580000D03*
%TD*%
D12*
%TO.P,Q1,1,G*%
%TO.N,Net-(Q1-G)*%
X88900000Y-40640000D03*
D13*
%TO.P,Q1,2,S*%
%TO.N,GND*%
X88900000Y-43180000D03*
%TO.P,Q1,3,D*%
%TO.N,Net-(J2-Pin_2)*%
X88900000Y-45720000D03*
%TD*%
D10*
%TO.P,R8,1*%
%TO.N,GND*%
X73660000Y-91720000D03*
%TO.P,R8,2*%
%TO.N,Net-(Q4-G)*%
X81280000Y-91720000D03*
%TD*%
D16*
%TO.P,J7,1,Pin_1*%
%TO.N,VIN*%
X116840000Y-116560000D03*
D17*
%TO.P,J7,2,Pin_2*%
%TO.N,Net-(J7-Pin_2)*%
X116840000Y-121640000D03*
%TD*%
D16*
%TO.P,J1,1,Pin_1*%
%TO.N,VIN*%
X39460000Y-160500000D03*
D17*
%TO.P,J1,2,Pin_2*%
%TO.N,GND*%
X39460000Y-155420000D03*
%TD*%
D10*
%TO.P,R12,1*%
%TO.N,GND*%
X73660000Y-121640000D03*
%TO.P,R12,2*%
%TO.N,Net-(Q6-G)*%
X81280000Y-121640000D03*
%TD*%
D16*
%TO.P,J3,1,Pin_1*%
%TO.N,VIN*%
X116840000Y-55880000D03*
D17*
%TO.P,J3,2,Pin_2*%
%TO.N,Net-(J3-Pin_2)*%
X116840000Y-60960000D03*
%TD*%
D10*
%TO.P,R13,1*%
%TO.N,Net-(Q7-G)*%
X81280000Y-132080000D03*
%TO.P,R13,2*%
%TO.N,CH7*%
X73660000Y-132080000D03*
%TD*%
%TO.P,R11,1*%
%TO.N,Net-(Q6-G)*%
X81280000Y-116560000D03*
%TO.P,R11,2*%
%TO.N,CH6*%
X73660000Y-116560000D03*
%TD*%
D12*
%TO.P,Q4,1,G*%
%TO.N,Net-(Q4-G)*%
X88900000Y-86640000D03*
D13*
%TO.P,Q4,2,S*%
%TO.N,GND*%
X88900000Y-89180000D03*
%TO.P,Q4,3,D*%
%TO.N,Net-(J5-Pin_2)*%
X88900000Y-91720000D03*
%TD*%
D16*
%TO.P,J2,1,Pin_1*%
%TO.N,VIN*%
X116840000Y-40640000D03*
D17*
%TO.P,J2,2,Pin_2*%
%TO.N,Net-(J2-Pin_2)*%
X116840000Y-45720000D03*
%TD*%
D12*
%TO.P,Q6,1,G*%
%TO.N,Net-(Q6-G)*%
X88900000Y-116560000D03*
D13*
%TO.P,Q6,2,S*%
%TO.N,GND*%
X88900000Y-119100000D03*
%TO.P,Q6,3,D*%
%TO.N,Net-(J7-Pin_2)*%
X88900000Y-121640000D03*
%TD*%
D10*
%TO.P,R6,1*%
%TO.N,GND*%
X73660000Y-76480000D03*
%TO.P,R6,2*%
%TO.N,Net-(Q3-G)*%
X81280000Y-76480000D03*
%TD*%
%TO.P,C2,1*%
%TO.N,+3.3V*%
X51960000Y-123232651D03*
%TO.P,C2,2*%
%TO.N,GND*%
X56960000Y-123232651D03*
%TD*%
D20*
%TO.P,U2,1,EN*%
%TO.N,unconnected-(U2-EN-Pad1)*%
X61000000Y-105560000D03*
D21*
%TO.P,U2,2,VP*%
%TO.N,unconnected-(U2-VP-Pad2)*%
X61000000Y-103020000D03*
%TO.P,U2,3,VN*%
%TO.N,unconnected-(U2-VN-Pad3)*%
X61000000Y-100480000D03*
%TO.P,U2,4,D34*%
%TO.N,unconnected-(U2-D34-Pad4)*%
X61000000Y-97940000D03*
%TO.P,U2,5,D35*%
%TO.N,unconnected-(U2-D35-Pad5)*%
X61000000Y-95400000D03*
%TO.P,U2,6,D32*%
%TO.N,CH8*%
X61000000Y-92860000D03*
%TO.P,U2,7,D33*%
%TO.N,CH7*%
X61000000Y-90320000D03*
%TO.P,U2,8,D25*%
%TO.N,CH6*%
X61000000Y-87780000D03*
%TO.P,U2,9,D26*%
%TO.N,CH5*%
X61000000Y-85240000D03*
%TO.P,U2,10,D27*%
%TO.N,CH4*%
X61000000Y-82700000D03*
%TO.P,U2,11,D14*%
%TO.N,CH3*%
X61000000Y-80160000D03*
%TO.P,U2,12,D12*%
%TO.N,CH2*%
X61000000Y-77620000D03*
%TO.P,U2,13,D13*%
%TO.N,CH1*%
X61000000Y-75080000D03*
%TO.P,U2,14,Gnd*%
%TO.N,GND*%
X61000000Y-72540000D03*
%TO.P,U2,15,Vin*%
%TO.N,unconnected-(U2-Vin-Pad15)*%
X61000000Y-70000000D03*
%TO.P,U2,16,3.3v*%
%TO.N,+3.3V*%
X38143680Y-70002720D03*
%TO.P,U2,17,Gnd*%
%TO.N,GND*%
X38143680Y-72542720D03*
%TO.P,U2,18,D15*%
%TO.N,unconnected-(U2-D15-Pad18)*%
X38140000Y-75080000D03*
%TO.P,U2,19,D2*%
%TO.N,unconnected-(U2-D2-Pad19)*%
X38140000Y-77620000D03*
%TO.P,U2,20,D4*%
%TO.N,unconnected-(U2-D4-Pad20)*%
X38140000Y-80160000D03*
%TO.P,U2,21,Rx2*%
%TO.N,unconnected-(U2-Rx2-Pad21)*%
X38140000Y-82700000D03*
%TO.P,U2,22,Tx2*%
%TO.N,unconnected-(U2-Tx2-Pad22)*%
X38140000Y-85240000D03*
%TO.P,U2,23,D5*%
%TO.N,unconnected-(U2-D5-Pad23)*%
X38140000Y-87780000D03*
%TO.P,U2,24,D18*%
%TO.N,Net-(J11-Pin_1)*%
X38140000Y-90320000D03*
%TO.P,U2,25,D19*%
%TO.N,Net-(J10-Pin_1)*%
X38140000Y-92860000D03*
%TO.P,U2,26,D21*%
%TO.N,unconnected-(U2-D21-Pad26)*%
X38140000Y-95400000D03*
%TO.P,U2,27,Rx0*%
%TO.N,unconnected-(U2-Rx0-Pad27)*%
X38140000Y-97940000D03*
%TO.P,U2,28,Tx0*%
%TO.N,unconnected-(U2-Tx0-Pad28)*%
X38140000Y-100480000D03*
%TO.P,U2,29,D22*%
%TO.N,unconnected-(U2-D22-Pad29)*%
X38140000Y-103020000D03*
%TO.P,U2,30,D23*%
%TO.N,unconnected-(U2-D23-Pad30)*%
X38140000Y-105560000D03*
%TD*%
D22*
%TO.N,GND*%
X38500000Y-56500000D03*
X38750000Y-64250000D03*
%TD*%
D23*
%TO.N,GND*%
X38750000Y-56750000D02*
X38500000Y-56500000D01*
X38750000Y-64250000D02*
X38750000Y-56750000D01*
%TD*%
M02*
