M48
; DRILL file {KiCad 9.0.7} date 2026-02-05T16:58:44+0000
; FORMAT={-:-/ absolute / inch / decimal}
; #@! TF.CreationDate,2026-02-05T16:58:44+00:00
; #@! TF.GenerationSoftware,Kicad,Pcbnew,9.0.7
; #@! TF.FileFunction,Plated,1,2,PTH
FMAT,2
INCH
; #@! TA.AperFunction,Plated,PTH,ViaDrill
T1C0.0157
; #@! TA.AperFunction,Plated,PTH,ComponentDrill
T2C0.0315
; #@! TA.AperFunction,Plated,PTH,ComponentDrill
T3C0.0394
; #@! TA.AperFunction,Plated,PTH,ComponentDrill
T4C0.0433
; #@! TA.AperFunction,Plated,PTH,ComponentDrill
T5C0.0598
%
G90
G05
T1
X2.7Y-1.9
X2.7Y-2.2
T2
X1.1Y-1.6781
X1.1Y-2.5781
X1.2Y-1.6781
X1.2Y-2.5781
X1.3Y-1.6781
X1.3Y-2.5781
X1.3Y-3.3
X1.3Y-3.5
X1.4Y-1.6781
X1.4Y-2.5781
X1.5Y-1.6781
X1.5Y-2.5781
X1.6Y-1.6781
X1.6Y-2.5781
X1.6Y-3.3
X1.6Y-3.5
X1.7Y-1.6781
X1.7Y-2.5781
X1.8Y-1.6781
X1.8Y-2.5781
X1.9Y-1.6781
X1.9Y-2.5781
X1.9031Y-3.8
X1.9031Y-4.0
X1.9622Y-5.4
X2.0Y-1.6781
X2.0Y-2.5781
X2.1Y-1.6781
X2.1Y-2.5781
X2.1Y-3.8
X2.1Y-4.0
X2.1Y-5.4
X2.2Y-1.6781
X2.2Y-2.5781
X2.3Y-1.6781
X2.3Y-2.5781
X2.3999Y-1.6782
X2.4Y-2.5781
X2.4999Y-1.6782
X2.5Y-2.5781
X2.9Y-1.6
X2.9Y-1.8
X2.9Y-2.2
X2.9Y-2.4
X2.9Y-2.811
X2.9Y-3.011
X2.9Y-3.411
X2.9Y-3.611
X2.9Y-4.0
X2.9Y-4.2
X2.9Y-4.589
X2.9Y-4.789
X2.9Y-5.2
X2.9Y-5.4
X2.9Y-5.8
X2.9Y-5.978
X3.2Y-1.6
X3.2Y-1.8
X3.2Y-2.2
X3.2Y-2.4
X3.2Y-2.811
X3.2Y-3.011
X3.2Y-3.411
X3.2Y-3.611
X3.2Y-4.0
X3.2Y-4.2
X3.2Y-4.589
X3.2Y-4.789
X3.2Y-5.2
X3.2Y-5.4
X3.2Y-5.8
X3.2Y-5.978
T3
X1.8Y-3.3
X1.8Y-3.5
X1.9Y-3.3
X1.9Y-3.5
T4
X1.9Y-4.2366
X2.0Y-4.2366
X2.1Y-4.2366
X3.5Y-1.6
X3.5Y-1.7
X3.5Y-1.8
X3.5Y-2.2
X3.5Y-2.3
X3.5Y-2.4
X3.5Y-2.811
X3.5Y-2.911
X3.5Y-3.011
X3.5Y-3.411
X3.5Y-3.511
X3.5Y-3.611
X3.5Y-4.0
X3.5Y-4.1
X3.5Y-4.2
X3.5Y-4.589
X3.5Y-4.689
X3.5Y-4.789
X3.5Y-5.2
X3.5Y-5.3
X3.5Y-5.4
X3.5Y-5.8
X3.5Y-5.9
X3.5Y-6.0
T5
X2.0Y-6.0
X2.2Y-6.0
X4.6Y-1.6
X4.6Y-1.8
X4.6Y-2.2
X4.6Y-2.4
X4.6Y-2.811
X4.6Y-3.011
X4.6Y-3.411
X4.6Y-3.611
X4.6Y-4.0
X4.6Y-4.2
X4.6Y-4.589
X4.6Y-4.789
X4.6Y-5.2
X4.6Y-5.4
X4.6Y-5.8
X4.6Y-6.0
M30
