%TF.GenerationSoftware,KiCad,Pcbnew,9.0.7*%
%TF.CreationDate,2026-02-06T13:46:22+00:00*%
%TF.ProjectId,VANDIMMER-8CH,56414e44-494d-44d4-9552-2d3843482e6b,rev?*%
%TF.SameCoordinates,Original*%
%TF.FileFunction,Copper,L2,Bot*%
%TF.FilePolarity,Positive*%
%FSLAX46Y46*%
G04 Gerber Fmt 4.6, Leading zero omitted, Abs format (unit mm)*
G04 Created by KiCad (PCBNEW 9.0.7) date 2026-02-06 13:46:22*
%MOMM*%
%LPD*%
G01*
G04 APERTURE LIST*
G04 Aperture macros list*
%AMRoundRect*
0 Rectangle with rounded corners*
0 $1 Rounding radius*
0 $2 $3 $4 $5 $6 $7 $8 $9 X,Y pos of 4 corners*
0 Add a 4 corners polygon primitive as box body*
4,1,4,$2,$3,$4,$5,$6,$7,$8,$9,$2,$3,0*
0 Add four circle primitives for the rounded corners*
1,1,$1+$1,$2,$3*
1,1,$1+$1,$4,$5*
1,1,$1+$1,$6,$7*
1,1,$1+$1,$8,$9*
0 Add four rect primitives between the rounded corners*
20,1,$1+$1,$2,$3,$4,$5,0*
20,1,$1+$1,$4,$5,$6,$7,0*
20,1,$1+$1,$6,$7,$8,$9,0*
20,1,$1+$1,$8,$9,$2,$3,0*%
G04 Aperture macros list end*
%TA.AperFunction,ComponentPad*%
%ADD10C,1.600000*%
%TD*%
%TA.AperFunction,ComponentPad*%
%ADD11RoundRect,0.250000X-0.550000X-0.550000X0.550000X-0.550000X0.550000X0.550000X-0.550000X0.550000X0*%
%TD*%
%TA.AperFunction,ComponentPad*%
%ADD12R,2.000000X1.905000*%
%TD*%
%TA.AperFunction,ComponentPad*%
%ADD13O,2.000000X1.905000*%
%TD*%
%TA.AperFunction,ComponentPad*%
%ADD14R,1.700000X1.700000*%
%TD*%
%TA.AperFunction,ComponentPad*%
%ADD15C,1.700000*%
%TD*%
%TA.AperFunction,ComponentPad*%
%ADD16R,3.000000X3.000000*%
%TD*%
%TA.AperFunction,ComponentPad*%
%ADD17C,3.000000*%
%TD*%
%TA.AperFunction,ComponentPad*%
%ADD18R,1.905000X2.000000*%
%TD*%
%TA.AperFunction,ComponentPad*%
%ADD19O,1.905000X2.000000*%
%TD*%
%TA.AperFunction,ComponentPad*%
%ADD20R,2.000000X1.200000*%
%TD*%
%TA.AperFunction,ComponentPad*%
%ADD21O,2.000000X1.200000*%
%TD*%
%TA.AperFunction,ViaPad*%
%ADD22C,0.800000*%
%TD*%
%TA.AperFunction,Conductor*%
%ADD23C,1.500000*%
%TD*%
%TA.AperFunction,Conductor*%
%ADD24C,0.250000*%
%TD*%
%TA.AperFunction,Conductor*%
%ADD25C,1.000000*%
%TD*%
%TA.AperFunction,Conductor*%
%ADD26C,3.000000*%
%TD*%
%TA.AperFunction,Conductor*%
%ADD27C,1.016000*%
%TD*%
G04 APERTURE END LIST*
D10*
%TO.P,R18,1*%
%TO.N,Net-(J11-Pin_1)*%
X44500000Y-53200000D03*
%TO.P,R18,2*%
%TO.N,+3.3V*%
X44500000Y-60820000D03*
%TD*%
D11*
%TO.P,C4,1*%
%TO.N,VIN*%
X38307349Y-143960000D03*
D10*
%TO.P,C4,2*%
%TO.N,GND*%
X41807349Y-143960000D03*
%TD*%
%TO.P,C1,1*%
%TO.N,VIN*%
X51960000Y-128312651D03*
%TO.P,C1,2*%
%TO.N,GND*%
X56960000Y-128312651D03*
%TD*%
D12*
%TO.P,Q3,1,G*%
%TO.N,Net-(Q3-G)*%
X88900000Y-71400000D03*
D13*
%TO.P,Q3,2,S*%
%TO.N,GND*%
X88900000Y-73940000D03*
%TO.P,Q3,3,D*%
%TO.N,Net-(J4-Pin_2)*%
X88900000Y-76480000D03*
%TD*%
D14*
%TO.P,J10,1,Pin_1*%
%TO.N,Net-(J10-Pin_1)*%
X51500000Y-48300000D03*
D15*
%TO.P,J10,2,Pin_2*%
%TO.N,GND*%
X51500000Y-45760000D03*
%TD*%
D16*
%TO.P,J9,1,Pin_1*%
%TO.N,VIN*%
X116840000Y-147320000D03*
D17*
%TO.P,J9,2,Pin_2*%
%TO.N,Net-(J9-Pin_2)*%
X116840000Y-152400000D03*
%TD*%
D10*
%TO.P,R9,1*%
%TO.N,Net-(Q5-G)*%
X81280000Y-101600000D03*
%TO.P,R9,2*%
%TO.N,CH5*%
X73660000Y-101600000D03*
%TD*%
D12*
%TO.P,Q7,1,G*%
%TO.N,Net-(Q7-G)*%
X88900000Y-132080000D03*
D13*
%TO.P,Q7,2,S*%
%TO.N,GND*%
X88900000Y-134620000D03*
%TO.P,Q7,3,D*%
%TO.N,Net-(J8-Pin_2)*%
X88900000Y-137160000D03*
%TD*%
D10*
%TO.P,R7,1*%
%TO.N,Net-(Q4-G)*%
X81280000Y-86640000D03*
%TO.P,R7,2*%
%TO.N,CH4*%
X73660000Y-86640000D03*
%TD*%
%TO.P,R1,1*%
%TO.N,Net-(Q1-G)*%
X81280000Y-40640000D03*
%TO.P,R1,2*%
%TO.N,CH1*%
X73660000Y-40640000D03*
%TD*%
%TO.P,R3,1*%
%TO.N,Net-(Q2-G)*%
X81280000Y-55880000D03*
%TO.P,R3,2*%
%TO.N,CH2*%
X73660000Y-55880000D03*
%TD*%
%TO.P,R16,1*%
%TO.N,GND*%
X73660000Y-151840000D03*
%TO.P,R16,2*%
%TO.N,Net-(Q8-G)*%
X81280000Y-151840000D03*
%TD*%
%TO.P,R17,1*%
%TO.N,Net-(J10-Pin_1)*%
X51500000Y-53380000D03*
%TO.P,R17,2*%
%TO.N,+3.3V*%
X51500000Y-61000000D03*
%TD*%
D12*
%TO.P,Q2,1,G*%
%TO.N,Net-(Q2-G)*%
X88900000Y-55880000D03*
D13*
%TO.P,Q2,2,S*%
%TO.N,GND*%
X88900000Y-58420000D03*
%TO.P,Q2,3,D*%
%TO.N,Net-(J3-Pin_2)*%
X88900000Y-60960000D03*
%TD*%
D18*
%TO.P,U1,1,GND*%
%TO.N,GND*%
X56960000Y-134322651D03*
D19*
%TO.P,U1,2,VO*%
%TO.N,+3.3V*%
X54420000Y-134322651D03*
%TO.P,U1,3,VI*%
%TO.N,VIN*%
X51880000Y-134322651D03*
%TD*%
D16*
%TO.P,J5,1,Pin_1*%
%TO.N,VIN*%
X116840000Y-86640000D03*
D17*
%TO.P,J5,2,Pin_2*%
%TO.N,Net-(J5-Pin_2)*%
X116840000Y-91720000D03*
%TD*%
D10*
%TO.P,R2,1*%
%TO.N,GND*%
X73660000Y-45720000D03*
%TO.P,R2,2*%
%TO.N,Net-(Q1-G)*%
X81280000Y-45720000D03*
%TD*%
D16*
%TO.P,J6,1,Pin_1*%
%TO.N,VIN*%
X116840000Y-101600000D03*
D17*
%TO.P,J6,2,Pin_2*%
%TO.N,Net-(J6-Pin_2)*%
X116840000Y-106680000D03*
%TD*%
D10*
%TO.P,R4,1*%
%TO.N,GND*%
X73660000Y-60960000D03*
%TO.P,R4,2*%
%TO.N,Net-(Q2-G)*%
X81280000Y-60960000D03*
%TD*%
D16*
%TO.P,J4,1,Pin_1*%
%TO.N,VIN*%
X116840000Y-71400000D03*
D17*
%TO.P,J4,2,Pin_2*%
%TO.N,Net-(J4-Pin_2)*%
X116840000Y-76480000D03*
%TD*%
D10*
%TO.P,R14,1*%
%TO.N,GND*%
X73660000Y-137160000D03*
%TO.P,R14,2*%
%TO.N,Net-(Q7-G)*%
X81280000Y-137160000D03*
%TD*%
%TO.P,R5,1*%
%TO.N,Net-(Q3-G)*%
X81280000Y-71400000D03*
%TO.P,R5,2*%
%TO.N,CH3*%
X73660000Y-71400000D03*
%TD*%
%TO.P,R10,1*%
%TO.N,GND*%
X73660000Y-106680000D03*
%TO.P,R10,2*%
%TO.N,Net-(Q5-G)*%
X81280000Y-106680000D03*
%TD*%
%TO.P,R15,1*%
%TO.N,Net-(Q8-G)*%
X81280000Y-147320000D03*
%TO.P,R15,2*%
%TO.N,CH8*%
X73660000Y-147320000D03*
%TD*%
D12*
%TO.P,Q8,1,G*%
%TO.N,Net-(Q8-G)*%
X88900000Y-147320000D03*
D13*
%TO.P,Q8,2,S*%
%TO.N,GND*%
X88900000Y-149860000D03*
%TO.P,Q8,3,D*%
%TO.N,Net-(J9-Pin_2)*%
X88900000Y-152400000D03*
%TD*%
D16*
%TO.P,J8,1,Pin_1*%
%TO.N,VIN*%
X116840000Y-132080000D03*
D17*
%TO.P,J8,2,Pin_2*%
%TO.N,Net-(J8-Pin_2)*%
X116840000Y-137160000D03*
%TD*%
D12*
%TO.P,Q5,1,G*%
%TO.N,Net-(Q5-G)*%
X88900000Y-101600000D03*
D13*
%TO.P,Q5,2,S*%
%TO.N,GND*%
X88900000Y-104140000D03*
%TO.P,Q5,3,D*%
%TO.N,Net-(J6-Pin_2)*%
X88900000Y-106680000D03*
%TD*%
D14*
%TO.P,J11,1,Pin_1*%
%TO.N,Net-(J11-Pin_1)*%
X44500000Y-48120000D03*
D15*
%TO.P,J11,2,Pin_2*%
%TO.N,GND*%
X44500000Y-45580000D03*
%TD*%
D12*
%TO.P,Q1,1,G*%
%TO.N,Net-(Q1-G)*%
X88900000Y-40640000D03*
D13*
%TO.P,Q1,2,S*%
%TO.N,GND*%
X88900000Y-43180000D03*
%TO.P,Q1,3,D*%
%TO.N,Net-(J2-Pin_2)*%
X88900000Y-45720000D03*
%TD*%
D10*
%TO.P,R8,1*%
%TO.N,GND*%
X73660000Y-91720000D03*
%TO.P,R8,2*%
%TO.N,Net-(Q4-G)*%
X81280000Y-91720000D03*
%TD*%
D16*
%TO.P,J7,1,Pin_1*%
%TO.N,VIN*%
X116840000Y-116560000D03*
D17*
%TO.P,J7,2,Pin_2*%
%TO.N,Net-(J7-Pin_2)*%
X116840000Y-121640000D03*
%TD*%
D16*
%TO.P,J1,1,Pin_1*%
%TO.N,VIN*%
X39460000Y-160500000D03*
D17*
%TO.P,J1,2,Pin_2*%
%TO.N,GND*%
X39460000Y-155420000D03*
%TD*%
D10*
%TO.P,R12,1*%
%TO.N,GND*%
X73660000Y-121640000D03*
%TO.P,R12,2*%
%TO.N,Net-(Q6-G)*%
X81280000Y-121640000D03*
%TD*%
D16*
%TO.P,J3,1,Pin_1*%
%TO.N,VIN*%
X116840000Y-55880000D03*
D17*
%TO.P,J3,2,Pin_2*%
%TO.N,Net-(J3-Pin_2)*%
X116840000Y-60960000D03*
%TD*%
D10*
%TO.P,R13,1*%
%TO.N,Net-(Q7-G)*%
X81280000Y-132080000D03*
%TO.P,R13,2*%
%TO.N,CH7*%
X73660000Y-132080000D03*
%TD*%
%TO.P,R11,1*%
%TO.N,Net-(Q6-G)*%
X81280000Y-116560000D03*
%TO.P,R11,2*%
%TO.N,CH6*%
X73660000Y-116560000D03*
%TD*%
D12*
%TO.P,Q4,1,G*%
%TO.N,Net-(Q4-G)*%
X88900000Y-86640000D03*
D13*
%TO.P,Q4,2,S*%
%TO.N,GND*%
X88900000Y-89180000D03*
%TO.P,Q4,3,D*%
%TO.N,Net-(J5-Pin_2)*%
X88900000Y-91720000D03*
%TD*%
D16*
%TO.P,J2,1,Pin_1*%
%TO.N,VIN*%
X116840000Y-40640000D03*
D17*
%TO.P,J2,2,Pin_2*%
%TO.N,Net-(J2-Pin_2)*%
X116840000Y-45720000D03*
%TD*%
D12*
%TO.P,Q6,1,G*%
%TO.N,Net-(Q6-G)*%
X88900000Y-116560000D03*
D13*
%TO.P,Q6,2,S*%
%TO.N,GND*%
X88900000Y-119100000D03*
%TO.P,Q6,3,D*%
%TO.N,Net-(J7-Pin_2)*%
X88900000Y-121640000D03*
%TD*%
D10*
%TO.P,R6,1*%
%TO.N,GND*%
X73660000Y-76480000D03*
%TO.P,R6,2*%
%TO.N,Net-(Q3-G)*%
X81280000Y-76480000D03*
%TD*%
%TO.P,C2,1*%
%TO.N,+3.3V*%
X51960000Y-123232651D03*
%TO.P,C2,2*%
%TO.N,GND*%
X56960000Y-123232651D03*
%TD*%
D20*
%TO.P,U2,1,EN*%
%TO.N,unconnected-(U2-EN-Pad1)*%
X61000000Y-105560000D03*
D21*
%TO.P,U2,2,VP*%
%TO.N,unconnected-(U2-VP-Pad2)*%
X61000000Y-103020000D03*
%TO.P,U2,3,VN*%
%TO.N,unconnected-(U2-VN-Pad3)*%
X61000000Y-100480000D03*
%TO.P,U2,4,D34*%
%TO.N,unconnected-(U2-D34-Pad4)*%
X61000000Y-97940000D03*
%TO.P,U2,5,D35*%
%TO.N,unconnected-(U2-D35-Pad5)*%
X61000000Y-95400000D03*
%TO.P,U2,6,D32*%
%TO.N,CH8*%
X61000000Y-92860000D03*
%TO.P,U2,7,D33*%
%TO.N,CH7*%
X61000000Y-90320000D03*
%TO.P,U2,8,D25*%
%TO.N,CH6*%
X61000000Y-87780000D03*
%TO.P,U2,9,D26*%
%TO.N,CH5*%
X61000000Y-85240000D03*
%TO.P,U2,10,D27*%
%TO.N,CH4*%
X61000000Y-82700000D03*
%TO.P,U2,11,D14*%
%TO.N,CH3*%
X61000000Y-80160000D03*
%TO.P,U2,12,D12*%
%TO.N,CH2*%
X61000000Y-77620000D03*
%TO.P,U2,13,D13*%
%TO.N,CH1*%
X61000000Y-75080000D03*
%TO.P,U2,14,Gnd*%
%TO.N,GND*%
X61000000Y-72540000D03*
%TO.P,U2,15,Vin*%
%TO.N,unconnected-(U2-Vin-Pad15)*%
X61000000Y-70000000D03*
%TO.P,U2,16,3.3v*%
%TO.N,+3.3V*%
X38143680Y-70002720D03*
%TO.P,U2,17,Gnd*%
%TO.N,GND*%
X38143680Y-72542720D03*
%TO.P,U2,18,D15*%
%TO.N,unconnected-(U2-D15-Pad18)*%
X38140000Y-75080000D03*
%TO.P,U2,19,D2*%
%TO.N,unconnected-(U2-D2-Pad19)*%
X38140000Y-77620000D03*
%TO.P,U2,20,D4*%
%TO.N,unconnected-(U2-D4-Pad20)*%
X38140000Y-80160000D03*
%TO.P,U2,21,Rx2*%
%TO.N,unconnected-(U2-Rx2-Pad21)*%
X38140000Y-82700000D03*
%TO.P,U2,22,Tx2*%
%TO.N,unconnected-(U2-Tx2-Pad22)*%
X38140000Y-85240000D03*
%TO.P,U2,23,D5*%
%TO.N,unconnected-(U2-D5-Pad23)*%
X38140000Y-87780000D03*
%TO.P,U2,24,D18*%
%TO.N,Net-(J11-Pin_1)*%
X38140000Y-90320000D03*
%TO.P,U2,25,D19*%
%TO.N,Net-(J10-Pin_1)*%
X38140000Y-92860000D03*
%TO.P,U2,26,D21*%
%TO.N,unconnected-(U2-D21-Pad26)*%
X38140000Y-95400000D03*
%TO.P,U2,27,Rx0*%
%TO.N,unconnected-(U2-Rx0-Pad27)*%
X38140000Y-97940000D03*
%TO.P,U2,28,Tx0*%
%TO.N,unconnected-(U2-Tx0-Pad28)*%
X38140000Y-100480000D03*
%TO.P,U2,29,D22*%
%TO.N,unconnected-(U2-D22-Pad29)*%
X38140000Y-103020000D03*
%TO.P,U2,30,D23*%
%TO.N,unconnected-(U2-D23-Pad30)*%
X38140000Y-105560000D03*
%TD*%
D22*
%TO.N,GND*%
X38500000Y-56500000D03*
X38750000Y-64250000D03*
%TD*%
D23*
%TO.N,GND*%
X72140000Y-153360000D02*
X73660000Y-151840000D01*
X64280000Y-155420000D02*
X66340000Y-153360000D01*
X66340000Y-153360000D02*
X72140000Y-153360000D01*
X39460000Y-155420000D02*
X64280000Y-155420000D01*
X38500000Y-51000000D02*
X38500000Y-56500000D01*
X38500000Y-50318000D02*
X38500000Y-51000000D01*
X43238000Y-45580000D02*
X38500000Y-50318000D01*
X44500000Y-45580000D02*
X43238000Y-45580000D01*
X38750000Y-64250000D02*
X38500000Y-64000000D01*
X45500000Y-65000000D02*
X39500000Y-65000000D01*
X39500000Y-65000000D02*
X38750000Y-64250000D01*
X45500000Y-68000000D02*
X45500000Y-65000000D01*
X45000000Y-68500000D02*
X45500000Y-68000000D01*
X40957280Y-72542720D02*
X45000000Y-68500000D01*
X38143680Y-72542720D02*
X40957280Y-72542720D01*
D24*
%TO.N,Net-(J11-Pin_1)*%
X42680000Y-90320000D02*
X38140000Y-90320000D01*
X45000000Y-88000000D02*
X42680000Y-90320000D01*
X45000000Y-73000000D02*
X45000000Y-88000000D01*
X54500000Y-63500000D02*
X45000000Y-73000000D01*
X54500000Y-58000000D02*
X54500000Y-63500000D01*
X53000000Y-56500000D02*
X54500000Y-58000000D01*
X47800000Y-56500000D02*
X53000000Y-56500000D01*
X44500000Y-53200000D02*
X47800000Y-56500000D01*
%TO.N,Net-(J10-Pin_1)*%
X45140000Y-92860000D02*
X38140000Y-92860000D01*
X47500000Y-90500000D02*
X45140000Y-92860000D01*
X47500000Y-74500000D02*
X47500000Y-90500000D01*
X58000000Y-64000000D02*
X47500000Y-74500000D01*
X58500000Y-64000000D02*
X58000000Y-64000000D01*
X58500000Y-56500000D02*
X58500000Y-64000000D01*
X55380000Y-53380000D02*
X58500000Y-56500000D01*
X51500000Y-53380000D02*
X55380000Y-53380000D01*
%TO.N,+3.3V*%
X45000000Y-61000000D02*
X51500000Y-61000000D01*
X44820000Y-60820000D02*
X45000000Y-61000000D01*
X44500000Y-60820000D02*
X44820000Y-60820000D01*
X37500000Y-60820000D02*
X44500000Y-60820000D01*
X33000000Y-65320000D02*
X37500000Y-60820000D01*
X33000000Y-73000000D02*
X33000000Y-65320000D01*
D23*
%TO.N,GND*%
X51320000Y-45580000D02*
X51500000Y-45760000D01*
X44500000Y-45580000D02*
X51320000Y-45580000D01*
X52540000Y-72540000D02*
X61000000Y-72540000D01*
X52500000Y-72500000D02*
X52540000Y-72540000D01*
X56960000Y-123232651D02*
X56960000Y-110960000D01*
X56960000Y-110960000D02*
X52500000Y-106500000D01*
X48000000Y-37000000D02*
X44500000Y-40500000D01*
X94000000Y-37000000D02*
X48000000Y-37000000D01*
X94000000Y-41500000D02*
X94000000Y-37000000D01*
X92320000Y-43180000D02*
X94000000Y-41500000D01*
X88900000Y-43180000D02*
X92320000Y-43180000D01*
D25*
%TO.N,+3.3V*%
X35997280Y-70002720D02*
X38143680Y-70002720D01*
X33000000Y-112500000D02*
X33000000Y-73000000D01*
X43732651Y-123232651D02*
X33000000Y-112500000D01*
D24*
X44260000Y-123232651D02*
X43732651Y-123232651D01*
D25*
X33000000Y-73000000D02*
X35997280Y-70002720D01*
D24*
%TO.N,CH6*%
X68000000Y-111000000D02*
X68100000Y-111000000D01*
X68100000Y-111000000D02*
X73660000Y-116560000D01*
X68000000Y-91500000D02*
X68000000Y-111000000D01*
X64280000Y-87780000D02*
X68000000Y-91500000D01*
X61000000Y-87780000D02*
X64280000Y-87780000D01*
%TO.N,CH7*%
X68580000Y-114080000D02*
X68580000Y-127000000D01*
X66000000Y-111500000D02*
X68580000Y-114080000D01*
X68580000Y-127000000D02*
X73660000Y-132080000D01*
X63820000Y-90320000D02*
X66000000Y-92500000D01*
X61000000Y-90320000D02*
X63820000Y-90320000D01*
X66000000Y-92500000D02*
X66000000Y-111500000D01*
%TO.N,CH8*%
X64080000Y-93580000D02*
X64080000Y-117420000D01*
X63360000Y-92860000D02*
X64080000Y-93580000D01*
X61000000Y-92860000D02*
X63360000Y-92860000D01*
X66040000Y-119380000D02*
X64080000Y-117420000D01*
%TO.N,CH5*%
X70000000Y-97940000D02*
X73660000Y-101600000D01*
X70000000Y-89980000D02*
X70000000Y-97940000D01*
X61000000Y-85240000D02*
X65260000Y-85240000D01*
X65260000Y-85240000D02*
X70000000Y-89980000D01*
D23*
%TO.N,GND*%
X52500000Y-106500000D02*
X52500000Y-72500000D01*
D24*
%TO.N,CH1*%
X68580000Y-43180000D02*
X71120000Y-40640000D01*
X68580000Y-50920000D02*
X68580000Y-43180000D01*
X65000000Y-73500000D02*
X65000000Y-54500000D01*
X65000000Y-54500000D02*
X68580000Y-50920000D01*
X61000000Y-75080000D02*
X63420000Y-75080000D01*
X63420000Y-75080000D02*
X65000000Y-73500000D01*
X71120000Y-40640000D02*
X73660000Y-40640000D01*
%TO.N,CH2*%
X67000000Y-62540000D02*
X73660000Y-55880000D01*
X64500000Y-77620000D02*
X64620000Y-77620000D01*
X64500000Y-77620000D02*
X67000000Y-75120000D01*
X67000000Y-75120000D02*
X67000000Y-62540000D01*
X61000000Y-77620000D02*
X64500000Y-77620000D01*
%TO.N,CH3*%
X68500000Y-74000000D02*
X71100000Y-71400000D01*
X71100000Y-71400000D02*
X73660000Y-71400000D01*
X68500000Y-77500000D02*
X68500000Y-74000000D01*
X65840000Y-80160000D02*
X68500000Y-77500000D01*
X61000000Y-80160000D02*
X65840000Y-80160000D01*
%TO.N,CH4*%
X70140000Y-86640000D02*
X73660000Y-86640000D01*
X66200000Y-82700000D02*
X70140000Y-86640000D01*
X61000000Y-82700000D02*
X66200000Y-82700000D01*
D23*
%TO.N,VIN*%
X123980000Y-160500000D02*
X124460000Y-160020000D01*
D26*
X63500000Y-160500000D02*
X123980000Y-160500000D01*
X63500000Y-160500000D02*
X39460000Y-160500000D01*
D23*
%TO.N,GND*%
X50960000Y-143960000D02*
X56960000Y-137960000D01*
X41807349Y-143960000D02*
X50960000Y-143960000D01*
%TO.N,VIN*%
X34000000Y-160500000D02*
X39460000Y-160500000D01*
X33960000Y-160460000D02*
X34000000Y-160500000D01*
X33960000Y-150460000D02*
X33960000Y-160460000D01*
X38307349Y-146112651D02*
X33960000Y-150460000D01*
X38307349Y-143960000D02*
X38307349Y-146112651D01*
X37960000Y-137960000D02*
X38307349Y-138307349D01*
X41597349Y-134322651D02*
X37960000Y-137960000D01*
X51880000Y-134322651D02*
X41597349Y-134322651D01*
X38307349Y-138307349D02*
X38307349Y-143960000D01*
%TO.N,GND*%
X56960000Y-137960000D02*
X56960000Y-134322651D01*
X41960000Y-144112651D02*
X41807349Y-143960000D01*
X41960000Y-152920000D02*
X41960000Y-144112651D01*
X39460000Y-155420000D02*
X41960000Y-152920000D01*
D26*
%TO.N,VIN*%
X65860000Y-160500000D02*
X63500000Y-160500000D01*
D23*
X66340000Y-160980000D02*
X65860000Y-160500000D01*
D24*
%TO.N,CH8*%
X66040000Y-134620000D02*
X66040000Y-119380000D01*
X68580000Y-137160000D02*
X66040000Y-134620000D01*
X68580000Y-142240000D02*
X68580000Y-137160000D01*
X73660000Y-147320000D02*
X68580000Y-142240000D01*
D23*
%TO.N,GND*%
X86495000Y-73940000D02*
X88900000Y-73940000D01*
X83820000Y-111760000D02*
X83820000Y-106815000D01*
X86360000Y-149860000D02*
X88900000Y-149860000D01*
X78740000Y-81560000D02*
X83540000Y-81560000D01*
X86495000Y-104140000D02*
X88900000Y-104140000D01*
X73660000Y-45720000D02*
X73660000Y-50800000D01*
X73660000Y-121640000D02*
X73660000Y-127000000D01*
X44500000Y-45580000D02*
X44500000Y-40500000D01*
X78740000Y-96800000D02*
X78740000Y-101600000D01*
X83820000Y-91855000D02*
X86495000Y-89180000D01*
X73660000Y-91720000D02*
X78740000Y-86640000D01*
X78740000Y-142240000D02*
X78740000Y-146760000D01*
X73660000Y-154940000D02*
X83820000Y-154940000D01*
X78740000Y-96800000D02*
X83540000Y-96800000D01*
X78740000Y-111760000D02*
X78740000Y-116560000D01*
X73660000Y-142240000D02*
X78740000Y-142240000D01*
X86495000Y-58420000D02*
X88900000Y-58420000D01*
X83820000Y-81280000D02*
X83820000Y-76615000D01*
X83820000Y-142240000D02*
X83820000Y-137295000D01*
X78740000Y-116560000D02*
X73660000Y-121640000D01*
X78740000Y-132080000D02*
X73660000Y-137160000D01*
X56960000Y-134322651D02*
X56960000Y-123232651D01*
X83820000Y-154940000D02*
X83820000Y-152400000D01*
X78740000Y-101600000D02*
X73660000Y-106680000D01*
X78740000Y-66040000D02*
X78740000Y-71400000D01*
X83820000Y-106815000D02*
X86495000Y-104140000D01*
X78740000Y-127000000D02*
X83820000Y-127000000D01*
X78740000Y-55880000D02*
X73660000Y-60960000D01*
X83820000Y-137295000D02*
X86495000Y-134620000D01*
X78740000Y-111760000D02*
X83820000Y-111760000D01*
X86495000Y-43180000D02*
X88900000Y-43180000D01*
X83820000Y-127000000D02*
X83820000Y-121775000D01*
X78740000Y-71400000D02*
X73660000Y-76480000D01*
X83820000Y-50800000D02*
X83820000Y-45855000D01*
X83820000Y-152400000D02*
X86360000Y-149860000D01*
X83820000Y-61095000D02*
X86495000Y-58420000D01*
X78740000Y-142240000D02*
X83820000Y-142240000D01*
X78740000Y-127000000D02*
X78740000Y-132080000D01*
X73660000Y-151840000D02*
X73660000Y-154940000D01*
X83820000Y-121775000D02*
X86495000Y-119100000D01*
X73660000Y-91720000D02*
X73660000Y-96800000D01*
X78740000Y-66040000D02*
X83820000Y-66040000D01*
X83540000Y-96800000D02*
X83820000Y-96520000D01*
X73660000Y-66040000D02*
X78740000Y-66040000D01*
X86495000Y-89180000D02*
X88900000Y-89180000D01*
X57171000Y-134533651D02*
X56960000Y-134322651D01*
X78740000Y-50800000D02*
X83820000Y-50800000D01*
X73660000Y-106680000D02*
X73660000Y-111760000D01*
X73660000Y-111760000D02*
X78740000Y-111760000D01*
X86495000Y-119100000D02*
X88900000Y-119100000D01*
X78740000Y-86640000D02*
X78740000Y-81560000D01*
X73660000Y-127000000D02*
X78740000Y-127000000D01*
X83820000Y-45855000D02*
X86495000Y-43180000D01*
X83540000Y-81560000D02*
X83820000Y-81280000D01*
X73660000Y-60960000D02*
X73660000Y-66040000D01*
X86495000Y-134620000D02*
X88900000Y-134620000D01*
X78740000Y-146760000D02*
X73660000Y-151840000D01*
X83820000Y-96520000D02*
X83820000Y-91855000D01*
X83820000Y-66040000D02*
X83820000Y-61095000D01*
X73660000Y-76480000D02*
X73660000Y-81560000D01*
X73660000Y-81560000D02*
X78740000Y-81560000D01*
X73660000Y-50800000D02*
X78740000Y-50800000D01*
X71120000Y-50800000D02*
X73660000Y-50800000D01*
X83820000Y-76615000D02*
X86495000Y-73940000D01*
X73660000Y-96800000D02*
X78740000Y-96800000D01*
X78740000Y-55880000D02*
X78740000Y-50800000D01*
X73660000Y-137160000D02*
X73660000Y-142240000D01*
%TO.N,VIN*%
X124180000Y-116560000D02*
X124460000Y-116840000D01*
X116840000Y-101600000D02*
X124460000Y-101600000D01*
D26*
X124460000Y-132080000D02*
X124460000Y-116840000D01*
D23*
X116840000Y-55880000D02*
X124460000Y-55880000D01*
D26*
X124460000Y-116840000D02*
X124460000Y-101600000D01*
D23*
X51880000Y-134322651D02*
X51880000Y-128392651D01*
D26*
X124460000Y-160020000D02*
X124460000Y-147320000D01*
D23*
X116840000Y-147320000D02*
X124460000Y-147320000D01*
D26*
X124460000Y-71120000D02*
X124460000Y-55880000D01*
X124460000Y-101600000D02*
X124460000Y-86360000D01*
X124460000Y-55880000D02*
X124460000Y-40640000D01*
D23*
X51880000Y-128392651D02*
X51960000Y-128312651D01*
X116840000Y-71400000D02*
X124180000Y-71400000D01*
X116840000Y-86640000D02*
X124180000Y-86640000D01*
D26*
X124460000Y-86360000D02*
X124460000Y-71120000D01*
D23*
X124180000Y-86640000D02*
X124460000Y-86360000D01*
X116840000Y-116560000D02*
X124180000Y-116560000D01*
X116840000Y-40640000D02*
X124460000Y-40640000D01*
D26*
X124460000Y-147320000D02*
X124460000Y-132080000D01*
D23*
X116840000Y-132080000D02*
X124460000Y-132080000D01*
X124180000Y-71400000D02*
X124460000Y-71120000D01*
X51880000Y-134322651D02*
X51669000Y-134533651D01*
D25*
%TO.N,+3.3V*%
X51960000Y-123232651D02*
X44260000Y-123232651D01*
X51960000Y-123232651D02*
X54420000Y-125692651D01*
X54420000Y-134322651D02*
X54420000Y-125692651D01*
D27*
%TO.N,Net-(J2-Pin_2)*%
X89830000Y-45720000D02*
X116840000Y-45720000D01*
%TO.N,Net-(J3-Pin_2)*%
X88900000Y-60960000D02*
X116840000Y-60960000D01*
%TO.N,Net-(J4-Pin_2)*%
X116840000Y-76480000D02*
X88900000Y-76480000D01*
%TO.N,Net-(J5-Pin_2)*%
X116840000Y-91720000D02*
X88900000Y-91720000D01*
%TO.N,Net-(J6-Pin_2)*%
X88900000Y-106680000D02*
X116840000Y-106680000D01*
%TO.N,Net-(J7-Pin_2)*%
X88900000Y-121640000D02*
X116840000Y-121640000D01*
%TO.N,Net-(J8-Pin_2)*%
X88900000Y-137160000D02*
X116840000Y-137160000D01*
%TO.N,Net-(J9-Pin_2)*%
X88900000Y-152400000D02*
X116840000Y-152400000D01*
D24*
%TO.N,Net-(Q1-G)*%
X81280000Y-45720000D02*
X81280000Y-40640000D01*
X81280000Y-40640000D02*
X88900000Y-40640000D01*
%TO.N,Net-(Q2-G)*%
X81280000Y-55880000D02*
X81280000Y-60960000D01*
X88900000Y-55880000D02*
X81280000Y-55880000D01*
%TO.N,Net-(Q3-G)*%
X81280000Y-71400000D02*
X88900000Y-71400000D01*
X81280000Y-76480000D02*
X81280000Y-71400000D01*
%TO.N,Net-(Q4-G)*%
X81280000Y-86640000D02*
X81280000Y-91720000D01*
X88900000Y-86640000D02*
X81280000Y-86640000D01*
%TO.N,Net-(Q5-G)*%
X81280000Y-106680000D02*
X81280000Y-101600000D01*
X81280000Y-101600000D02*
X88900000Y-101600000D01*
%TO.N,Net-(Q6-G)*%
X81280000Y-121640000D02*
X81280000Y-116560000D01*
X81280000Y-116560000D02*
X88900000Y-116560000D01*
%TO.N,Net-(Q7-G)*%
X81280000Y-132080000D02*
X81560000Y-131800000D01*
X88620000Y-131800000D02*
X88900000Y-132080000D01*
X81280000Y-137160000D02*
X81280000Y-132080000D01*
X81280000Y-132080000D02*
X88900000Y-132080000D01*
%TO.N,Net-(Q8-G)*%
X81280000Y-151840000D02*
X81280000Y-147320000D01*
X81280000Y-147320000D02*
X88900000Y-147320000D01*
%TO.N,Net-(J10-Pin_1)*%
X51500000Y-53380000D02*
X51500000Y-48300000D01*
%TO.N,Net-(J11-Pin_1)*%
X44500000Y-53200000D02*
X44500000Y-48120000D01*
%TD*%
M02*
