M48
; DRILL file {KiCad 9.0.7} date 2026-02-17T16:05:50+0000
; FORMAT={-:-/ absolute / metric / decimal}
; #@! TF.CreationDate,2026-02-17T16:05:50+00:00
; #@! TF.GenerationSoftware,Kicad,Pcbnew,9.0.7
; #@! TF.FileFunction,Plated,1,2,PTH
FMAT,2
METRIC
; #@! TA.AperFunction,Plated,PTH,ComponentDrill
T1C0.800
; #@! TA.AperFunction,Plated,PTH,ComponentDrill
T2C1.000
; #@! TA.AperFunction,Plated,PTH,ComponentDrill
T3C1.100
; #@! TA.AperFunction,Plated,PTH,ComponentDrill
T4C1.200
; #@! TA.AperFunction,Plated,PTH,ComponentDrill
T5C1.520
%
G90
G05
T1
X39.366Y-49.527
X39.366Y-52.067
X39.366Y-54.607
X39.366Y-57.147
X39.366Y-59.687
X39.366Y-62.227
X39.366Y-64.767
X39.366Y-67.307
X39.366Y-69.847
X39.366Y-72.387
X39.366Y-74.927
X39.366Y-77.467
X39.366Y-80.007
X39.37Y-44.45
X39.37Y-46.99
X39.99Y-107.77
X39.99Y-115.39
X42.307Y-140.297
X45.807Y-140.297
X46.99Y-107.95
X46.99Y-115.57
X55.96Y-119.57
X55.96Y-124.65
X60.96Y-119.57
X60.96Y-124.65
X64.226Y-44.427
X64.226Y-46.967
X64.226Y-49.507
X64.226Y-52.047
X64.226Y-54.587
X64.226Y-57.127
X64.226Y-59.667
X64.226Y-62.207
X64.226Y-64.747
X64.226Y-67.287
X64.226Y-69.827
X64.226Y-72.367
X64.226Y-74.907
X64.226Y-77.447
X64.226Y-79.987
X73.66Y-40.64
X73.66Y-45.72
X73.66Y-55.88
X73.66Y-60.96
X73.66Y-71.4
X73.66Y-76.48
X73.66Y-86.64
X73.66Y-91.72
X73.66Y-101.6
X73.66Y-106.68
X73.66Y-116.56
X73.66Y-121.64
X73.66Y-132.08
X73.66Y-137.16
X73.66Y-147.32
X73.66Y-151.84
X81.28Y-40.64
X81.28Y-45.72
X81.28Y-55.88
X81.28Y-60.96
X81.28Y-71.4
X81.28Y-76.48
X81.28Y-86.64
X81.28Y-91.72
X81.28Y-101.6
X81.28Y-106.68
X81.28Y-116.56
X81.28Y-121.64
X81.28Y-132.08
X81.28Y-137.16
X81.28Y-147.32
X81.28Y-151.84
T2
X39.99Y-100.15
X39.99Y-102.69
X46.99Y-100.33
X46.99Y-102.87
T3
X55.88Y-130.66
X58.42Y-130.66
X60.96Y-130.66
X88.9Y-40.64
X88.9Y-43.18
X88.9Y-45.72
X88.9Y-55.88
X88.9Y-58.42
X88.9Y-60.96
X88.9Y-71.4
X88.9Y-73.94
X88.9Y-76.48
X88.9Y-86.64
X88.9Y-89.18
X88.9Y-91.72
X88.9Y-101.6
X88.9Y-104.14
X88.9Y-106.68
X88.9Y-116.56
X88.9Y-119.1
X88.9Y-121.64
X88.9Y-132.08
X88.9Y-134.62
X88.9Y-137.16
X88.9Y-147.32
X88.9Y-149.86
X88.9Y-152.4
T4
X114.3Y-40.64
X114.3Y-43.18
X114.3Y-55.88
X114.3Y-58.42
X114.3Y-71.4
X114.3Y-73.94
X114.3Y-86.64
X114.3Y-89.18
X114.3Y-101.6
X114.3Y-104.14
X114.3Y-116.56
X114.3Y-119.1
X114.3Y-132.08
X114.3Y-134.62
X114.3Y-147.32
X114.3Y-149.86
T5
X43.46Y-151.757
X43.46Y-156.837
M30
