%TF.GenerationSoftware,KiCad,Pcbnew,9.0.7*%
%TF.CreationDate,2026-02-05T16:58:39+00:00*%
%TF.ProjectId,VANDIMMER-8CH,56414e44-494d-44d4-9552-2d3843482e6b,rev?*%
%TF.SameCoordinates,Original*%
%TF.FileFunction,Legend,Top*%
%TF.FilePolarity,Positive*%
%FSLAX46Y46*%
G04 Gerber Fmt 4.6, Leading zero omitted, Abs format (unit mm)*
G04 Created by KiCad (PCBNEW 9.0.7) date 2026-02-05 16:58:39*
%MOMM*%
%LPD*%
G01*
G04 APERTURE LIST*
%ADD10C,0.100000*%
%ADD11C,0.150000*%
%ADD12C,0.120000*%
G04 APERTURE END LIST*
D10*
X46497419Y-54885504D02*
X47306942Y-54885504D01*
X47306942Y-54885504D02*
X47402180Y-54837885D01*
X47402180Y-54837885D02*
X47449800Y-54790266D01*
X47449800Y-54790266D02*
X47497419Y-54695028D01*
X47497419Y-54695028D02*
X47497419Y-54504552D01*
X47497419Y-54504552D02*
X47449800Y-54409314D01*
X47449800Y-54409314D02*
X47402180Y-54361695D01*
X47402180Y-54361695D02*
X47306942Y-54314076D01*
X47306942Y-54314076D02*
X46497419Y-54314076D01*
X46592657Y-53885504D02*
X46545038Y-53837885D01*
X46545038Y-53837885D02*
X46497419Y-53742647D01*
X46497419Y-53742647D02*
X46497419Y-53504552D01*
X46497419Y-53504552D02*
X46545038Y-53409314D01*
X46545038Y-53409314D02*
X46592657Y-53361695D01*
X46592657Y-53361695D02*
X46687895Y-53314076D01*
X46687895Y-53314076D02*
X46783133Y-53314076D01*
X46783133Y-53314076D02*
X46925990Y-53361695D01*
X46925990Y-53361695D02*
X47497419Y-53933123D01*
X47497419Y-53933123D02*
X47497419Y-53314076D01*
D11*
X48576033Y-63948249D02*
X47876033Y-63948249D01*
X47876033Y-63948249D02*
X47876033Y-63781582D01*
X47876033Y-63781582D02*
X47909366Y-63681582D01*
X47909366Y-63681582D02*
X47976033Y-63614916D01*
X47976033Y-63614916D02*
X48042700Y-63581582D01*
X48042700Y-63581582D02*
X48176033Y-63548249D01*
X48176033Y-63548249D02*
X48276033Y-63548249D01*
X48276033Y-63548249D02*
X48409366Y-63581582D01*
X48409366Y-63581582D02*
X48476033Y-63614916D01*
X48476033Y-63614916D02*
X48542700Y-63681582D01*
X48542700Y-63681582D02*
X48576033Y-63781582D01*
X48576033Y-63781582D02*
X48576033Y-63948249D01*
X47942700Y-63281582D02*
X47909366Y-63248249D01*
X47909366Y-63248249D02*
X47876033Y-63181582D01*
X47876033Y-63181582D02*
X47876033Y-63014916D01*
X47876033Y-63014916D02*
X47909366Y-62948249D01*
X47909366Y-62948249D02*
X47942700Y-62914916D01*
X47942700Y-62914916D02*
X48009366Y-62881582D01*
X48009366Y-62881582D02*
X48076033Y-62881582D01*
X48076033Y-62881582D02*
X48176033Y-62914916D01*
X48176033Y-62914916D02*
X48576033Y-63314916D01*
X48576033Y-63314916D02*
X48576033Y-62881582D01*
X47876033Y-62281582D02*
X47876033Y-62414915D01*
X47876033Y-62414915D02*
X47909366Y-62481582D01*
X47909366Y-62481582D02*
X47942700Y-62514915D01*
X47942700Y-62514915D02*
X48042700Y-62581582D01*
X48042700Y-62581582D02*
X48176033Y-62614915D01*
X48176033Y-62614915D02*
X48442700Y-62614915D01*
X48442700Y-62614915D02*
X48509366Y-62581582D01*
X48509366Y-62581582D02*
X48542700Y-62548249D01*
X48542700Y-62548249D02*
X48576033Y-62481582D01*
X48576033Y-62481582D02*
X48576033Y-62348249D01*
X48576033Y-62348249D02*
X48542700Y-62281582D01*
X48542700Y-62281582D02*
X48509366Y-62248249D01*
X48509366Y-62248249D02*
X48442700Y-62214915D01*
X48442700Y-62214915D02*
X48276033Y-62214915D01*
X48276033Y-62214915D02*
X48209366Y-62248249D01*
X48209366Y-62248249D02*
X48176033Y-62281582D01*
X48176033Y-62281582D02*
X48142700Y-62348249D01*
X48142700Y-62348249D02*
X48142700Y-62481582D01*
X48142700Y-62481582D02*
X48176033Y-62548249D01*
X48176033Y-62548249D02*
X48209366Y-62581582D01*
X48209366Y-62581582D02*
X48276033Y-62614915D01*
X63116033Y-64048249D02*
X63816033Y-63814916D01*
X63816033Y-63814916D02*
X63116033Y-63581582D01*
X63816033Y-63348249D02*
X63116033Y-63348249D01*
X63816033Y-63014916D02*
X63116033Y-63014916D01*
X63116033Y-63014916D02*
X63816033Y-62614916D01*
X63816033Y-62614916D02*
X63116033Y-62614916D01*
X35876033Y-45358951D02*
X35542700Y-45592284D01*
X35876033Y-45758951D02*
X35176033Y-45758951D01*
X35176033Y-45758951D02*
X35176033Y-45492284D01*
X35176033Y-45492284D02*
X35209366Y-45425618D01*
X35209366Y-45425618D02*
X35242700Y-45392284D01*
X35242700Y-45392284D02*
X35309366Y-45358951D01*
X35309366Y-45358951D02*
X35409366Y-45358951D01*
X35409366Y-45358951D02*
X35476033Y-45392284D01*
X35476033Y-45392284D02*
X35509366Y-45425618D01*
X35509366Y-45425618D02*
X35542700Y-45492284D01*
X35542700Y-45492284D02*
X35542700Y-45758951D01*
X35876033Y-45125618D02*
X35409366Y-44758951D01*
X35409366Y-45125618D02*
X35876033Y-44758951D01*
X35176033Y-44358951D02*
X35176033Y-44292284D01*
X35176033Y-44292284D02*
X35209366Y-44225617D01*
X35209366Y-44225617D02*
X35242700Y-44192284D01*
X35242700Y-44192284D02*
X35309366Y-44158951D01*
X35309366Y-44158951D02*
X35442700Y-44125617D01*
X35442700Y-44125617D02*
X35609366Y-44125617D01*
X35609366Y-44125617D02*
X35742700Y-44158951D01*
X35742700Y-44158951D02*
X35809366Y-44192284D01*
X35809366Y-44192284D02*
X35842700Y-44225617D01*
X35842700Y-44225617D02*
X35876033Y-44292284D01*
X35876033Y-44292284D02*
X35876033Y-44358951D01*
X35876033Y-44358951D02*
X35842700Y-44425617D01*
X35842700Y-44425617D02*
X35809366Y-44458951D01*
X35809366Y-44458951D02*
X35742700Y-44492284D01*
X35742700Y-44492284D02*
X35609366Y-44525617D01*
X35609366Y-44525617D02*
X35442700Y-44525617D01*
X35442700Y-44525617D02*
X35309366Y-44492284D01*
X35309366Y-44492284D02*
X35242700Y-44458951D01*
X35242700Y-44458951D02*
X35209366Y-44425617D01*
X35209366Y-44425617D02*
X35176033Y-44358951D01*
X35876033Y-63948249D02*
X35176033Y-63948249D01*
X35176033Y-63948249D02*
X35176033Y-63781582D01*
X35176033Y-63781582D02*
X35209366Y-63681582D01*
X35209366Y-63681582D02*
X35276033Y-63614916D01*
X35276033Y-63614916D02*
X35342700Y-63581582D01*
X35342700Y-63581582D02*
X35476033Y-63548249D01*
X35476033Y-63548249D02*
X35576033Y-63548249D01*
X35576033Y-63548249D02*
X35709366Y-63581582D01*
X35709366Y-63581582D02*
X35776033Y-63614916D01*
X35776033Y-63614916D02*
X35842700Y-63681582D01*
X35842700Y-63681582D02*
X35876033Y-63781582D01*
X35876033Y-63781582D02*
X35876033Y-63948249D01*
X35176033Y-63314916D02*
X35176033Y-62881582D01*
X35176033Y-62881582D02*
X35442700Y-63114916D01*
X35442700Y-63114916D02*
X35442700Y-63014916D01*
X35442700Y-63014916D02*
X35476033Y-62948249D01*
X35476033Y-62948249D02*
X35509366Y-62914916D01*
X35509366Y-62914916D02*
X35576033Y-62881582D01*
X35576033Y-62881582D02*
X35742700Y-62881582D01*
X35742700Y-62881582D02*
X35809366Y-62914916D01*
X35809366Y-62914916D02*
X35842700Y-62948249D01*
X35842700Y-62948249D02*
X35876033Y-63014916D01*
X35876033Y-63014916D02*
X35876033Y-63214916D01*
X35876033Y-63214916D02*
X35842700Y-63281582D01*
X35842700Y-63281582D02*
X35809366Y-63314916D01*
X35409366Y-62281582D02*
X35876033Y-62281582D01*
X35142700Y-62448249D02*
X35642700Y-62614915D01*
X35642700Y-62614915D02*
X35642700Y-62181582D01*
X46036033Y-45192284D02*
X45336033Y-45192284D01*
X45336033Y-45192284D02*
X45336033Y-45025617D01*
X45336033Y-45025617D02*
X45369366Y-44925617D01*
X45369366Y-44925617D02*
X45436033Y-44858951D01*
X45436033Y-44858951D02*
X45502700Y-44825617D01*
X45502700Y-44825617D02*
X45636033Y-44792284D01*
X45636033Y-44792284D02*
X45736033Y-44792284D01*
X45736033Y-44792284D02*
X45869366Y-44825617D01*
X45869366Y-44825617D02*
X45936033Y-44858951D01*
X45936033Y-44858951D02*
X46002700Y-44925617D01*
X46002700Y-44925617D02*
X46036033Y-45025617D01*
X46036033Y-45025617D02*
X46036033Y-45192284D01*
X45336033Y-44158951D02*
X45336033Y-44492284D01*
X45336033Y-44492284D02*
X45669366Y-44525617D01*
X45669366Y-44525617D02*
X45636033Y-44492284D01*
X45636033Y-44492284D02*
X45602700Y-44425617D01*
X45602700Y-44425617D02*
X45602700Y-44258951D01*
X45602700Y-44258951D02*
X45636033Y-44192284D01*
X45636033Y-44192284D02*
X45669366Y-44158951D01*
X45669366Y-44158951D02*
X45736033Y-44125617D01*
X45736033Y-44125617D02*
X45902700Y-44125617D01*
X45902700Y-44125617D02*
X45969366Y-44158951D01*
X45969366Y-44158951D02*
X46002700Y-44192284D01*
X46002700Y-44192284D02*
X46036033Y-44258951D01*
X46036033Y-44258951D02*
X46036033Y-44425617D01*
X46036033Y-44425617D02*
X46002700Y-44492284D01*
X46002700Y-44492284D02*
X45969366Y-44525617D01*
X40956033Y-45858951D02*
X40256033Y-45858951D01*
X40256033Y-45858951D02*
X40256033Y-45692284D01*
X40256033Y-45692284D02*
X40289366Y-45592284D01*
X40289366Y-45592284D02*
X40356033Y-45525618D01*
X40356033Y-45525618D02*
X40422700Y-45492284D01*
X40422700Y-45492284D02*
X40556033Y-45458951D01*
X40556033Y-45458951D02*
X40656033Y-45458951D01*
X40656033Y-45458951D02*
X40789366Y-45492284D01*
X40789366Y-45492284D02*
X40856033Y-45525618D01*
X40856033Y-45525618D02*
X40922700Y-45592284D01*
X40922700Y-45592284D02*
X40956033Y-45692284D01*
X40956033Y-45692284D02*
X40956033Y-45858951D01*
X40956033Y-44792284D02*
X40956033Y-45192284D01*
X40956033Y-44992284D02*
X40256033Y-44992284D01*
X40256033Y-44992284D02*
X40356033Y-45058951D01*
X40356033Y-45058951D02*
X40422700Y-45125618D01*
X40422700Y-45125618D02*
X40456033Y-45192284D01*
X40956033Y-44458951D02*
X40956033Y-44325617D01*
X40956033Y-44325617D02*
X40922700Y-44258951D01*
X40922700Y-44258951D02*
X40889366Y-44225617D01*
X40889366Y-44225617D02*
X40789366Y-44158951D01*
X40789366Y-44158951D02*
X40656033Y-44125617D01*
X40656033Y-44125617D02*
X40389366Y-44125617D01*
X40389366Y-44125617D02*
X40322700Y-44158951D01*
X40322700Y-44158951D02*
X40289366Y-44192284D01*
X40289366Y-44192284D02*
X40256033Y-44258951D01*
X40256033Y-44258951D02*
X40256033Y-44392284D01*
X40256033Y-44392284D02*
X40289366Y-44458951D01*
X40289366Y-44458951D02*
X40322700Y-44492284D01*
X40322700Y-44492284D02*
X40389366Y-44525617D01*
X40389366Y-44525617D02*
X40556033Y-44525617D01*
X40556033Y-44525617D02*
X40622700Y-44492284D01*
X40622700Y-44492284D02*
X40656033Y-44458951D01*
X40656033Y-44458951D02*
X40689366Y-44392284D01*
X40689366Y-44392284D02*
X40689366Y-44258951D01*
X40689366Y-44258951D02*
X40656033Y-44192284D01*
X40656033Y-44192284D02*
X40622700Y-44158951D01*
X40622700Y-44158951D02*
X40556033Y-44125617D01*
X32636033Y-45692284D02*
X32636033Y-45292284D01*
X33336033Y-45492284D02*
X32636033Y-45492284D01*
X33336033Y-45125618D02*
X32869366Y-44758951D01*
X32869366Y-45125618D02*
X33336033Y-44758951D01*
X32636033Y-44358951D02*
X32636033Y-44292284D01*
X32636033Y-44292284D02*
X32669366Y-44225617D01*
X32669366Y-44225617D02*
X32702700Y-44192284D01*
X32702700Y-44192284D02*
X32769366Y-44158951D01*
X32769366Y-44158951D02*
X32902700Y-44125617D01*
X32902700Y-44125617D02*
X33069366Y-44125617D01*
X33069366Y-44125617D02*
X33202700Y-44158951D01*
X33202700Y-44158951D02*
X33269366Y-44192284D01*
X33269366Y-44192284D02*
X33302700Y-44225617D01*
X33302700Y-44225617D02*
X33336033Y-44292284D01*
X33336033Y-44292284D02*
X33336033Y-44358951D01*
X33336033Y-44358951D02*
X33302700Y-44425617D01*
X33302700Y-44425617D02*
X33269366Y-44458951D01*
X33269366Y-44458951D02*
X33202700Y-44492284D01*
X33202700Y-44492284D02*
X33069366Y-44525617D01*
X33069366Y-44525617D02*
X32902700Y-44525617D01*
X32902700Y-44525617D02*
X32769366Y-44492284D01*
X32769366Y-44492284D02*
X32702700Y-44458951D01*
X32702700Y-44458951D02*
X32669366Y-44425617D01*
X32669366Y-44425617D02*
X32636033Y-44358951D01*
X58736033Y-45858951D02*
X58036033Y-45858951D01*
X58036033Y-45858951D02*
X58036033Y-45692284D01*
X58036033Y-45692284D02*
X58069366Y-45592284D01*
X58069366Y-45592284D02*
X58136033Y-45525618D01*
X58136033Y-45525618D02*
X58202700Y-45492284D01*
X58202700Y-45492284D02*
X58336033Y-45458951D01*
X58336033Y-45458951D02*
X58436033Y-45458951D01*
X58436033Y-45458951D02*
X58569366Y-45492284D01*
X58569366Y-45492284D02*
X58636033Y-45525618D01*
X58636033Y-45525618D02*
X58702700Y-45592284D01*
X58702700Y-45592284D02*
X58736033Y-45692284D01*
X58736033Y-45692284D02*
X58736033Y-45858951D01*
X58736033Y-44792284D02*
X58736033Y-45192284D01*
X58736033Y-44992284D02*
X58036033Y-44992284D01*
X58036033Y-44992284D02*
X58136033Y-45058951D01*
X58136033Y-45058951D02*
X58202700Y-45125618D01*
X58202700Y-45125618D02*
X58236033Y-45192284D01*
X58036033Y-44158951D02*
X58036033Y-44492284D01*
X58036033Y-44492284D02*
X58369366Y-44525617D01*
X58369366Y-44525617D02*
X58336033Y-44492284D01*
X58336033Y-44492284D02*
X58302700Y-44425617D01*
X58302700Y-44425617D02*
X58302700Y-44258951D01*
X58302700Y-44258951D02*
X58336033Y-44192284D01*
X58336033Y-44192284D02*
X58369366Y-44158951D01*
X58369366Y-44158951D02*
X58436033Y-44125617D01*
X58436033Y-44125617D02*
X58602700Y-44125617D01*
X58602700Y-44125617D02*
X58669366Y-44158951D01*
X58669366Y-44158951D02*
X58702700Y-44192284D01*
X58702700Y-44192284D02*
X58736033Y-44258951D01*
X58736033Y-44258951D02*
X58736033Y-44425617D01*
X58736033Y-44425617D02*
X58702700Y-44492284D01*
X58702700Y-44492284D02*
X58669366Y-44525617D01*
X38416033Y-45858951D02*
X37716033Y-45858951D01*
X37716033Y-45858951D02*
X37716033Y-45692284D01*
X37716033Y-45692284D02*
X37749366Y-45592284D01*
X37749366Y-45592284D02*
X37816033Y-45525618D01*
X37816033Y-45525618D02*
X37882700Y-45492284D01*
X37882700Y-45492284D02*
X38016033Y-45458951D01*
X38016033Y-45458951D02*
X38116033Y-45458951D01*
X38116033Y-45458951D02*
X38249366Y-45492284D01*
X38249366Y-45492284D02*
X38316033Y-45525618D01*
X38316033Y-45525618D02*
X38382700Y-45592284D01*
X38382700Y-45592284D02*
X38416033Y-45692284D01*
X38416033Y-45692284D02*
X38416033Y-45858951D01*
X37782700Y-45192284D02*
X37749366Y-45158951D01*
X37749366Y-45158951D02*
X37716033Y-45092284D01*
X37716033Y-45092284D02*
X37716033Y-44925618D01*
X37716033Y-44925618D02*
X37749366Y-44858951D01*
X37749366Y-44858951D02*
X37782700Y-44825618D01*
X37782700Y-44825618D02*
X37849366Y-44792284D01*
X37849366Y-44792284D02*
X37916033Y-44792284D01*
X37916033Y-44792284D02*
X38016033Y-44825618D01*
X38016033Y-44825618D02*
X38416033Y-45225618D01*
X38416033Y-45225618D02*
X38416033Y-44792284D01*
X38416033Y-44125617D02*
X38416033Y-44525617D01*
X38416033Y-44325617D02*
X37716033Y-44325617D01*
X37716033Y-44325617D02*
X37816033Y-44392284D01*
X37816033Y-44392284D02*
X37882700Y-44458951D01*
X37882700Y-44458951D02*
X37916033Y-44525617D01*
X63116033Y-46092284D02*
X63116033Y-45658950D01*
X63116033Y-45658950D02*
X63382700Y-45892284D01*
X63382700Y-45892284D02*
X63382700Y-45792284D01*
X63382700Y-45792284D02*
X63416033Y-45725617D01*
X63416033Y-45725617D02*
X63449366Y-45692284D01*
X63449366Y-45692284D02*
X63516033Y-45658950D01*
X63516033Y-45658950D02*
X63682700Y-45658950D01*
X63682700Y-45658950D02*
X63749366Y-45692284D01*
X63749366Y-45692284D02*
X63782700Y-45725617D01*
X63782700Y-45725617D02*
X63816033Y-45792284D01*
X63816033Y-45792284D02*
X63816033Y-45992284D01*
X63816033Y-45992284D02*
X63782700Y-46058950D01*
X63782700Y-46058950D02*
X63749366Y-46092284D01*
X63749366Y-45358950D02*
X63782700Y-45325617D01*
X63782700Y-45325617D02*
X63816033Y-45358950D01*
X63816033Y-45358950D02*
X63782700Y-45392283D01*
X63782700Y-45392283D02*
X63749366Y-45358950D01*
X63749366Y-45358950D02*
X63816033Y-45358950D01*
X63116033Y-45092284D02*
X63116033Y-44658950D01*
X63116033Y-44658950D02*
X63382700Y-44892284D01*
X63382700Y-44892284D02*
X63382700Y-44792284D01*
X63382700Y-44792284D02*
X63416033Y-44725617D01*
X63416033Y-44725617D02*
X63449366Y-44692284D01*
X63449366Y-44692284D02*
X63516033Y-44658950D01*
X63516033Y-44658950D02*
X63682700Y-44658950D01*
X63682700Y-44658950D02*
X63749366Y-44692284D01*
X63749366Y-44692284D02*
X63782700Y-44725617D01*
X63782700Y-44725617D02*
X63816033Y-44792284D01*
X63816033Y-44792284D02*
X63816033Y-44992284D01*
X63816033Y-44992284D02*
X63782700Y-45058950D01*
X63782700Y-45058950D02*
X63749366Y-45092284D01*
X63349366Y-44425617D02*
X63816033Y-44258950D01*
X63816033Y-44258950D02*
X63349366Y-44092283D01*
X46036033Y-63948249D02*
X45336033Y-63948249D01*
X45336033Y-63948249D02*
X45336033Y-63781582D01*
X45336033Y-63781582D02*
X45369366Y-63681582D01*
X45369366Y-63681582D02*
X45436033Y-63614916D01*
X45436033Y-63614916D02*
X45502700Y-63581582D01*
X45502700Y-63581582D02*
X45636033Y-63548249D01*
X45636033Y-63548249D02*
X45736033Y-63548249D01*
X45736033Y-63548249D02*
X45869366Y-63581582D01*
X45869366Y-63581582D02*
X45936033Y-63614916D01*
X45936033Y-63614916D02*
X46002700Y-63681582D01*
X46002700Y-63681582D02*
X46036033Y-63781582D01*
X46036033Y-63781582D02*
X46036033Y-63948249D01*
X45402700Y-63281582D02*
X45369366Y-63248249D01*
X45369366Y-63248249D02*
X45336033Y-63181582D01*
X45336033Y-63181582D02*
X45336033Y-63014916D01*
X45336033Y-63014916D02*
X45369366Y-62948249D01*
X45369366Y-62948249D02*
X45402700Y-62914916D01*
X45402700Y-62914916D02*
X45469366Y-62881582D01*
X45469366Y-62881582D02*
X45536033Y-62881582D01*
X45536033Y-62881582D02*
X45636033Y-62914916D01*
X45636033Y-62914916D02*
X46036033Y-63314916D01*
X46036033Y-63314916D02*
X46036033Y-62881582D01*
X45336033Y-62248249D02*
X45336033Y-62581582D01*
X45336033Y-62581582D02*
X45669366Y-62614915D01*
X45669366Y-62614915D02*
X45636033Y-62581582D01*
X45636033Y-62581582D02*
X45602700Y-62514915D01*
X45602700Y-62514915D02*
X45602700Y-62348249D01*
X45602700Y-62348249D02*
X45636033Y-62281582D01*
X45636033Y-62281582D02*
X45669366Y-62248249D01*
X45669366Y-62248249D02*
X45736033Y-62214915D01*
X45736033Y-62214915D02*
X45902700Y-62214915D01*
X45902700Y-62214915D02*
X45969366Y-62248249D01*
X45969366Y-62248249D02*
X46002700Y-62281582D01*
X46002700Y-62281582D02*
X46036033Y-62348249D01*
X46036033Y-62348249D02*
X46036033Y-62514915D01*
X46036033Y-62514915D02*
X46002700Y-62581582D01*
X46002700Y-62581582D02*
X45969366Y-62614915D01*
X38416033Y-63948249D02*
X37716033Y-63948249D01*
X37716033Y-63948249D02*
X37716033Y-63781582D01*
X37716033Y-63781582D02*
X37749366Y-63681582D01*
X37749366Y-63681582D02*
X37816033Y-63614916D01*
X37816033Y-63614916D02*
X37882700Y-63581582D01*
X37882700Y-63581582D02*
X38016033Y-63548249D01*
X38016033Y-63548249D02*
X38116033Y-63548249D01*
X38116033Y-63548249D02*
X38249366Y-63581582D01*
X38249366Y-63581582D02*
X38316033Y-63614916D01*
X38316033Y-63614916D02*
X38382700Y-63681582D01*
X38382700Y-63681582D02*
X38416033Y-63781582D01*
X38416033Y-63781582D02*
X38416033Y-63948249D01*
X37716033Y-63314916D02*
X37716033Y-62881582D01*
X37716033Y-62881582D02*
X37982700Y-63114916D01*
X37982700Y-63114916D02*
X37982700Y-63014916D01*
X37982700Y-63014916D02*
X38016033Y-62948249D01*
X38016033Y-62948249D02*
X38049366Y-62914916D01*
X38049366Y-62914916D02*
X38116033Y-62881582D01*
X38116033Y-62881582D02*
X38282700Y-62881582D01*
X38282700Y-62881582D02*
X38349366Y-62914916D01*
X38349366Y-62914916D02*
X38382700Y-62948249D01*
X38382700Y-62948249D02*
X38416033Y-63014916D01*
X38416033Y-63014916D02*
X38416033Y-63214916D01*
X38416033Y-63214916D02*
X38382700Y-63281582D01*
X38382700Y-63281582D02*
X38349366Y-63314916D01*
X37716033Y-62248249D02*
X37716033Y-62581582D01*
X37716033Y-62581582D02*
X38049366Y-62614915D01*
X38049366Y-62614915D02*
X38016033Y-62581582D01*
X38016033Y-62581582D02*
X37982700Y-62514915D01*
X37982700Y-62514915D02*
X37982700Y-62348249D01*
X37982700Y-62348249D02*
X38016033Y-62281582D01*
X38016033Y-62281582D02*
X38049366Y-62248249D01*
X38049366Y-62248249D02*
X38116033Y-62214915D01*
X38116033Y-62214915D02*
X38282700Y-62214915D01*
X38282700Y-62214915D02*
X38349366Y-62248249D01*
X38349366Y-62248249D02*
X38382700Y-62281582D01*
X38382700Y-62281582D02*
X38416033Y-62348249D01*
X38416033Y-62348249D02*
X38416033Y-62514915D01*
X38416033Y-62514915D02*
X38382700Y-62581582D01*
X38382700Y-62581582D02*
X38349366Y-62614915D01*
X56196033Y-45192284D02*
X55496033Y-45192284D01*
X55496033Y-45192284D02*
X55496033Y-45025617D01*
X55496033Y-45025617D02*
X55529366Y-44925617D01*
X55529366Y-44925617D02*
X55596033Y-44858951D01*
X55596033Y-44858951D02*
X55662700Y-44825617D01*
X55662700Y-44825617D02*
X55796033Y-44792284D01*
X55796033Y-44792284D02*
X55896033Y-44792284D01*
X55896033Y-44792284D02*
X56029366Y-44825617D01*
X56029366Y-44825617D02*
X56096033Y-44858951D01*
X56096033Y-44858951D02*
X56162700Y-44925617D01*
X56162700Y-44925617D02*
X56196033Y-45025617D01*
X56196033Y-45025617D02*
X56196033Y-45192284D01*
X55562700Y-44525617D02*
X55529366Y-44492284D01*
X55529366Y-44492284D02*
X55496033Y-44425617D01*
X55496033Y-44425617D02*
X55496033Y-44258951D01*
X55496033Y-44258951D02*
X55529366Y-44192284D01*
X55529366Y-44192284D02*
X55562700Y-44158951D01*
X55562700Y-44158951D02*
X55629366Y-44125617D01*
X55629366Y-44125617D02*
X55696033Y-44125617D01*
X55696033Y-44125617D02*
X55796033Y-44158951D01*
X55796033Y-44158951D02*
X56196033Y-44558951D01*
X56196033Y-44558951D02*
X56196033Y-44125617D01*
X43496033Y-63948249D02*
X42796033Y-63948249D01*
X42796033Y-63948249D02*
X42796033Y-63781582D01*
X42796033Y-63781582D02*
X42829366Y-63681582D01*
X42829366Y-63681582D02*
X42896033Y-63614916D01*
X42896033Y-63614916D02*
X42962700Y-63581582D01*
X42962700Y-63581582D02*
X43096033Y-63548249D01*
X43096033Y-63548249D02*
X43196033Y-63548249D01*
X43196033Y-63548249D02*
X43329366Y-63581582D01*
X43329366Y-63581582D02*
X43396033Y-63614916D01*
X43396033Y-63614916D02*
X43462700Y-63681582D01*
X43462700Y-63681582D02*
X43496033Y-63781582D01*
X43496033Y-63781582D02*
X43496033Y-63948249D01*
X42796033Y-63314916D02*
X42796033Y-62881582D01*
X42796033Y-62881582D02*
X43062700Y-63114916D01*
X43062700Y-63114916D02*
X43062700Y-63014916D01*
X43062700Y-63014916D02*
X43096033Y-62948249D01*
X43096033Y-62948249D02*
X43129366Y-62914916D01*
X43129366Y-62914916D02*
X43196033Y-62881582D01*
X43196033Y-62881582D02*
X43362700Y-62881582D01*
X43362700Y-62881582D02*
X43429366Y-62914916D01*
X43429366Y-62914916D02*
X43462700Y-62948249D01*
X43462700Y-62948249D02*
X43496033Y-63014916D01*
X43496033Y-63014916D02*
X43496033Y-63214916D01*
X43496033Y-63214916D02*
X43462700Y-63281582D01*
X43462700Y-63281582D02*
X43429366Y-63314916D01*
X42796033Y-62648249D02*
X42796033Y-62214915D01*
X42796033Y-62214915D02*
X43062700Y-62448249D01*
X43062700Y-62448249D02*
X43062700Y-62348249D01*
X43062700Y-62348249D02*
X43096033Y-62281582D01*
X43096033Y-62281582D02*
X43129366Y-62248249D01*
X43129366Y-62248249D02*
X43196033Y-62214915D01*
X43196033Y-62214915D02*
X43362700Y-62214915D01*
X43362700Y-62214915D02*
X43429366Y-62248249D01*
X43429366Y-62248249D02*
X43462700Y-62281582D01*
X43462700Y-62281582D02*
X43496033Y-62348249D01*
X43496033Y-62348249D02*
X43496033Y-62548249D01*
X43496033Y-62548249D02*
X43462700Y-62614915D01*
X43462700Y-62614915D02*
X43429366Y-62648249D01*
X32636033Y-64048249D02*
X33336033Y-63814916D01*
X33336033Y-63814916D02*
X32636033Y-63581582D01*
X33336033Y-63348249D02*
X32636033Y-63348249D01*
X32636033Y-63348249D02*
X33336033Y-62948249D01*
X33336033Y-62948249D02*
X32636033Y-62948249D01*
X30096033Y-64048249D02*
X30796033Y-63814916D01*
X30796033Y-63814916D02*
X30096033Y-63581582D01*
X30796033Y-63348249D02*
X30096033Y-63348249D01*
X30096033Y-63348249D02*
X30096033Y-63081582D01*
X30096033Y-63081582D02*
X30129366Y-63014916D01*
X30129366Y-63014916D02*
X30162700Y-62981582D01*
X30162700Y-62981582D02*
X30229366Y-62948249D01*
X30229366Y-62948249D02*
X30329366Y-62948249D01*
X30329366Y-62948249D02*
X30396033Y-62981582D01*
X30396033Y-62981582D02*
X30429366Y-63014916D01*
X30429366Y-63014916D02*
X30462700Y-63081582D01*
X30462700Y-63081582D02*
X30462700Y-63348249D01*
X60609366Y-63581582D02*
X60576033Y-63648249D01*
X60576033Y-63648249D02*
X60576033Y-63748249D01*
X60576033Y-63748249D02*
X60609366Y-63848249D01*
X60609366Y-63848249D02*
X60676033Y-63914916D01*
X60676033Y-63914916D02*
X60742700Y-63948249D01*
X60742700Y-63948249D02*
X60876033Y-63981582D01*
X60876033Y-63981582D02*
X60976033Y-63981582D01*
X60976033Y-63981582D02*
X61109366Y-63948249D01*
X61109366Y-63948249D02*
X61176033Y-63914916D01*
X61176033Y-63914916D02*
X61242700Y-63848249D01*
X61242700Y-63848249D02*
X61276033Y-63748249D01*
X61276033Y-63748249D02*
X61276033Y-63681582D01*
X61276033Y-63681582D02*
X61242700Y-63581582D01*
X61242700Y-63581582D02*
X61209366Y-63548249D01*
X61209366Y-63548249D02*
X60976033Y-63548249D01*
X60976033Y-63548249D02*
X60976033Y-63681582D01*
X61276033Y-63248249D02*
X60576033Y-63248249D01*
X60576033Y-63248249D02*
X61276033Y-62848249D01*
X61276033Y-62848249D02*
X60576033Y-62848249D01*
X61276033Y-62514916D02*
X60576033Y-62514916D01*
X60576033Y-62514916D02*
X60576033Y-62348249D01*
X60576033Y-62348249D02*
X60609366Y-62248249D01*
X60609366Y-62248249D02*
X60676033Y-62181583D01*
X60676033Y-62181583D02*
X60742700Y-62148249D01*
X60742700Y-62148249D02*
X60876033Y-62114916D01*
X60876033Y-62114916D02*
X60976033Y-62114916D01*
X60976033Y-62114916D02*
X61109366Y-62148249D01*
X61109366Y-62148249D02*
X61176033Y-62181583D01*
X61176033Y-62181583D02*
X61242700Y-62248249D01*
X61242700Y-62248249D02*
X61276033Y-62348249D01*
X61276033Y-62348249D02*
X61276033Y-62514916D01*
X43496033Y-45858951D02*
X42796033Y-45858951D01*
X42796033Y-45858951D02*
X42796033Y-45692284D01*
X42796033Y-45692284D02*
X42829366Y-45592284D01*
X42829366Y-45592284D02*
X42896033Y-45525618D01*
X42896033Y-45525618D02*
X42962700Y-45492284D01*
X42962700Y-45492284D02*
X43096033Y-45458951D01*
X43096033Y-45458951D02*
X43196033Y-45458951D01*
X43196033Y-45458951D02*
X43329366Y-45492284D01*
X43329366Y-45492284D02*
X43396033Y-45525618D01*
X43396033Y-45525618D02*
X43462700Y-45592284D01*
X43462700Y-45592284D02*
X43496033Y-45692284D01*
X43496033Y-45692284D02*
X43496033Y-45858951D01*
X43496033Y-44792284D02*
X43496033Y-45192284D01*
X43496033Y-44992284D02*
X42796033Y-44992284D01*
X42796033Y-44992284D02*
X42896033Y-45058951D01*
X42896033Y-45058951D02*
X42962700Y-45125618D01*
X42962700Y-45125618D02*
X42996033Y-45192284D01*
X43096033Y-44392284D02*
X43062700Y-44458951D01*
X43062700Y-44458951D02*
X43029366Y-44492284D01*
X43029366Y-44492284D02*
X42962700Y-44525617D01*
X42962700Y-44525617D02*
X42929366Y-44525617D01*
X42929366Y-44525617D02*
X42862700Y-44492284D01*
X42862700Y-44492284D02*
X42829366Y-44458951D01*
X42829366Y-44458951D02*
X42796033Y-44392284D01*
X42796033Y-44392284D02*
X42796033Y-44258951D01*
X42796033Y-44258951D02*
X42829366Y-44192284D01*
X42829366Y-44192284D02*
X42862700Y-44158951D01*
X42862700Y-44158951D02*
X42929366Y-44125617D01*
X42929366Y-44125617D02*
X42962700Y-44125617D01*
X42962700Y-44125617D02*
X43029366Y-44158951D01*
X43029366Y-44158951D02*
X43062700Y-44192284D01*
X43062700Y-44192284D02*
X43096033Y-44258951D01*
X43096033Y-44258951D02*
X43096033Y-44392284D01*
X43096033Y-44392284D02*
X43129366Y-44458951D01*
X43129366Y-44458951D02*
X43162700Y-44492284D01*
X43162700Y-44492284D02*
X43229366Y-44525617D01*
X43229366Y-44525617D02*
X43362700Y-44525617D01*
X43362700Y-44525617D02*
X43429366Y-44492284D01*
X43429366Y-44492284D02*
X43462700Y-44458951D01*
X43462700Y-44458951D02*
X43496033Y-44392284D01*
X43496033Y-44392284D02*
X43496033Y-44258951D01*
X43496033Y-44258951D02*
X43462700Y-44192284D01*
X43462700Y-44192284D02*
X43429366Y-44158951D01*
X43429366Y-44158951D02*
X43362700Y-44125617D01*
X43362700Y-44125617D02*
X43229366Y-44125617D01*
X43229366Y-44125617D02*
X43162700Y-44158951D01*
X43162700Y-44158951D02*
X43129366Y-44192284D01*
X43129366Y-44192284D02*
X43096033Y-44258951D01*
X56196033Y-63948249D02*
X55496033Y-63948249D01*
X55496033Y-63948249D02*
X55496033Y-63781582D01*
X55496033Y-63781582D02*
X55529366Y-63681582D01*
X55529366Y-63681582D02*
X55596033Y-63614916D01*
X55596033Y-63614916D02*
X55662700Y-63581582D01*
X55662700Y-63581582D02*
X55796033Y-63548249D01*
X55796033Y-63548249D02*
X55896033Y-63548249D01*
X55896033Y-63548249D02*
X56029366Y-63581582D01*
X56029366Y-63581582D02*
X56096033Y-63614916D01*
X56096033Y-63614916D02*
X56162700Y-63681582D01*
X56162700Y-63681582D02*
X56196033Y-63781582D01*
X56196033Y-63781582D02*
X56196033Y-63948249D01*
X56196033Y-62881582D02*
X56196033Y-63281582D01*
X56196033Y-63081582D02*
X55496033Y-63081582D01*
X55496033Y-63081582D02*
X55596033Y-63148249D01*
X55596033Y-63148249D02*
X55662700Y-63214916D01*
X55662700Y-63214916D02*
X55696033Y-63281582D01*
X55562700Y-62614915D02*
X55529366Y-62581582D01*
X55529366Y-62581582D02*
X55496033Y-62514915D01*
X55496033Y-62514915D02*
X55496033Y-62348249D01*
X55496033Y-62348249D02*
X55529366Y-62281582D01*
X55529366Y-62281582D02*
X55562700Y-62248249D01*
X55562700Y-62248249D02*
X55629366Y-62214915D01*
X55629366Y-62214915D02*
X55696033Y-62214915D01*
X55696033Y-62214915D02*
X55796033Y-62248249D01*
X55796033Y-62248249D02*
X56196033Y-62648249D01*
X56196033Y-62648249D02*
X56196033Y-62214915D01*
X60609366Y-45592283D02*
X60576033Y-45658950D01*
X60576033Y-45658950D02*
X60576033Y-45758950D01*
X60576033Y-45758950D02*
X60609366Y-45858950D01*
X60609366Y-45858950D02*
X60676033Y-45925617D01*
X60676033Y-45925617D02*
X60742700Y-45958950D01*
X60742700Y-45958950D02*
X60876033Y-45992283D01*
X60876033Y-45992283D02*
X60976033Y-45992283D01*
X60976033Y-45992283D02*
X61109366Y-45958950D01*
X61109366Y-45958950D02*
X61176033Y-45925617D01*
X61176033Y-45925617D02*
X61242700Y-45858950D01*
X61242700Y-45858950D02*
X61276033Y-45758950D01*
X61276033Y-45758950D02*
X61276033Y-45692283D01*
X61276033Y-45692283D02*
X61242700Y-45592283D01*
X61242700Y-45592283D02*
X61209366Y-45558950D01*
X61209366Y-45558950D02*
X60976033Y-45558950D01*
X60976033Y-45558950D02*
X60976033Y-45692283D01*
X61276033Y-45258950D02*
X60576033Y-45258950D01*
X60576033Y-45258950D02*
X61276033Y-44858950D01*
X61276033Y-44858950D02*
X60576033Y-44858950D01*
X61276033Y-44525617D02*
X60576033Y-44525617D01*
X60576033Y-44525617D02*
X60576033Y-44358950D01*
X60576033Y-44358950D02*
X60609366Y-44258950D01*
X60609366Y-44258950D02*
X60676033Y-44192284D01*
X60676033Y-44192284D02*
X60742700Y-44158950D01*
X60742700Y-44158950D02*
X60876033Y-44125617D01*
X60876033Y-44125617D02*
X60976033Y-44125617D01*
X60976033Y-44125617D02*
X61109366Y-44158950D01*
X61109366Y-44158950D02*
X61176033Y-44192284D01*
X61176033Y-44192284D02*
X61242700Y-44258950D01*
X61242700Y-44258950D02*
X61276033Y-44358950D01*
X61276033Y-44358950D02*
X61276033Y-44525617D01*
X51116033Y-45358951D02*
X50782700Y-45592284D01*
X51116033Y-45758951D02*
X50416033Y-45758951D01*
X50416033Y-45758951D02*
X50416033Y-45492284D01*
X50416033Y-45492284D02*
X50449366Y-45425618D01*
X50449366Y-45425618D02*
X50482700Y-45392284D01*
X50482700Y-45392284D02*
X50549366Y-45358951D01*
X50549366Y-45358951D02*
X50649366Y-45358951D01*
X50649366Y-45358951D02*
X50716033Y-45392284D01*
X50716033Y-45392284D02*
X50749366Y-45425618D01*
X50749366Y-45425618D02*
X50782700Y-45492284D01*
X50782700Y-45492284D02*
X50782700Y-45758951D01*
X51116033Y-45125618D02*
X50649366Y-44758951D01*
X50649366Y-45125618D02*
X51116033Y-44758951D01*
X50482700Y-44525617D02*
X50449366Y-44492284D01*
X50449366Y-44492284D02*
X50416033Y-44425617D01*
X50416033Y-44425617D02*
X50416033Y-44258951D01*
X50416033Y-44258951D02*
X50449366Y-44192284D01*
X50449366Y-44192284D02*
X50482700Y-44158951D01*
X50482700Y-44158951D02*
X50549366Y-44125617D01*
X50549366Y-44125617D02*
X50616033Y-44125617D01*
X50616033Y-44125617D02*
X50716033Y-44158951D01*
X50716033Y-44158951D02*
X51116033Y-44558951D01*
X51116033Y-44558951D02*
X51116033Y-44125617D01*
X53656033Y-45192284D02*
X52956033Y-45192284D01*
X52956033Y-45192284D02*
X52956033Y-45025617D01*
X52956033Y-45025617D02*
X52989366Y-44925617D01*
X52989366Y-44925617D02*
X53056033Y-44858951D01*
X53056033Y-44858951D02*
X53122700Y-44825617D01*
X53122700Y-44825617D02*
X53256033Y-44792284D01*
X53256033Y-44792284D02*
X53356033Y-44792284D01*
X53356033Y-44792284D02*
X53489366Y-44825617D01*
X53489366Y-44825617D02*
X53556033Y-44858951D01*
X53556033Y-44858951D02*
X53622700Y-44925617D01*
X53622700Y-44925617D02*
X53656033Y-45025617D01*
X53656033Y-45025617D02*
X53656033Y-45192284D01*
X53189366Y-44192284D02*
X53656033Y-44192284D01*
X52922700Y-44358951D02*
X53422700Y-44525617D01*
X53422700Y-44525617D02*
X53422700Y-44092284D01*
X51116033Y-63948249D02*
X50416033Y-63948249D01*
X50416033Y-63948249D02*
X50416033Y-63781582D01*
X50416033Y-63781582D02*
X50449366Y-63681582D01*
X50449366Y-63681582D02*
X50516033Y-63614916D01*
X50516033Y-63614916D02*
X50582700Y-63581582D01*
X50582700Y-63581582D02*
X50716033Y-63548249D01*
X50716033Y-63548249D02*
X50816033Y-63548249D01*
X50816033Y-63548249D02*
X50949366Y-63581582D01*
X50949366Y-63581582D02*
X51016033Y-63614916D01*
X51016033Y-63614916D02*
X51082700Y-63681582D01*
X51082700Y-63681582D02*
X51116033Y-63781582D01*
X51116033Y-63781582D02*
X51116033Y-63948249D01*
X50482700Y-63281582D02*
X50449366Y-63248249D01*
X50449366Y-63248249D02*
X50416033Y-63181582D01*
X50416033Y-63181582D02*
X50416033Y-63014916D01*
X50416033Y-63014916D02*
X50449366Y-62948249D01*
X50449366Y-62948249D02*
X50482700Y-62914916D01*
X50482700Y-62914916D02*
X50549366Y-62881582D01*
X50549366Y-62881582D02*
X50616033Y-62881582D01*
X50616033Y-62881582D02*
X50716033Y-62914916D01*
X50716033Y-62914916D02*
X51116033Y-63314916D01*
X51116033Y-63314916D02*
X51116033Y-62881582D01*
X50416033Y-62648249D02*
X50416033Y-62181582D01*
X50416033Y-62181582D02*
X51116033Y-62481582D01*
X27889366Y-63948249D02*
X27889366Y-63714916D01*
X28256033Y-63614916D02*
X28256033Y-63948249D01*
X28256033Y-63948249D02*
X27556033Y-63948249D01*
X27556033Y-63948249D02*
X27556033Y-63614916D01*
X28256033Y-63314916D02*
X27556033Y-63314916D01*
X27556033Y-63314916D02*
X28256033Y-62914916D01*
X28256033Y-62914916D02*
X27556033Y-62914916D01*
X47876033Y-45692284D02*
X47876033Y-45292284D01*
X48576033Y-45492284D02*
X47876033Y-45492284D01*
X48576033Y-45125618D02*
X48109366Y-44758951D01*
X48109366Y-45125618D02*
X48576033Y-44758951D01*
X47942700Y-44525617D02*
X47909366Y-44492284D01*
X47909366Y-44492284D02*
X47876033Y-44425617D01*
X47876033Y-44425617D02*
X47876033Y-44258951D01*
X47876033Y-44258951D02*
X47909366Y-44192284D01*
X47909366Y-44192284D02*
X47942700Y-44158951D01*
X47942700Y-44158951D02*
X48009366Y-44125617D01*
X48009366Y-44125617D02*
X48076033Y-44125617D01*
X48076033Y-44125617D02*
X48176033Y-44158951D01*
X48176033Y-44158951D02*
X48576033Y-44558951D01*
X48576033Y-44558951D02*
X48576033Y-44125617D01*
X58736033Y-63948249D02*
X58036033Y-63948249D01*
X58036033Y-63948249D02*
X58036033Y-63781582D01*
X58036033Y-63781582D02*
X58069366Y-63681582D01*
X58069366Y-63681582D02*
X58136033Y-63614916D01*
X58136033Y-63614916D02*
X58202700Y-63581582D01*
X58202700Y-63581582D02*
X58336033Y-63548249D01*
X58336033Y-63548249D02*
X58436033Y-63548249D01*
X58436033Y-63548249D02*
X58569366Y-63581582D01*
X58569366Y-63581582D02*
X58636033Y-63614916D01*
X58636033Y-63614916D02*
X58702700Y-63681582D01*
X58702700Y-63681582D02*
X58736033Y-63781582D01*
X58736033Y-63781582D02*
X58736033Y-63948249D01*
X58736033Y-62881582D02*
X58736033Y-63281582D01*
X58736033Y-63081582D02*
X58036033Y-63081582D01*
X58036033Y-63081582D02*
X58136033Y-63148249D01*
X58136033Y-63148249D02*
X58202700Y-63214916D01*
X58202700Y-63214916D02*
X58236033Y-63281582D01*
X58036033Y-62648249D02*
X58036033Y-62214915D01*
X58036033Y-62214915D02*
X58302700Y-62448249D01*
X58302700Y-62448249D02*
X58302700Y-62348249D01*
X58302700Y-62348249D02*
X58336033Y-62281582D01*
X58336033Y-62281582D02*
X58369366Y-62248249D01*
X58369366Y-62248249D02*
X58436033Y-62214915D01*
X58436033Y-62214915D02*
X58602700Y-62214915D01*
X58602700Y-62214915D02*
X58669366Y-62248249D01*
X58669366Y-62248249D02*
X58702700Y-62281582D01*
X58702700Y-62281582D02*
X58736033Y-62348249D01*
X58736033Y-62348249D02*
X58736033Y-62548249D01*
X58736033Y-62548249D02*
X58702700Y-62614915D01*
X58702700Y-62614915D02*
X58669366Y-62648249D01*
X30796033Y-45858951D02*
X30096033Y-45858951D01*
X30096033Y-45858951D02*
X30096033Y-45692284D01*
X30096033Y-45692284D02*
X30129366Y-45592284D01*
X30129366Y-45592284D02*
X30196033Y-45525618D01*
X30196033Y-45525618D02*
X30262700Y-45492284D01*
X30262700Y-45492284D02*
X30396033Y-45458951D01*
X30396033Y-45458951D02*
X30496033Y-45458951D01*
X30496033Y-45458951D02*
X30629366Y-45492284D01*
X30629366Y-45492284D02*
X30696033Y-45525618D01*
X30696033Y-45525618D02*
X30762700Y-45592284D01*
X30762700Y-45592284D02*
X30796033Y-45692284D01*
X30796033Y-45692284D02*
X30796033Y-45858951D01*
X30162700Y-45192284D02*
X30129366Y-45158951D01*
X30129366Y-45158951D02*
X30096033Y-45092284D01*
X30096033Y-45092284D02*
X30096033Y-44925618D01*
X30096033Y-44925618D02*
X30129366Y-44858951D01*
X30129366Y-44858951D02*
X30162700Y-44825618D01*
X30162700Y-44825618D02*
X30229366Y-44792284D01*
X30229366Y-44792284D02*
X30296033Y-44792284D01*
X30296033Y-44792284D02*
X30396033Y-44825618D01*
X30396033Y-44825618D02*
X30796033Y-45225618D01*
X30796033Y-45225618D02*
X30796033Y-44792284D01*
X30162700Y-44525617D02*
X30129366Y-44492284D01*
X30129366Y-44492284D02*
X30096033Y-44425617D01*
X30096033Y-44425617D02*
X30096033Y-44258951D01*
X30096033Y-44258951D02*
X30129366Y-44192284D01*
X30129366Y-44192284D02*
X30162700Y-44158951D01*
X30162700Y-44158951D02*
X30229366Y-44125617D01*
X30229366Y-44125617D02*
X30296033Y-44125617D01*
X30296033Y-44125617D02*
X30396033Y-44158951D01*
X30396033Y-44158951D02*
X30796033Y-44558951D01*
X30796033Y-44558951D02*
X30796033Y-44125617D01*
X40956033Y-63948249D02*
X40256033Y-63948249D01*
X40256033Y-63948249D02*
X40256033Y-63781582D01*
X40256033Y-63781582D02*
X40289366Y-63681582D01*
X40289366Y-63681582D02*
X40356033Y-63614916D01*
X40356033Y-63614916D02*
X40422700Y-63581582D01*
X40422700Y-63581582D02*
X40556033Y-63548249D01*
X40556033Y-63548249D02*
X40656033Y-63548249D01*
X40656033Y-63548249D02*
X40789366Y-63581582D01*
X40789366Y-63581582D02*
X40856033Y-63614916D01*
X40856033Y-63614916D02*
X40922700Y-63681582D01*
X40922700Y-63681582D02*
X40956033Y-63781582D01*
X40956033Y-63781582D02*
X40956033Y-63948249D01*
X40256033Y-63314916D02*
X40256033Y-62881582D01*
X40256033Y-62881582D02*
X40522700Y-63114916D01*
X40522700Y-63114916D02*
X40522700Y-63014916D01*
X40522700Y-63014916D02*
X40556033Y-62948249D01*
X40556033Y-62948249D02*
X40589366Y-62914916D01*
X40589366Y-62914916D02*
X40656033Y-62881582D01*
X40656033Y-62881582D02*
X40822700Y-62881582D01*
X40822700Y-62881582D02*
X40889366Y-62914916D01*
X40889366Y-62914916D02*
X40922700Y-62948249D01*
X40922700Y-62948249D02*
X40956033Y-63014916D01*
X40956033Y-63014916D02*
X40956033Y-63214916D01*
X40956033Y-63214916D02*
X40922700Y-63281582D01*
X40922700Y-63281582D02*
X40889366Y-63314916D01*
X40322700Y-62614915D02*
X40289366Y-62581582D01*
X40289366Y-62581582D02*
X40256033Y-62514915D01*
X40256033Y-62514915D02*
X40256033Y-62348249D01*
X40256033Y-62348249D02*
X40289366Y-62281582D01*
X40289366Y-62281582D02*
X40322700Y-62248249D01*
X40322700Y-62248249D02*
X40389366Y-62214915D01*
X40389366Y-62214915D02*
X40456033Y-62214915D01*
X40456033Y-62214915D02*
X40556033Y-62248249D01*
X40556033Y-62248249D02*
X40956033Y-62648249D01*
X40956033Y-62648249D02*
X40956033Y-62214915D01*
X28256033Y-45858951D02*
X27556033Y-45858951D01*
X27556033Y-45858951D02*
X27556033Y-45692284D01*
X27556033Y-45692284D02*
X27589366Y-45592284D01*
X27589366Y-45592284D02*
X27656033Y-45525618D01*
X27656033Y-45525618D02*
X27722700Y-45492284D01*
X27722700Y-45492284D02*
X27856033Y-45458951D01*
X27856033Y-45458951D02*
X27956033Y-45458951D01*
X27956033Y-45458951D02*
X28089366Y-45492284D01*
X28089366Y-45492284D02*
X28156033Y-45525618D01*
X28156033Y-45525618D02*
X28222700Y-45592284D01*
X28222700Y-45592284D02*
X28256033Y-45692284D01*
X28256033Y-45692284D02*
X28256033Y-45858951D01*
X27622700Y-45192284D02*
X27589366Y-45158951D01*
X27589366Y-45158951D02*
X27556033Y-45092284D01*
X27556033Y-45092284D02*
X27556033Y-44925618D01*
X27556033Y-44925618D02*
X27589366Y-44858951D01*
X27589366Y-44858951D02*
X27622700Y-44825618D01*
X27622700Y-44825618D02*
X27689366Y-44792284D01*
X27689366Y-44792284D02*
X27756033Y-44792284D01*
X27756033Y-44792284D02*
X27856033Y-44825618D01*
X27856033Y-44825618D02*
X28256033Y-45225618D01*
X28256033Y-45225618D02*
X28256033Y-44792284D01*
X27556033Y-44558951D02*
X27556033Y-44125617D01*
X27556033Y-44125617D02*
X27822700Y-44358951D01*
X27822700Y-44358951D02*
X27822700Y-44258951D01*
X27822700Y-44258951D02*
X27856033Y-44192284D01*
X27856033Y-44192284D02*
X27889366Y-44158951D01*
X27889366Y-44158951D02*
X27956033Y-44125617D01*
X27956033Y-44125617D02*
X28122700Y-44125617D01*
X28122700Y-44125617D02*
X28189366Y-44158951D01*
X28189366Y-44158951D02*
X28222700Y-44192284D01*
X28222700Y-44192284D02*
X28256033Y-44258951D01*
X28256033Y-44258951D02*
X28256033Y-44458951D01*
X28256033Y-44458951D02*
X28222700Y-44525617D01*
X28222700Y-44525617D02*
X28189366Y-44558951D01*
X53656033Y-63948249D02*
X52956033Y-63948249D01*
X52956033Y-63948249D02*
X52956033Y-63781582D01*
X52956033Y-63781582D02*
X52989366Y-63681582D01*
X52989366Y-63681582D02*
X53056033Y-63614916D01*
X53056033Y-63614916D02*
X53122700Y-63581582D01*
X53122700Y-63581582D02*
X53256033Y-63548249D01*
X53256033Y-63548249D02*
X53356033Y-63548249D01*
X53356033Y-63548249D02*
X53489366Y-63581582D01*
X53489366Y-63581582D02*
X53556033Y-63614916D01*
X53556033Y-63614916D02*
X53622700Y-63681582D01*
X53622700Y-63681582D02*
X53656033Y-63781582D01*
X53656033Y-63781582D02*
X53656033Y-63948249D01*
X53656033Y-62881582D02*
X53656033Y-63281582D01*
X53656033Y-63081582D02*
X52956033Y-63081582D01*
X52956033Y-63081582D02*
X53056033Y-63148249D01*
X53056033Y-63148249D02*
X53122700Y-63214916D01*
X53122700Y-63214916D02*
X53156033Y-63281582D01*
X53189366Y-62281582D02*
X53656033Y-62281582D01*
X52922700Y-62448249D02*
X53422700Y-62614915D01*
X53422700Y-62614915D02*
X53422700Y-62181582D01*
X109860057Y-147415238D02*
X109812438Y-147510476D01*
X109812438Y-147510476D02*
X109717200Y-147605714D01*
X109717200Y-147605714D02*
X109574342Y-147748571D01*
X109574342Y-147748571D02*
X109526723Y-147843809D01*
X109526723Y-147843809D02*
X109526723Y-147939047D01*
X109764819Y-147891428D02*
X109717200Y-147986666D01*
X109717200Y-147986666D02*
X109621961Y-148081904D01*
X109621961Y-148081904D02*
X109431485Y-148129523D01*
X109431485Y-148129523D02*
X109098152Y-148129523D01*
X109098152Y-148129523D02*
X108907676Y-148081904D01*
X108907676Y-148081904D02*
X108812438Y-147986666D01*
X108812438Y-147986666D02*
X108764819Y-147891428D01*
X108764819Y-147891428D02*
X108764819Y-147700952D01*
X108764819Y-147700952D02*
X108812438Y-147605714D01*
X108812438Y-147605714D02*
X108907676Y-147510476D01*
X108907676Y-147510476D02*
X109098152Y-147462857D01*
X109098152Y-147462857D02*
X109431485Y-147462857D01*
X109431485Y-147462857D02*
X109621961Y-147510476D01*
X109621961Y-147510476D02*
X109717200Y-147605714D01*
X109717200Y-147605714D02*
X109764819Y-147700952D01*
X109764819Y-147700952D02*
X109764819Y-147891428D01*
X109193390Y-146891428D02*
X109145771Y-146986666D01*
X109145771Y-146986666D02*
X109098152Y-147034285D01*
X109098152Y-147034285D02*
X109002914Y-147081904D01*
X109002914Y-147081904D02*
X108955295Y-147081904D01*
X108955295Y-147081904D02*
X108860057Y-147034285D01*
X108860057Y-147034285D02*
X108812438Y-146986666D01*
X108812438Y-146986666D02*
X108764819Y-146891428D01*
X108764819Y-146891428D02*
X108764819Y-146700952D01*
X108764819Y-146700952D02*
X108812438Y-146605714D01*
X108812438Y-146605714D02*
X108860057Y-146558095D01*
X108860057Y-146558095D02*
X108955295Y-146510476D01*
X108955295Y-146510476D02*
X109002914Y-146510476D01*
X109002914Y-146510476D02*
X109098152Y-146558095D01*
X109098152Y-146558095D02*
X109145771Y-146605714D01*
X109145771Y-146605714D02*
X109193390Y-146700952D01*
X109193390Y-146700952D02*
X109193390Y-146891428D01*
X109193390Y-146891428D02*
X109241009Y-146986666D01*
X109241009Y-146986666D02*
X109288628Y-147034285D01*
X109288628Y-147034285D02*
X109383866Y-147081904D01*
X109383866Y-147081904D02*
X109574342Y-147081904D01*
X109574342Y-147081904D02*
X109669580Y-147034285D01*
X109669580Y-147034285D02*
X109717200Y-146986666D01*
X109717200Y-146986666D02*
X109764819Y-146891428D01*
X109764819Y-146891428D02*
X109764819Y-146700952D01*
X109764819Y-146700952D02*
X109717200Y-146605714D01*
X109717200Y-146605714D02*
X109669580Y-146558095D01*
X109669580Y-146558095D02*
X109574342Y-146510476D01*
X109574342Y-146510476D02*
X109383866Y-146510476D01*
X109383866Y-146510476D02*
X109288628Y-146558095D01*
X109288628Y-146558095D02*
X109241009Y-146605714D01*
X109241009Y-146605714D02*
X109193390Y-146700952D01*
X109860057Y-134715238D02*
X109812438Y-134810476D01*
X109812438Y-134810476D02*
X109717200Y-134905714D01*
X109717200Y-134905714D02*
X109574342Y-135048571D01*
X109574342Y-135048571D02*
X109526723Y-135143809D01*
X109526723Y-135143809D02*
X109526723Y-135239047D01*
X109764819Y-135191428D02*
X109717200Y-135286666D01*
X109717200Y-135286666D02*
X109621961Y-135381904D01*
X109621961Y-135381904D02*
X109431485Y-135429523D01*
X109431485Y-135429523D02*
X109098152Y-135429523D01*
X109098152Y-135429523D02*
X108907676Y-135381904D01*
X108907676Y-135381904D02*
X108812438Y-135286666D01*
X108812438Y-135286666D02*
X108764819Y-135191428D01*
X108764819Y-135191428D02*
X108764819Y-135000952D01*
X108764819Y-135000952D02*
X108812438Y-134905714D01*
X108812438Y-134905714D02*
X108907676Y-134810476D01*
X108907676Y-134810476D02*
X109098152Y-134762857D01*
X109098152Y-134762857D02*
X109431485Y-134762857D01*
X109431485Y-134762857D02*
X109621961Y-134810476D01*
X109621961Y-134810476D02*
X109717200Y-134905714D01*
X109717200Y-134905714D02*
X109764819Y-135000952D01*
X109764819Y-135000952D02*
X109764819Y-135191428D01*
X108764819Y-134429523D02*
X108764819Y-133762857D01*
X108764819Y-133762857D02*
X109764819Y-134191428D01*
X109860057Y-119195238D02*
X109812438Y-119290476D01*
X109812438Y-119290476D02*
X109717200Y-119385714D01*
X109717200Y-119385714D02*
X109574342Y-119528571D01*
X109574342Y-119528571D02*
X109526723Y-119623809D01*
X109526723Y-119623809D02*
X109526723Y-119719047D01*
X109764819Y-119671428D02*
X109717200Y-119766666D01*
X109717200Y-119766666D02*
X109621961Y-119861904D01*
X109621961Y-119861904D02*
X109431485Y-119909523D01*
X109431485Y-119909523D02*
X109098152Y-119909523D01*
X109098152Y-119909523D02*
X108907676Y-119861904D01*
X108907676Y-119861904D02*
X108812438Y-119766666D01*
X108812438Y-119766666D02*
X108764819Y-119671428D01*
X108764819Y-119671428D02*
X108764819Y-119480952D01*
X108764819Y-119480952D02*
X108812438Y-119385714D01*
X108812438Y-119385714D02*
X108907676Y-119290476D01*
X108907676Y-119290476D02*
X109098152Y-119242857D01*
X109098152Y-119242857D02*
X109431485Y-119242857D01*
X109431485Y-119242857D02*
X109621961Y-119290476D01*
X109621961Y-119290476D02*
X109717200Y-119385714D01*
X109717200Y-119385714D02*
X109764819Y-119480952D01*
X109764819Y-119480952D02*
X109764819Y-119671428D01*
X108764819Y-118385714D02*
X108764819Y-118576190D01*
X108764819Y-118576190D02*
X108812438Y-118671428D01*
X108812438Y-118671428D02*
X108860057Y-118719047D01*
X108860057Y-118719047D02*
X109002914Y-118814285D01*
X109002914Y-118814285D02*
X109193390Y-118861904D01*
X109193390Y-118861904D02*
X109574342Y-118861904D01*
X109574342Y-118861904D02*
X109669580Y-118814285D01*
X109669580Y-118814285D02*
X109717200Y-118766666D01*
X109717200Y-118766666D02*
X109764819Y-118671428D01*
X109764819Y-118671428D02*
X109764819Y-118480952D01*
X109764819Y-118480952D02*
X109717200Y-118385714D01*
X109717200Y-118385714D02*
X109669580Y-118338095D01*
X109669580Y-118338095D02*
X109574342Y-118290476D01*
X109574342Y-118290476D02*
X109336247Y-118290476D01*
X109336247Y-118290476D02*
X109241009Y-118338095D01*
X109241009Y-118338095D02*
X109193390Y-118385714D01*
X109193390Y-118385714D02*
X109145771Y-118480952D01*
X109145771Y-118480952D02*
X109145771Y-118671428D01*
X109145771Y-118671428D02*
X109193390Y-118766666D01*
X109193390Y-118766666D02*
X109241009Y-118814285D01*
X109241009Y-118814285D02*
X109336247Y-118861904D01*
X109860057Y-104235238D02*
X109812438Y-104330476D01*
X109812438Y-104330476D02*
X109717200Y-104425714D01*
X109717200Y-104425714D02*
X109574342Y-104568571D01*
X109574342Y-104568571D02*
X109526723Y-104663809D01*
X109526723Y-104663809D02*
X109526723Y-104759047D01*
X109764819Y-104711428D02*
X109717200Y-104806666D01*
X109717200Y-104806666D02*
X109621961Y-104901904D01*
X109621961Y-104901904D02*
X109431485Y-104949523D01*
X109431485Y-104949523D02*
X109098152Y-104949523D01*
X109098152Y-104949523D02*
X108907676Y-104901904D01*
X108907676Y-104901904D02*
X108812438Y-104806666D01*
X108812438Y-104806666D02*
X108764819Y-104711428D01*
X108764819Y-104711428D02*
X108764819Y-104520952D01*
X108764819Y-104520952D02*
X108812438Y-104425714D01*
X108812438Y-104425714D02*
X108907676Y-104330476D01*
X108907676Y-104330476D02*
X109098152Y-104282857D01*
X109098152Y-104282857D02*
X109431485Y-104282857D01*
X109431485Y-104282857D02*
X109621961Y-104330476D01*
X109621961Y-104330476D02*
X109717200Y-104425714D01*
X109717200Y-104425714D02*
X109764819Y-104520952D01*
X109764819Y-104520952D02*
X109764819Y-104711428D01*
X108764819Y-103378095D02*
X108764819Y-103854285D01*
X108764819Y-103854285D02*
X109241009Y-103901904D01*
X109241009Y-103901904D02*
X109193390Y-103854285D01*
X109193390Y-103854285D02*
X109145771Y-103759047D01*
X109145771Y-103759047D02*
X109145771Y-103520952D01*
X109145771Y-103520952D02*
X109193390Y-103425714D01*
X109193390Y-103425714D02*
X109241009Y-103378095D01*
X109241009Y-103378095D02*
X109336247Y-103330476D01*
X109336247Y-103330476D02*
X109574342Y-103330476D01*
X109574342Y-103330476D02*
X109669580Y-103378095D01*
X109669580Y-103378095D02*
X109717200Y-103425714D01*
X109717200Y-103425714D02*
X109764819Y-103520952D01*
X109764819Y-103520952D02*
X109764819Y-103759047D01*
X109764819Y-103759047D02*
X109717200Y-103854285D01*
X109717200Y-103854285D02*
X109669580Y-103901904D01*
X109860057Y-89275238D02*
X109812438Y-89370476D01*
X109812438Y-89370476D02*
X109717200Y-89465714D01*
X109717200Y-89465714D02*
X109574342Y-89608571D01*
X109574342Y-89608571D02*
X109526723Y-89703809D01*
X109526723Y-89703809D02*
X109526723Y-89799047D01*
X109764819Y-89751428D02*
X109717200Y-89846666D01*
X109717200Y-89846666D02*
X109621961Y-89941904D01*
X109621961Y-89941904D02*
X109431485Y-89989523D01*
X109431485Y-89989523D02*
X109098152Y-89989523D01*
X109098152Y-89989523D02*
X108907676Y-89941904D01*
X108907676Y-89941904D02*
X108812438Y-89846666D01*
X108812438Y-89846666D02*
X108764819Y-89751428D01*
X108764819Y-89751428D02*
X108764819Y-89560952D01*
X108764819Y-89560952D02*
X108812438Y-89465714D01*
X108812438Y-89465714D02*
X108907676Y-89370476D01*
X108907676Y-89370476D02*
X109098152Y-89322857D01*
X109098152Y-89322857D02*
X109431485Y-89322857D01*
X109431485Y-89322857D02*
X109621961Y-89370476D01*
X109621961Y-89370476D02*
X109717200Y-89465714D01*
X109717200Y-89465714D02*
X109764819Y-89560952D01*
X109764819Y-89560952D02*
X109764819Y-89751428D01*
X109098152Y-88465714D02*
X109764819Y-88465714D01*
X108717200Y-88703809D02*
X109431485Y-88941904D01*
X109431485Y-88941904D02*
X109431485Y-88322857D01*
X109860057Y-74035238D02*
X109812438Y-74130476D01*
X109812438Y-74130476D02*
X109717200Y-74225714D01*
X109717200Y-74225714D02*
X109574342Y-74368571D01*
X109574342Y-74368571D02*
X109526723Y-74463809D01*
X109526723Y-74463809D02*
X109526723Y-74559047D01*
X109764819Y-74511428D02*
X109717200Y-74606666D01*
X109717200Y-74606666D02*
X109621961Y-74701904D01*
X109621961Y-74701904D02*
X109431485Y-74749523D01*
X109431485Y-74749523D02*
X109098152Y-74749523D01*
X109098152Y-74749523D02*
X108907676Y-74701904D01*
X108907676Y-74701904D02*
X108812438Y-74606666D01*
X108812438Y-74606666D02*
X108764819Y-74511428D01*
X108764819Y-74511428D02*
X108764819Y-74320952D01*
X108764819Y-74320952D02*
X108812438Y-74225714D01*
X108812438Y-74225714D02*
X108907676Y-74130476D01*
X108907676Y-74130476D02*
X109098152Y-74082857D01*
X109098152Y-74082857D02*
X109431485Y-74082857D01*
X109431485Y-74082857D02*
X109621961Y-74130476D01*
X109621961Y-74130476D02*
X109717200Y-74225714D01*
X109717200Y-74225714D02*
X109764819Y-74320952D01*
X109764819Y-74320952D02*
X109764819Y-74511428D01*
X108764819Y-73749523D02*
X108764819Y-73130476D01*
X108764819Y-73130476D02*
X109145771Y-73463809D01*
X109145771Y-73463809D02*
X109145771Y-73320952D01*
X109145771Y-73320952D02*
X109193390Y-73225714D01*
X109193390Y-73225714D02*
X109241009Y-73178095D01*
X109241009Y-73178095D02*
X109336247Y-73130476D01*
X109336247Y-73130476D02*
X109574342Y-73130476D01*
X109574342Y-73130476D02*
X109669580Y-73178095D01*
X109669580Y-73178095D02*
X109717200Y-73225714D01*
X109717200Y-73225714D02*
X109764819Y-73320952D01*
X109764819Y-73320952D02*
X109764819Y-73606666D01*
X109764819Y-73606666D02*
X109717200Y-73701904D01*
X109717200Y-73701904D02*
X109669580Y-73749523D01*
X109860057Y-58515238D02*
X109812438Y-58610476D01*
X109812438Y-58610476D02*
X109717200Y-58705714D01*
X109717200Y-58705714D02*
X109574342Y-58848571D01*
X109574342Y-58848571D02*
X109526723Y-58943809D01*
X109526723Y-58943809D02*
X109526723Y-59039047D01*
X109764819Y-58991428D02*
X109717200Y-59086666D01*
X109717200Y-59086666D02*
X109621961Y-59181904D01*
X109621961Y-59181904D02*
X109431485Y-59229523D01*
X109431485Y-59229523D02*
X109098152Y-59229523D01*
X109098152Y-59229523D02*
X108907676Y-59181904D01*
X108907676Y-59181904D02*
X108812438Y-59086666D01*
X108812438Y-59086666D02*
X108764819Y-58991428D01*
X108764819Y-58991428D02*
X108764819Y-58800952D01*
X108764819Y-58800952D02*
X108812438Y-58705714D01*
X108812438Y-58705714D02*
X108907676Y-58610476D01*
X108907676Y-58610476D02*
X109098152Y-58562857D01*
X109098152Y-58562857D02*
X109431485Y-58562857D01*
X109431485Y-58562857D02*
X109621961Y-58610476D01*
X109621961Y-58610476D02*
X109717200Y-58705714D01*
X109717200Y-58705714D02*
X109764819Y-58800952D01*
X109764819Y-58800952D02*
X109764819Y-58991428D01*
X108860057Y-58181904D02*
X108812438Y-58134285D01*
X108812438Y-58134285D02*
X108764819Y-58039047D01*
X108764819Y-58039047D02*
X108764819Y-57800952D01*
X108764819Y-57800952D02*
X108812438Y-57705714D01*
X108812438Y-57705714D02*
X108860057Y-57658095D01*
X108860057Y-57658095D02*
X108955295Y-57610476D01*
X108955295Y-57610476D02*
X109050533Y-57610476D01*
X109050533Y-57610476D02*
X109193390Y-57658095D01*
X109193390Y-57658095D02*
X109764819Y-58229523D01*
X109764819Y-58229523D02*
X109764819Y-57610476D01*
X109860057Y-43275238D02*
X109812438Y-43370476D01*
X109812438Y-43370476D02*
X109717200Y-43465714D01*
X109717200Y-43465714D02*
X109574342Y-43608571D01*
X109574342Y-43608571D02*
X109526723Y-43703809D01*
X109526723Y-43703809D02*
X109526723Y-43799047D01*
X109764819Y-43751428D02*
X109717200Y-43846666D01*
X109717200Y-43846666D02*
X109621961Y-43941904D01*
X109621961Y-43941904D02*
X109431485Y-43989523D01*
X109431485Y-43989523D02*
X109098152Y-43989523D01*
X109098152Y-43989523D02*
X108907676Y-43941904D01*
X108907676Y-43941904D02*
X108812438Y-43846666D01*
X108812438Y-43846666D02*
X108764819Y-43751428D01*
X108764819Y-43751428D02*
X108764819Y-43560952D01*
X108764819Y-43560952D02*
X108812438Y-43465714D01*
X108812438Y-43465714D02*
X108907676Y-43370476D01*
X108907676Y-43370476D02*
X109098152Y-43322857D01*
X109098152Y-43322857D02*
X109431485Y-43322857D01*
X109431485Y-43322857D02*
X109621961Y-43370476D01*
X109621961Y-43370476D02*
X109717200Y-43465714D01*
X109717200Y-43465714D02*
X109764819Y-43560952D01*
X109764819Y-43560952D02*
X109764819Y-43751428D01*
X109764819Y-42370476D02*
X109764819Y-42941904D01*
X109764819Y-42656190D02*
X108764819Y-42656190D01*
X108764819Y-42656190D02*
X108907676Y-42751428D01*
X108907676Y-42751428D02*
X109002914Y-42846666D01*
X109002914Y-42846666D02*
X109050533Y-42941904D01*
X36187142Y-91724819D02*
X35853809Y-91248628D01*
X35615714Y-91724819D02*
X35615714Y-90724819D01*
X35615714Y-90724819D02*
X35996666Y-90724819D01*
X35996666Y-90724819D02*
X36091904Y-90772438D01*
X36091904Y-90772438D02*
X36139523Y-90820057D01*
X36139523Y-90820057D02*
X36187142Y-90915295D01*
X36187142Y-90915295D02*
X36187142Y-91058152D01*
X36187142Y-91058152D02*
X36139523Y-91153390D01*
X36139523Y-91153390D02*
X36091904Y-91201009D01*
X36091904Y-91201009D02*
X35996666Y-91248628D01*
X35996666Y-91248628D02*
X35615714Y-91248628D01*
X37139523Y-91724819D02*
X36568095Y-91724819D01*
X36853809Y-91724819D02*
X36853809Y-90724819D01*
X36853809Y-90724819D02*
X36758571Y-90867676D01*
X36758571Y-90867676D02*
X36663333Y-90962914D01*
X36663333Y-90962914D02*
X36568095Y-91010533D01*
X37710952Y-91153390D02*
X37615714Y-91105771D01*
X37615714Y-91105771D02*
X37568095Y-91058152D01*
X37568095Y-91058152D02*
X37520476Y-90962914D01*
X37520476Y-90962914D02*
X37520476Y-90915295D01*
X37520476Y-90915295D02*
X37568095Y-90820057D01*
X37568095Y-90820057D02*
X37615714Y-90772438D01*
X37615714Y-90772438D02*
X37710952Y-90724819D01*
X37710952Y-90724819D02*
X37901428Y-90724819D01*
X37901428Y-90724819D02*
X37996666Y-90772438D01*
X37996666Y-90772438D02*
X38044285Y-90820057D01*
X38044285Y-90820057D02*
X38091904Y-90915295D01*
X38091904Y-90915295D02*
X38091904Y-90962914D01*
X38091904Y-90962914D02*
X38044285Y-91058152D01*
X38044285Y-91058152D02*
X37996666Y-91105771D01*
X37996666Y-91105771D02*
X37901428Y-91153390D01*
X37901428Y-91153390D02*
X37710952Y-91153390D01*
X37710952Y-91153390D02*
X37615714Y-91201009D01*
X37615714Y-91201009D02*
X37568095Y-91248628D01*
X37568095Y-91248628D02*
X37520476Y-91343866D01*
X37520476Y-91343866D02*
X37520476Y-91534342D01*
X37520476Y-91534342D02*
X37568095Y-91629580D01*
X37568095Y-91629580D02*
X37615714Y-91677200D01*
X37615714Y-91677200D02*
X37710952Y-91724819D01*
X37710952Y-91724819D02*
X37901428Y-91724819D01*
X37901428Y-91724819D02*
X37996666Y-91677200D01*
X37996666Y-91677200D02*
X38044285Y-91629580D01*
X38044285Y-91629580D02*
X38091904Y-91534342D01*
X38091904Y-91534342D02*
X38091904Y-91343866D01*
X38091904Y-91343866D02*
X38044285Y-91248628D01*
X38044285Y-91248628D02*
X37996666Y-91201009D01*
X37996666Y-91201009D02*
X37901428Y-91153390D01*
X51423333Y-132269580D02*
X51375714Y-132317200D01*
X51375714Y-132317200D02*
X51232857Y-132364819D01*
X51232857Y-132364819D02*
X51137619Y-132364819D01*
X51137619Y-132364819D02*
X50994762Y-132317200D01*
X50994762Y-132317200D02*
X50899524Y-132221961D01*
X50899524Y-132221961D02*
X50851905Y-132126723D01*
X50851905Y-132126723D02*
X50804286Y-131936247D01*
X50804286Y-131936247D02*
X50804286Y-131793390D01*
X50804286Y-131793390D02*
X50851905Y-131602914D01*
X50851905Y-131602914D02*
X50899524Y-131507676D01*
X50899524Y-131507676D02*
X50994762Y-131412438D01*
X50994762Y-131412438D02*
X51137619Y-131364819D01*
X51137619Y-131364819D02*
X51232857Y-131364819D01*
X51232857Y-131364819D02*
X51375714Y-131412438D01*
X51375714Y-131412438D02*
X51423333Y-131460057D01*
X52280476Y-131698152D02*
X52280476Y-132364819D01*
X52042381Y-131317200D02*
X51804286Y-132031485D01*
X51804286Y-132031485D02*
X52423333Y-132031485D01*
X50673333Y-99759580D02*
X50625714Y-99807200D01*
X50625714Y-99807200D02*
X50482857Y-99854819D01*
X50482857Y-99854819D02*
X50387619Y-99854819D01*
X50387619Y-99854819D02*
X50244762Y-99807200D01*
X50244762Y-99807200D02*
X50149524Y-99711961D01*
X50149524Y-99711961D02*
X50101905Y-99616723D01*
X50101905Y-99616723D02*
X50054286Y-99426247D01*
X50054286Y-99426247D02*
X50054286Y-99283390D01*
X50054286Y-99283390D02*
X50101905Y-99092914D01*
X50101905Y-99092914D02*
X50149524Y-98997676D01*
X50149524Y-98997676D02*
X50244762Y-98902438D01*
X50244762Y-98902438D02*
X50387619Y-98854819D01*
X50387619Y-98854819D02*
X50482857Y-98854819D01*
X50482857Y-98854819D02*
X50625714Y-98902438D01*
X50625714Y-98902438D02*
X50673333Y-98950057D01*
X51625714Y-99854819D02*
X51054286Y-99854819D01*
X51340000Y-99854819D02*
X51340000Y-98854819D01*
X51340000Y-98854819D02*
X51244762Y-98997676D01*
X51244762Y-98997676D02*
X51149524Y-99092914D01*
X51149524Y-99092914D02*
X51054286Y-99140533D01*
X42794819Y-84629523D02*
X43509104Y-84629523D01*
X43509104Y-84629523D02*
X43651961Y-84677142D01*
X43651961Y-84677142D02*
X43747200Y-84772380D01*
X43747200Y-84772380D02*
X43794819Y-84915237D01*
X43794819Y-84915237D02*
X43794819Y-85010475D01*
X43794819Y-83629523D02*
X43794819Y-84200951D01*
X43794819Y-83915237D02*
X42794819Y-83915237D01*
X42794819Y-83915237D02*
X42937676Y-84010475D01*
X42937676Y-84010475D02*
X43032914Y-84105713D01*
X43032914Y-84105713D02*
X43080533Y-84200951D01*
X42794819Y-83010475D02*
X42794819Y-82915237D01*
X42794819Y-82915237D02*
X42842438Y-82819999D01*
X42842438Y-82819999D02*
X42890057Y-82772380D01*
X42890057Y-82772380D02*
X42985295Y-82724761D01*
X42985295Y-82724761D02*
X43175771Y-82677142D01*
X43175771Y-82677142D02*
X43413866Y-82677142D01*
X43413866Y-82677142D02*
X43604342Y-82724761D01*
X43604342Y-82724761D02*
X43699580Y-82772380D01*
X43699580Y-82772380D02*
X43747200Y-82819999D01*
X43747200Y-82819999D02*
X43794819Y-82915237D01*
X43794819Y-82915237D02*
X43794819Y-83010475D01*
X43794819Y-83010475D02*
X43747200Y-83105713D01*
X43747200Y-83105713D02*
X43699580Y-83153332D01*
X43699580Y-83153332D02*
X43604342Y-83200951D01*
X43604342Y-83200951D02*
X43413866Y-83248570D01*
X43413866Y-83248570D02*
X43175771Y-83248570D01*
X43175771Y-83248570D02*
X42985295Y-83200951D01*
X42985295Y-83200951D02*
X42890057Y-83153332D01*
X42890057Y-83153332D02*
X42842438Y-83105713D01*
X42842438Y-83105713D02*
X42794819Y-83010475D01*
X121374819Y-147653333D02*
X122089104Y-147653333D01*
X122089104Y-147653333D02*
X122231961Y-147700952D01*
X122231961Y-147700952D02*
X122327200Y-147796190D01*
X122327200Y-147796190D02*
X122374819Y-147939047D01*
X122374819Y-147939047D02*
X122374819Y-148034285D01*
X122374819Y-147129523D02*
X122374819Y-146939047D01*
X122374819Y-146939047D02*
X122327200Y-146843809D01*
X122327200Y-146843809D02*
X122279580Y-146796190D01*
X122279580Y-146796190D02*
X122136723Y-146700952D01*
X122136723Y-146700952D02*
X121946247Y-146653333D01*
X121946247Y-146653333D02*
X121565295Y-146653333D01*
X121565295Y-146653333D02*
X121470057Y-146700952D01*
X121470057Y-146700952D02*
X121422438Y-146748571D01*
X121422438Y-146748571D02*
X121374819Y-146843809D01*
X121374819Y-146843809D02*
X121374819Y-147034285D01*
X121374819Y-147034285D02*
X121422438Y-147129523D01*
X121422438Y-147129523D02*
X121470057Y-147177142D01*
X121470057Y-147177142D02*
X121565295Y-147224761D01*
X121565295Y-147224761D02*
X121803390Y-147224761D01*
X121803390Y-147224761D02*
X121898628Y-147177142D01*
X121898628Y-147177142D02*
X121946247Y-147129523D01*
X121946247Y-147129523D02*
X121993866Y-147034285D01*
X121993866Y-147034285D02*
X121993866Y-146843809D01*
X121993866Y-146843809D02*
X121946247Y-146748571D01*
X121946247Y-146748571D02*
X121898628Y-146700952D01*
X121898628Y-146700952D02*
X121803390Y-146653333D01*
X77303333Y-104424819D02*
X76970000Y-103948628D01*
X76731905Y-104424819D02*
X76731905Y-103424819D01*
X76731905Y-103424819D02*
X77112857Y-103424819D01*
X77112857Y-103424819D02*
X77208095Y-103472438D01*
X77208095Y-103472438D02*
X77255714Y-103520057D01*
X77255714Y-103520057D02*
X77303333Y-103615295D01*
X77303333Y-103615295D02*
X77303333Y-103758152D01*
X77303333Y-103758152D02*
X77255714Y-103853390D01*
X77255714Y-103853390D02*
X77208095Y-103901009D01*
X77208095Y-103901009D02*
X77112857Y-103948628D01*
X77112857Y-103948628D02*
X76731905Y-103948628D01*
X77779524Y-104424819D02*
X77970000Y-104424819D01*
X77970000Y-104424819D02*
X78065238Y-104377200D01*
X78065238Y-104377200D02*
X78112857Y-104329580D01*
X78112857Y-104329580D02*
X78208095Y-104186723D01*
X78208095Y-104186723D02*
X78255714Y-103996247D01*
X78255714Y-103996247D02*
X78255714Y-103615295D01*
X78255714Y-103615295D02*
X78208095Y-103520057D01*
X78208095Y-103520057D02*
X78160476Y-103472438D01*
X78160476Y-103472438D02*
X78065238Y-103424819D01*
X78065238Y-103424819D02*
X77874762Y-103424819D01*
X77874762Y-103424819D02*
X77779524Y-103472438D01*
X77779524Y-103472438D02*
X77731905Y-103520057D01*
X77731905Y-103520057D02*
X77684286Y-103615295D01*
X77684286Y-103615295D02*
X77684286Y-103853390D01*
X77684286Y-103853390D02*
X77731905Y-103948628D01*
X77731905Y-103948628D02*
X77779524Y-103996247D01*
X77779524Y-103996247D02*
X77874762Y-104043866D01*
X77874762Y-104043866D02*
X78065238Y-104043866D01*
X78065238Y-104043866D02*
X78160476Y-103996247D01*
X78160476Y-103996247D02*
X78208095Y-103948628D01*
X78208095Y-103948628D02*
X78255714Y-103853390D01*
X77303333Y-89464819D02*
X76970000Y-88988628D01*
X76731905Y-89464819D02*
X76731905Y-88464819D01*
X76731905Y-88464819D02*
X77112857Y-88464819D01*
X77112857Y-88464819D02*
X77208095Y-88512438D01*
X77208095Y-88512438D02*
X77255714Y-88560057D01*
X77255714Y-88560057D02*
X77303333Y-88655295D01*
X77303333Y-88655295D02*
X77303333Y-88798152D01*
X77303333Y-88798152D02*
X77255714Y-88893390D01*
X77255714Y-88893390D02*
X77208095Y-88941009D01*
X77208095Y-88941009D02*
X77112857Y-88988628D01*
X77112857Y-88988628D02*
X76731905Y-88988628D01*
X77636667Y-88464819D02*
X78303333Y-88464819D01*
X78303333Y-88464819D02*
X77874762Y-89464819D01*
X77303333Y-43464819D02*
X76970000Y-42988628D01*
X76731905Y-43464819D02*
X76731905Y-42464819D01*
X76731905Y-42464819D02*
X77112857Y-42464819D01*
X77112857Y-42464819D02*
X77208095Y-42512438D01*
X77208095Y-42512438D02*
X77255714Y-42560057D01*
X77255714Y-42560057D02*
X77303333Y-42655295D01*
X77303333Y-42655295D02*
X77303333Y-42798152D01*
X77303333Y-42798152D02*
X77255714Y-42893390D01*
X77255714Y-42893390D02*
X77208095Y-42941009D01*
X77208095Y-42941009D02*
X77112857Y-42988628D01*
X77112857Y-42988628D02*
X76731905Y-42988628D01*
X78255714Y-43464819D02*
X77684286Y-43464819D01*
X77970000Y-43464819D02*
X77970000Y-42464819D01*
X77970000Y-42464819D02*
X77874762Y-42607676D01*
X77874762Y-42607676D02*
X77779524Y-42702914D01*
X77779524Y-42702914D02*
X77684286Y-42750533D01*
X77303333Y-58704819D02*
X76970000Y-58228628D01*
X76731905Y-58704819D02*
X76731905Y-57704819D01*
X76731905Y-57704819D02*
X77112857Y-57704819D01*
X77112857Y-57704819D02*
X77208095Y-57752438D01*
X77208095Y-57752438D02*
X77255714Y-57800057D01*
X77255714Y-57800057D02*
X77303333Y-57895295D01*
X77303333Y-57895295D02*
X77303333Y-58038152D01*
X77303333Y-58038152D02*
X77255714Y-58133390D01*
X77255714Y-58133390D02*
X77208095Y-58181009D01*
X77208095Y-58181009D02*
X77112857Y-58228628D01*
X77112857Y-58228628D02*
X76731905Y-58228628D01*
X77636667Y-57704819D02*
X78255714Y-57704819D01*
X78255714Y-57704819D02*
X77922381Y-58085771D01*
X77922381Y-58085771D02*
X78065238Y-58085771D01*
X78065238Y-58085771D02*
X78160476Y-58133390D01*
X78160476Y-58133390D02*
X78208095Y-58181009D01*
X78208095Y-58181009D02*
X78255714Y-58276247D01*
X78255714Y-58276247D02*
X78255714Y-58514342D01*
X78255714Y-58514342D02*
X78208095Y-58609580D01*
X78208095Y-58609580D02*
X78160476Y-58657200D01*
X78160476Y-58657200D02*
X78065238Y-58704819D01*
X78065238Y-58704819D02*
X77779524Y-58704819D01*
X77779524Y-58704819D02*
X77684286Y-58657200D01*
X77684286Y-58657200D02*
X77636667Y-58609580D01*
X76827142Y-147384819D02*
X76493809Y-146908628D01*
X76255714Y-147384819D02*
X76255714Y-146384819D01*
X76255714Y-146384819D02*
X76636666Y-146384819D01*
X76636666Y-146384819D02*
X76731904Y-146432438D01*
X76731904Y-146432438D02*
X76779523Y-146480057D01*
X76779523Y-146480057D02*
X76827142Y-146575295D01*
X76827142Y-146575295D02*
X76827142Y-146718152D01*
X76827142Y-146718152D02*
X76779523Y-146813390D01*
X76779523Y-146813390D02*
X76731904Y-146861009D01*
X76731904Y-146861009D02*
X76636666Y-146908628D01*
X76636666Y-146908628D02*
X76255714Y-146908628D01*
X77779523Y-147384819D02*
X77208095Y-147384819D01*
X77493809Y-147384819D02*
X77493809Y-146384819D01*
X77493809Y-146384819D02*
X77398571Y-146527676D01*
X77398571Y-146527676D02*
X77303333Y-146622914D01*
X77303333Y-146622914D02*
X77208095Y-146670533D01*
X78636666Y-146384819D02*
X78446190Y-146384819D01*
X78446190Y-146384819D02*
X78350952Y-146432438D01*
X78350952Y-146432438D02*
X78303333Y-146480057D01*
X78303333Y-146480057D02*
X78208095Y-146622914D01*
X78208095Y-146622914D02*
X78160476Y-146813390D01*
X78160476Y-146813390D02*
X78160476Y-147194342D01*
X78160476Y-147194342D02*
X78208095Y-147289580D01*
X78208095Y-147289580D02*
X78255714Y-147337200D01*
X78255714Y-147337200D02*
X78350952Y-147384819D01*
X78350952Y-147384819D02*
X78541428Y-147384819D01*
X78541428Y-147384819D02*
X78636666Y-147337200D01*
X78636666Y-147337200D02*
X78684285Y-147289580D01*
X78684285Y-147289580D02*
X78731904Y-147194342D01*
X78731904Y-147194342D02*
X78731904Y-146956247D01*
X78731904Y-146956247D02*
X78684285Y-146861009D01*
X78684285Y-146861009D02*
X78636666Y-146813390D01*
X78636666Y-146813390D02*
X78541428Y-146765771D01*
X78541428Y-146765771D02*
X78350952Y-146765771D01*
X78350952Y-146765771D02*
X78255714Y-146813390D01*
X78255714Y-146813390D02*
X78208095Y-146861009D01*
X78208095Y-146861009D02*
X78160476Y-146956247D01*
X36187142Y-86644819D02*
X35853809Y-86168628D01*
X35615714Y-86644819D02*
X35615714Y-85644819D01*
X35615714Y-85644819D02*
X35996666Y-85644819D01*
X35996666Y-85644819D02*
X36091904Y-85692438D01*
X36091904Y-85692438D02*
X36139523Y-85740057D01*
X36139523Y-85740057D02*
X36187142Y-85835295D01*
X36187142Y-85835295D02*
X36187142Y-85978152D01*
X36187142Y-85978152D02*
X36139523Y-86073390D01*
X36139523Y-86073390D02*
X36091904Y-86121009D01*
X36091904Y-86121009D02*
X35996666Y-86168628D01*
X35996666Y-86168628D02*
X35615714Y-86168628D01*
X37139523Y-86644819D02*
X36568095Y-86644819D01*
X36853809Y-86644819D02*
X36853809Y-85644819D01*
X36853809Y-85644819D02*
X36758571Y-85787676D01*
X36758571Y-85787676D02*
X36663333Y-85882914D01*
X36663333Y-85882914D02*
X36568095Y-85930533D01*
X37472857Y-85644819D02*
X38139523Y-85644819D01*
X38139523Y-85644819D02*
X37710952Y-86644819D01*
X50038095Y-127474819D02*
X50038095Y-128284342D01*
X50038095Y-128284342D02*
X50085714Y-128379580D01*
X50085714Y-128379580D02*
X50133333Y-128427200D01*
X50133333Y-128427200D02*
X50228571Y-128474819D01*
X50228571Y-128474819D02*
X50419047Y-128474819D01*
X50419047Y-128474819D02*
X50514285Y-128427200D01*
X50514285Y-128427200D02*
X50561904Y-128379580D01*
X50561904Y-128379580D02*
X50609523Y-128284342D01*
X50609523Y-128284342D02*
X50609523Y-127474819D01*
X51609523Y-128474819D02*
X51038095Y-128474819D01*
X51323809Y-128474819D02*
X51323809Y-127474819D01*
X51323809Y-127474819D02*
X51228571Y-127617676D01*
X51228571Y-127617676D02*
X51133333Y-127712914D01*
X51133333Y-127712914D02*
X51038095Y-127760533D01*
X121374819Y-89513333D02*
X122089104Y-89513333D01*
X122089104Y-89513333D02*
X122231961Y-89560952D01*
X122231961Y-89560952D02*
X122327200Y-89656190D01*
X122327200Y-89656190D02*
X122374819Y-89799047D01*
X122374819Y-89799047D02*
X122374819Y-89894285D01*
X121374819Y-88560952D02*
X121374819Y-89037142D01*
X121374819Y-89037142D02*
X121851009Y-89084761D01*
X121851009Y-89084761D02*
X121803390Y-89037142D01*
X121803390Y-89037142D02*
X121755771Y-88941904D01*
X121755771Y-88941904D02*
X121755771Y-88703809D01*
X121755771Y-88703809D02*
X121803390Y-88608571D01*
X121803390Y-88608571D02*
X121851009Y-88560952D01*
X121851009Y-88560952D02*
X121946247Y-88513333D01*
X121946247Y-88513333D02*
X122184342Y-88513333D01*
X122184342Y-88513333D02*
X122279580Y-88560952D01*
X122279580Y-88560952D02*
X122327200Y-88608571D01*
X122327200Y-88608571D02*
X122374819Y-88703809D01*
X122374819Y-88703809D02*
X122374819Y-88941904D01*
X122374819Y-88941904D02*
X122327200Y-89037142D01*
X122327200Y-89037142D02*
X122279580Y-89084761D01*
X77303333Y-43804819D02*
X76970000Y-43328628D01*
X76731905Y-43804819D02*
X76731905Y-42804819D01*
X76731905Y-42804819D02*
X77112857Y-42804819D01*
X77112857Y-42804819D02*
X77208095Y-42852438D01*
X77208095Y-42852438D02*
X77255714Y-42900057D01*
X77255714Y-42900057D02*
X77303333Y-42995295D01*
X77303333Y-42995295D02*
X77303333Y-43138152D01*
X77303333Y-43138152D02*
X77255714Y-43233390D01*
X77255714Y-43233390D02*
X77208095Y-43281009D01*
X77208095Y-43281009D02*
X77112857Y-43328628D01*
X77112857Y-43328628D02*
X76731905Y-43328628D01*
X77684286Y-42900057D02*
X77731905Y-42852438D01*
X77731905Y-42852438D02*
X77827143Y-42804819D01*
X77827143Y-42804819D02*
X78065238Y-42804819D01*
X78065238Y-42804819D02*
X78160476Y-42852438D01*
X78160476Y-42852438D02*
X78208095Y-42900057D01*
X78208095Y-42900057D02*
X78255714Y-42995295D01*
X78255714Y-42995295D02*
X78255714Y-43090533D01*
X78255714Y-43090533D02*
X78208095Y-43233390D01*
X78208095Y-43233390D02*
X77636667Y-43804819D01*
X77636667Y-43804819D02*
X78255714Y-43804819D01*
X121374819Y-104473333D02*
X122089104Y-104473333D01*
X122089104Y-104473333D02*
X122231961Y-104520952D01*
X122231961Y-104520952D02*
X122327200Y-104616190D01*
X122327200Y-104616190D02*
X122374819Y-104759047D01*
X122374819Y-104759047D02*
X122374819Y-104854285D01*
X121374819Y-103568571D02*
X121374819Y-103759047D01*
X121374819Y-103759047D02*
X121422438Y-103854285D01*
X121422438Y-103854285D02*
X121470057Y-103901904D01*
X121470057Y-103901904D02*
X121612914Y-103997142D01*
X121612914Y-103997142D02*
X121803390Y-104044761D01*
X121803390Y-104044761D02*
X122184342Y-104044761D01*
X122184342Y-104044761D02*
X122279580Y-103997142D01*
X122279580Y-103997142D02*
X122327200Y-103949523D01*
X122327200Y-103949523D02*
X122374819Y-103854285D01*
X122374819Y-103854285D02*
X122374819Y-103663809D01*
X122374819Y-103663809D02*
X122327200Y-103568571D01*
X122327200Y-103568571D02*
X122279580Y-103520952D01*
X122279580Y-103520952D02*
X122184342Y-103473333D01*
X122184342Y-103473333D02*
X121946247Y-103473333D01*
X121946247Y-103473333D02*
X121851009Y-103520952D01*
X121851009Y-103520952D02*
X121803390Y-103568571D01*
X121803390Y-103568571D02*
X121755771Y-103663809D01*
X121755771Y-103663809D02*
X121755771Y-103854285D01*
X121755771Y-103854285D02*
X121803390Y-103949523D01*
X121803390Y-103949523D02*
X121851009Y-103997142D01*
X121851009Y-103997142D02*
X121946247Y-104044761D01*
X77303333Y-58874819D02*
X76970000Y-58398628D01*
X76731905Y-58874819D02*
X76731905Y-57874819D01*
X76731905Y-57874819D02*
X77112857Y-57874819D01*
X77112857Y-57874819D02*
X77208095Y-57922438D01*
X77208095Y-57922438D02*
X77255714Y-57970057D01*
X77255714Y-57970057D02*
X77303333Y-58065295D01*
X77303333Y-58065295D02*
X77303333Y-58208152D01*
X77303333Y-58208152D02*
X77255714Y-58303390D01*
X77255714Y-58303390D02*
X77208095Y-58351009D01*
X77208095Y-58351009D02*
X77112857Y-58398628D01*
X77112857Y-58398628D02*
X76731905Y-58398628D01*
X78160476Y-58208152D02*
X78160476Y-58874819D01*
X77922381Y-57827200D02*
X77684286Y-58541485D01*
X77684286Y-58541485D02*
X78303333Y-58541485D01*
X121374819Y-74273333D02*
X122089104Y-74273333D01*
X122089104Y-74273333D02*
X122231961Y-74320952D01*
X122231961Y-74320952D02*
X122327200Y-74416190D01*
X122327200Y-74416190D02*
X122374819Y-74559047D01*
X122374819Y-74559047D02*
X122374819Y-74654285D01*
X121708152Y-73368571D02*
X122374819Y-73368571D01*
X121327200Y-73606666D02*
X122041485Y-73844761D01*
X122041485Y-73844761D02*
X122041485Y-73225714D01*
X76827142Y-135244819D02*
X76493809Y-134768628D01*
X76255714Y-135244819D02*
X76255714Y-134244819D01*
X76255714Y-134244819D02*
X76636666Y-134244819D01*
X76636666Y-134244819D02*
X76731904Y-134292438D01*
X76731904Y-134292438D02*
X76779523Y-134340057D01*
X76779523Y-134340057D02*
X76827142Y-134435295D01*
X76827142Y-134435295D02*
X76827142Y-134578152D01*
X76827142Y-134578152D02*
X76779523Y-134673390D01*
X76779523Y-134673390D02*
X76731904Y-134721009D01*
X76731904Y-134721009D02*
X76636666Y-134768628D01*
X76636666Y-134768628D02*
X76255714Y-134768628D01*
X77779523Y-135244819D02*
X77208095Y-135244819D01*
X77493809Y-135244819D02*
X77493809Y-134244819D01*
X77493809Y-134244819D02*
X77398571Y-134387676D01*
X77398571Y-134387676D02*
X77303333Y-134482914D01*
X77303333Y-134482914D02*
X77208095Y-134530533D01*
X78636666Y-134578152D02*
X78636666Y-135244819D01*
X78398571Y-134197200D02*
X78160476Y-134911485D01*
X78160476Y-134911485D02*
X78779523Y-134911485D01*
X77303333Y-74224819D02*
X76970000Y-73748628D01*
X76731905Y-74224819D02*
X76731905Y-73224819D01*
X76731905Y-73224819D02*
X77112857Y-73224819D01*
X77112857Y-73224819D02*
X77208095Y-73272438D01*
X77208095Y-73272438D02*
X77255714Y-73320057D01*
X77255714Y-73320057D02*
X77303333Y-73415295D01*
X77303333Y-73415295D02*
X77303333Y-73558152D01*
X77303333Y-73558152D02*
X77255714Y-73653390D01*
X77255714Y-73653390D02*
X77208095Y-73701009D01*
X77208095Y-73701009D02*
X77112857Y-73748628D01*
X77112857Y-73748628D02*
X76731905Y-73748628D01*
X78208095Y-73224819D02*
X77731905Y-73224819D01*
X77731905Y-73224819D02*
X77684286Y-73701009D01*
X77684286Y-73701009D02*
X77731905Y-73653390D01*
X77731905Y-73653390D02*
X77827143Y-73605771D01*
X77827143Y-73605771D02*
X78065238Y-73605771D01*
X78065238Y-73605771D02*
X78160476Y-73653390D01*
X78160476Y-73653390D02*
X78208095Y-73701009D01*
X78208095Y-73701009D02*
X78255714Y-73796247D01*
X78255714Y-73796247D02*
X78255714Y-74034342D01*
X78255714Y-74034342D02*
X78208095Y-74129580D01*
X78208095Y-74129580D02*
X78160476Y-74177200D01*
X78160476Y-74177200D02*
X78065238Y-74224819D01*
X78065238Y-74224819D02*
X77827143Y-74224819D01*
X77827143Y-74224819D02*
X77731905Y-74177200D01*
X77731905Y-74177200D02*
X77684286Y-74129580D01*
X76827142Y-104764819D02*
X76493809Y-104288628D01*
X76255714Y-104764819D02*
X76255714Y-103764819D01*
X76255714Y-103764819D02*
X76636666Y-103764819D01*
X76636666Y-103764819D02*
X76731904Y-103812438D01*
X76731904Y-103812438D02*
X76779523Y-103860057D01*
X76779523Y-103860057D02*
X76827142Y-103955295D01*
X76827142Y-103955295D02*
X76827142Y-104098152D01*
X76827142Y-104098152D02*
X76779523Y-104193390D01*
X76779523Y-104193390D02*
X76731904Y-104241009D01*
X76731904Y-104241009D02*
X76636666Y-104288628D01*
X76636666Y-104288628D02*
X76255714Y-104288628D01*
X77779523Y-104764819D02*
X77208095Y-104764819D01*
X77493809Y-104764819D02*
X77493809Y-103764819D01*
X77493809Y-103764819D02*
X77398571Y-103907676D01*
X77398571Y-103907676D02*
X77303333Y-104002914D01*
X77303333Y-104002914D02*
X77208095Y-104050533D01*
X78398571Y-103764819D02*
X78493809Y-103764819D01*
X78493809Y-103764819D02*
X78589047Y-103812438D01*
X78589047Y-103812438D02*
X78636666Y-103860057D01*
X78636666Y-103860057D02*
X78684285Y-103955295D01*
X78684285Y-103955295D02*
X78731904Y-104145771D01*
X78731904Y-104145771D02*
X78731904Y-104383866D01*
X78731904Y-104383866D02*
X78684285Y-104574342D01*
X78684285Y-104574342D02*
X78636666Y-104669580D01*
X78636666Y-104669580D02*
X78589047Y-104717200D01*
X78589047Y-104717200D02*
X78493809Y-104764819D01*
X78493809Y-104764819D02*
X78398571Y-104764819D01*
X78398571Y-104764819D02*
X78303333Y-104717200D01*
X78303333Y-104717200D02*
X78255714Y-104669580D01*
X78255714Y-104669580D02*
X78208095Y-104574342D01*
X78208095Y-104574342D02*
X78160476Y-104383866D01*
X78160476Y-104383866D02*
X78160476Y-104145771D01*
X78160476Y-104145771D02*
X78208095Y-103955295D01*
X78208095Y-103955295D02*
X78255714Y-103860057D01*
X78255714Y-103860057D02*
X78303333Y-103812438D01*
X78303333Y-103812438D02*
X78398571Y-103764819D01*
X76827142Y-150144819D02*
X76493809Y-149668628D01*
X76255714Y-150144819D02*
X76255714Y-149144819D01*
X76255714Y-149144819D02*
X76636666Y-149144819D01*
X76636666Y-149144819D02*
X76731904Y-149192438D01*
X76731904Y-149192438D02*
X76779523Y-149240057D01*
X76779523Y-149240057D02*
X76827142Y-149335295D01*
X76827142Y-149335295D02*
X76827142Y-149478152D01*
X76827142Y-149478152D02*
X76779523Y-149573390D01*
X76779523Y-149573390D02*
X76731904Y-149621009D01*
X76731904Y-149621009D02*
X76636666Y-149668628D01*
X76636666Y-149668628D02*
X76255714Y-149668628D01*
X77779523Y-150144819D02*
X77208095Y-150144819D01*
X77493809Y-150144819D02*
X77493809Y-149144819D01*
X77493809Y-149144819D02*
X77398571Y-149287676D01*
X77398571Y-149287676D02*
X77303333Y-149382914D01*
X77303333Y-149382914D02*
X77208095Y-149430533D01*
X78684285Y-149144819D02*
X78208095Y-149144819D01*
X78208095Y-149144819D02*
X78160476Y-149621009D01*
X78160476Y-149621009D02*
X78208095Y-149573390D01*
X78208095Y-149573390D02*
X78303333Y-149525771D01*
X78303333Y-149525771D02*
X78541428Y-149525771D01*
X78541428Y-149525771D02*
X78636666Y-149573390D01*
X78636666Y-149573390D02*
X78684285Y-149621009D01*
X78684285Y-149621009D02*
X78731904Y-149716247D01*
X78731904Y-149716247D02*
X78731904Y-149954342D01*
X78731904Y-149954342D02*
X78684285Y-150049580D01*
X78684285Y-150049580D02*
X78636666Y-150097200D01*
X78636666Y-150097200D02*
X78541428Y-150144819D01*
X78541428Y-150144819D02*
X78303333Y-150144819D01*
X78303333Y-150144819D02*
X78208095Y-150097200D01*
X78208095Y-150097200D02*
X78160476Y-150049580D01*
X121374819Y-134953333D02*
X122089104Y-134953333D01*
X122089104Y-134953333D02*
X122231961Y-135000952D01*
X122231961Y-135000952D02*
X122327200Y-135096190D01*
X122327200Y-135096190D02*
X122374819Y-135239047D01*
X122374819Y-135239047D02*
X122374819Y-135334285D01*
X121803390Y-134334285D02*
X121755771Y-134429523D01*
X121755771Y-134429523D02*
X121708152Y-134477142D01*
X121708152Y-134477142D02*
X121612914Y-134524761D01*
X121612914Y-134524761D02*
X121565295Y-134524761D01*
X121565295Y-134524761D02*
X121470057Y-134477142D01*
X121470057Y-134477142D02*
X121422438Y-134429523D01*
X121422438Y-134429523D02*
X121374819Y-134334285D01*
X121374819Y-134334285D02*
X121374819Y-134143809D01*
X121374819Y-134143809D02*
X121422438Y-134048571D01*
X121422438Y-134048571D02*
X121470057Y-134000952D01*
X121470057Y-134000952D02*
X121565295Y-133953333D01*
X121565295Y-133953333D02*
X121612914Y-133953333D01*
X121612914Y-133953333D02*
X121708152Y-134000952D01*
X121708152Y-134000952D02*
X121755771Y-134048571D01*
X121755771Y-134048571D02*
X121803390Y-134143809D01*
X121803390Y-134143809D02*
X121803390Y-134334285D01*
X121803390Y-134334285D02*
X121851009Y-134429523D01*
X121851009Y-134429523D02*
X121898628Y-134477142D01*
X121898628Y-134477142D02*
X121993866Y-134524761D01*
X121993866Y-134524761D02*
X122184342Y-134524761D01*
X122184342Y-134524761D02*
X122279580Y-134477142D01*
X122279580Y-134477142D02*
X122327200Y-134429523D01*
X122327200Y-134429523D02*
X122374819Y-134334285D01*
X122374819Y-134334285D02*
X122374819Y-134143809D01*
X122374819Y-134143809D02*
X122327200Y-134048571D01*
X122327200Y-134048571D02*
X122279580Y-134000952D01*
X122279580Y-134000952D02*
X122184342Y-133953333D01*
X122184342Y-133953333D02*
X121993866Y-133953333D01*
X121993866Y-133953333D02*
X121898628Y-134000952D01*
X121898628Y-134000952D02*
X121851009Y-134048571D01*
X121851009Y-134048571D02*
X121803390Y-134143809D01*
X42794819Y-89709523D02*
X43509104Y-89709523D01*
X43509104Y-89709523D02*
X43651961Y-89757142D01*
X43651961Y-89757142D02*
X43747200Y-89852380D01*
X43747200Y-89852380D02*
X43794819Y-89995237D01*
X43794819Y-89995237D02*
X43794819Y-90090475D01*
X43794819Y-88709523D02*
X43794819Y-89280951D01*
X43794819Y-88995237D02*
X42794819Y-88995237D01*
X42794819Y-88995237D02*
X42937676Y-89090475D01*
X42937676Y-89090475D02*
X43032914Y-89185713D01*
X43032914Y-89185713D02*
X43080533Y-89280951D01*
X43794819Y-87757142D02*
X43794819Y-88328570D01*
X43794819Y-88042856D02*
X42794819Y-88042856D01*
X42794819Y-88042856D02*
X42937676Y-88138094D01*
X42937676Y-88138094D02*
X43032914Y-88233332D01*
X43032914Y-88233332D02*
X43080533Y-88328570D01*
X77303333Y-89804819D02*
X76970000Y-89328628D01*
X76731905Y-89804819D02*
X76731905Y-88804819D01*
X76731905Y-88804819D02*
X77112857Y-88804819D01*
X77112857Y-88804819D02*
X77208095Y-88852438D01*
X77208095Y-88852438D02*
X77255714Y-88900057D01*
X77255714Y-88900057D02*
X77303333Y-88995295D01*
X77303333Y-88995295D02*
X77303333Y-89138152D01*
X77303333Y-89138152D02*
X77255714Y-89233390D01*
X77255714Y-89233390D02*
X77208095Y-89281009D01*
X77208095Y-89281009D02*
X77112857Y-89328628D01*
X77112857Y-89328628D02*
X76731905Y-89328628D01*
X77874762Y-89233390D02*
X77779524Y-89185771D01*
X77779524Y-89185771D02*
X77731905Y-89138152D01*
X77731905Y-89138152D02*
X77684286Y-89042914D01*
X77684286Y-89042914D02*
X77684286Y-88995295D01*
X77684286Y-88995295D02*
X77731905Y-88900057D01*
X77731905Y-88900057D02*
X77779524Y-88852438D01*
X77779524Y-88852438D02*
X77874762Y-88804819D01*
X77874762Y-88804819D02*
X78065238Y-88804819D01*
X78065238Y-88804819D02*
X78160476Y-88852438D01*
X78160476Y-88852438D02*
X78208095Y-88900057D01*
X78208095Y-88900057D02*
X78255714Y-88995295D01*
X78255714Y-88995295D02*
X78255714Y-89042914D01*
X78255714Y-89042914D02*
X78208095Y-89138152D01*
X78208095Y-89138152D02*
X78160476Y-89185771D01*
X78160476Y-89185771D02*
X78065238Y-89233390D01*
X78065238Y-89233390D02*
X77874762Y-89233390D01*
X77874762Y-89233390D02*
X77779524Y-89281009D01*
X77779524Y-89281009D02*
X77731905Y-89328628D01*
X77731905Y-89328628D02*
X77684286Y-89423866D01*
X77684286Y-89423866D02*
X77684286Y-89614342D01*
X77684286Y-89614342D02*
X77731905Y-89709580D01*
X77731905Y-89709580D02*
X77779524Y-89757200D01*
X77779524Y-89757200D02*
X77874762Y-89804819D01*
X77874762Y-89804819D02*
X78065238Y-89804819D01*
X78065238Y-89804819D02*
X78160476Y-89757200D01*
X78160476Y-89757200D02*
X78208095Y-89709580D01*
X78208095Y-89709580D02*
X78255714Y-89614342D01*
X78255714Y-89614342D02*
X78255714Y-89423866D01*
X78255714Y-89423866D02*
X78208095Y-89328628D01*
X78208095Y-89328628D02*
X78160476Y-89281009D01*
X78160476Y-89281009D02*
X78065238Y-89233390D01*
X121374819Y-119433333D02*
X122089104Y-119433333D01*
X122089104Y-119433333D02*
X122231961Y-119480952D01*
X122231961Y-119480952D02*
X122327200Y-119576190D01*
X122327200Y-119576190D02*
X122374819Y-119719047D01*
X122374819Y-119719047D02*
X122374819Y-119814285D01*
X121374819Y-119052380D02*
X121374819Y-118385714D01*
X121374819Y-118385714D02*
X122374819Y-118814285D01*
X53006666Y-146774819D02*
X53006666Y-147489104D01*
X53006666Y-147489104D02*
X52959047Y-147631961D01*
X52959047Y-147631961D02*
X52863809Y-147727200D01*
X52863809Y-147727200D02*
X52720952Y-147774819D01*
X52720952Y-147774819D02*
X52625714Y-147774819D01*
X54006666Y-147774819D02*
X53435238Y-147774819D01*
X53720952Y-147774819D02*
X53720952Y-146774819D01*
X53720952Y-146774819D02*
X53625714Y-146917676D01*
X53625714Y-146917676D02*
X53530476Y-147012914D01*
X53530476Y-147012914D02*
X53435238Y-147060533D01*
X76827142Y-119724819D02*
X76493809Y-119248628D01*
X76255714Y-119724819D02*
X76255714Y-118724819D01*
X76255714Y-118724819D02*
X76636666Y-118724819D01*
X76636666Y-118724819D02*
X76731904Y-118772438D01*
X76731904Y-118772438D02*
X76779523Y-118820057D01*
X76779523Y-118820057D02*
X76827142Y-118915295D01*
X76827142Y-118915295D02*
X76827142Y-119058152D01*
X76827142Y-119058152D02*
X76779523Y-119153390D01*
X76779523Y-119153390D02*
X76731904Y-119201009D01*
X76731904Y-119201009D02*
X76636666Y-119248628D01*
X76636666Y-119248628D02*
X76255714Y-119248628D01*
X77779523Y-119724819D02*
X77208095Y-119724819D01*
X77493809Y-119724819D02*
X77493809Y-118724819D01*
X77493809Y-118724819D02*
X77398571Y-118867676D01*
X77398571Y-118867676D02*
X77303333Y-118962914D01*
X77303333Y-118962914D02*
X77208095Y-119010533D01*
X78160476Y-118820057D02*
X78208095Y-118772438D01*
X78208095Y-118772438D02*
X78303333Y-118724819D01*
X78303333Y-118724819D02*
X78541428Y-118724819D01*
X78541428Y-118724819D02*
X78636666Y-118772438D01*
X78636666Y-118772438D02*
X78684285Y-118820057D01*
X78684285Y-118820057D02*
X78731904Y-118915295D01*
X78731904Y-118915295D02*
X78731904Y-119010533D01*
X78731904Y-119010533D02*
X78684285Y-119153390D01*
X78684285Y-119153390D02*
X78112857Y-119724819D01*
X78112857Y-119724819D02*
X78731904Y-119724819D01*
X121374819Y-58753333D02*
X122089104Y-58753333D01*
X122089104Y-58753333D02*
X122231961Y-58800952D01*
X122231961Y-58800952D02*
X122327200Y-58896190D01*
X122327200Y-58896190D02*
X122374819Y-59039047D01*
X122374819Y-59039047D02*
X122374819Y-59134285D01*
X121374819Y-58372380D02*
X121374819Y-57753333D01*
X121374819Y-57753333D02*
X121755771Y-58086666D01*
X121755771Y-58086666D02*
X121755771Y-57943809D01*
X121755771Y-57943809D02*
X121803390Y-57848571D01*
X121803390Y-57848571D02*
X121851009Y-57800952D01*
X121851009Y-57800952D02*
X121946247Y-57753333D01*
X121946247Y-57753333D02*
X122184342Y-57753333D01*
X122184342Y-57753333D02*
X122279580Y-57800952D01*
X122279580Y-57800952D02*
X122327200Y-57848571D01*
X122327200Y-57848571D02*
X122374819Y-57943809D01*
X122374819Y-57943809D02*
X122374819Y-58229523D01*
X122374819Y-58229523D02*
X122327200Y-58324761D01*
X122327200Y-58324761D02*
X122279580Y-58372380D01*
X76827142Y-134904819D02*
X76493809Y-134428628D01*
X76255714Y-134904819D02*
X76255714Y-133904819D01*
X76255714Y-133904819D02*
X76636666Y-133904819D01*
X76636666Y-133904819D02*
X76731904Y-133952438D01*
X76731904Y-133952438D02*
X76779523Y-134000057D01*
X76779523Y-134000057D02*
X76827142Y-134095295D01*
X76827142Y-134095295D02*
X76827142Y-134238152D01*
X76827142Y-134238152D02*
X76779523Y-134333390D01*
X76779523Y-134333390D02*
X76731904Y-134381009D01*
X76731904Y-134381009D02*
X76636666Y-134428628D01*
X76636666Y-134428628D02*
X76255714Y-134428628D01*
X77779523Y-134904819D02*
X77208095Y-134904819D01*
X77493809Y-134904819D02*
X77493809Y-133904819D01*
X77493809Y-133904819D02*
X77398571Y-134047676D01*
X77398571Y-134047676D02*
X77303333Y-134142914D01*
X77303333Y-134142914D02*
X77208095Y-134190533D01*
X78112857Y-133904819D02*
X78731904Y-133904819D01*
X78731904Y-133904819D02*
X78398571Y-134285771D01*
X78398571Y-134285771D02*
X78541428Y-134285771D01*
X78541428Y-134285771D02*
X78636666Y-134333390D01*
X78636666Y-134333390D02*
X78684285Y-134381009D01*
X78684285Y-134381009D02*
X78731904Y-134476247D01*
X78731904Y-134476247D02*
X78731904Y-134714342D01*
X78731904Y-134714342D02*
X78684285Y-134809580D01*
X78684285Y-134809580D02*
X78636666Y-134857200D01*
X78636666Y-134857200D02*
X78541428Y-134904819D01*
X78541428Y-134904819D02*
X78255714Y-134904819D01*
X78255714Y-134904819D02*
X78160476Y-134857200D01*
X78160476Y-134857200D02*
X78112857Y-134809580D01*
X76827142Y-119384819D02*
X76493809Y-118908628D01*
X76255714Y-119384819D02*
X76255714Y-118384819D01*
X76255714Y-118384819D02*
X76636666Y-118384819D01*
X76636666Y-118384819D02*
X76731904Y-118432438D01*
X76731904Y-118432438D02*
X76779523Y-118480057D01*
X76779523Y-118480057D02*
X76827142Y-118575295D01*
X76827142Y-118575295D02*
X76827142Y-118718152D01*
X76827142Y-118718152D02*
X76779523Y-118813390D01*
X76779523Y-118813390D02*
X76731904Y-118861009D01*
X76731904Y-118861009D02*
X76636666Y-118908628D01*
X76636666Y-118908628D02*
X76255714Y-118908628D01*
X77779523Y-119384819D02*
X77208095Y-119384819D01*
X77493809Y-119384819D02*
X77493809Y-118384819D01*
X77493809Y-118384819D02*
X77398571Y-118527676D01*
X77398571Y-118527676D02*
X77303333Y-118622914D01*
X77303333Y-118622914D02*
X77208095Y-118670533D01*
X78731904Y-119384819D02*
X78160476Y-119384819D01*
X78446190Y-119384819D02*
X78446190Y-118384819D01*
X78446190Y-118384819D02*
X78350952Y-118527676D01*
X78350952Y-118527676D02*
X78255714Y-118622914D01*
X78255714Y-118622914D02*
X78160476Y-118670533D01*
X121374819Y-43513333D02*
X122089104Y-43513333D01*
X122089104Y-43513333D02*
X122231961Y-43560952D01*
X122231961Y-43560952D02*
X122327200Y-43656190D01*
X122327200Y-43656190D02*
X122374819Y-43799047D01*
X122374819Y-43799047D02*
X122374819Y-43894285D01*
X121470057Y-43084761D02*
X121422438Y-43037142D01*
X121422438Y-43037142D02*
X121374819Y-42941904D01*
X121374819Y-42941904D02*
X121374819Y-42703809D01*
X121374819Y-42703809D02*
X121422438Y-42608571D01*
X121422438Y-42608571D02*
X121470057Y-42560952D01*
X121470057Y-42560952D02*
X121565295Y-42513333D01*
X121565295Y-42513333D02*
X121660533Y-42513333D01*
X121660533Y-42513333D02*
X121803390Y-42560952D01*
X121803390Y-42560952D02*
X122374819Y-43132380D01*
X122374819Y-43132380D02*
X122374819Y-42513333D01*
X77303333Y-74564819D02*
X76970000Y-74088628D01*
X76731905Y-74564819D02*
X76731905Y-73564819D01*
X76731905Y-73564819D02*
X77112857Y-73564819D01*
X77112857Y-73564819D02*
X77208095Y-73612438D01*
X77208095Y-73612438D02*
X77255714Y-73660057D01*
X77255714Y-73660057D02*
X77303333Y-73755295D01*
X77303333Y-73755295D02*
X77303333Y-73898152D01*
X77303333Y-73898152D02*
X77255714Y-73993390D01*
X77255714Y-73993390D02*
X77208095Y-74041009D01*
X77208095Y-74041009D02*
X77112857Y-74088628D01*
X77112857Y-74088628D02*
X76731905Y-74088628D01*
X78160476Y-73564819D02*
X77970000Y-73564819D01*
X77970000Y-73564819D02*
X77874762Y-73612438D01*
X77874762Y-73612438D02*
X77827143Y-73660057D01*
X77827143Y-73660057D02*
X77731905Y-73802914D01*
X77731905Y-73802914D02*
X77684286Y-73993390D01*
X77684286Y-73993390D02*
X77684286Y-74374342D01*
X77684286Y-74374342D02*
X77731905Y-74469580D01*
X77731905Y-74469580D02*
X77779524Y-74517200D01*
X77779524Y-74517200D02*
X77874762Y-74564819D01*
X77874762Y-74564819D02*
X78065238Y-74564819D01*
X78065238Y-74564819D02*
X78160476Y-74517200D01*
X78160476Y-74517200D02*
X78208095Y-74469580D01*
X78208095Y-74469580D02*
X78255714Y-74374342D01*
X78255714Y-74374342D02*
X78255714Y-74136247D01*
X78255714Y-74136247D02*
X78208095Y-74041009D01*
X78208095Y-74041009D02*
X78160476Y-73993390D01*
X78160476Y-73993390D02*
X78065238Y-73945771D01*
X78065238Y-73945771D02*
X77874762Y-73945771D01*
X77874762Y-73945771D02*
X77779524Y-73993390D01*
X77779524Y-73993390D02*
X77731905Y-74041009D01*
X77731905Y-74041009D02*
X77684286Y-74136247D01*
X50673333Y-94679580D02*
X50625714Y-94727200D01*
X50625714Y-94727200D02*
X50482857Y-94774819D01*
X50482857Y-94774819D02*
X50387619Y-94774819D01*
X50387619Y-94774819D02*
X50244762Y-94727200D01*
X50244762Y-94727200D02*
X50149524Y-94631961D01*
X50149524Y-94631961D02*
X50101905Y-94536723D01*
X50101905Y-94536723D02*
X50054286Y-94346247D01*
X50054286Y-94346247D02*
X50054286Y-94203390D01*
X50054286Y-94203390D02*
X50101905Y-94012914D01*
X50101905Y-94012914D02*
X50149524Y-93917676D01*
X50149524Y-93917676D02*
X50244762Y-93822438D01*
X50244762Y-93822438D02*
X50387619Y-93774819D01*
X50387619Y-93774819D02*
X50482857Y-93774819D01*
X50482857Y-93774819D02*
X50625714Y-93822438D01*
X50625714Y-93822438D02*
X50673333Y-93870057D01*
X51054286Y-93870057D02*
X51101905Y-93822438D01*
X51101905Y-93822438D02*
X51197143Y-93774819D01*
X51197143Y-93774819D02*
X51435238Y-93774819D01*
X51435238Y-93774819D02*
X51530476Y-93822438D01*
X51530476Y-93822438D02*
X51578095Y-93870057D01*
X51578095Y-93870057D02*
X51625714Y-93965295D01*
X51625714Y-93965295D02*
X51625714Y-94060533D01*
X51625714Y-94060533D02*
X51578095Y-94203390D01*
X51578095Y-94203390D02*
X51006667Y-94774819D01*
X51006667Y-94774819D02*
X51625714Y-94774819D01*
%TO.C,U2*%
D10*
X26420000Y-67003600D02*
X65230000Y-67003600D01*
X65230000Y-41103600D01*
X26420000Y-41103600D01*
X26420000Y-67003600D01*
X20920000Y-60053600D02*
X26420000Y-60053600D01*
X26420000Y-48053600D01*
X20920000Y-48053600D01*
X20920000Y-60053600D01*
D12*
%TO.C,Q8*%
X108470000Y-144750000D02*
X108470000Y-154970000D01*
X92600000Y-144750000D02*
X108470000Y-144750000D01*
X92600000Y-144750000D02*
X92600000Y-154970000D01*
X92600000Y-146835000D02*
X90160000Y-146835000D01*
X92600000Y-147805000D02*
X90160000Y-147805000D01*
X92600000Y-149375000D02*
X90160000Y-149375000D01*
X92600000Y-150345000D02*
X90160000Y-150345000D01*
X92600000Y-151915000D02*
X90160000Y-151915000D01*
X92600000Y-152885000D02*
X90160000Y-152885000D01*
X92600000Y-154970000D02*
X108470000Y-154970000D01*
%TO.C,Q7*%
X108470000Y-129510000D02*
X108470000Y-139730000D01*
X92600000Y-129510000D02*
X108470000Y-129510000D01*
X92600000Y-129510000D02*
X92600000Y-139730000D01*
X92600000Y-131595000D02*
X90160000Y-131595000D01*
X92600000Y-132565000D02*
X90160000Y-132565000D01*
X92600000Y-134135000D02*
X90160000Y-134135000D01*
X92600000Y-135105000D02*
X90160000Y-135105000D01*
X92600000Y-136675000D02*
X90160000Y-136675000D01*
X92600000Y-137645000D02*
X90160000Y-137645000D01*
X92600000Y-139730000D02*
X108470000Y-139730000D01*
%TO.C,Q6*%
X108470000Y-113990000D02*
X108470000Y-124210000D01*
X92600000Y-113990000D02*
X108470000Y-113990000D01*
X92600000Y-113990000D02*
X92600000Y-124210000D01*
X92600000Y-116075000D02*
X90160000Y-116075000D01*
X92600000Y-117045000D02*
X90160000Y-117045000D01*
X92600000Y-118615000D02*
X90160000Y-118615000D01*
X92600000Y-119585000D02*
X90160000Y-119585000D01*
X92600000Y-121155000D02*
X90160000Y-121155000D01*
X92600000Y-122125000D02*
X90160000Y-122125000D01*
X92600000Y-124210000D02*
X108470000Y-124210000D01*
%TO.C,Q5*%
X108470000Y-99030000D02*
X108470000Y-109250000D01*
X92600000Y-99030000D02*
X108470000Y-99030000D01*
X92600000Y-99030000D02*
X92600000Y-109250000D01*
X92600000Y-101115000D02*
X90160000Y-101115000D01*
X92600000Y-102085000D02*
X90160000Y-102085000D01*
X92600000Y-103655000D02*
X90160000Y-103655000D01*
X92600000Y-104625000D02*
X90160000Y-104625000D01*
X92600000Y-106195000D02*
X90160000Y-106195000D01*
X92600000Y-107165000D02*
X90160000Y-107165000D01*
X92600000Y-109250000D02*
X108470000Y-109250000D01*
%TO.C,Q4*%
X108470000Y-84070000D02*
X108470000Y-94290000D01*
X92600000Y-84070000D02*
X108470000Y-84070000D01*
X92600000Y-84070000D02*
X92600000Y-94290000D01*
X92600000Y-86155000D02*
X90160000Y-86155000D01*
X92600000Y-87125000D02*
X90160000Y-87125000D01*
X92600000Y-88695000D02*
X90160000Y-88695000D01*
X92600000Y-89665000D02*
X90160000Y-89665000D01*
X92600000Y-91235000D02*
X90160000Y-91235000D01*
X92600000Y-92205000D02*
X90160000Y-92205000D01*
X92600000Y-94290000D02*
X108470000Y-94290000D01*
%TO.C,Q3*%
X108470000Y-68830000D02*
X108470000Y-79050000D01*
X92600000Y-68830000D02*
X108470000Y-68830000D01*
X92600000Y-68830000D02*
X92600000Y-79050000D01*
X92600000Y-70915000D02*
X90160000Y-70915000D01*
X92600000Y-71885000D02*
X90160000Y-71885000D01*
X92600000Y-73455000D02*
X90160000Y-73455000D01*
X92600000Y-74425000D02*
X90160000Y-74425000D01*
X92600000Y-75995000D02*
X90160000Y-75995000D01*
X92600000Y-76965000D02*
X90160000Y-76965000D01*
X92600000Y-79050000D02*
X108470000Y-79050000D01*
%TO.C,Q2*%
X108470000Y-53310000D02*
X108470000Y-63530000D01*
X92600000Y-53310000D02*
X108470000Y-53310000D01*
X92600000Y-53310000D02*
X92600000Y-63530000D01*
X92600000Y-55395000D02*
X90160000Y-55395000D01*
X92600000Y-56365000D02*
X90160000Y-56365000D01*
X92600000Y-57935000D02*
X90160000Y-57935000D01*
X92600000Y-58905000D02*
X90160000Y-58905000D01*
X92600000Y-60475000D02*
X90160000Y-60475000D01*
X92600000Y-61445000D02*
X90160000Y-61445000D01*
X92600000Y-63530000D02*
X108470000Y-63530000D01*
%TO.C,Q1*%
X108470000Y-38070000D02*
X108470000Y-48290000D01*
X92600000Y-38070000D02*
X108470000Y-38070000D01*
X92600000Y-38070000D02*
X92600000Y-48290000D01*
X92600000Y-40155000D02*
X90160000Y-40155000D01*
X92600000Y-41125000D02*
X90160000Y-41125000D01*
X92600000Y-42695000D02*
X90160000Y-42695000D01*
X92600000Y-43665000D02*
X90160000Y-43665000D01*
X92600000Y-45235000D02*
X90160000Y-45235000D01*
X92600000Y-46205000D02*
X90160000Y-46205000D01*
X92600000Y-48290000D02*
X108470000Y-48290000D01*
%TO.C,R18*%
X40100000Y-87530000D02*
X33560000Y-87530000D01*
X33560000Y-87530000D02*
X33560000Y-87860000D01*
X40100000Y-87860000D02*
X40100000Y-87530000D01*
X40100000Y-89940000D02*
X40100000Y-90270000D01*
X40100000Y-90270000D02*
X33560000Y-90270000D01*
X33560000Y-90270000D02*
X33560000Y-89940000D01*
%TO.C,C4*%
X47180302Y-134845000D02*
X47980302Y-134845000D01*
X47580302Y-134445000D02*
X47580302Y-135245000D01*
X51590000Y-133080000D02*
X51590000Y-141240000D01*
X51630000Y-133080000D02*
X51630000Y-141240000D01*
X51670000Y-133081000D02*
X51670000Y-141239000D01*
X51710000Y-133082000D02*
X51710000Y-141238000D01*
X51750000Y-133083000D02*
X51750000Y-141237000D01*
X51790000Y-133085000D02*
X51790000Y-141235000D01*
X51830000Y-133087000D02*
X51830000Y-141233000D01*
X51870000Y-133090000D02*
X51870000Y-141230000D01*
X51910000Y-133092000D02*
X51910000Y-141228000D01*
X51950000Y-133096000D02*
X51950000Y-141224000D01*
X51990000Y-133099000D02*
X51990000Y-141221000D01*
X52030000Y-133104000D02*
X52030000Y-141216000D01*
X52070000Y-133108000D02*
X52070000Y-141212000D01*
X52110000Y-133113000D02*
X52110000Y-141207000D01*
X52150000Y-133118000D02*
X52150000Y-141202000D01*
X52190000Y-133124000D02*
X52190000Y-141196000D01*
X52230000Y-133130000D02*
X52230000Y-141190000D01*
X52270000Y-133137000D02*
X52270000Y-141183000D01*
X52310000Y-133143000D02*
X52310000Y-136120000D01*
X52310000Y-138200000D02*
X52310000Y-141177000D01*
X52350000Y-133151000D02*
X52350000Y-136120000D01*
X52350000Y-138200000D02*
X52350000Y-141169000D01*
X52390000Y-133158000D02*
X52390000Y-136120000D01*
X52390000Y-138200000D02*
X52390000Y-141162000D01*
X52430000Y-133167000D02*
X52430000Y-136120000D01*
X52430000Y-138200000D02*
X52430000Y-141153000D01*
X52470000Y-133175000D02*
X52470000Y-136120000D01*
X52470000Y-138200000D02*
X52470000Y-141145000D01*
X52510000Y-133184000D02*
X52510000Y-136120000D01*
X52510000Y-138200000D02*
X52510000Y-141136000D01*
X52550000Y-133193000D02*
X52550000Y-136120000D01*
X52550000Y-138200000D02*
X52550000Y-141127000D01*
X52590000Y-133203000D02*
X52590000Y-136120000D01*
X52590000Y-138200000D02*
X52590000Y-141117000D01*
X52630000Y-133213000D02*
X52630000Y-136120000D01*
X52630000Y-138200000D02*
X52630000Y-141107000D01*
X52670000Y-133224000D02*
X52670000Y-136120000D01*
X52670000Y-138200000D02*
X52670000Y-141096000D01*
X52710000Y-133235000D02*
X52710000Y-136120000D01*
X52710000Y-138200000D02*
X52710000Y-141085000D01*
X52750000Y-133247000D02*
X52750000Y-136120000D01*
X52750000Y-138200000D02*
X52750000Y-141073000D01*
X52790000Y-133259000D02*
X52790000Y-136120000D01*
X52790000Y-138200000D02*
X52790000Y-141061000D01*
X52830000Y-133271000D02*
X52830000Y-136120000D01*
X52830000Y-138200000D02*
X52830000Y-141049000D01*
X52870000Y-133284000D02*
X52870000Y-136120000D01*
X52870000Y-138200000D02*
X52870000Y-141036000D01*
X52910000Y-133297000D02*
X52910000Y-136120000D01*
X52910000Y-138200000D02*
X52910000Y-141023000D01*
X52950000Y-133311000D02*
X52950000Y-136120000D01*
X52950000Y-138200000D02*
X52950000Y-141009000D01*
X52990000Y-133325000D02*
X52990000Y-136120000D01*
X52990000Y-138200000D02*
X52990000Y-140995000D01*
X53030000Y-133340000D02*
X53030000Y-136120000D01*
X53030000Y-138200000D02*
X53030000Y-140980000D01*
X53070000Y-133355000D02*
X53070000Y-136120000D01*
X53070000Y-138200000D02*
X53070000Y-140965000D01*
X53110000Y-133371000D02*
X53110000Y-136120000D01*
X53110000Y-138200000D02*
X53110000Y-140949000D01*
X53150000Y-133387000D02*
X53150000Y-136120000D01*
X53150000Y-138200000D02*
X53150000Y-140933000D01*
X53190000Y-133403000D02*
X53190000Y-136120000D01*
X53190000Y-138200000D02*
X53190000Y-140917000D01*
X53230000Y-133420000D02*
X53230000Y-136120000D01*
X53230000Y-138200000D02*
X53230000Y-140900000D01*
X53270000Y-133438000D02*
X53270000Y-136120000D01*
X53270000Y-138200000D02*
X53270000Y-140882000D01*
X53310000Y-133456000D02*
X53310000Y-136120000D01*
X53310000Y-138200000D02*
X53310000Y-140864000D01*
X53350000Y-133475000D02*
X53350000Y-136120000D01*
X53350000Y-138200000D02*
X53350000Y-140845000D01*
X53390000Y-133494000D02*
X53390000Y-136120000D01*
X53390000Y-138200000D02*
X53390000Y-140826000D01*
X53430000Y-133514000D02*
X53430000Y-136120000D01*
X53430000Y-138200000D02*
X53430000Y-140806000D01*
X53470000Y-133534000D02*
X53470000Y-136120000D01*
X53470000Y-138200000D02*
X53470000Y-140786000D01*
X53510000Y-133555000D02*
X53510000Y-136120000D01*
X53510000Y-138200000D02*
X53510000Y-140765000D01*
X53550000Y-133576000D02*
X53550000Y-136120000D01*
X53550000Y-138200000D02*
X53550000Y-140744000D01*
X53590000Y-133598000D02*
X53590000Y-136120000D01*
X53590000Y-138200000D02*
X53590000Y-140722000D01*
X53630000Y-133621000D02*
X53630000Y-136120000D01*
X53630000Y-138200000D02*
X53630000Y-140699000D01*
X53670000Y-133644000D02*
X53670000Y-136120000D01*
X53670000Y-138200000D02*
X53670000Y-140676000D01*
X53710000Y-133667000D02*
X53710000Y-136120000D01*
X53710000Y-138200000D02*
X53710000Y-140653000D01*
X53750000Y-133692000D02*
X53750000Y-136120000D01*
X53750000Y-138200000D02*
X53750000Y-140628000D01*
X53790000Y-133717000D02*
X53790000Y-136120000D01*
X53790000Y-138200000D02*
X53790000Y-140603000D01*
X53830000Y-133742000D02*
X53830000Y-136120000D01*
X53830000Y-138200000D02*
X53830000Y-140578000D01*
X53870000Y-133768000D02*
X53870000Y-136120000D01*
X53870000Y-138200000D02*
X53870000Y-140552000D01*
X53910000Y-133795000D02*
X53910000Y-136120000D01*
X53910000Y-138200000D02*
X53910000Y-140525000D01*
X53950000Y-133823000D02*
X53950000Y-136120000D01*
X53950000Y-138200000D02*
X53950000Y-140497000D01*
X53990000Y-133851000D02*
X53990000Y-136120000D01*
X53990000Y-138200000D02*
X53990000Y-140469000D01*
X54030000Y-133880000D02*
X54030000Y-136120000D01*
X54030000Y-138200000D02*
X54030000Y-140440000D01*
X54070000Y-133910000D02*
X54070000Y-136120000D01*
X54070000Y-138200000D02*
X54070000Y-140410000D01*
X54110000Y-133941000D02*
X54110000Y-136120000D01*
X54110000Y-138200000D02*
X54110000Y-140379000D01*
X54150000Y-133972000D02*
X54150000Y-136120000D01*
X54150000Y-138200000D02*
X54150000Y-140348000D01*
X54190000Y-134004000D02*
X54190000Y-136120000D01*
X54190000Y-138200000D02*
X54190000Y-140316000D01*
X54230000Y-134037000D02*
X54230000Y-136120000D01*
X54230000Y-138200000D02*
X54230000Y-140283000D01*
X54270000Y-134071000D02*
X54270000Y-136120000D01*
X54270000Y-138200000D02*
X54270000Y-140249000D01*
X54310000Y-134105000D02*
X54310000Y-136120000D01*
X54310000Y-138200000D02*
X54310000Y-140215000D01*
X54350000Y-134141000D02*
X54350000Y-136120000D01*
X54350000Y-138200000D02*
X54350000Y-140179000D01*
X54390000Y-134178000D02*
X54390000Y-140142000D01*
X54430000Y-134215000D02*
X54430000Y-140105000D01*
X54470000Y-134254000D02*
X54470000Y-140066000D01*
X54510000Y-134293000D02*
X54510000Y-140027000D01*
X54550000Y-134334000D02*
X54550000Y-139986000D01*
X54590000Y-134376000D02*
X54590000Y-139944000D01*
X54630000Y-134419000D02*
X54630000Y-139901000D01*
X54670000Y-134464000D02*
X54670000Y-139856000D01*
X54710000Y-134509000D02*
X54710000Y-139811000D01*
X54750000Y-134556000D02*
X54750000Y-139764000D01*
X54790000Y-134605000D02*
X54790000Y-139715000D01*
X54830000Y-134655000D02*
X54830000Y-139665000D01*
X54870000Y-134707000D02*
X54870000Y-139613000D01*
X54910000Y-134760000D02*
X54910000Y-139560000D01*
X54950000Y-134816000D02*
X54950000Y-139504000D01*
X54990000Y-134873000D02*
X54990000Y-139447000D01*
X55030000Y-134933000D02*
X55030000Y-139387000D01*
X55070000Y-134995000D02*
X55070000Y-139325000D01*
X55110000Y-135059000D02*
X55110000Y-139261000D01*
X55150000Y-135126000D02*
X55150000Y-139194000D01*
X55190000Y-135196000D02*
X55190000Y-139124000D01*
X55230000Y-135270000D02*
X55230000Y-139050000D01*
X55270000Y-135347000D02*
X55270000Y-138973000D01*
X55310000Y-135429000D02*
X55310000Y-138891000D01*
X55350000Y-135516000D02*
X55350000Y-138804000D01*
X55390000Y-135608000D02*
X55390000Y-138712000D01*
X55430000Y-135707000D02*
X55430000Y-138613000D01*
X55470000Y-135814000D02*
X55470000Y-138506000D01*
X55510000Y-135932000D02*
X55510000Y-138388000D01*
X55550000Y-136063000D02*
X55550000Y-138257000D01*
X55590000Y-136213000D02*
X55590000Y-138107000D01*
X55630000Y-136392000D02*
X55630000Y-137928000D01*
X55670000Y-136627000D02*
X55670000Y-137693000D01*
X55710000Y-137160000D02*
G75*
G02*
X47470000Y-137160000I-4120000J0D01*
G01*
X47470000Y-137160000D02*
G75*
G02*
X55710000Y-137160000I4120000J0D01*
G01*
%TO.C,C1*%
X48570000Y-100530000D02*
X53110000Y-100530000D01*
X48570000Y-100586000D02*
X48570000Y-100530000D01*
X53110000Y-102614000D02*
X53110000Y-102670000D01*
X53110000Y-102670000D02*
X48570000Y-102670000D01*
%TO.C,J10*%
X44340000Y-85200000D02*
X44340000Y-83820000D01*
X45720000Y-85200000D02*
X44340000Y-85200000D01*
X46990000Y-85200000D02*
X49640000Y-85200000D01*
X46990000Y-85200000D02*
X46990000Y-82440000D01*
X49640000Y-85200000D02*
X49640000Y-82440000D01*
X46990000Y-82440000D02*
X49640000Y-82440000D01*
%TO.C,J9*%
X113030000Y-144780000D02*
X113030000Y-154940000D01*
X113030000Y-154940000D02*
X120650000Y-154940000D01*
X114300000Y-154940000D02*
X114300000Y-144780000D01*
X120650000Y-144780000D02*
X113030000Y-144780000D01*
X120650000Y-154940000D02*
X120650000Y-144780000D01*
%TO.C,R9*%
X80740000Y-102970000D02*
X74200000Y-102970000D01*
X80740000Y-102640000D02*
X80740000Y-102970000D01*
X80740000Y-100560000D02*
X80740000Y-100230000D01*
X80740000Y-100230000D02*
X74200000Y-100230000D01*
X74200000Y-102970000D02*
X74200000Y-102640000D01*
X74200000Y-100230000D02*
X74200000Y-100560000D01*
%TO.C,R7*%
X80740000Y-88010000D02*
X74200000Y-88010000D01*
X80740000Y-87680000D02*
X80740000Y-88010000D01*
X80740000Y-85600000D02*
X80740000Y-85270000D01*
X80740000Y-85270000D02*
X74200000Y-85270000D01*
X74200000Y-88010000D02*
X74200000Y-87680000D01*
X74200000Y-85270000D02*
X74200000Y-85600000D01*
%TO.C,R1*%
X74200000Y-39270000D02*
X74200000Y-39600000D01*
X74200000Y-42010000D02*
X74200000Y-41680000D01*
X80740000Y-39270000D02*
X74200000Y-39270000D01*
X80740000Y-39600000D02*
X80740000Y-39270000D01*
X80740000Y-41680000D02*
X80740000Y-42010000D01*
X80740000Y-42010000D02*
X74200000Y-42010000D01*
%TO.C,R3*%
X80740000Y-57250000D02*
X74200000Y-57250000D01*
X80740000Y-56920000D02*
X80740000Y-57250000D01*
X80740000Y-54840000D02*
X80740000Y-54510000D01*
X80740000Y-54510000D02*
X74200000Y-54510000D01*
X74200000Y-57250000D02*
X74200000Y-56920000D01*
X74200000Y-54510000D02*
X74200000Y-54840000D01*
%TO.C,R16*%
X80740000Y-150470000D02*
X80740000Y-150800000D01*
X74200000Y-150470000D02*
X80740000Y-150470000D01*
X74200000Y-150800000D02*
X74200000Y-150470000D01*
X74200000Y-152880000D02*
X74200000Y-153210000D01*
X80740000Y-153210000D02*
X80740000Y-152880000D01*
X74200000Y-153210000D02*
X80740000Y-153210000D01*
%TO.C,R17*%
X40100000Y-82450000D02*
X33560000Y-82450000D01*
X33560000Y-82450000D02*
X33560000Y-82780000D01*
X40100000Y-82780000D02*
X40100000Y-82450000D01*
X40100000Y-84860000D02*
X40100000Y-85190000D01*
X40100000Y-85190000D02*
X33560000Y-85190000D01*
X33560000Y-85190000D02*
X33560000Y-84860000D01*
%TO.C,U1*%
X55910000Y-127180000D02*
X45690000Y-127180000D01*
X45690000Y-111310000D02*
X45690000Y-127180000D01*
X47775000Y-111310000D02*
X47775000Y-108870000D01*
X48745000Y-111310000D02*
X48745000Y-108870000D01*
X50315000Y-111310000D02*
X50315000Y-108870000D01*
X51285000Y-111310000D02*
X51285000Y-108870000D01*
X52855000Y-111310000D02*
X52855000Y-108870000D01*
X53825000Y-111310000D02*
X53825000Y-108870000D01*
X55910000Y-111310000D02*
X55910000Y-127180000D01*
X55910000Y-111310000D02*
X45690000Y-111310000D01*
%TO.C,J5*%
X113030000Y-84100000D02*
X113030000Y-94260000D01*
X113030000Y-94260000D02*
X120650000Y-94260000D01*
X114300000Y-94260000D02*
X114300000Y-84100000D01*
X120650000Y-84100000D02*
X113030000Y-84100000D01*
X120650000Y-94260000D02*
X120650000Y-84100000D01*
%TO.C,R2*%
X80740000Y-47090000D02*
X80740000Y-46760000D01*
X80740000Y-44350000D02*
X80740000Y-44680000D01*
X74200000Y-47090000D02*
X80740000Y-47090000D01*
X74200000Y-46760000D02*
X74200000Y-47090000D01*
X74200000Y-44680000D02*
X74200000Y-44350000D01*
X74200000Y-44350000D02*
X80740000Y-44350000D01*
%TO.C,J6*%
X113030000Y-99060000D02*
X113030000Y-109220000D01*
X113030000Y-109220000D02*
X120650000Y-109220000D01*
X114300000Y-109220000D02*
X114300000Y-99060000D01*
X120650000Y-99060000D02*
X113030000Y-99060000D01*
X120650000Y-109220000D02*
X120650000Y-99060000D01*
%TO.C,R4*%
X80740000Y-59590000D02*
X80740000Y-59920000D01*
X74200000Y-59590000D02*
X80740000Y-59590000D01*
X74200000Y-59920000D02*
X74200000Y-59590000D01*
X74200000Y-62000000D02*
X74200000Y-62330000D01*
X80740000Y-62330000D02*
X80740000Y-62000000D01*
X74200000Y-62330000D02*
X80740000Y-62330000D01*
%TO.C,J4*%
X113030000Y-68860000D02*
X113030000Y-79020000D01*
X113030000Y-79020000D02*
X120650000Y-79020000D01*
X114300000Y-79020000D02*
X114300000Y-68860000D01*
X120650000Y-68860000D02*
X113030000Y-68860000D01*
X120650000Y-79020000D02*
X120650000Y-68860000D01*
%TO.C,R14*%
X80740000Y-135790000D02*
X80740000Y-136120000D01*
X74200000Y-135790000D02*
X80740000Y-135790000D01*
X74200000Y-136120000D02*
X74200000Y-135790000D01*
X74200000Y-138200000D02*
X74200000Y-138530000D01*
X80740000Y-138530000D02*
X80740000Y-138200000D01*
X74200000Y-138530000D02*
X80740000Y-138530000D01*
%TO.C,R5*%
X80740000Y-72770000D02*
X74200000Y-72770000D01*
X80740000Y-72440000D02*
X80740000Y-72770000D01*
X80740000Y-70360000D02*
X80740000Y-70030000D01*
X80740000Y-70030000D02*
X74200000Y-70030000D01*
X74200000Y-72770000D02*
X74200000Y-72440000D01*
X74200000Y-70030000D02*
X74200000Y-70360000D01*
%TO.C,R10*%
X80740000Y-105310000D02*
X80740000Y-105640000D01*
X74200000Y-105310000D02*
X80740000Y-105310000D01*
X74200000Y-105640000D02*
X74200000Y-105310000D01*
X74200000Y-107720000D02*
X74200000Y-108050000D01*
X80740000Y-108050000D02*
X80740000Y-107720000D01*
X74200000Y-108050000D02*
X80740000Y-108050000D01*
%TO.C,R15*%
X74200000Y-145950000D02*
X74200000Y-146280000D01*
X74200000Y-148690000D02*
X74200000Y-148360000D01*
X80740000Y-145950000D02*
X74200000Y-145950000D01*
X80740000Y-146280000D02*
X80740000Y-145950000D01*
X80740000Y-148360000D02*
X80740000Y-148690000D01*
X80740000Y-148690000D02*
X74200000Y-148690000D01*
%TO.C,J8*%
X113030000Y-129540000D02*
X113030000Y-139700000D01*
X113030000Y-139700000D02*
X120650000Y-139700000D01*
X114300000Y-139700000D02*
X114300000Y-129540000D01*
X120650000Y-129540000D02*
X113030000Y-129540000D01*
X120650000Y-139700000D02*
X120650000Y-129540000D01*
%TO.C,J11*%
X44340000Y-90280000D02*
X44340000Y-88900000D01*
X45720000Y-90280000D02*
X44340000Y-90280000D01*
X46990000Y-90280000D02*
X49640000Y-90280000D01*
X46990000Y-90280000D02*
X46990000Y-87520000D01*
X49640000Y-90280000D02*
X49640000Y-87520000D01*
X46990000Y-87520000D02*
X49640000Y-87520000D01*
%TO.C,R8*%
X80740000Y-90350000D02*
X80740000Y-90680000D01*
X74200000Y-90350000D02*
X80740000Y-90350000D01*
X74200000Y-90680000D02*
X74200000Y-90350000D01*
X74200000Y-92760000D02*
X74200000Y-93090000D01*
X80740000Y-93090000D02*
X80740000Y-92760000D01*
X74200000Y-93090000D02*
X80740000Y-93090000D01*
%TO.C,J7*%
X113030000Y-114020000D02*
X113030000Y-124180000D01*
X113030000Y-124180000D02*
X120650000Y-124180000D01*
X114300000Y-124180000D02*
X114300000Y-114020000D01*
X120650000Y-114020000D02*
X113030000Y-114020000D01*
X120650000Y-124180000D02*
X120650000Y-114020000D01*
%TO.C,J1*%
X48260000Y-148590000D02*
X48260000Y-156210000D01*
X48260000Y-156210000D02*
X58420000Y-156210000D01*
X58420000Y-148590000D02*
X48260000Y-148590000D01*
X58420000Y-154940000D02*
X48260000Y-154940000D01*
X58420000Y-156210000D02*
X58420000Y-148590000D01*
%TO.C,R12*%
X80740000Y-120270000D02*
X80740000Y-120600000D01*
X74200000Y-120270000D02*
X80740000Y-120270000D01*
X74200000Y-120600000D02*
X74200000Y-120270000D01*
X74200000Y-122680000D02*
X74200000Y-123010000D01*
X80740000Y-123010000D02*
X80740000Y-122680000D01*
X74200000Y-123010000D02*
X80740000Y-123010000D01*
%TO.C,J3*%
X113030000Y-53340000D02*
X113030000Y-63500000D01*
X113030000Y-63500000D02*
X120650000Y-63500000D01*
X114300000Y-63500000D02*
X114300000Y-53340000D01*
X120650000Y-53340000D02*
X113030000Y-53340000D01*
X120650000Y-63500000D02*
X120650000Y-53340000D01*
%TO.C,R13*%
X74200000Y-130710000D02*
X74200000Y-131040000D01*
X74200000Y-133450000D02*
X74200000Y-133120000D01*
X80740000Y-130710000D02*
X74200000Y-130710000D01*
X80740000Y-131040000D02*
X80740000Y-130710000D01*
X80740000Y-133120000D02*
X80740000Y-133450000D01*
X80740000Y-133450000D02*
X74200000Y-133450000D01*
%TO.C,R11*%
X74200000Y-115190000D02*
X74200000Y-115520000D01*
X74200000Y-117930000D02*
X74200000Y-117600000D01*
X80740000Y-115190000D02*
X74200000Y-115190000D01*
X80740000Y-115520000D02*
X80740000Y-115190000D01*
X80740000Y-117600000D02*
X80740000Y-117930000D01*
X80740000Y-117930000D02*
X74200000Y-117930000D01*
%TO.C,J2*%
X113030000Y-38100000D02*
X113030000Y-48260000D01*
X113030000Y-48260000D02*
X120650000Y-48260000D01*
X114300000Y-48260000D02*
X114300000Y-38100000D01*
X120650000Y-38100000D02*
X113030000Y-38100000D01*
X120650000Y-48260000D02*
X120650000Y-38100000D01*
%TO.C,R6*%
X80740000Y-77850000D02*
X80740000Y-77520000D01*
X80740000Y-75110000D02*
X80740000Y-75440000D01*
X74200000Y-77850000D02*
X80740000Y-77850000D01*
X74200000Y-77520000D02*
X74200000Y-77850000D01*
X74200000Y-75440000D02*
X74200000Y-75110000D01*
X74200000Y-75110000D02*
X80740000Y-75110000D01*
%TO.C,C2*%
X48570000Y-95450000D02*
X53110000Y-95450000D01*
X48570000Y-95506000D02*
X48570000Y-95450000D01*
X53110000Y-97534000D02*
X53110000Y-97590000D01*
X53110000Y-97590000D02*
X48570000Y-97590000D01*
%TD*%
M02*
