%TF.GenerationSoftware,KiCad,Pcbnew,9.0.7*%
%TF.CreationDate,2026-02-12T14:15:23+00:00*%
%TF.ProjectId,VANDIMMER-8CH,56414e44-494d-44d4-9552-2d3843482e6b,rev?*%
%TF.SameCoordinates,Original*%
%TF.FileFunction,Legend,Top*%
%TF.FilePolarity,Positive*%
%FSLAX46Y46*%
G04 Gerber Fmt 4.6, Leading zero omitted, Abs format (unit mm)*
G04 Created by KiCad (PCBNEW 9.0.7) date 2026-02-12 14:15:23*
%MOMM*%
%LPD*%
G01*
G04 APERTURE LIST*
%ADD10C,0.150000*%
%ADD11C,0.100000*%
%ADD12C,0.120000*%
G04 APERTURE END LIST*
D10*
X61964649Y-92391246D02*
X61964649Y-93091246D01*
X61964649Y-93091246D02*
X61797982Y-93091246D01*
X61797982Y-93091246D02*
X61697982Y-93057913D01*
X61697982Y-93057913D02*
X61631316Y-92991246D01*
X61631316Y-92991246D02*
X61597982Y-92924580D01*
X61597982Y-92924580D02*
X61564649Y-92791246D01*
X61564649Y-92791246D02*
X61564649Y-92691246D01*
X61564649Y-92691246D02*
X61597982Y-92557913D01*
X61597982Y-92557913D02*
X61631316Y-92491246D01*
X61631316Y-92491246D02*
X61697982Y-92424580D01*
X61697982Y-92424580D02*
X61797982Y-92391246D01*
X61797982Y-92391246D02*
X61964649Y-92391246D01*
X61331316Y-93091246D02*
X60897982Y-93091246D01*
X60897982Y-93091246D02*
X61131316Y-92824580D01*
X61131316Y-92824580D02*
X61031316Y-92824580D01*
X61031316Y-92824580D02*
X60964649Y-92791246D01*
X60964649Y-92791246D02*
X60931316Y-92757913D01*
X60931316Y-92757913D02*
X60897982Y-92691246D01*
X60897982Y-92691246D02*
X60897982Y-92524580D01*
X60897982Y-92524580D02*
X60931316Y-92457913D01*
X60931316Y-92457913D02*
X60964649Y-92424580D01*
X60964649Y-92424580D02*
X61031316Y-92391246D01*
X61031316Y-92391246D02*
X61231316Y-92391246D01*
X61231316Y-92391246D02*
X61297982Y-92424580D01*
X61297982Y-92424580D02*
X61331316Y-92457913D01*
X60631315Y-93024580D02*
X60597982Y-93057913D01*
X60597982Y-93057913D02*
X60531315Y-93091246D01*
X60531315Y-93091246D02*
X60364649Y-93091246D01*
X60364649Y-93091246D02*
X60297982Y-93057913D01*
X60297982Y-93057913D02*
X60264649Y-93024580D01*
X60264649Y-93024580D02*
X60231315Y-92957913D01*
X60231315Y-92957913D02*
X60231315Y-92891246D01*
X60231315Y-92891246D02*
X60264649Y-92791246D01*
X60264649Y-92791246D02*
X60664649Y-92391246D01*
X60664649Y-92391246D02*
X60231315Y-92391246D01*
X42814819Y-112222857D02*
X42338628Y-112556190D01*
X42814819Y-112794285D02*
X41814819Y-112794285D01*
X41814819Y-112794285D02*
X41814819Y-112413333D01*
X41814819Y-112413333D02*
X41862438Y-112318095D01*
X41862438Y-112318095D02*
X41910057Y-112270476D01*
X41910057Y-112270476D02*
X42005295Y-112222857D01*
X42005295Y-112222857D02*
X42148152Y-112222857D01*
X42148152Y-112222857D02*
X42243390Y-112270476D01*
X42243390Y-112270476D02*
X42291009Y-112318095D01*
X42291009Y-112318095D02*
X42338628Y-112413333D01*
X42338628Y-112413333D02*
X42338628Y-112794285D01*
X42814819Y-111270476D02*
X42814819Y-111841904D01*
X42814819Y-111556190D02*
X41814819Y-111556190D01*
X41814819Y-111556190D02*
X41957676Y-111651428D01*
X41957676Y-111651428D02*
X42052914Y-111746666D01*
X42052914Y-111746666D02*
X42100533Y-111841904D01*
X42243390Y-110699047D02*
X42195771Y-110794285D01*
X42195771Y-110794285D02*
X42148152Y-110841904D01*
X42148152Y-110841904D02*
X42052914Y-110889523D01*
X42052914Y-110889523D02*
X42005295Y-110889523D01*
X42005295Y-110889523D02*
X41910057Y-110841904D01*
X41910057Y-110841904D02*
X41862438Y-110794285D01*
X41862438Y-110794285D02*
X41814819Y-110699047D01*
X41814819Y-110699047D02*
X41814819Y-110508571D01*
X41814819Y-110508571D02*
X41862438Y-110413333D01*
X41862438Y-110413333D02*
X41910057Y-110365714D01*
X41910057Y-110365714D02*
X42005295Y-110318095D01*
X42005295Y-110318095D02*
X42052914Y-110318095D01*
X42052914Y-110318095D02*
X42148152Y-110365714D01*
X42148152Y-110365714D02*
X42195771Y-110413333D01*
X42195771Y-110413333D02*
X42243390Y-110508571D01*
X42243390Y-110508571D02*
X42243390Y-110699047D01*
X42243390Y-110699047D02*
X42291009Y-110794285D01*
X42291009Y-110794285D02*
X42338628Y-110841904D01*
X42338628Y-110841904D02*
X42433866Y-110889523D01*
X42433866Y-110889523D02*
X42624342Y-110889523D01*
X42624342Y-110889523D02*
X42719580Y-110841904D01*
X42719580Y-110841904D02*
X42767200Y-110794285D01*
X42767200Y-110794285D02*
X42814819Y-110699047D01*
X42814819Y-110699047D02*
X42814819Y-110508571D01*
X42814819Y-110508571D02*
X42767200Y-110413333D01*
X42767200Y-110413333D02*
X42719580Y-110365714D01*
X42719580Y-110365714D02*
X42624342Y-110318095D01*
X42624342Y-110318095D02*
X42433866Y-110318095D01*
X42433866Y-110318095D02*
X42338628Y-110365714D01*
X42338628Y-110365714D02*
X42291009Y-110413333D01*
X42291009Y-110413333D02*
X42243390Y-110508571D01*
X43890682Y-135406929D02*
X43843063Y-135454549D01*
X43843063Y-135454549D02*
X43700206Y-135502168D01*
X43700206Y-135502168D02*
X43604968Y-135502168D01*
X43604968Y-135502168D02*
X43462111Y-135454549D01*
X43462111Y-135454549D02*
X43366873Y-135359310D01*
X43366873Y-135359310D02*
X43319254Y-135264072D01*
X43319254Y-135264072D02*
X43271635Y-135073596D01*
X43271635Y-135073596D02*
X43271635Y-134930739D01*
X43271635Y-134930739D02*
X43319254Y-134740263D01*
X43319254Y-134740263D02*
X43366873Y-134645025D01*
X43366873Y-134645025D02*
X43462111Y-134549787D01*
X43462111Y-134549787D02*
X43604968Y-134502168D01*
X43604968Y-134502168D02*
X43700206Y-134502168D01*
X43700206Y-134502168D02*
X43843063Y-134549787D01*
X43843063Y-134549787D02*
X43890682Y-134597406D01*
X44747825Y-134835501D02*
X44747825Y-135502168D01*
X44509730Y-134454549D02*
X44271635Y-135168834D01*
X44271635Y-135168834D02*
X44890682Y-135168834D01*
X58293333Y-122809580D02*
X58245714Y-122857200D01*
X58245714Y-122857200D02*
X58102857Y-122904819D01*
X58102857Y-122904819D02*
X58007619Y-122904819D01*
X58007619Y-122904819D02*
X57864762Y-122857200D01*
X57864762Y-122857200D02*
X57769524Y-122761961D01*
X57769524Y-122761961D02*
X57721905Y-122666723D01*
X57721905Y-122666723D02*
X57674286Y-122476247D01*
X57674286Y-122476247D02*
X57674286Y-122333390D01*
X57674286Y-122333390D02*
X57721905Y-122142914D01*
X57721905Y-122142914D02*
X57769524Y-122047676D01*
X57769524Y-122047676D02*
X57864762Y-121952438D01*
X57864762Y-121952438D02*
X58007619Y-121904819D01*
X58007619Y-121904819D02*
X58102857Y-121904819D01*
X58102857Y-121904819D02*
X58245714Y-121952438D01*
X58245714Y-121952438D02*
X58293333Y-122000057D01*
X59245714Y-122904819D02*
X58674286Y-122904819D01*
X58960000Y-122904819D02*
X58960000Y-121904819D01*
X58960000Y-121904819D02*
X58864762Y-122047676D01*
X58864762Y-122047676D02*
X58769524Y-122142914D01*
X58769524Y-122142914D02*
X58674286Y-122190533D01*
X109860057Y-74035238D02*
X109812438Y-74130476D01*
X109812438Y-74130476D02*
X109717200Y-74225714D01*
X109717200Y-74225714D02*
X109574342Y-74368571D01*
X109574342Y-74368571D02*
X109526723Y-74463809D01*
X109526723Y-74463809D02*
X109526723Y-74559047D01*
X109764819Y-74511428D02*
X109717200Y-74606666D01*
X109717200Y-74606666D02*
X109621961Y-74701904D01*
X109621961Y-74701904D02*
X109431485Y-74749523D01*
X109431485Y-74749523D02*
X109098152Y-74749523D01*
X109098152Y-74749523D02*
X108907676Y-74701904D01*
X108907676Y-74701904D02*
X108812438Y-74606666D01*
X108812438Y-74606666D02*
X108764819Y-74511428D01*
X108764819Y-74511428D02*
X108764819Y-74320952D01*
X108764819Y-74320952D02*
X108812438Y-74225714D01*
X108812438Y-74225714D02*
X108907676Y-74130476D01*
X108907676Y-74130476D02*
X109098152Y-74082857D01*
X109098152Y-74082857D02*
X109431485Y-74082857D01*
X109431485Y-74082857D02*
X109621961Y-74130476D01*
X109621961Y-74130476D02*
X109717200Y-74225714D01*
X109717200Y-74225714D02*
X109764819Y-74320952D01*
X109764819Y-74320952D02*
X109764819Y-74511428D01*
X108764819Y-73749523D02*
X108764819Y-73130476D01*
X108764819Y-73130476D02*
X109145771Y-73463809D01*
X109145771Y-73463809D02*
X109145771Y-73320952D01*
X109145771Y-73320952D02*
X109193390Y-73225714D01*
X109193390Y-73225714D02*
X109241009Y-73178095D01*
X109241009Y-73178095D02*
X109336247Y-73130476D01*
X109336247Y-73130476D02*
X109574342Y-73130476D01*
X109574342Y-73130476D02*
X109669580Y-73178095D01*
X109669580Y-73178095D02*
X109717200Y-73225714D01*
X109717200Y-73225714D02*
X109764819Y-73320952D01*
X109764819Y-73320952D02*
X109764819Y-73606666D01*
X109764819Y-73606666D02*
X109717200Y-73701904D01*
X109717200Y-73701904D02*
X109669580Y-73749523D01*
X46180476Y-104704819D02*
X46180476Y-105419104D01*
X46180476Y-105419104D02*
X46132857Y-105561961D01*
X46132857Y-105561961D02*
X46037619Y-105657200D01*
X46037619Y-105657200D02*
X45894762Y-105704819D01*
X45894762Y-105704819D02*
X45799524Y-105704819D01*
X47180476Y-105704819D02*
X46609048Y-105704819D01*
X46894762Y-105704819D02*
X46894762Y-104704819D01*
X46894762Y-104704819D02*
X46799524Y-104847676D01*
X46799524Y-104847676D02*
X46704286Y-104942914D01*
X46704286Y-104942914D02*
X46609048Y-104990533D01*
X47799524Y-104704819D02*
X47894762Y-104704819D01*
X47894762Y-104704819D02*
X47990000Y-104752438D01*
X47990000Y-104752438D02*
X48037619Y-104800057D01*
X48037619Y-104800057D02*
X48085238Y-104895295D01*
X48085238Y-104895295D02*
X48132857Y-105085771D01*
X48132857Y-105085771D02*
X48132857Y-105323866D01*
X48132857Y-105323866D02*
X48085238Y-105514342D01*
X48085238Y-105514342D02*
X48037619Y-105609580D01*
X48037619Y-105609580D02*
X47990000Y-105657200D01*
X47990000Y-105657200D02*
X47894762Y-105704819D01*
X47894762Y-105704819D02*
X47799524Y-105704819D01*
X47799524Y-105704819D02*
X47704286Y-105657200D01*
X47704286Y-105657200D02*
X47656667Y-105609580D01*
X47656667Y-105609580D02*
X47609048Y-105514342D01*
X47609048Y-105514342D02*
X47561429Y-105323866D01*
X47561429Y-105323866D02*
X47561429Y-105085771D01*
X47561429Y-105085771D02*
X47609048Y-104895295D01*
X47609048Y-104895295D02*
X47656667Y-104800057D01*
X47656667Y-104800057D02*
X47704286Y-104752438D01*
X47704286Y-104752438D02*
X47799524Y-104704819D01*
X120514819Y-148923333D02*
X121229104Y-148923333D01*
X121229104Y-148923333D02*
X121371961Y-148970952D01*
X121371961Y-148970952D02*
X121467200Y-149066190D01*
X121467200Y-149066190D02*
X121514819Y-149209047D01*
X121514819Y-149209047D02*
X121514819Y-149304285D01*
X121514819Y-148399523D02*
X121514819Y-148209047D01*
X121514819Y-148209047D02*
X121467200Y-148113809D01*
X121467200Y-148113809D02*
X121419580Y-148066190D01*
X121419580Y-148066190D02*
X121276723Y-147970952D01*
X121276723Y-147970952D02*
X121086247Y-147923333D01*
X121086247Y-147923333D02*
X120705295Y-147923333D01*
X120705295Y-147923333D02*
X120610057Y-147970952D01*
X120610057Y-147970952D02*
X120562438Y-148018571D01*
X120562438Y-148018571D02*
X120514819Y-148113809D01*
X120514819Y-148113809D02*
X120514819Y-148304285D01*
X120514819Y-148304285D02*
X120562438Y-148399523D01*
X120562438Y-148399523D02*
X120610057Y-148447142D01*
X120610057Y-148447142D02*
X120705295Y-148494761D01*
X120705295Y-148494761D02*
X120943390Y-148494761D01*
X120943390Y-148494761D02*
X121038628Y-148447142D01*
X121038628Y-148447142D02*
X121086247Y-148399523D01*
X121086247Y-148399523D02*
X121133866Y-148304285D01*
X121133866Y-148304285D02*
X121133866Y-148113809D01*
X121133866Y-148113809D02*
X121086247Y-148018571D01*
X121086247Y-148018571D02*
X121038628Y-147970952D01*
X121038628Y-147970952D02*
X120943390Y-147923333D01*
X77303333Y-104424819D02*
X76970000Y-103948628D01*
X76731905Y-104424819D02*
X76731905Y-103424819D01*
X76731905Y-103424819D02*
X77112857Y-103424819D01*
X77112857Y-103424819D02*
X77208095Y-103472438D01*
X77208095Y-103472438D02*
X77255714Y-103520057D01*
X77255714Y-103520057D02*
X77303333Y-103615295D01*
X77303333Y-103615295D02*
X77303333Y-103758152D01*
X77303333Y-103758152D02*
X77255714Y-103853390D01*
X77255714Y-103853390D02*
X77208095Y-103901009D01*
X77208095Y-103901009D02*
X77112857Y-103948628D01*
X77112857Y-103948628D02*
X76731905Y-103948628D01*
X77779524Y-104424819D02*
X77970000Y-104424819D01*
X77970000Y-104424819D02*
X78065238Y-104377200D01*
X78065238Y-104377200D02*
X78112857Y-104329580D01*
X78112857Y-104329580D02*
X78208095Y-104186723D01*
X78208095Y-104186723D02*
X78255714Y-103996247D01*
X78255714Y-103996247D02*
X78255714Y-103615295D01*
X78255714Y-103615295D02*
X78208095Y-103520057D01*
X78208095Y-103520057D02*
X78160476Y-103472438D01*
X78160476Y-103472438D02*
X78065238Y-103424819D01*
X78065238Y-103424819D02*
X77874762Y-103424819D01*
X77874762Y-103424819D02*
X77779524Y-103472438D01*
X77779524Y-103472438D02*
X77731905Y-103520057D01*
X77731905Y-103520057D02*
X77684286Y-103615295D01*
X77684286Y-103615295D02*
X77684286Y-103853390D01*
X77684286Y-103853390D02*
X77731905Y-103948628D01*
X77731905Y-103948628D02*
X77779524Y-103996247D01*
X77779524Y-103996247D02*
X77874762Y-104043866D01*
X77874762Y-104043866D02*
X78065238Y-104043866D01*
X78065238Y-104043866D02*
X78160476Y-103996247D01*
X78160476Y-103996247D02*
X78208095Y-103948628D01*
X78208095Y-103948628D02*
X78255714Y-103853390D01*
X109860057Y-134715238D02*
X109812438Y-134810476D01*
X109812438Y-134810476D02*
X109717200Y-134905714D01*
X109717200Y-134905714D02*
X109574342Y-135048571D01*
X109574342Y-135048571D02*
X109526723Y-135143809D01*
X109526723Y-135143809D02*
X109526723Y-135239047D01*
X109764819Y-135191428D02*
X109717200Y-135286666D01*
X109717200Y-135286666D02*
X109621961Y-135381904D01*
X109621961Y-135381904D02*
X109431485Y-135429523D01*
X109431485Y-135429523D02*
X109098152Y-135429523D01*
X109098152Y-135429523D02*
X108907676Y-135381904D01*
X108907676Y-135381904D02*
X108812438Y-135286666D01*
X108812438Y-135286666D02*
X108764819Y-135191428D01*
X108764819Y-135191428D02*
X108764819Y-135000952D01*
X108764819Y-135000952D02*
X108812438Y-134905714D01*
X108812438Y-134905714D02*
X108907676Y-134810476D01*
X108907676Y-134810476D02*
X109098152Y-134762857D01*
X109098152Y-134762857D02*
X109431485Y-134762857D01*
X109431485Y-134762857D02*
X109621961Y-134810476D01*
X109621961Y-134810476D02*
X109717200Y-134905714D01*
X109717200Y-134905714D02*
X109764819Y-135000952D01*
X109764819Y-135000952D02*
X109764819Y-135191428D01*
X108764819Y-134429523D02*
X108764819Y-133762857D01*
X108764819Y-133762857D02*
X109764819Y-134191428D01*
X77303333Y-89464819D02*
X76970000Y-88988628D01*
X76731905Y-89464819D02*
X76731905Y-88464819D01*
X76731905Y-88464819D02*
X77112857Y-88464819D01*
X77112857Y-88464819D02*
X77208095Y-88512438D01*
X77208095Y-88512438D02*
X77255714Y-88560057D01*
X77255714Y-88560057D02*
X77303333Y-88655295D01*
X77303333Y-88655295D02*
X77303333Y-88798152D01*
X77303333Y-88798152D02*
X77255714Y-88893390D01*
X77255714Y-88893390D02*
X77208095Y-88941009D01*
X77208095Y-88941009D02*
X77112857Y-88988628D01*
X77112857Y-88988628D02*
X76731905Y-88988628D01*
X77636667Y-88464819D02*
X78303333Y-88464819D01*
X78303333Y-88464819D02*
X77874762Y-89464819D01*
X77303333Y-43464819D02*
X76970000Y-42988628D01*
X76731905Y-43464819D02*
X76731905Y-42464819D01*
X76731905Y-42464819D02*
X77112857Y-42464819D01*
X77112857Y-42464819D02*
X77208095Y-42512438D01*
X77208095Y-42512438D02*
X77255714Y-42560057D01*
X77255714Y-42560057D02*
X77303333Y-42655295D01*
X77303333Y-42655295D02*
X77303333Y-42798152D01*
X77303333Y-42798152D02*
X77255714Y-42893390D01*
X77255714Y-42893390D02*
X77208095Y-42941009D01*
X77208095Y-42941009D02*
X77112857Y-42988628D01*
X77112857Y-42988628D02*
X76731905Y-42988628D01*
X78255714Y-43464819D02*
X77684286Y-43464819D01*
X77970000Y-43464819D02*
X77970000Y-42464819D01*
X77970000Y-42464819D02*
X77874762Y-42607676D01*
X77874762Y-42607676D02*
X77779524Y-42702914D01*
X77779524Y-42702914D02*
X77684286Y-42750533D01*
X77303333Y-58704819D02*
X76970000Y-58228628D01*
X76731905Y-58704819D02*
X76731905Y-57704819D01*
X76731905Y-57704819D02*
X77112857Y-57704819D01*
X77112857Y-57704819D02*
X77208095Y-57752438D01*
X77208095Y-57752438D02*
X77255714Y-57800057D01*
X77255714Y-57800057D02*
X77303333Y-57895295D01*
X77303333Y-57895295D02*
X77303333Y-58038152D01*
X77303333Y-58038152D02*
X77255714Y-58133390D01*
X77255714Y-58133390D02*
X77208095Y-58181009D01*
X77208095Y-58181009D02*
X77112857Y-58228628D01*
X77112857Y-58228628D02*
X76731905Y-58228628D01*
X77636667Y-57704819D02*
X78255714Y-57704819D01*
X78255714Y-57704819D02*
X77922381Y-58085771D01*
X77922381Y-58085771D02*
X78065238Y-58085771D01*
X78065238Y-58085771D02*
X78160476Y-58133390D01*
X78160476Y-58133390D02*
X78208095Y-58181009D01*
X78208095Y-58181009D02*
X78255714Y-58276247D01*
X78255714Y-58276247D02*
X78255714Y-58514342D01*
X78255714Y-58514342D02*
X78208095Y-58609580D01*
X78208095Y-58609580D02*
X78160476Y-58657200D01*
X78160476Y-58657200D02*
X78065238Y-58704819D01*
X78065238Y-58704819D02*
X77779524Y-58704819D01*
X77779524Y-58704819D02*
X77684286Y-58657200D01*
X77684286Y-58657200D02*
X77636667Y-58609580D01*
X76827142Y-147384819D02*
X76493809Y-146908628D01*
X76255714Y-147384819D02*
X76255714Y-146384819D01*
X76255714Y-146384819D02*
X76636666Y-146384819D01*
X76636666Y-146384819D02*
X76731904Y-146432438D01*
X76731904Y-146432438D02*
X76779523Y-146480057D01*
X76779523Y-146480057D02*
X76827142Y-146575295D01*
X76827142Y-146575295D02*
X76827142Y-146718152D01*
X76827142Y-146718152D02*
X76779523Y-146813390D01*
X76779523Y-146813390D02*
X76731904Y-146861009D01*
X76731904Y-146861009D02*
X76636666Y-146908628D01*
X76636666Y-146908628D02*
X76255714Y-146908628D01*
X77779523Y-147384819D02*
X77208095Y-147384819D01*
X77493809Y-147384819D02*
X77493809Y-146384819D01*
X77493809Y-146384819D02*
X77398571Y-146527676D01*
X77398571Y-146527676D02*
X77303333Y-146622914D01*
X77303333Y-146622914D02*
X77208095Y-146670533D01*
X78636666Y-146384819D02*
X78446190Y-146384819D01*
X78446190Y-146384819D02*
X78350952Y-146432438D01*
X78350952Y-146432438D02*
X78303333Y-146480057D01*
X78303333Y-146480057D02*
X78208095Y-146622914D01*
X78208095Y-146622914D02*
X78160476Y-146813390D01*
X78160476Y-146813390D02*
X78160476Y-147194342D01*
X78160476Y-147194342D02*
X78208095Y-147289580D01*
X78208095Y-147289580D02*
X78255714Y-147337200D01*
X78255714Y-147337200D02*
X78350952Y-147384819D01*
X78350952Y-147384819D02*
X78541428Y-147384819D01*
X78541428Y-147384819D02*
X78636666Y-147337200D01*
X78636666Y-147337200D02*
X78684285Y-147289580D01*
X78684285Y-147289580D02*
X78731904Y-147194342D01*
X78731904Y-147194342D02*
X78731904Y-146956247D01*
X78731904Y-146956247D02*
X78684285Y-146861009D01*
X78684285Y-146861009D02*
X78636666Y-146813390D01*
X78636666Y-146813390D02*
X78541428Y-146765771D01*
X78541428Y-146765771D02*
X78350952Y-146765771D01*
X78350952Y-146765771D02*
X78255714Y-146813390D01*
X78255714Y-146813390D02*
X78208095Y-146861009D01*
X78208095Y-146861009D02*
X78160476Y-146956247D01*
X49814819Y-112402857D02*
X49338628Y-112736190D01*
X49814819Y-112974285D02*
X48814819Y-112974285D01*
X48814819Y-112974285D02*
X48814819Y-112593333D01*
X48814819Y-112593333D02*
X48862438Y-112498095D01*
X48862438Y-112498095D02*
X48910057Y-112450476D01*
X48910057Y-112450476D02*
X49005295Y-112402857D01*
X49005295Y-112402857D02*
X49148152Y-112402857D01*
X49148152Y-112402857D02*
X49243390Y-112450476D01*
X49243390Y-112450476D02*
X49291009Y-112498095D01*
X49291009Y-112498095D02*
X49338628Y-112593333D01*
X49338628Y-112593333D02*
X49338628Y-112974285D01*
X49814819Y-111450476D02*
X49814819Y-112021904D01*
X49814819Y-111736190D02*
X48814819Y-111736190D01*
X48814819Y-111736190D02*
X48957676Y-111831428D01*
X48957676Y-111831428D02*
X49052914Y-111926666D01*
X49052914Y-111926666D02*
X49100533Y-112021904D01*
X48814819Y-111117142D02*
X48814819Y-110450476D01*
X48814819Y-110450476D02*
X49814819Y-110879047D01*
X109860057Y-58515238D02*
X109812438Y-58610476D01*
X109812438Y-58610476D02*
X109717200Y-58705714D01*
X109717200Y-58705714D02*
X109574342Y-58848571D01*
X109574342Y-58848571D02*
X109526723Y-58943809D01*
X109526723Y-58943809D02*
X109526723Y-59039047D01*
X109764819Y-58991428D02*
X109717200Y-59086666D01*
X109717200Y-59086666D02*
X109621961Y-59181904D01*
X109621961Y-59181904D02*
X109431485Y-59229523D01*
X109431485Y-59229523D02*
X109098152Y-59229523D01*
X109098152Y-59229523D02*
X108907676Y-59181904D01*
X108907676Y-59181904D02*
X108812438Y-59086666D01*
X108812438Y-59086666D02*
X108764819Y-58991428D01*
X108764819Y-58991428D02*
X108764819Y-58800952D01*
X108764819Y-58800952D02*
X108812438Y-58705714D01*
X108812438Y-58705714D02*
X108907676Y-58610476D01*
X108907676Y-58610476D02*
X109098152Y-58562857D01*
X109098152Y-58562857D02*
X109431485Y-58562857D01*
X109431485Y-58562857D02*
X109621961Y-58610476D01*
X109621961Y-58610476D02*
X109717200Y-58705714D01*
X109717200Y-58705714D02*
X109764819Y-58800952D01*
X109764819Y-58800952D02*
X109764819Y-58991428D01*
X108860057Y-58181904D02*
X108812438Y-58134285D01*
X108812438Y-58134285D02*
X108764819Y-58039047D01*
X108764819Y-58039047D02*
X108764819Y-57800952D01*
X108764819Y-57800952D02*
X108812438Y-57705714D01*
X108812438Y-57705714D02*
X108860057Y-57658095D01*
X108860057Y-57658095D02*
X108955295Y-57610476D01*
X108955295Y-57610476D02*
X109050533Y-57610476D01*
X109050533Y-57610476D02*
X109193390Y-57658095D01*
X109193390Y-57658095D02*
X109764819Y-58229523D01*
X109764819Y-58229523D02*
X109764819Y-57610476D01*
X57658095Y-150524819D02*
X57658095Y-151334342D01*
X57658095Y-151334342D02*
X57705714Y-151429580D01*
X57705714Y-151429580D02*
X57753333Y-151477200D01*
X57753333Y-151477200D02*
X57848571Y-151524819D01*
X57848571Y-151524819D02*
X58039047Y-151524819D01*
X58039047Y-151524819D02*
X58134285Y-151477200D01*
X58134285Y-151477200D02*
X58181904Y-151429580D01*
X58181904Y-151429580D02*
X58229523Y-151334342D01*
X58229523Y-151334342D02*
X58229523Y-150524819D01*
X59229523Y-151524819D02*
X58658095Y-151524819D01*
X58943809Y-151524819D02*
X58943809Y-150524819D01*
X58943809Y-150524819D02*
X58848571Y-150667676D01*
X58848571Y-150667676D02*
X58753333Y-150762914D01*
X58753333Y-150762914D02*
X58658095Y-150810533D01*
X120514819Y-88243333D02*
X121229104Y-88243333D01*
X121229104Y-88243333D02*
X121371961Y-88290952D01*
X121371961Y-88290952D02*
X121467200Y-88386190D01*
X121467200Y-88386190D02*
X121514819Y-88529047D01*
X121514819Y-88529047D02*
X121514819Y-88624285D01*
X120514819Y-87290952D02*
X120514819Y-87767142D01*
X120514819Y-87767142D02*
X120991009Y-87814761D01*
X120991009Y-87814761D02*
X120943390Y-87767142D01*
X120943390Y-87767142D02*
X120895771Y-87671904D01*
X120895771Y-87671904D02*
X120895771Y-87433809D01*
X120895771Y-87433809D02*
X120943390Y-87338571D01*
X120943390Y-87338571D02*
X120991009Y-87290952D01*
X120991009Y-87290952D02*
X121086247Y-87243333D01*
X121086247Y-87243333D02*
X121324342Y-87243333D01*
X121324342Y-87243333D02*
X121419580Y-87290952D01*
X121419580Y-87290952D02*
X121467200Y-87338571D01*
X121467200Y-87338571D02*
X121514819Y-87433809D01*
X121514819Y-87433809D02*
X121514819Y-87671904D01*
X121514819Y-87671904D02*
X121467200Y-87767142D01*
X121467200Y-87767142D02*
X121419580Y-87814761D01*
X77303333Y-43804819D02*
X76970000Y-43328628D01*
X76731905Y-43804819D02*
X76731905Y-42804819D01*
X76731905Y-42804819D02*
X77112857Y-42804819D01*
X77112857Y-42804819D02*
X77208095Y-42852438D01*
X77208095Y-42852438D02*
X77255714Y-42900057D01*
X77255714Y-42900057D02*
X77303333Y-42995295D01*
X77303333Y-42995295D02*
X77303333Y-43138152D01*
X77303333Y-43138152D02*
X77255714Y-43233390D01*
X77255714Y-43233390D02*
X77208095Y-43281009D01*
X77208095Y-43281009D02*
X77112857Y-43328628D01*
X77112857Y-43328628D02*
X76731905Y-43328628D01*
X77684286Y-42900057D02*
X77731905Y-42852438D01*
X77731905Y-42852438D02*
X77827143Y-42804819D01*
X77827143Y-42804819D02*
X78065238Y-42804819D01*
X78065238Y-42804819D02*
X78160476Y-42852438D01*
X78160476Y-42852438D02*
X78208095Y-42900057D01*
X78208095Y-42900057D02*
X78255714Y-42995295D01*
X78255714Y-42995295D02*
X78255714Y-43090533D01*
X78255714Y-43090533D02*
X78208095Y-43233390D01*
X78208095Y-43233390D02*
X77636667Y-43804819D01*
X77636667Y-43804819D02*
X78255714Y-43804819D01*
X120514819Y-103203333D02*
X121229104Y-103203333D01*
X121229104Y-103203333D02*
X121371961Y-103250952D01*
X121371961Y-103250952D02*
X121467200Y-103346190D01*
X121467200Y-103346190D02*
X121514819Y-103489047D01*
X121514819Y-103489047D02*
X121514819Y-103584285D01*
X120514819Y-102298571D02*
X120514819Y-102489047D01*
X120514819Y-102489047D02*
X120562438Y-102584285D01*
X120562438Y-102584285D02*
X120610057Y-102631904D01*
X120610057Y-102631904D02*
X120752914Y-102727142D01*
X120752914Y-102727142D02*
X120943390Y-102774761D01*
X120943390Y-102774761D02*
X121324342Y-102774761D01*
X121324342Y-102774761D02*
X121419580Y-102727142D01*
X121419580Y-102727142D02*
X121467200Y-102679523D01*
X121467200Y-102679523D02*
X121514819Y-102584285D01*
X121514819Y-102584285D02*
X121514819Y-102393809D01*
X121514819Y-102393809D02*
X121467200Y-102298571D01*
X121467200Y-102298571D02*
X121419580Y-102250952D01*
X121419580Y-102250952D02*
X121324342Y-102203333D01*
X121324342Y-102203333D02*
X121086247Y-102203333D01*
X121086247Y-102203333D02*
X120991009Y-102250952D01*
X120991009Y-102250952D02*
X120943390Y-102298571D01*
X120943390Y-102298571D02*
X120895771Y-102393809D01*
X120895771Y-102393809D02*
X120895771Y-102584285D01*
X120895771Y-102584285D02*
X120943390Y-102679523D01*
X120943390Y-102679523D02*
X120991009Y-102727142D01*
X120991009Y-102727142D02*
X121086247Y-102774761D01*
X77303333Y-58874819D02*
X76970000Y-58398628D01*
X76731905Y-58874819D02*
X76731905Y-57874819D01*
X76731905Y-57874819D02*
X77112857Y-57874819D01*
X77112857Y-57874819D02*
X77208095Y-57922438D01*
X77208095Y-57922438D02*
X77255714Y-57970057D01*
X77255714Y-57970057D02*
X77303333Y-58065295D01*
X77303333Y-58065295D02*
X77303333Y-58208152D01*
X77303333Y-58208152D02*
X77255714Y-58303390D01*
X77255714Y-58303390D02*
X77208095Y-58351009D01*
X77208095Y-58351009D02*
X77112857Y-58398628D01*
X77112857Y-58398628D02*
X76731905Y-58398628D01*
X78160476Y-58208152D02*
X78160476Y-58874819D01*
X77922381Y-57827200D02*
X77684286Y-58541485D01*
X77684286Y-58541485D02*
X78303333Y-58541485D01*
X120514819Y-73003333D02*
X121229104Y-73003333D01*
X121229104Y-73003333D02*
X121371961Y-73050952D01*
X121371961Y-73050952D02*
X121467200Y-73146190D01*
X121467200Y-73146190D02*
X121514819Y-73289047D01*
X121514819Y-73289047D02*
X121514819Y-73384285D01*
X120848152Y-72098571D02*
X121514819Y-72098571D01*
X120467200Y-72336666D02*
X121181485Y-72574761D01*
X121181485Y-72574761D02*
X121181485Y-71955714D01*
X76827142Y-135244819D02*
X76493809Y-134768628D01*
X76255714Y-135244819D02*
X76255714Y-134244819D01*
X76255714Y-134244819D02*
X76636666Y-134244819D01*
X76636666Y-134244819D02*
X76731904Y-134292438D01*
X76731904Y-134292438D02*
X76779523Y-134340057D01*
X76779523Y-134340057D02*
X76827142Y-134435295D01*
X76827142Y-134435295D02*
X76827142Y-134578152D01*
X76827142Y-134578152D02*
X76779523Y-134673390D01*
X76779523Y-134673390D02*
X76731904Y-134721009D01*
X76731904Y-134721009D02*
X76636666Y-134768628D01*
X76636666Y-134768628D02*
X76255714Y-134768628D01*
X77779523Y-135244819D02*
X77208095Y-135244819D01*
X77493809Y-135244819D02*
X77493809Y-134244819D01*
X77493809Y-134244819D02*
X77398571Y-134387676D01*
X77398571Y-134387676D02*
X77303333Y-134482914D01*
X77303333Y-134482914D02*
X77208095Y-134530533D01*
X78636666Y-134578152D02*
X78636666Y-135244819D01*
X78398571Y-134197200D02*
X78160476Y-134911485D01*
X78160476Y-134911485D02*
X78779523Y-134911485D01*
X77303333Y-74224819D02*
X76970000Y-73748628D01*
X76731905Y-74224819D02*
X76731905Y-73224819D01*
X76731905Y-73224819D02*
X77112857Y-73224819D01*
X77112857Y-73224819D02*
X77208095Y-73272438D01*
X77208095Y-73272438D02*
X77255714Y-73320057D01*
X77255714Y-73320057D02*
X77303333Y-73415295D01*
X77303333Y-73415295D02*
X77303333Y-73558152D01*
X77303333Y-73558152D02*
X77255714Y-73653390D01*
X77255714Y-73653390D02*
X77208095Y-73701009D01*
X77208095Y-73701009D02*
X77112857Y-73748628D01*
X77112857Y-73748628D02*
X76731905Y-73748628D01*
X78208095Y-73224819D02*
X77731905Y-73224819D01*
X77731905Y-73224819D02*
X77684286Y-73701009D01*
X77684286Y-73701009D02*
X77731905Y-73653390D01*
X77731905Y-73653390D02*
X77827143Y-73605771D01*
X77827143Y-73605771D02*
X78065238Y-73605771D01*
X78065238Y-73605771D02*
X78160476Y-73653390D01*
X78160476Y-73653390D02*
X78208095Y-73701009D01*
X78208095Y-73701009D02*
X78255714Y-73796247D01*
X78255714Y-73796247D02*
X78255714Y-74034342D01*
X78255714Y-74034342D02*
X78208095Y-74129580D01*
X78208095Y-74129580D02*
X78160476Y-74177200D01*
X78160476Y-74177200D02*
X78065238Y-74224819D01*
X78065238Y-74224819D02*
X77827143Y-74224819D01*
X77827143Y-74224819D02*
X77731905Y-74177200D01*
X77731905Y-74177200D02*
X77684286Y-74129580D01*
X76827142Y-104764819D02*
X76493809Y-104288628D01*
X76255714Y-104764819D02*
X76255714Y-103764819D01*
X76255714Y-103764819D02*
X76636666Y-103764819D01*
X76636666Y-103764819D02*
X76731904Y-103812438D01*
X76731904Y-103812438D02*
X76779523Y-103860057D01*
X76779523Y-103860057D02*
X76827142Y-103955295D01*
X76827142Y-103955295D02*
X76827142Y-104098152D01*
X76827142Y-104098152D02*
X76779523Y-104193390D01*
X76779523Y-104193390D02*
X76731904Y-104241009D01*
X76731904Y-104241009D02*
X76636666Y-104288628D01*
X76636666Y-104288628D02*
X76255714Y-104288628D01*
X77779523Y-104764819D02*
X77208095Y-104764819D01*
X77493809Y-104764819D02*
X77493809Y-103764819D01*
X77493809Y-103764819D02*
X77398571Y-103907676D01*
X77398571Y-103907676D02*
X77303333Y-104002914D01*
X77303333Y-104002914D02*
X77208095Y-104050533D01*
X78398571Y-103764819D02*
X78493809Y-103764819D01*
X78493809Y-103764819D02*
X78589047Y-103812438D01*
X78589047Y-103812438D02*
X78636666Y-103860057D01*
X78636666Y-103860057D02*
X78684285Y-103955295D01*
X78684285Y-103955295D02*
X78731904Y-104145771D01*
X78731904Y-104145771D02*
X78731904Y-104383866D01*
X78731904Y-104383866D02*
X78684285Y-104574342D01*
X78684285Y-104574342D02*
X78636666Y-104669580D01*
X78636666Y-104669580D02*
X78589047Y-104717200D01*
X78589047Y-104717200D02*
X78493809Y-104764819D01*
X78493809Y-104764819D02*
X78398571Y-104764819D01*
X78398571Y-104764819D02*
X78303333Y-104717200D01*
X78303333Y-104717200D02*
X78255714Y-104669580D01*
X78255714Y-104669580D02*
X78208095Y-104574342D01*
X78208095Y-104574342D02*
X78160476Y-104383866D01*
X78160476Y-104383866D02*
X78160476Y-104145771D01*
X78160476Y-104145771D02*
X78208095Y-103955295D01*
X78208095Y-103955295D02*
X78255714Y-103860057D01*
X78255714Y-103860057D02*
X78303333Y-103812438D01*
X78303333Y-103812438D02*
X78398571Y-103764819D01*
X76827142Y-150144819D02*
X76493809Y-149668628D01*
X76255714Y-150144819D02*
X76255714Y-149144819D01*
X76255714Y-149144819D02*
X76636666Y-149144819D01*
X76636666Y-149144819D02*
X76731904Y-149192438D01*
X76731904Y-149192438D02*
X76779523Y-149240057D01*
X76779523Y-149240057D02*
X76827142Y-149335295D01*
X76827142Y-149335295D02*
X76827142Y-149478152D01*
X76827142Y-149478152D02*
X76779523Y-149573390D01*
X76779523Y-149573390D02*
X76731904Y-149621009D01*
X76731904Y-149621009D02*
X76636666Y-149668628D01*
X76636666Y-149668628D02*
X76255714Y-149668628D01*
X77779523Y-150144819D02*
X77208095Y-150144819D01*
X77493809Y-150144819D02*
X77493809Y-149144819D01*
X77493809Y-149144819D02*
X77398571Y-149287676D01*
X77398571Y-149287676D02*
X77303333Y-149382914D01*
X77303333Y-149382914D02*
X77208095Y-149430533D01*
X78684285Y-149144819D02*
X78208095Y-149144819D01*
X78208095Y-149144819D02*
X78160476Y-149621009D01*
X78160476Y-149621009D02*
X78208095Y-149573390D01*
X78208095Y-149573390D02*
X78303333Y-149525771D01*
X78303333Y-149525771D02*
X78541428Y-149525771D01*
X78541428Y-149525771D02*
X78636666Y-149573390D01*
X78636666Y-149573390D02*
X78684285Y-149621009D01*
X78684285Y-149621009D02*
X78731904Y-149716247D01*
X78731904Y-149716247D02*
X78731904Y-149954342D01*
X78731904Y-149954342D02*
X78684285Y-150049580D01*
X78684285Y-150049580D02*
X78636666Y-150097200D01*
X78636666Y-150097200D02*
X78541428Y-150144819D01*
X78541428Y-150144819D02*
X78303333Y-150144819D01*
X78303333Y-150144819D02*
X78208095Y-150097200D01*
X78208095Y-150097200D02*
X78160476Y-150049580D01*
X109860057Y-147415238D02*
X109812438Y-147510476D01*
X109812438Y-147510476D02*
X109717200Y-147605714D01*
X109717200Y-147605714D02*
X109574342Y-147748571D01*
X109574342Y-147748571D02*
X109526723Y-147843809D01*
X109526723Y-147843809D02*
X109526723Y-147939047D01*
X109764819Y-147891428D02*
X109717200Y-147986666D01*
X109717200Y-147986666D02*
X109621961Y-148081904D01*
X109621961Y-148081904D02*
X109431485Y-148129523D01*
X109431485Y-148129523D02*
X109098152Y-148129523D01*
X109098152Y-148129523D02*
X108907676Y-148081904D01*
X108907676Y-148081904D02*
X108812438Y-147986666D01*
X108812438Y-147986666D02*
X108764819Y-147891428D01*
X108764819Y-147891428D02*
X108764819Y-147700952D01*
X108764819Y-147700952D02*
X108812438Y-147605714D01*
X108812438Y-147605714D02*
X108907676Y-147510476D01*
X108907676Y-147510476D02*
X109098152Y-147462857D01*
X109098152Y-147462857D02*
X109431485Y-147462857D01*
X109431485Y-147462857D02*
X109621961Y-147510476D01*
X109621961Y-147510476D02*
X109717200Y-147605714D01*
X109717200Y-147605714D02*
X109764819Y-147700952D01*
X109764819Y-147700952D02*
X109764819Y-147891428D01*
X109193390Y-146891428D02*
X109145771Y-146986666D01*
X109145771Y-146986666D02*
X109098152Y-147034285D01*
X109098152Y-147034285D02*
X109002914Y-147081904D01*
X109002914Y-147081904D02*
X108955295Y-147081904D01*
X108955295Y-147081904D02*
X108860057Y-147034285D01*
X108860057Y-147034285D02*
X108812438Y-146986666D01*
X108812438Y-146986666D02*
X108764819Y-146891428D01*
X108764819Y-146891428D02*
X108764819Y-146700952D01*
X108764819Y-146700952D02*
X108812438Y-146605714D01*
X108812438Y-146605714D02*
X108860057Y-146558095D01*
X108860057Y-146558095D02*
X108955295Y-146510476D01*
X108955295Y-146510476D02*
X109002914Y-146510476D01*
X109002914Y-146510476D02*
X109098152Y-146558095D01*
X109098152Y-146558095D02*
X109145771Y-146605714D01*
X109145771Y-146605714D02*
X109193390Y-146700952D01*
X109193390Y-146700952D02*
X109193390Y-146891428D01*
X109193390Y-146891428D02*
X109241009Y-146986666D01*
X109241009Y-146986666D02*
X109288628Y-147034285D01*
X109288628Y-147034285D02*
X109383866Y-147081904D01*
X109383866Y-147081904D02*
X109574342Y-147081904D01*
X109574342Y-147081904D02*
X109669580Y-147034285D01*
X109669580Y-147034285D02*
X109717200Y-146986666D01*
X109717200Y-146986666D02*
X109764819Y-146891428D01*
X109764819Y-146891428D02*
X109764819Y-146700952D01*
X109764819Y-146700952D02*
X109717200Y-146605714D01*
X109717200Y-146605714D02*
X109669580Y-146558095D01*
X109669580Y-146558095D02*
X109574342Y-146510476D01*
X109574342Y-146510476D02*
X109383866Y-146510476D01*
X109383866Y-146510476D02*
X109288628Y-146558095D01*
X109288628Y-146558095D02*
X109241009Y-146605714D01*
X109241009Y-146605714D02*
X109193390Y-146700952D01*
X120514819Y-133683333D02*
X121229104Y-133683333D01*
X121229104Y-133683333D02*
X121371961Y-133730952D01*
X121371961Y-133730952D02*
X121467200Y-133826190D01*
X121467200Y-133826190D02*
X121514819Y-133969047D01*
X121514819Y-133969047D02*
X121514819Y-134064285D01*
X120943390Y-133064285D02*
X120895771Y-133159523D01*
X120895771Y-133159523D02*
X120848152Y-133207142D01*
X120848152Y-133207142D02*
X120752914Y-133254761D01*
X120752914Y-133254761D02*
X120705295Y-133254761D01*
X120705295Y-133254761D02*
X120610057Y-133207142D01*
X120610057Y-133207142D02*
X120562438Y-133159523D01*
X120562438Y-133159523D02*
X120514819Y-133064285D01*
X120514819Y-133064285D02*
X120514819Y-132873809D01*
X120514819Y-132873809D02*
X120562438Y-132778571D01*
X120562438Y-132778571D02*
X120610057Y-132730952D01*
X120610057Y-132730952D02*
X120705295Y-132683333D01*
X120705295Y-132683333D02*
X120752914Y-132683333D01*
X120752914Y-132683333D02*
X120848152Y-132730952D01*
X120848152Y-132730952D02*
X120895771Y-132778571D01*
X120895771Y-132778571D02*
X120943390Y-132873809D01*
X120943390Y-132873809D02*
X120943390Y-133064285D01*
X120943390Y-133064285D02*
X120991009Y-133159523D01*
X120991009Y-133159523D02*
X121038628Y-133207142D01*
X121038628Y-133207142D02*
X121133866Y-133254761D01*
X121133866Y-133254761D02*
X121324342Y-133254761D01*
X121324342Y-133254761D02*
X121419580Y-133207142D01*
X121419580Y-133207142D02*
X121467200Y-133159523D01*
X121467200Y-133159523D02*
X121514819Y-133064285D01*
X121514819Y-133064285D02*
X121514819Y-132873809D01*
X121514819Y-132873809D02*
X121467200Y-132778571D01*
X121467200Y-132778571D02*
X121419580Y-132730952D01*
X121419580Y-132730952D02*
X121324342Y-132683333D01*
X121324342Y-132683333D02*
X121133866Y-132683333D01*
X121133866Y-132683333D02*
X121038628Y-132730952D01*
X121038628Y-132730952D02*
X120991009Y-132778571D01*
X120991009Y-132778571D02*
X120943390Y-132873809D01*
X109860057Y-104235238D02*
X109812438Y-104330476D01*
X109812438Y-104330476D02*
X109717200Y-104425714D01*
X109717200Y-104425714D02*
X109574342Y-104568571D01*
X109574342Y-104568571D02*
X109526723Y-104663809D01*
X109526723Y-104663809D02*
X109526723Y-104759047D01*
X109764819Y-104711428D02*
X109717200Y-104806666D01*
X109717200Y-104806666D02*
X109621961Y-104901904D01*
X109621961Y-104901904D02*
X109431485Y-104949523D01*
X109431485Y-104949523D02*
X109098152Y-104949523D01*
X109098152Y-104949523D02*
X108907676Y-104901904D01*
X108907676Y-104901904D02*
X108812438Y-104806666D01*
X108812438Y-104806666D02*
X108764819Y-104711428D01*
X108764819Y-104711428D02*
X108764819Y-104520952D01*
X108764819Y-104520952D02*
X108812438Y-104425714D01*
X108812438Y-104425714D02*
X108907676Y-104330476D01*
X108907676Y-104330476D02*
X109098152Y-104282857D01*
X109098152Y-104282857D02*
X109431485Y-104282857D01*
X109431485Y-104282857D02*
X109621961Y-104330476D01*
X109621961Y-104330476D02*
X109717200Y-104425714D01*
X109717200Y-104425714D02*
X109764819Y-104520952D01*
X109764819Y-104520952D02*
X109764819Y-104711428D01*
X108764819Y-103378095D02*
X108764819Y-103854285D01*
X108764819Y-103854285D02*
X109241009Y-103901904D01*
X109241009Y-103901904D02*
X109193390Y-103854285D01*
X109193390Y-103854285D02*
X109145771Y-103759047D01*
X109145771Y-103759047D02*
X109145771Y-103520952D01*
X109145771Y-103520952D02*
X109193390Y-103425714D01*
X109193390Y-103425714D02*
X109241009Y-103378095D01*
X109241009Y-103378095D02*
X109336247Y-103330476D01*
X109336247Y-103330476D02*
X109574342Y-103330476D01*
X109574342Y-103330476D02*
X109669580Y-103378095D01*
X109669580Y-103378095D02*
X109717200Y-103425714D01*
X109717200Y-103425714D02*
X109764819Y-103520952D01*
X109764819Y-103520952D02*
X109764819Y-103759047D01*
X109764819Y-103759047D02*
X109717200Y-103854285D01*
X109717200Y-103854285D02*
X109669580Y-103901904D01*
X39180476Y-104524819D02*
X39180476Y-105239104D01*
X39180476Y-105239104D02*
X39132857Y-105381961D01*
X39132857Y-105381961D02*
X39037619Y-105477200D01*
X39037619Y-105477200D02*
X38894762Y-105524819D01*
X38894762Y-105524819D02*
X38799524Y-105524819D01*
X40180476Y-105524819D02*
X39609048Y-105524819D01*
X39894762Y-105524819D02*
X39894762Y-104524819D01*
X39894762Y-104524819D02*
X39799524Y-104667676D01*
X39799524Y-104667676D02*
X39704286Y-104762914D01*
X39704286Y-104762914D02*
X39609048Y-104810533D01*
X41132857Y-105524819D02*
X40561429Y-105524819D01*
X40847143Y-105524819D02*
X40847143Y-104524819D01*
X40847143Y-104524819D02*
X40751905Y-104667676D01*
X40751905Y-104667676D02*
X40656667Y-104762914D01*
X40656667Y-104762914D02*
X40561429Y-104810533D01*
X109860057Y-43275238D02*
X109812438Y-43370476D01*
X109812438Y-43370476D02*
X109717200Y-43465714D01*
X109717200Y-43465714D02*
X109574342Y-43608571D01*
X109574342Y-43608571D02*
X109526723Y-43703809D01*
X109526723Y-43703809D02*
X109526723Y-43799047D01*
X109764819Y-43751428D02*
X109717200Y-43846666D01*
X109717200Y-43846666D02*
X109621961Y-43941904D01*
X109621961Y-43941904D02*
X109431485Y-43989523D01*
X109431485Y-43989523D02*
X109098152Y-43989523D01*
X109098152Y-43989523D02*
X108907676Y-43941904D01*
X108907676Y-43941904D02*
X108812438Y-43846666D01*
X108812438Y-43846666D02*
X108764819Y-43751428D01*
X108764819Y-43751428D02*
X108764819Y-43560952D01*
X108764819Y-43560952D02*
X108812438Y-43465714D01*
X108812438Y-43465714D02*
X108907676Y-43370476D01*
X108907676Y-43370476D02*
X109098152Y-43322857D01*
X109098152Y-43322857D02*
X109431485Y-43322857D01*
X109431485Y-43322857D02*
X109621961Y-43370476D01*
X109621961Y-43370476D02*
X109717200Y-43465714D01*
X109717200Y-43465714D02*
X109764819Y-43560952D01*
X109764819Y-43560952D02*
X109764819Y-43751428D01*
X109764819Y-42370476D02*
X109764819Y-42941904D01*
X109764819Y-42656190D02*
X108764819Y-42656190D01*
X108764819Y-42656190D02*
X108907676Y-42751428D01*
X108907676Y-42751428D02*
X109002914Y-42846666D01*
X109002914Y-42846666D02*
X109050533Y-42941904D01*
X77303333Y-89804819D02*
X76970000Y-89328628D01*
X76731905Y-89804819D02*
X76731905Y-88804819D01*
X76731905Y-88804819D02*
X77112857Y-88804819D01*
X77112857Y-88804819D02*
X77208095Y-88852438D01*
X77208095Y-88852438D02*
X77255714Y-88900057D01*
X77255714Y-88900057D02*
X77303333Y-88995295D01*
X77303333Y-88995295D02*
X77303333Y-89138152D01*
X77303333Y-89138152D02*
X77255714Y-89233390D01*
X77255714Y-89233390D02*
X77208095Y-89281009D01*
X77208095Y-89281009D02*
X77112857Y-89328628D01*
X77112857Y-89328628D02*
X76731905Y-89328628D01*
X77874762Y-89233390D02*
X77779524Y-89185771D01*
X77779524Y-89185771D02*
X77731905Y-89138152D01*
X77731905Y-89138152D02*
X77684286Y-89042914D01*
X77684286Y-89042914D02*
X77684286Y-88995295D01*
X77684286Y-88995295D02*
X77731905Y-88900057D01*
X77731905Y-88900057D02*
X77779524Y-88852438D01*
X77779524Y-88852438D02*
X77874762Y-88804819D01*
X77874762Y-88804819D02*
X78065238Y-88804819D01*
X78065238Y-88804819D02*
X78160476Y-88852438D01*
X78160476Y-88852438D02*
X78208095Y-88900057D01*
X78208095Y-88900057D02*
X78255714Y-88995295D01*
X78255714Y-88995295D02*
X78255714Y-89042914D01*
X78255714Y-89042914D02*
X78208095Y-89138152D01*
X78208095Y-89138152D02*
X78160476Y-89185771D01*
X78160476Y-89185771D02*
X78065238Y-89233390D01*
X78065238Y-89233390D02*
X77874762Y-89233390D01*
X77874762Y-89233390D02*
X77779524Y-89281009D01*
X77779524Y-89281009D02*
X77731905Y-89328628D01*
X77731905Y-89328628D02*
X77684286Y-89423866D01*
X77684286Y-89423866D02*
X77684286Y-89614342D01*
X77684286Y-89614342D02*
X77731905Y-89709580D01*
X77731905Y-89709580D02*
X77779524Y-89757200D01*
X77779524Y-89757200D02*
X77874762Y-89804819D01*
X77874762Y-89804819D02*
X78065238Y-89804819D01*
X78065238Y-89804819D02*
X78160476Y-89757200D01*
X78160476Y-89757200D02*
X78208095Y-89709580D01*
X78208095Y-89709580D02*
X78255714Y-89614342D01*
X78255714Y-89614342D02*
X78255714Y-89423866D01*
X78255714Y-89423866D02*
X78208095Y-89328628D01*
X78208095Y-89328628D02*
X78160476Y-89281009D01*
X78160476Y-89281009D02*
X78065238Y-89233390D01*
X120514819Y-118163333D02*
X121229104Y-118163333D01*
X121229104Y-118163333D02*
X121371961Y-118210952D01*
X121371961Y-118210952D02*
X121467200Y-118306190D01*
X121467200Y-118306190D02*
X121514819Y-118449047D01*
X121514819Y-118449047D02*
X121514819Y-118544285D01*
X120514819Y-117782380D02*
X120514819Y-117115714D01*
X120514819Y-117115714D02*
X121514819Y-117544285D01*
X37834819Y-154630682D02*
X38549104Y-154630682D01*
X38549104Y-154630682D02*
X38691961Y-154678301D01*
X38691961Y-154678301D02*
X38787200Y-154773539D01*
X38787200Y-154773539D02*
X38834819Y-154916396D01*
X38834819Y-154916396D02*
X38834819Y-155011634D01*
X38834819Y-153630682D02*
X38834819Y-154202110D01*
X38834819Y-153916396D02*
X37834819Y-153916396D01*
X37834819Y-153916396D02*
X37977676Y-154011634D01*
X37977676Y-154011634D02*
X38072914Y-154106872D01*
X38072914Y-154106872D02*
X38120533Y-154202110D01*
X76827142Y-119724819D02*
X76493809Y-119248628D01*
X76255714Y-119724819D02*
X76255714Y-118724819D01*
X76255714Y-118724819D02*
X76636666Y-118724819D01*
X76636666Y-118724819D02*
X76731904Y-118772438D01*
X76731904Y-118772438D02*
X76779523Y-118820057D01*
X76779523Y-118820057D02*
X76827142Y-118915295D01*
X76827142Y-118915295D02*
X76827142Y-119058152D01*
X76827142Y-119058152D02*
X76779523Y-119153390D01*
X76779523Y-119153390D02*
X76731904Y-119201009D01*
X76731904Y-119201009D02*
X76636666Y-119248628D01*
X76636666Y-119248628D02*
X76255714Y-119248628D01*
X77779523Y-119724819D02*
X77208095Y-119724819D01*
X77493809Y-119724819D02*
X77493809Y-118724819D01*
X77493809Y-118724819D02*
X77398571Y-118867676D01*
X77398571Y-118867676D02*
X77303333Y-118962914D01*
X77303333Y-118962914D02*
X77208095Y-119010533D01*
X78160476Y-118820057D02*
X78208095Y-118772438D01*
X78208095Y-118772438D02*
X78303333Y-118724819D01*
X78303333Y-118724819D02*
X78541428Y-118724819D01*
X78541428Y-118724819D02*
X78636666Y-118772438D01*
X78636666Y-118772438D02*
X78684285Y-118820057D01*
X78684285Y-118820057D02*
X78731904Y-118915295D01*
X78731904Y-118915295D02*
X78731904Y-119010533D01*
X78731904Y-119010533D02*
X78684285Y-119153390D01*
X78684285Y-119153390D02*
X78112857Y-119724819D01*
X78112857Y-119724819D02*
X78731904Y-119724819D01*
X120514819Y-57483333D02*
X121229104Y-57483333D01*
X121229104Y-57483333D02*
X121371961Y-57530952D01*
X121371961Y-57530952D02*
X121467200Y-57626190D01*
X121467200Y-57626190D02*
X121514819Y-57769047D01*
X121514819Y-57769047D02*
X121514819Y-57864285D01*
X120514819Y-57102380D02*
X120514819Y-56483333D01*
X120514819Y-56483333D02*
X120895771Y-56816666D01*
X120895771Y-56816666D02*
X120895771Y-56673809D01*
X120895771Y-56673809D02*
X120943390Y-56578571D01*
X120943390Y-56578571D02*
X120991009Y-56530952D01*
X120991009Y-56530952D02*
X121086247Y-56483333D01*
X121086247Y-56483333D02*
X121324342Y-56483333D01*
X121324342Y-56483333D02*
X121419580Y-56530952D01*
X121419580Y-56530952D02*
X121467200Y-56578571D01*
X121467200Y-56578571D02*
X121514819Y-56673809D01*
X121514819Y-56673809D02*
X121514819Y-56959523D01*
X121514819Y-56959523D02*
X121467200Y-57054761D01*
X121467200Y-57054761D02*
X121419580Y-57102380D01*
X76827142Y-134904819D02*
X76493809Y-134428628D01*
X76255714Y-134904819D02*
X76255714Y-133904819D01*
X76255714Y-133904819D02*
X76636666Y-133904819D01*
X76636666Y-133904819D02*
X76731904Y-133952438D01*
X76731904Y-133952438D02*
X76779523Y-134000057D01*
X76779523Y-134000057D02*
X76827142Y-134095295D01*
X76827142Y-134095295D02*
X76827142Y-134238152D01*
X76827142Y-134238152D02*
X76779523Y-134333390D01*
X76779523Y-134333390D02*
X76731904Y-134381009D01*
X76731904Y-134381009D02*
X76636666Y-134428628D01*
X76636666Y-134428628D02*
X76255714Y-134428628D01*
X77779523Y-134904819D02*
X77208095Y-134904819D01*
X77493809Y-134904819D02*
X77493809Y-133904819D01*
X77493809Y-133904819D02*
X77398571Y-134047676D01*
X77398571Y-134047676D02*
X77303333Y-134142914D01*
X77303333Y-134142914D02*
X77208095Y-134190533D01*
X78112857Y-133904819D02*
X78731904Y-133904819D01*
X78731904Y-133904819D02*
X78398571Y-134285771D01*
X78398571Y-134285771D02*
X78541428Y-134285771D01*
X78541428Y-134285771D02*
X78636666Y-134333390D01*
X78636666Y-134333390D02*
X78684285Y-134381009D01*
X78684285Y-134381009D02*
X78731904Y-134476247D01*
X78731904Y-134476247D02*
X78731904Y-134714342D01*
X78731904Y-134714342D02*
X78684285Y-134809580D01*
X78684285Y-134809580D02*
X78636666Y-134857200D01*
X78636666Y-134857200D02*
X78541428Y-134904819D01*
X78541428Y-134904819D02*
X78255714Y-134904819D01*
X78255714Y-134904819D02*
X78160476Y-134857200D01*
X78160476Y-134857200D02*
X78112857Y-134809580D01*
X76827142Y-119384819D02*
X76493809Y-118908628D01*
X76255714Y-119384819D02*
X76255714Y-118384819D01*
X76255714Y-118384819D02*
X76636666Y-118384819D01*
X76636666Y-118384819D02*
X76731904Y-118432438D01*
X76731904Y-118432438D02*
X76779523Y-118480057D01*
X76779523Y-118480057D02*
X76827142Y-118575295D01*
X76827142Y-118575295D02*
X76827142Y-118718152D01*
X76827142Y-118718152D02*
X76779523Y-118813390D01*
X76779523Y-118813390D02*
X76731904Y-118861009D01*
X76731904Y-118861009D02*
X76636666Y-118908628D01*
X76636666Y-118908628D02*
X76255714Y-118908628D01*
X77779523Y-119384819D02*
X77208095Y-119384819D01*
X77493809Y-119384819D02*
X77493809Y-118384819D01*
X77493809Y-118384819D02*
X77398571Y-118527676D01*
X77398571Y-118527676D02*
X77303333Y-118622914D01*
X77303333Y-118622914D02*
X77208095Y-118670533D01*
X78731904Y-119384819D02*
X78160476Y-119384819D01*
X78446190Y-119384819D02*
X78446190Y-118384819D01*
X78446190Y-118384819D02*
X78350952Y-118527676D01*
X78350952Y-118527676D02*
X78255714Y-118622914D01*
X78255714Y-118622914D02*
X78160476Y-118670533D01*
X109860057Y-89275238D02*
X109812438Y-89370476D01*
X109812438Y-89370476D02*
X109717200Y-89465714D01*
X109717200Y-89465714D02*
X109574342Y-89608571D01*
X109574342Y-89608571D02*
X109526723Y-89703809D01*
X109526723Y-89703809D02*
X109526723Y-89799047D01*
X109764819Y-89751428D02*
X109717200Y-89846666D01*
X109717200Y-89846666D02*
X109621961Y-89941904D01*
X109621961Y-89941904D02*
X109431485Y-89989523D01*
X109431485Y-89989523D02*
X109098152Y-89989523D01*
X109098152Y-89989523D02*
X108907676Y-89941904D01*
X108907676Y-89941904D02*
X108812438Y-89846666D01*
X108812438Y-89846666D02*
X108764819Y-89751428D01*
X108764819Y-89751428D02*
X108764819Y-89560952D01*
X108764819Y-89560952D02*
X108812438Y-89465714D01*
X108812438Y-89465714D02*
X108907676Y-89370476D01*
X108907676Y-89370476D02*
X109098152Y-89322857D01*
X109098152Y-89322857D02*
X109431485Y-89322857D01*
X109431485Y-89322857D02*
X109621961Y-89370476D01*
X109621961Y-89370476D02*
X109717200Y-89465714D01*
X109717200Y-89465714D02*
X109764819Y-89560952D01*
X109764819Y-89560952D02*
X109764819Y-89751428D01*
X109098152Y-88465714D02*
X109764819Y-88465714D01*
X108717200Y-88703809D02*
X109431485Y-88941904D01*
X109431485Y-88941904D02*
X109431485Y-88322857D01*
X120514819Y-42243333D02*
X121229104Y-42243333D01*
X121229104Y-42243333D02*
X121371961Y-42290952D01*
X121371961Y-42290952D02*
X121467200Y-42386190D01*
X121467200Y-42386190D02*
X121514819Y-42529047D01*
X121514819Y-42529047D02*
X121514819Y-42624285D01*
X120610057Y-41814761D02*
X120562438Y-41767142D01*
X120562438Y-41767142D02*
X120514819Y-41671904D01*
X120514819Y-41671904D02*
X120514819Y-41433809D01*
X120514819Y-41433809D02*
X120562438Y-41338571D01*
X120562438Y-41338571D02*
X120610057Y-41290952D01*
X120610057Y-41290952D02*
X120705295Y-41243333D01*
X120705295Y-41243333D02*
X120800533Y-41243333D01*
X120800533Y-41243333D02*
X120943390Y-41290952D01*
X120943390Y-41290952D02*
X121514819Y-41862380D01*
X121514819Y-41862380D02*
X121514819Y-41243333D01*
X109860057Y-119195238D02*
X109812438Y-119290476D01*
X109812438Y-119290476D02*
X109717200Y-119385714D01*
X109717200Y-119385714D02*
X109574342Y-119528571D01*
X109574342Y-119528571D02*
X109526723Y-119623809D01*
X109526723Y-119623809D02*
X109526723Y-119719047D01*
X109764819Y-119671428D02*
X109717200Y-119766666D01*
X109717200Y-119766666D02*
X109621961Y-119861904D01*
X109621961Y-119861904D02*
X109431485Y-119909523D01*
X109431485Y-119909523D02*
X109098152Y-119909523D01*
X109098152Y-119909523D02*
X108907676Y-119861904D01*
X108907676Y-119861904D02*
X108812438Y-119766666D01*
X108812438Y-119766666D02*
X108764819Y-119671428D01*
X108764819Y-119671428D02*
X108764819Y-119480952D01*
X108764819Y-119480952D02*
X108812438Y-119385714D01*
X108812438Y-119385714D02*
X108907676Y-119290476D01*
X108907676Y-119290476D02*
X109098152Y-119242857D01*
X109098152Y-119242857D02*
X109431485Y-119242857D01*
X109431485Y-119242857D02*
X109621961Y-119290476D01*
X109621961Y-119290476D02*
X109717200Y-119385714D01*
X109717200Y-119385714D02*
X109764819Y-119480952D01*
X109764819Y-119480952D02*
X109764819Y-119671428D01*
X108764819Y-118385714D02*
X108764819Y-118576190D01*
X108764819Y-118576190D02*
X108812438Y-118671428D01*
X108812438Y-118671428D02*
X108860057Y-118719047D01*
X108860057Y-118719047D02*
X109002914Y-118814285D01*
X109002914Y-118814285D02*
X109193390Y-118861904D01*
X109193390Y-118861904D02*
X109574342Y-118861904D01*
X109574342Y-118861904D02*
X109669580Y-118814285D01*
X109669580Y-118814285D02*
X109717200Y-118766666D01*
X109717200Y-118766666D02*
X109764819Y-118671428D01*
X109764819Y-118671428D02*
X109764819Y-118480952D01*
X109764819Y-118480952D02*
X109717200Y-118385714D01*
X109717200Y-118385714D02*
X109669580Y-118338095D01*
X109669580Y-118338095D02*
X109574342Y-118290476D01*
X109574342Y-118290476D02*
X109336247Y-118290476D01*
X109336247Y-118290476D02*
X109241009Y-118338095D01*
X109241009Y-118338095D02*
X109193390Y-118385714D01*
X109193390Y-118385714D02*
X109145771Y-118480952D01*
X109145771Y-118480952D02*
X109145771Y-118671428D01*
X109145771Y-118671428D02*
X109193390Y-118766666D01*
X109193390Y-118766666D02*
X109241009Y-118814285D01*
X109241009Y-118814285D02*
X109336247Y-118861904D01*
X77303333Y-74564819D02*
X76970000Y-74088628D01*
X76731905Y-74564819D02*
X76731905Y-73564819D01*
X76731905Y-73564819D02*
X77112857Y-73564819D01*
X77112857Y-73564819D02*
X77208095Y-73612438D01*
X77208095Y-73612438D02*
X77255714Y-73660057D01*
X77255714Y-73660057D02*
X77303333Y-73755295D01*
X77303333Y-73755295D02*
X77303333Y-73898152D01*
X77303333Y-73898152D02*
X77255714Y-73993390D01*
X77255714Y-73993390D02*
X77208095Y-74041009D01*
X77208095Y-74041009D02*
X77112857Y-74088628D01*
X77112857Y-74088628D02*
X76731905Y-74088628D01*
X78160476Y-73564819D02*
X77970000Y-73564819D01*
X77970000Y-73564819D02*
X77874762Y-73612438D01*
X77874762Y-73612438D02*
X77827143Y-73660057D01*
X77827143Y-73660057D02*
X77731905Y-73802914D01*
X77731905Y-73802914D02*
X77684286Y-73993390D01*
X77684286Y-73993390D02*
X77684286Y-74374342D01*
X77684286Y-74374342D02*
X77731905Y-74469580D01*
X77731905Y-74469580D02*
X77779524Y-74517200D01*
X77779524Y-74517200D02*
X77874762Y-74564819D01*
X77874762Y-74564819D02*
X78065238Y-74564819D01*
X78065238Y-74564819D02*
X78160476Y-74517200D01*
X78160476Y-74517200D02*
X78208095Y-74469580D01*
X78208095Y-74469580D02*
X78255714Y-74374342D01*
X78255714Y-74374342D02*
X78255714Y-74136247D01*
X78255714Y-74136247D02*
X78208095Y-74041009D01*
X78208095Y-74041009D02*
X78160476Y-73993390D01*
X78160476Y-73993390D02*
X78065238Y-73945771D01*
X78065238Y-73945771D02*
X77874762Y-73945771D01*
X77874762Y-73945771D02*
X77779524Y-73993390D01*
X77779524Y-73993390D02*
X77731905Y-74041009D01*
X77731905Y-74041009D02*
X77684286Y-74136247D01*
X58293333Y-117729580D02*
X58245714Y-117777200D01*
X58245714Y-117777200D02*
X58102857Y-117824819D01*
X58102857Y-117824819D02*
X58007619Y-117824819D01*
X58007619Y-117824819D02*
X57864762Y-117777200D01*
X57864762Y-117777200D02*
X57769524Y-117681961D01*
X57769524Y-117681961D02*
X57721905Y-117586723D01*
X57721905Y-117586723D02*
X57674286Y-117396247D01*
X57674286Y-117396247D02*
X57674286Y-117253390D01*
X57674286Y-117253390D02*
X57721905Y-117062914D01*
X57721905Y-117062914D02*
X57769524Y-116967676D01*
X57769524Y-116967676D02*
X57864762Y-116872438D01*
X57864762Y-116872438D02*
X58007619Y-116824819D01*
X58007619Y-116824819D02*
X58102857Y-116824819D01*
X58102857Y-116824819D02*
X58245714Y-116872438D01*
X58245714Y-116872438D02*
X58293333Y-116920057D01*
X58674286Y-116920057D02*
X58721905Y-116872438D01*
X58721905Y-116872438D02*
X58817143Y-116824819D01*
X58817143Y-116824819D02*
X59055238Y-116824819D01*
X59055238Y-116824819D02*
X59150476Y-116872438D01*
X59150476Y-116872438D02*
X59198095Y-116920057D01*
X59198095Y-116920057D02*
X59245714Y-117015295D01*
X59245714Y-117015295D02*
X59245714Y-117110533D01*
X59245714Y-117110533D02*
X59198095Y-117253390D01*
X59198095Y-117253390D02*
X58626667Y-117824819D01*
X58626667Y-117824819D02*
X59245714Y-117824819D01*
D11*
X53091904Y-61429860D02*
X53091904Y-60620337D01*
X53091904Y-60620337D02*
X53044285Y-60525099D01*
X53044285Y-60525099D02*
X52996666Y-60477480D01*
X52996666Y-60477480D02*
X52901428Y-60429860D01*
X52901428Y-60429860D02*
X52710952Y-60429860D01*
X52710952Y-60429860D02*
X52615714Y-60477480D01*
X52615714Y-60477480D02*
X52568095Y-60525099D01*
X52568095Y-60525099D02*
X52520476Y-60620337D01*
X52520476Y-60620337D02*
X52520476Y-61429860D01*
X52091904Y-61334622D02*
X52044285Y-61382241D01*
X52044285Y-61382241D02*
X51949047Y-61429860D01*
X51949047Y-61429860D02*
X51710952Y-61429860D01*
X51710952Y-61429860D02*
X51615714Y-61382241D01*
X51615714Y-61382241D02*
X51568095Y-61334622D01*
X51568095Y-61334622D02*
X51520476Y-61239384D01*
X51520476Y-61239384D02*
X51520476Y-61144146D01*
X51520476Y-61144146D02*
X51568095Y-61001289D01*
X51568095Y-61001289D02*
X52139523Y-60429860D01*
X52139523Y-60429860D02*
X51520476Y-60429860D01*
D10*
X62154649Y-59351246D02*
X62154649Y-60051246D01*
X62154649Y-60051246D02*
X61987982Y-60051246D01*
X61987982Y-60051246D02*
X61887982Y-60017913D01*
X61887982Y-60017913D02*
X61821316Y-59951246D01*
X61821316Y-59951246D02*
X61787982Y-59884580D01*
X61787982Y-59884580D02*
X61754649Y-59751246D01*
X61754649Y-59751246D02*
X61754649Y-59651246D01*
X61754649Y-59651246D02*
X61787982Y-59517913D01*
X61787982Y-59517913D02*
X61821316Y-59451246D01*
X61821316Y-59451246D02*
X61887982Y-59384580D01*
X61887982Y-59384580D02*
X61987982Y-59351246D01*
X61987982Y-59351246D02*
X62154649Y-59351246D01*
X61487982Y-59984580D02*
X61454649Y-60017913D01*
X61454649Y-60017913D02*
X61387982Y-60051246D01*
X61387982Y-60051246D02*
X61221316Y-60051246D01*
X61221316Y-60051246D02*
X61154649Y-60017913D01*
X61154649Y-60017913D02*
X61121316Y-59984580D01*
X61121316Y-59984580D02*
X61087982Y-59917913D01*
X61087982Y-59917913D02*
X61087982Y-59851246D01*
X61087982Y-59851246D02*
X61121316Y-59751246D01*
X61121316Y-59751246D02*
X61521316Y-59351246D01*
X61521316Y-59351246D02*
X61087982Y-59351246D01*
X60487982Y-60051246D02*
X60621315Y-60051246D01*
X60621315Y-60051246D02*
X60687982Y-60017913D01*
X60687982Y-60017913D02*
X60721315Y-59984580D01*
X60721315Y-59984580D02*
X60787982Y-59884580D01*
X60787982Y-59884580D02*
X60821315Y-59751246D01*
X60821315Y-59751246D02*
X60821315Y-59484580D01*
X60821315Y-59484580D02*
X60787982Y-59417913D01*
X60787982Y-59417913D02*
X60754649Y-59384580D01*
X60754649Y-59384580D02*
X60687982Y-59351246D01*
X60687982Y-59351246D02*
X60554649Y-59351246D01*
X60554649Y-59351246D02*
X60487982Y-59384580D01*
X60487982Y-59384580D02*
X60454649Y-59417913D01*
X60454649Y-59417913D02*
X60421315Y-59484580D01*
X60421315Y-59484580D02*
X60421315Y-59651246D01*
X60421315Y-59651246D02*
X60454649Y-59717913D01*
X60454649Y-59717913D02*
X60487982Y-59751246D01*
X60487982Y-59751246D02*
X60554649Y-59784580D01*
X60554649Y-59784580D02*
X60687982Y-59784580D01*
X60687982Y-59784580D02*
X60754649Y-59751246D01*
X60754649Y-59751246D02*
X60787982Y-59717913D01*
X60787982Y-59717913D02*
X60821315Y-59651246D01*
X62254649Y-44811246D02*
X62021316Y-44111246D01*
X62021316Y-44111246D02*
X61787982Y-44811246D01*
X61554649Y-44111246D02*
X61554649Y-44811246D01*
X61221316Y-44111246D02*
X61221316Y-44811246D01*
X61221316Y-44811246D02*
X60821316Y-44111246D01*
X60821316Y-44111246D02*
X60821316Y-44811246D01*
X43565351Y-72051246D02*
X43798684Y-72384580D01*
X43965351Y-72051246D02*
X43965351Y-72751246D01*
X43965351Y-72751246D02*
X43698684Y-72751246D01*
X43698684Y-72751246D02*
X43632018Y-72717913D01*
X43632018Y-72717913D02*
X43598684Y-72684580D01*
X43598684Y-72684580D02*
X43565351Y-72617913D01*
X43565351Y-72617913D02*
X43565351Y-72517913D01*
X43565351Y-72517913D02*
X43598684Y-72451246D01*
X43598684Y-72451246D02*
X43632018Y-72417913D01*
X43632018Y-72417913D02*
X43698684Y-72384580D01*
X43698684Y-72384580D02*
X43965351Y-72384580D01*
X43332018Y-72051246D02*
X42965351Y-72517913D01*
X43332018Y-72517913D02*
X42965351Y-72051246D01*
X42565351Y-72751246D02*
X42498684Y-72751246D01*
X42498684Y-72751246D02*
X42432017Y-72717913D01*
X42432017Y-72717913D02*
X42398684Y-72684580D01*
X42398684Y-72684580D02*
X42365351Y-72617913D01*
X42365351Y-72617913D02*
X42332017Y-72484580D01*
X42332017Y-72484580D02*
X42332017Y-72317913D01*
X42332017Y-72317913D02*
X42365351Y-72184580D01*
X42365351Y-72184580D02*
X42398684Y-72117913D01*
X42398684Y-72117913D02*
X42432017Y-72084580D01*
X42432017Y-72084580D02*
X42498684Y-72051246D01*
X42498684Y-72051246D02*
X42565351Y-72051246D01*
X42565351Y-72051246D02*
X42632017Y-72084580D01*
X42632017Y-72084580D02*
X42665351Y-72117913D01*
X42665351Y-72117913D02*
X42698684Y-72184580D01*
X42698684Y-72184580D02*
X42732017Y-72317913D01*
X42732017Y-72317913D02*
X42732017Y-72484580D01*
X42732017Y-72484580D02*
X42698684Y-72617913D01*
X42698684Y-72617913D02*
X42665351Y-72684580D01*
X42665351Y-72684580D02*
X42632017Y-72717913D01*
X42632017Y-72717913D02*
X42565351Y-72751246D01*
X62154649Y-72051246D02*
X62154649Y-72751246D01*
X62154649Y-72751246D02*
X61987982Y-72751246D01*
X61987982Y-72751246D02*
X61887982Y-72717913D01*
X61887982Y-72717913D02*
X61821316Y-72651246D01*
X61821316Y-72651246D02*
X61787982Y-72584580D01*
X61787982Y-72584580D02*
X61754649Y-72451246D01*
X61754649Y-72451246D02*
X61754649Y-72351246D01*
X61754649Y-72351246D02*
X61787982Y-72217913D01*
X61787982Y-72217913D02*
X61821316Y-72151246D01*
X61821316Y-72151246D02*
X61887982Y-72084580D01*
X61887982Y-72084580D02*
X61987982Y-72051246D01*
X61987982Y-72051246D02*
X62154649Y-72051246D01*
X61521316Y-72751246D02*
X61087982Y-72751246D01*
X61087982Y-72751246D02*
X61321316Y-72484580D01*
X61321316Y-72484580D02*
X61221316Y-72484580D01*
X61221316Y-72484580D02*
X61154649Y-72451246D01*
X61154649Y-72451246D02*
X61121316Y-72417913D01*
X61121316Y-72417913D02*
X61087982Y-72351246D01*
X61087982Y-72351246D02*
X61087982Y-72184580D01*
X61087982Y-72184580D02*
X61121316Y-72117913D01*
X61121316Y-72117913D02*
X61154649Y-72084580D01*
X61154649Y-72084580D02*
X61221316Y-72051246D01*
X61221316Y-72051246D02*
X61421316Y-72051246D01*
X61421316Y-72051246D02*
X61487982Y-72084580D01*
X61487982Y-72084580D02*
X61521316Y-72117913D01*
X60487982Y-72517913D02*
X60487982Y-72051246D01*
X60654649Y-72784580D02*
X60821315Y-72284580D01*
X60821315Y-72284580D02*
X60387982Y-72284580D01*
X43398684Y-61891246D02*
X43398684Y-62591246D01*
X43398684Y-62591246D02*
X43232017Y-62591246D01*
X43232017Y-62591246D02*
X43132017Y-62557913D01*
X43132017Y-62557913D02*
X43065351Y-62491246D01*
X43065351Y-62491246D02*
X43032017Y-62424580D01*
X43032017Y-62424580D02*
X42998684Y-62291246D01*
X42998684Y-62291246D02*
X42998684Y-62191246D01*
X42998684Y-62191246D02*
X43032017Y-62057913D01*
X43032017Y-62057913D02*
X43065351Y-61991246D01*
X43065351Y-61991246D02*
X43132017Y-61924580D01*
X43132017Y-61924580D02*
X43232017Y-61891246D01*
X43232017Y-61891246D02*
X43398684Y-61891246D01*
X42365351Y-62591246D02*
X42698684Y-62591246D01*
X42698684Y-62591246D02*
X42732017Y-62257913D01*
X42732017Y-62257913D02*
X42698684Y-62291246D01*
X42698684Y-62291246D02*
X42632017Y-62324580D01*
X42632017Y-62324580D02*
X42465351Y-62324580D01*
X42465351Y-62324580D02*
X42398684Y-62291246D01*
X42398684Y-62291246D02*
X42365351Y-62257913D01*
X42365351Y-62257913D02*
X42332017Y-62191246D01*
X42332017Y-62191246D02*
X42332017Y-62024580D01*
X42332017Y-62024580D02*
X42365351Y-61957913D01*
X42365351Y-61957913D02*
X42398684Y-61924580D01*
X42398684Y-61924580D02*
X42465351Y-61891246D01*
X42465351Y-61891246D02*
X42632017Y-61891246D01*
X42632017Y-61891246D02*
X42698684Y-61924580D01*
X42698684Y-61924580D02*
X42732017Y-61957913D01*
X44065351Y-66971246D02*
X44065351Y-67671246D01*
X44065351Y-67671246D02*
X43898684Y-67671246D01*
X43898684Y-67671246D02*
X43798684Y-67637913D01*
X43798684Y-67637913D02*
X43732018Y-67571246D01*
X43732018Y-67571246D02*
X43698684Y-67504580D01*
X43698684Y-67504580D02*
X43665351Y-67371246D01*
X43665351Y-67371246D02*
X43665351Y-67271246D01*
X43665351Y-67271246D02*
X43698684Y-67137913D01*
X43698684Y-67137913D02*
X43732018Y-67071246D01*
X43732018Y-67071246D02*
X43798684Y-67004580D01*
X43798684Y-67004580D02*
X43898684Y-66971246D01*
X43898684Y-66971246D02*
X44065351Y-66971246D01*
X42998684Y-66971246D02*
X43398684Y-66971246D01*
X43198684Y-66971246D02*
X43198684Y-67671246D01*
X43198684Y-67671246D02*
X43265351Y-67571246D01*
X43265351Y-67571246D02*
X43332018Y-67504580D01*
X43332018Y-67504580D02*
X43398684Y-67471246D01*
X42665351Y-66971246D02*
X42532017Y-66971246D01*
X42532017Y-66971246D02*
X42465351Y-67004580D01*
X42465351Y-67004580D02*
X42432017Y-67037913D01*
X42432017Y-67037913D02*
X42365351Y-67137913D01*
X42365351Y-67137913D02*
X42332017Y-67271246D01*
X42332017Y-67271246D02*
X42332017Y-67537913D01*
X42332017Y-67537913D02*
X42365351Y-67604580D01*
X42365351Y-67604580D02*
X42398684Y-67637913D01*
X42398684Y-67637913D02*
X42465351Y-67671246D01*
X42465351Y-67671246D02*
X42598684Y-67671246D01*
X42598684Y-67671246D02*
X42665351Y-67637913D01*
X42665351Y-67637913D02*
X42698684Y-67604580D01*
X42698684Y-67604580D02*
X42732017Y-67537913D01*
X42732017Y-67537913D02*
X42732017Y-67371246D01*
X42732017Y-67371246D02*
X42698684Y-67304580D01*
X42698684Y-67304580D02*
X42665351Y-67271246D01*
X42665351Y-67271246D02*
X42598684Y-67237913D01*
X42598684Y-67237913D02*
X42465351Y-67237913D01*
X42465351Y-67237913D02*
X42398684Y-67271246D01*
X42398684Y-67271246D02*
X42365351Y-67304580D01*
X42365351Y-67304580D02*
X42332017Y-67371246D01*
X43898684Y-75291246D02*
X43498684Y-75291246D01*
X43698684Y-74591246D02*
X43698684Y-75291246D01*
X43332018Y-74591246D02*
X42965351Y-75057913D01*
X43332018Y-75057913D02*
X42965351Y-74591246D01*
X42565351Y-75291246D02*
X42498684Y-75291246D01*
X42498684Y-75291246D02*
X42432017Y-75257913D01*
X42432017Y-75257913D02*
X42398684Y-75224580D01*
X42398684Y-75224580D02*
X42365351Y-75157913D01*
X42365351Y-75157913D02*
X42332017Y-75024580D01*
X42332017Y-75024580D02*
X42332017Y-74857913D01*
X42332017Y-74857913D02*
X42365351Y-74724580D01*
X42365351Y-74724580D02*
X42398684Y-74657913D01*
X42398684Y-74657913D02*
X42432017Y-74624580D01*
X42432017Y-74624580D02*
X42498684Y-74591246D01*
X42498684Y-74591246D02*
X42565351Y-74591246D01*
X42565351Y-74591246D02*
X42632017Y-74624580D01*
X42632017Y-74624580D02*
X42665351Y-74657913D01*
X42665351Y-74657913D02*
X42698684Y-74724580D01*
X42698684Y-74724580D02*
X42732017Y-74857913D01*
X42732017Y-74857913D02*
X42732017Y-75024580D01*
X42732017Y-75024580D02*
X42698684Y-75157913D01*
X42698684Y-75157913D02*
X42665351Y-75224580D01*
X42665351Y-75224580D02*
X42632017Y-75257913D01*
X42632017Y-75257913D02*
X42565351Y-75291246D01*
X44065351Y-49191246D02*
X44065351Y-49891246D01*
X44065351Y-49891246D02*
X43898684Y-49891246D01*
X43898684Y-49891246D02*
X43798684Y-49857913D01*
X43798684Y-49857913D02*
X43732018Y-49791246D01*
X43732018Y-49791246D02*
X43698684Y-49724580D01*
X43698684Y-49724580D02*
X43665351Y-49591246D01*
X43665351Y-49591246D02*
X43665351Y-49491246D01*
X43665351Y-49491246D02*
X43698684Y-49357913D01*
X43698684Y-49357913D02*
X43732018Y-49291246D01*
X43732018Y-49291246D02*
X43798684Y-49224580D01*
X43798684Y-49224580D02*
X43898684Y-49191246D01*
X43898684Y-49191246D02*
X44065351Y-49191246D01*
X42998684Y-49191246D02*
X43398684Y-49191246D01*
X43198684Y-49191246D02*
X43198684Y-49891246D01*
X43198684Y-49891246D02*
X43265351Y-49791246D01*
X43265351Y-49791246D02*
X43332018Y-49724580D01*
X43332018Y-49724580D02*
X43398684Y-49691246D01*
X42365351Y-49891246D02*
X42698684Y-49891246D01*
X42698684Y-49891246D02*
X42732017Y-49557913D01*
X42732017Y-49557913D02*
X42698684Y-49591246D01*
X42698684Y-49591246D02*
X42632017Y-49624580D01*
X42632017Y-49624580D02*
X42465351Y-49624580D01*
X42465351Y-49624580D02*
X42398684Y-49591246D01*
X42398684Y-49591246D02*
X42365351Y-49557913D01*
X42365351Y-49557913D02*
X42332017Y-49491246D01*
X42332017Y-49491246D02*
X42332017Y-49324580D01*
X42332017Y-49324580D02*
X42365351Y-49257913D01*
X42365351Y-49257913D02*
X42398684Y-49224580D01*
X42398684Y-49224580D02*
X42465351Y-49191246D01*
X42465351Y-49191246D02*
X42632017Y-49191246D01*
X42632017Y-49191246D02*
X42698684Y-49224580D01*
X42698684Y-49224580D02*
X42732017Y-49257913D01*
X44065351Y-69511246D02*
X44065351Y-70211246D01*
X44065351Y-70211246D02*
X43898684Y-70211246D01*
X43898684Y-70211246D02*
X43798684Y-70177913D01*
X43798684Y-70177913D02*
X43732018Y-70111246D01*
X43732018Y-70111246D02*
X43698684Y-70044580D01*
X43698684Y-70044580D02*
X43665351Y-69911246D01*
X43665351Y-69911246D02*
X43665351Y-69811246D01*
X43665351Y-69811246D02*
X43698684Y-69677913D01*
X43698684Y-69677913D02*
X43732018Y-69611246D01*
X43732018Y-69611246D02*
X43798684Y-69544580D01*
X43798684Y-69544580D02*
X43898684Y-69511246D01*
X43898684Y-69511246D02*
X44065351Y-69511246D01*
X43398684Y-70144580D02*
X43365351Y-70177913D01*
X43365351Y-70177913D02*
X43298684Y-70211246D01*
X43298684Y-70211246D02*
X43132018Y-70211246D01*
X43132018Y-70211246D02*
X43065351Y-70177913D01*
X43065351Y-70177913D02*
X43032018Y-70144580D01*
X43032018Y-70144580D02*
X42998684Y-70077913D01*
X42998684Y-70077913D02*
X42998684Y-70011246D01*
X42998684Y-70011246D02*
X43032018Y-69911246D01*
X43032018Y-69911246D02*
X43432018Y-69511246D01*
X43432018Y-69511246D02*
X42998684Y-69511246D01*
X42332017Y-69511246D02*
X42732017Y-69511246D01*
X42532017Y-69511246D02*
X42532017Y-70211246D01*
X42532017Y-70211246D02*
X42598684Y-70111246D01*
X42598684Y-70111246D02*
X42665351Y-70044580D01*
X42665351Y-70044580D02*
X42732017Y-70011246D01*
X44298684Y-44811246D02*
X43865350Y-44811246D01*
X43865350Y-44811246D02*
X44098684Y-44544580D01*
X44098684Y-44544580D02*
X43998684Y-44544580D01*
X43998684Y-44544580D02*
X43932017Y-44511246D01*
X43932017Y-44511246D02*
X43898684Y-44477913D01*
X43898684Y-44477913D02*
X43865350Y-44411246D01*
X43865350Y-44411246D02*
X43865350Y-44244580D01*
X43865350Y-44244580D02*
X43898684Y-44177913D01*
X43898684Y-44177913D02*
X43932017Y-44144580D01*
X43932017Y-44144580D02*
X43998684Y-44111246D01*
X43998684Y-44111246D02*
X44198684Y-44111246D01*
X44198684Y-44111246D02*
X44265350Y-44144580D01*
X44265350Y-44144580D02*
X44298684Y-44177913D01*
X43565350Y-44177913D02*
X43532017Y-44144580D01*
X43532017Y-44144580D02*
X43565350Y-44111246D01*
X43565350Y-44111246D02*
X43598683Y-44144580D01*
X43598683Y-44144580D02*
X43565350Y-44177913D01*
X43565350Y-44177913D02*
X43565350Y-44111246D01*
X43298684Y-44811246D02*
X42865350Y-44811246D01*
X42865350Y-44811246D02*
X43098684Y-44544580D01*
X43098684Y-44544580D02*
X42998684Y-44544580D01*
X42998684Y-44544580D02*
X42932017Y-44511246D01*
X42932017Y-44511246D02*
X42898684Y-44477913D01*
X42898684Y-44477913D02*
X42865350Y-44411246D01*
X42865350Y-44411246D02*
X42865350Y-44244580D01*
X42865350Y-44244580D02*
X42898684Y-44177913D01*
X42898684Y-44177913D02*
X42932017Y-44144580D01*
X42932017Y-44144580D02*
X42998684Y-44111246D01*
X42998684Y-44111246D02*
X43198684Y-44111246D01*
X43198684Y-44111246D02*
X43265350Y-44144580D01*
X43265350Y-44144580D02*
X43298684Y-44177913D01*
X42632017Y-44577913D02*
X42465350Y-44111246D01*
X42465350Y-44111246D02*
X42298683Y-44577913D01*
X62154649Y-61891246D02*
X62154649Y-62591246D01*
X62154649Y-62591246D02*
X61987982Y-62591246D01*
X61987982Y-62591246D02*
X61887982Y-62557913D01*
X61887982Y-62557913D02*
X61821316Y-62491246D01*
X61821316Y-62491246D02*
X61787982Y-62424580D01*
X61787982Y-62424580D02*
X61754649Y-62291246D01*
X61754649Y-62291246D02*
X61754649Y-62191246D01*
X61754649Y-62191246D02*
X61787982Y-62057913D01*
X61787982Y-62057913D02*
X61821316Y-61991246D01*
X61821316Y-61991246D02*
X61887982Y-61924580D01*
X61887982Y-61924580D02*
X61987982Y-61891246D01*
X61987982Y-61891246D02*
X62154649Y-61891246D01*
X61487982Y-62524580D02*
X61454649Y-62557913D01*
X61454649Y-62557913D02*
X61387982Y-62591246D01*
X61387982Y-62591246D02*
X61221316Y-62591246D01*
X61221316Y-62591246D02*
X61154649Y-62557913D01*
X61154649Y-62557913D02*
X61121316Y-62524580D01*
X61121316Y-62524580D02*
X61087982Y-62457913D01*
X61087982Y-62457913D02*
X61087982Y-62391246D01*
X61087982Y-62391246D02*
X61121316Y-62291246D01*
X61121316Y-62291246D02*
X61521316Y-61891246D01*
X61521316Y-61891246D02*
X61087982Y-61891246D01*
X60454649Y-62591246D02*
X60787982Y-62591246D01*
X60787982Y-62591246D02*
X60821315Y-62257913D01*
X60821315Y-62257913D02*
X60787982Y-62291246D01*
X60787982Y-62291246D02*
X60721315Y-62324580D01*
X60721315Y-62324580D02*
X60554649Y-62324580D01*
X60554649Y-62324580D02*
X60487982Y-62291246D01*
X60487982Y-62291246D02*
X60454649Y-62257913D01*
X60454649Y-62257913D02*
X60421315Y-62191246D01*
X60421315Y-62191246D02*
X60421315Y-62024580D01*
X60421315Y-62024580D02*
X60454649Y-61957913D01*
X60454649Y-61957913D02*
X60487982Y-61924580D01*
X60487982Y-61924580D02*
X60554649Y-61891246D01*
X60554649Y-61891246D02*
X60721315Y-61891246D01*
X60721315Y-61891246D02*
X60787982Y-61924580D01*
X60787982Y-61924580D02*
X60821315Y-61957913D01*
X62154649Y-69511246D02*
X62154649Y-70211246D01*
X62154649Y-70211246D02*
X61987982Y-70211246D01*
X61987982Y-70211246D02*
X61887982Y-70177913D01*
X61887982Y-70177913D02*
X61821316Y-70111246D01*
X61821316Y-70111246D02*
X61787982Y-70044580D01*
X61787982Y-70044580D02*
X61754649Y-69911246D01*
X61754649Y-69911246D02*
X61754649Y-69811246D01*
X61754649Y-69811246D02*
X61787982Y-69677913D01*
X61787982Y-69677913D02*
X61821316Y-69611246D01*
X61821316Y-69611246D02*
X61887982Y-69544580D01*
X61887982Y-69544580D02*
X61987982Y-69511246D01*
X61987982Y-69511246D02*
X62154649Y-69511246D01*
X61521316Y-70211246D02*
X61087982Y-70211246D01*
X61087982Y-70211246D02*
X61321316Y-69944580D01*
X61321316Y-69944580D02*
X61221316Y-69944580D01*
X61221316Y-69944580D02*
X61154649Y-69911246D01*
X61154649Y-69911246D02*
X61121316Y-69877913D01*
X61121316Y-69877913D02*
X61087982Y-69811246D01*
X61087982Y-69811246D02*
X61087982Y-69644580D01*
X61087982Y-69644580D02*
X61121316Y-69577913D01*
X61121316Y-69577913D02*
X61154649Y-69544580D01*
X61154649Y-69544580D02*
X61221316Y-69511246D01*
X61221316Y-69511246D02*
X61421316Y-69511246D01*
X61421316Y-69511246D02*
X61487982Y-69544580D01*
X61487982Y-69544580D02*
X61521316Y-69577913D01*
X60454649Y-70211246D02*
X60787982Y-70211246D01*
X60787982Y-70211246D02*
X60821315Y-69877913D01*
X60821315Y-69877913D02*
X60787982Y-69911246D01*
X60787982Y-69911246D02*
X60721315Y-69944580D01*
X60721315Y-69944580D02*
X60554649Y-69944580D01*
X60554649Y-69944580D02*
X60487982Y-69911246D01*
X60487982Y-69911246D02*
X60454649Y-69877913D01*
X60454649Y-69877913D02*
X60421315Y-69811246D01*
X60421315Y-69811246D02*
X60421315Y-69644580D01*
X60421315Y-69644580D02*
X60454649Y-69577913D01*
X60454649Y-69577913D02*
X60487982Y-69544580D01*
X60487982Y-69544580D02*
X60554649Y-69511246D01*
X60554649Y-69511246D02*
X60721315Y-69511246D01*
X60721315Y-69511246D02*
X60787982Y-69544580D01*
X60787982Y-69544580D02*
X60821315Y-69577913D01*
X43398684Y-51731246D02*
X43398684Y-52431246D01*
X43398684Y-52431246D02*
X43232017Y-52431246D01*
X43232017Y-52431246D02*
X43132017Y-52397913D01*
X43132017Y-52397913D02*
X43065351Y-52331246D01*
X43065351Y-52331246D02*
X43032017Y-52264580D01*
X43032017Y-52264580D02*
X42998684Y-52131246D01*
X42998684Y-52131246D02*
X42998684Y-52031246D01*
X42998684Y-52031246D02*
X43032017Y-51897913D01*
X43032017Y-51897913D02*
X43065351Y-51831246D01*
X43065351Y-51831246D02*
X43132017Y-51764580D01*
X43132017Y-51764580D02*
X43232017Y-51731246D01*
X43232017Y-51731246D02*
X43398684Y-51731246D01*
X42732017Y-52364580D02*
X42698684Y-52397913D01*
X42698684Y-52397913D02*
X42632017Y-52431246D01*
X42632017Y-52431246D02*
X42465351Y-52431246D01*
X42465351Y-52431246D02*
X42398684Y-52397913D01*
X42398684Y-52397913D02*
X42365351Y-52364580D01*
X42365351Y-52364580D02*
X42332017Y-52297913D01*
X42332017Y-52297913D02*
X42332017Y-52231246D01*
X42332017Y-52231246D02*
X42365351Y-52131246D01*
X42365351Y-52131246D02*
X42765351Y-51731246D01*
X42765351Y-51731246D02*
X42332017Y-51731246D01*
X62154649Y-64431246D02*
X62154649Y-65131246D01*
X62154649Y-65131246D02*
X61987982Y-65131246D01*
X61987982Y-65131246D02*
X61887982Y-65097913D01*
X61887982Y-65097913D02*
X61821316Y-65031246D01*
X61821316Y-65031246D02*
X61787982Y-64964580D01*
X61787982Y-64964580D02*
X61754649Y-64831246D01*
X61754649Y-64831246D02*
X61754649Y-64731246D01*
X61754649Y-64731246D02*
X61787982Y-64597913D01*
X61787982Y-64597913D02*
X61821316Y-64531246D01*
X61821316Y-64531246D02*
X61887982Y-64464580D01*
X61887982Y-64464580D02*
X61987982Y-64431246D01*
X61987982Y-64431246D02*
X62154649Y-64431246D01*
X61521316Y-65131246D02*
X61087982Y-65131246D01*
X61087982Y-65131246D02*
X61321316Y-64864580D01*
X61321316Y-64864580D02*
X61221316Y-64864580D01*
X61221316Y-64864580D02*
X61154649Y-64831246D01*
X61154649Y-64831246D02*
X61121316Y-64797913D01*
X61121316Y-64797913D02*
X61087982Y-64731246D01*
X61087982Y-64731246D02*
X61087982Y-64564580D01*
X61087982Y-64564580D02*
X61121316Y-64497913D01*
X61121316Y-64497913D02*
X61154649Y-64464580D01*
X61154649Y-64464580D02*
X61221316Y-64431246D01*
X61221316Y-64431246D02*
X61421316Y-64431246D01*
X61421316Y-64431246D02*
X61487982Y-64464580D01*
X61487982Y-64464580D02*
X61521316Y-64497913D01*
X60854649Y-65131246D02*
X60421315Y-65131246D01*
X60421315Y-65131246D02*
X60654649Y-64864580D01*
X60654649Y-64864580D02*
X60554649Y-64864580D01*
X60554649Y-64864580D02*
X60487982Y-64831246D01*
X60487982Y-64831246D02*
X60454649Y-64797913D01*
X60454649Y-64797913D02*
X60421315Y-64731246D01*
X60421315Y-64731246D02*
X60421315Y-64564580D01*
X60421315Y-64564580D02*
X60454649Y-64497913D01*
X60454649Y-64497913D02*
X60487982Y-64464580D01*
X60487982Y-64464580D02*
X60554649Y-64431246D01*
X60554649Y-64431246D02*
X60754649Y-64431246D01*
X60754649Y-64431246D02*
X60821315Y-64464580D01*
X60821315Y-64464580D02*
X60854649Y-64497913D01*
X62254649Y-75291246D02*
X62021316Y-74591246D01*
X62021316Y-74591246D02*
X61787982Y-75291246D01*
X61554649Y-74591246D02*
X61554649Y-75291246D01*
X61554649Y-75291246D02*
X61154649Y-74591246D01*
X61154649Y-74591246D02*
X61154649Y-75291246D01*
X62254649Y-77831246D02*
X62021316Y-77131246D01*
X62021316Y-77131246D02*
X61787982Y-77831246D01*
X61554649Y-77131246D02*
X61554649Y-77831246D01*
X61554649Y-77831246D02*
X61287982Y-77831246D01*
X61287982Y-77831246D02*
X61221316Y-77797913D01*
X61221316Y-77797913D02*
X61187982Y-77764580D01*
X61187982Y-77764580D02*
X61154649Y-77697913D01*
X61154649Y-77697913D02*
X61154649Y-77597913D01*
X61154649Y-77597913D02*
X61187982Y-77531246D01*
X61187982Y-77531246D02*
X61221316Y-77497913D01*
X61221316Y-77497913D02*
X61287982Y-77464580D01*
X61287982Y-77464580D02*
X61554649Y-77464580D01*
X61787982Y-47317913D02*
X61854649Y-47351246D01*
X61854649Y-47351246D02*
X61954649Y-47351246D01*
X61954649Y-47351246D02*
X62054649Y-47317913D01*
X62054649Y-47317913D02*
X62121316Y-47251246D01*
X62121316Y-47251246D02*
X62154649Y-47184580D01*
X62154649Y-47184580D02*
X62187982Y-47051246D01*
X62187982Y-47051246D02*
X62187982Y-46951246D01*
X62187982Y-46951246D02*
X62154649Y-46817913D01*
X62154649Y-46817913D02*
X62121316Y-46751246D01*
X62121316Y-46751246D02*
X62054649Y-46684580D01*
X62054649Y-46684580D02*
X61954649Y-46651246D01*
X61954649Y-46651246D02*
X61887982Y-46651246D01*
X61887982Y-46651246D02*
X61787982Y-46684580D01*
X61787982Y-46684580D02*
X61754649Y-46717913D01*
X61754649Y-46717913D02*
X61754649Y-46951246D01*
X61754649Y-46951246D02*
X61887982Y-46951246D01*
X61454649Y-46651246D02*
X61454649Y-47351246D01*
X61454649Y-47351246D02*
X61054649Y-46651246D01*
X61054649Y-46651246D02*
X61054649Y-47351246D01*
X60721316Y-46651246D02*
X60721316Y-47351246D01*
X60721316Y-47351246D02*
X60554649Y-47351246D01*
X60554649Y-47351246D02*
X60454649Y-47317913D01*
X60454649Y-47317913D02*
X60387983Y-47251246D01*
X60387983Y-47251246D02*
X60354649Y-47184580D01*
X60354649Y-47184580D02*
X60321316Y-47051246D01*
X60321316Y-47051246D02*
X60321316Y-46951246D01*
X60321316Y-46951246D02*
X60354649Y-46817913D01*
X60354649Y-46817913D02*
X60387983Y-46751246D01*
X60387983Y-46751246D02*
X60454649Y-46684580D01*
X60454649Y-46684580D02*
X60554649Y-46651246D01*
X60554649Y-46651246D02*
X60721316Y-46651246D01*
X44065351Y-64431246D02*
X44065351Y-65131246D01*
X44065351Y-65131246D02*
X43898684Y-65131246D01*
X43898684Y-65131246D02*
X43798684Y-65097913D01*
X43798684Y-65097913D02*
X43732018Y-65031246D01*
X43732018Y-65031246D02*
X43698684Y-64964580D01*
X43698684Y-64964580D02*
X43665351Y-64831246D01*
X43665351Y-64831246D02*
X43665351Y-64731246D01*
X43665351Y-64731246D02*
X43698684Y-64597913D01*
X43698684Y-64597913D02*
X43732018Y-64531246D01*
X43732018Y-64531246D02*
X43798684Y-64464580D01*
X43798684Y-64464580D02*
X43898684Y-64431246D01*
X43898684Y-64431246D02*
X44065351Y-64431246D01*
X42998684Y-64431246D02*
X43398684Y-64431246D01*
X43198684Y-64431246D02*
X43198684Y-65131246D01*
X43198684Y-65131246D02*
X43265351Y-65031246D01*
X43265351Y-65031246D02*
X43332018Y-64964580D01*
X43332018Y-64964580D02*
X43398684Y-64931246D01*
X42598684Y-64831246D02*
X42665351Y-64864580D01*
X42665351Y-64864580D02*
X42698684Y-64897913D01*
X42698684Y-64897913D02*
X42732017Y-64964580D01*
X42732017Y-64964580D02*
X42732017Y-64997913D01*
X42732017Y-64997913D02*
X42698684Y-65064580D01*
X42698684Y-65064580D02*
X42665351Y-65097913D01*
X42665351Y-65097913D02*
X42598684Y-65131246D01*
X42598684Y-65131246D02*
X42465351Y-65131246D01*
X42465351Y-65131246D02*
X42398684Y-65097913D01*
X42398684Y-65097913D02*
X42365351Y-65064580D01*
X42365351Y-65064580D02*
X42332017Y-64997913D01*
X42332017Y-64997913D02*
X42332017Y-64964580D01*
X42332017Y-64964580D02*
X42365351Y-64897913D01*
X42365351Y-64897913D02*
X42398684Y-64864580D01*
X42398684Y-64864580D02*
X42465351Y-64831246D01*
X42465351Y-64831246D02*
X42598684Y-64831246D01*
X42598684Y-64831246D02*
X42665351Y-64797913D01*
X42665351Y-64797913D02*
X42698684Y-64764580D01*
X42698684Y-64764580D02*
X42732017Y-64697913D01*
X42732017Y-64697913D02*
X42732017Y-64564580D01*
X42732017Y-64564580D02*
X42698684Y-64497913D01*
X42698684Y-64497913D02*
X42665351Y-64464580D01*
X42665351Y-64464580D02*
X42598684Y-64431246D01*
X42598684Y-64431246D02*
X42465351Y-64431246D01*
X42465351Y-64431246D02*
X42398684Y-64464580D01*
X42398684Y-64464580D02*
X42365351Y-64497913D01*
X42365351Y-64497913D02*
X42332017Y-64564580D01*
X42332017Y-64564580D02*
X42332017Y-64697913D01*
X42332017Y-64697913D02*
X42365351Y-64764580D01*
X42365351Y-64764580D02*
X42398684Y-64797913D01*
X42398684Y-64797913D02*
X42465351Y-64831246D01*
X62154649Y-51731246D02*
X62154649Y-52431246D01*
X62154649Y-52431246D02*
X61987982Y-52431246D01*
X61987982Y-52431246D02*
X61887982Y-52397913D01*
X61887982Y-52397913D02*
X61821316Y-52331246D01*
X61821316Y-52331246D02*
X61787982Y-52264580D01*
X61787982Y-52264580D02*
X61754649Y-52131246D01*
X61754649Y-52131246D02*
X61754649Y-52031246D01*
X61754649Y-52031246D02*
X61787982Y-51897913D01*
X61787982Y-51897913D02*
X61821316Y-51831246D01*
X61821316Y-51831246D02*
X61887982Y-51764580D01*
X61887982Y-51764580D02*
X61987982Y-51731246D01*
X61987982Y-51731246D02*
X62154649Y-51731246D01*
X61087982Y-51731246D02*
X61487982Y-51731246D01*
X61287982Y-51731246D02*
X61287982Y-52431246D01*
X61287982Y-52431246D02*
X61354649Y-52331246D01*
X61354649Y-52331246D02*
X61421316Y-52264580D01*
X61421316Y-52264580D02*
X61487982Y-52231246D01*
X60821315Y-52364580D02*
X60787982Y-52397913D01*
X60787982Y-52397913D02*
X60721315Y-52431246D01*
X60721315Y-52431246D02*
X60554649Y-52431246D01*
X60554649Y-52431246D02*
X60487982Y-52397913D01*
X60487982Y-52397913D02*
X60454649Y-52364580D01*
X60454649Y-52364580D02*
X60421315Y-52297913D01*
X60421315Y-52297913D02*
X60421315Y-52231246D01*
X60421315Y-52231246D02*
X60454649Y-52131246D01*
X60454649Y-52131246D02*
X60854649Y-51731246D01*
X60854649Y-51731246D02*
X60421315Y-51731246D01*
X39795003Y-47337913D02*
X39861670Y-47371246D01*
X39861670Y-47371246D02*
X39961670Y-47371246D01*
X39961670Y-47371246D02*
X40061670Y-47337913D01*
X40061670Y-47337913D02*
X40128337Y-47271246D01*
X40128337Y-47271246D02*
X40161670Y-47204580D01*
X40161670Y-47204580D02*
X40195003Y-47071246D01*
X40195003Y-47071246D02*
X40195003Y-46971246D01*
X40195003Y-46971246D02*
X40161670Y-46837913D01*
X40161670Y-46837913D02*
X40128337Y-46771246D01*
X40128337Y-46771246D02*
X40061670Y-46704580D01*
X40061670Y-46704580D02*
X39961670Y-46671246D01*
X39961670Y-46671246D02*
X39895003Y-46671246D01*
X39895003Y-46671246D02*
X39795003Y-46704580D01*
X39795003Y-46704580D02*
X39761670Y-46737913D01*
X39761670Y-46737913D02*
X39761670Y-46971246D01*
X39761670Y-46971246D02*
X39895003Y-46971246D01*
X39461670Y-46671246D02*
X39461670Y-47371246D01*
X39461670Y-47371246D02*
X39061670Y-46671246D01*
X39061670Y-46671246D02*
X39061670Y-47371246D01*
X38728337Y-46671246D02*
X38728337Y-47371246D01*
X38728337Y-47371246D02*
X38561670Y-47371246D01*
X38561670Y-47371246D02*
X38461670Y-47337913D01*
X38461670Y-47337913D02*
X38395004Y-47271246D01*
X38395004Y-47271246D02*
X38361670Y-47204580D01*
X38361670Y-47204580D02*
X38328337Y-47071246D01*
X38328337Y-47071246D02*
X38328337Y-46971246D01*
X38328337Y-46971246D02*
X38361670Y-46837913D01*
X38361670Y-46837913D02*
X38395004Y-46771246D01*
X38395004Y-46771246D02*
X38461670Y-46704580D01*
X38461670Y-46704580D02*
X38561670Y-46671246D01*
X38561670Y-46671246D02*
X38728337Y-46671246D01*
X43565351Y-56811246D02*
X43798684Y-57144580D01*
X43965351Y-56811246D02*
X43965351Y-57511246D01*
X43965351Y-57511246D02*
X43698684Y-57511246D01*
X43698684Y-57511246D02*
X43632018Y-57477913D01*
X43632018Y-57477913D02*
X43598684Y-57444580D01*
X43598684Y-57444580D02*
X43565351Y-57377913D01*
X43565351Y-57377913D02*
X43565351Y-57277913D01*
X43565351Y-57277913D02*
X43598684Y-57211246D01*
X43598684Y-57211246D02*
X43632018Y-57177913D01*
X43632018Y-57177913D02*
X43698684Y-57144580D01*
X43698684Y-57144580D02*
X43965351Y-57144580D01*
X43332018Y-56811246D02*
X42965351Y-57277913D01*
X43332018Y-57277913D02*
X42965351Y-56811246D01*
X42732017Y-57444580D02*
X42698684Y-57477913D01*
X42698684Y-57477913D02*
X42632017Y-57511246D01*
X42632017Y-57511246D02*
X42465351Y-57511246D01*
X42465351Y-57511246D02*
X42398684Y-57477913D01*
X42398684Y-57477913D02*
X42365351Y-57444580D01*
X42365351Y-57444580D02*
X42332017Y-57377913D01*
X42332017Y-57377913D02*
X42332017Y-57311246D01*
X42332017Y-57311246D02*
X42365351Y-57211246D01*
X42365351Y-57211246D02*
X42765351Y-56811246D01*
X42765351Y-56811246D02*
X42332017Y-56811246D01*
X43398684Y-54271246D02*
X43398684Y-54971246D01*
X43398684Y-54971246D02*
X43232017Y-54971246D01*
X43232017Y-54971246D02*
X43132017Y-54937913D01*
X43132017Y-54937913D02*
X43065351Y-54871246D01*
X43065351Y-54871246D02*
X43032017Y-54804580D01*
X43032017Y-54804580D02*
X42998684Y-54671246D01*
X42998684Y-54671246D02*
X42998684Y-54571246D01*
X42998684Y-54571246D02*
X43032017Y-54437913D01*
X43032017Y-54437913D02*
X43065351Y-54371246D01*
X43065351Y-54371246D02*
X43132017Y-54304580D01*
X43132017Y-54304580D02*
X43232017Y-54271246D01*
X43232017Y-54271246D02*
X43398684Y-54271246D01*
X42398684Y-54737913D02*
X42398684Y-54271246D01*
X42565351Y-55004580D02*
X42732017Y-54504580D01*
X42732017Y-54504580D02*
X42298684Y-54504580D01*
X62154649Y-56811246D02*
X62154649Y-57511246D01*
X62154649Y-57511246D02*
X61987982Y-57511246D01*
X61987982Y-57511246D02*
X61887982Y-57477913D01*
X61887982Y-57477913D02*
X61821316Y-57411246D01*
X61821316Y-57411246D02*
X61787982Y-57344580D01*
X61787982Y-57344580D02*
X61754649Y-57211246D01*
X61754649Y-57211246D02*
X61754649Y-57111246D01*
X61754649Y-57111246D02*
X61787982Y-56977913D01*
X61787982Y-56977913D02*
X61821316Y-56911246D01*
X61821316Y-56911246D02*
X61887982Y-56844580D01*
X61887982Y-56844580D02*
X61987982Y-56811246D01*
X61987982Y-56811246D02*
X62154649Y-56811246D01*
X61487982Y-57444580D02*
X61454649Y-57477913D01*
X61454649Y-57477913D02*
X61387982Y-57511246D01*
X61387982Y-57511246D02*
X61221316Y-57511246D01*
X61221316Y-57511246D02*
X61154649Y-57477913D01*
X61154649Y-57477913D02*
X61121316Y-57444580D01*
X61121316Y-57444580D02*
X61087982Y-57377913D01*
X61087982Y-57377913D02*
X61087982Y-57311246D01*
X61087982Y-57311246D02*
X61121316Y-57211246D01*
X61121316Y-57211246D02*
X61521316Y-56811246D01*
X61521316Y-56811246D02*
X61087982Y-56811246D01*
X60854649Y-57511246D02*
X60387982Y-57511246D01*
X60387982Y-57511246D02*
X60687982Y-56811246D01*
X62154649Y-80037913D02*
X61921316Y-80037913D01*
X61821316Y-79671246D02*
X62154649Y-79671246D01*
X62154649Y-79671246D02*
X62154649Y-80371246D01*
X62154649Y-80371246D02*
X61821316Y-80371246D01*
X61521316Y-79671246D02*
X61521316Y-80371246D01*
X61521316Y-80371246D02*
X61121316Y-79671246D01*
X61121316Y-79671246D02*
X61121316Y-80371246D01*
X43898684Y-60051246D02*
X43498684Y-60051246D01*
X43698684Y-59351246D02*
X43698684Y-60051246D01*
X43332018Y-59351246D02*
X42965351Y-59817913D01*
X43332018Y-59817913D02*
X42965351Y-59351246D01*
X42732017Y-59984580D02*
X42698684Y-60017913D01*
X42698684Y-60017913D02*
X42632017Y-60051246D01*
X42632017Y-60051246D02*
X42465351Y-60051246D01*
X42465351Y-60051246D02*
X42398684Y-60017913D01*
X42398684Y-60017913D02*
X42365351Y-59984580D01*
X42365351Y-59984580D02*
X42332017Y-59917913D01*
X42332017Y-59917913D02*
X42332017Y-59851246D01*
X42332017Y-59851246D02*
X42365351Y-59751246D01*
X42365351Y-59751246D02*
X42765351Y-59351246D01*
X42765351Y-59351246D02*
X42332017Y-59351246D01*
X62154649Y-49191246D02*
X62154649Y-49891246D01*
X62154649Y-49891246D02*
X61987982Y-49891246D01*
X61987982Y-49891246D02*
X61887982Y-49857913D01*
X61887982Y-49857913D02*
X61821316Y-49791246D01*
X61821316Y-49791246D02*
X61787982Y-49724580D01*
X61787982Y-49724580D02*
X61754649Y-49591246D01*
X61754649Y-49591246D02*
X61754649Y-49491246D01*
X61754649Y-49491246D02*
X61787982Y-49357913D01*
X61787982Y-49357913D02*
X61821316Y-49291246D01*
X61821316Y-49291246D02*
X61887982Y-49224580D01*
X61887982Y-49224580D02*
X61987982Y-49191246D01*
X61987982Y-49191246D02*
X62154649Y-49191246D01*
X61087982Y-49191246D02*
X61487982Y-49191246D01*
X61287982Y-49191246D02*
X61287982Y-49891246D01*
X61287982Y-49891246D02*
X61354649Y-49791246D01*
X61354649Y-49791246D02*
X61421316Y-49724580D01*
X61421316Y-49724580D02*
X61487982Y-49691246D01*
X60854649Y-49891246D02*
X60421315Y-49891246D01*
X60421315Y-49891246D02*
X60654649Y-49624580D01*
X60654649Y-49624580D02*
X60554649Y-49624580D01*
X60554649Y-49624580D02*
X60487982Y-49591246D01*
X60487982Y-49591246D02*
X60454649Y-49557913D01*
X60454649Y-49557913D02*
X60421315Y-49491246D01*
X60421315Y-49491246D02*
X60421315Y-49324580D01*
X60421315Y-49324580D02*
X60454649Y-49257913D01*
X60454649Y-49257913D02*
X60487982Y-49224580D01*
X60487982Y-49224580D02*
X60554649Y-49191246D01*
X60554649Y-49191246D02*
X60754649Y-49191246D01*
X60754649Y-49191246D02*
X60821315Y-49224580D01*
X60821315Y-49224580D02*
X60854649Y-49257913D01*
X44065351Y-77131246D02*
X44065351Y-77831246D01*
X44065351Y-77831246D02*
X43898684Y-77831246D01*
X43898684Y-77831246D02*
X43798684Y-77797913D01*
X43798684Y-77797913D02*
X43732018Y-77731246D01*
X43732018Y-77731246D02*
X43698684Y-77664580D01*
X43698684Y-77664580D02*
X43665351Y-77531246D01*
X43665351Y-77531246D02*
X43665351Y-77431246D01*
X43665351Y-77431246D02*
X43698684Y-77297913D01*
X43698684Y-77297913D02*
X43732018Y-77231246D01*
X43732018Y-77231246D02*
X43798684Y-77164580D01*
X43798684Y-77164580D02*
X43898684Y-77131246D01*
X43898684Y-77131246D02*
X44065351Y-77131246D01*
X43398684Y-77764580D02*
X43365351Y-77797913D01*
X43365351Y-77797913D02*
X43298684Y-77831246D01*
X43298684Y-77831246D02*
X43132018Y-77831246D01*
X43132018Y-77831246D02*
X43065351Y-77797913D01*
X43065351Y-77797913D02*
X43032018Y-77764580D01*
X43032018Y-77764580D02*
X42998684Y-77697913D01*
X42998684Y-77697913D02*
X42998684Y-77631246D01*
X42998684Y-77631246D02*
X43032018Y-77531246D01*
X43032018Y-77531246D02*
X43432018Y-77131246D01*
X43432018Y-77131246D02*
X42998684Y-77131246D01*
X42732017Y-77764580D02*
X42698684Y-77797913D01*
X42698684Y-77797913D02*
X42632017Y-77831246D01*
X42632017Y-77831246D02*
X42465351Y-77831246D01*
X42465351Y-77831246D02*
X42398684Y-77797913D01*
X42398684Y-77797913D02*
X42365351Y-77764580D01*
X42365351Y-77764580D02*
X42332017Y-77697913D01*
X42332017Y-77697913D02*
X42332017Y-77631246D01*
X42332017Y-77631246D02*
X42365351Y-77531246D01*
X42365351Y-77531246D02*
X42765351Y-77131246D01*
X42765351Y-77131246D02*
X42332017Y-77131246D01*
X44065351Y-79671246D02*
X44065351Y-80371246D01*
X44065351Y-80371246D02*
X43898684Y-80371246D01*
X43898684Y-80371246D02*
X43798684Y-80337913D01*
X43798684Y-80337913D02*
X43732018Y-80271246D01*
X43732018Y-80271246D02*
X43698684Y-80204580D01*
X43698684Y-80204580D02*
X43665351Y-80071246D01*
X43665351Y-80071246D02*
X43665351Y-79971246D01*
X43665351Y-79971246D02*
X43698684Y-79837913D01*
X43698684Y-79837913D02*
X43732018Y-79771246D01*
X43732018Y-79771246D02*
X43798684Y-79704580D01*
X43798684Y-79704580D02*
X43898684Y-79671246D01*
X43898684Y-79671246D02*
X44065351Y-79671246D01*
X43398684Y-80304580D02*
X43365351Y-80337913D01*
X43365351Y-80337913D02*
X43298684Y-80371246D01*
X43298684Y-80371246D02*
X43132018Y-80371246D01*
X43132018Y-80371246D02*
X43065351Y-80337913D01*
X43065351Y-80337913D02*
X43032018Y-80304580D01*
X43032018Y-80304580D02*
X42998684Y-80237913D01*
X42998684Y-80237913D02*
X42998684Y-80171246D01*
X42998684Y-80171246D02*
X43032018Y-80071246D01*
X43032018Y-80071246D02*
X43432018Y-79671246D01*
X43432018Y-79671246D02*
X42998684Y-79671246D01*
X42765351Y-80371246D02*
X42332017Y-80371246D01*
X42332017Y-80371246D02*
X42565351Y-80104580D01*
X42565351Y-80104580D02*
X42465351Y-80104580D01*
X42465351Y-80104580D02*
X42398684Y-80071246D01*
X42398684Y-80071246D02*
X42365351Y-80037913D01*
X42365351Y-80037913D02*
X42332017Y-79971246D01*
X42332017Y-79971246D02*
X42332017Y-79804580D01*
X42332017Y-79804580D02*
X42365351Y-79737913D01*
X42365351Y-79737913D02*
X42398684Y-79704580D01*
X42398684Y-79704580D02*
X42465351Y-79671246D01*
X42465351Y-79671246D02*
X42665351Y-79671246D01*
X42665351Y-79671246D02*
X42732017Y-79704580D01*
X42732017Y-79704580D02*
X42765351Y-79737913D01*
X62154649Y-54271246D02*
X62154649Y-54971246D01*
X62154649Y-54971246D02*
X61987982Y-54971246D01*
X61987982Y-54971246D02*
X61887982Y-54937913D01*
X61887982Y-54937913D02*
X61821316Y-54871246D01*
X61821316Y-54871246D02*
X61787982Y-54804580D01*
X61787982Y-54804580D02*
X61754649Y-54671246D01*
X61754649Y-54671246D02*
X61754649Y-54571246D01*
X61754649Y-54571246D02*
X61787982Y-54437913D01*
X61787982Y-54437913D02*
X61821316Y-54371246D01*
X61821316Y-54371246D02*
X61887982Y-54304580D01*
X61887982Y-54304580D02*
X61987982Y-54271246D01*
X61987982Y-54271246D02*
X62154649Y-54271246D01*
X61087982Y-54271246D02*
X61487982Y-54271246D01*
X61287982Y-54271246D02*
X61287982Y-54971246D01*
X61287982Y-54971246D02*
X61354649Y-54871246D01*
X61354649Y-54871246D02*
X61421316Y-54804580D01*
X61421316Y-54804580D02*
X61487982Y-54771246D01*
X60487982Y-54737913D02*
X60487982Y-54271246D01*
X60654649Y-55004580D02*
X60821315Y-54504580D01*
X60821315Y-54504580D02*
X60387982Y-54504580D01*
D11*
X48307619Y-90339937D02*
X48355238Y-90292318D01*
X48355238Y-90292318D02*
X48450476Y-90244699D01*
X48450476Y-90244699D02*
X48688571Y-90244699D01*
X48688571Y-90244699D02*
X48783809Y-90292318D01*
X48783809Y-90292318D02*
X48831428Y-90339937D01*
X48831428Y-90339937D02*
X48879047Y-90435175D01*
X48879047Y-90435175D02*
X48879047Y-90530413D01*
X48879047Y-90530413D02*
X48831428Y-90673270D01*
X48831428Y-90673270D02*
X48260000Y-91244699D01*
X48260000Y-91244699D02*
X48879047Y-91244699D01*
X49736190Y-90244699D02*
X49545714Y-90244699D01*
X49545714Y-90244699D02*
X49450476Y-90292318D01*
X49450476Y-90292318D02*
X49402857Y-90339937D01*
X49402857Y-90339937D02*
X49307619Y-90482794D01*
X49307619Y-90482794D02*
X49260000Y-90673270D01*
X49260000Y-90673270D02*
X49260000Y-91054222D01*
X49260000Y-91054222D02*
X49307619Y-91149460D01*
X49307619Y-91149460D02*
X49355238Y-91197080D01*
X49355238Y-91197080D02*
X49450476Y-91244699D01*
X49450476Y-91244699D02*
X49640952Y-91244699D01*
X49640952Y-91244699D02*
X49736190Y-91197080D01*
X49736190Y-91197080D02*
X49783809Y-91149460D01*
X49783809Y-91149460D02*
X49831428Y-91054222D01*
X49831428Y-91054222D02*
X49831428Y-90816127D01*
X49831428Y-90816127D02*
X49783809Y-90720889D01*
X49783809Y-90720889D02*
X49736190Y-90673270D01*
X49736190Y-90673270D02*
X49640952Y-90625651D01*
X49640952Y-90625651D02*
X49450476Y-90625651D01*
X49450476Y-90625651D02*
X49355238Y-90673270D01*
X49355238Y-90673270D02*
X49307619Y-90720889D01*
X49307619Y-90720889D02*
X49260000Y-90816127D01*
X50260000Y-91149460D02*
X50307619Y-91197080D01*
X50307619Y-91197080D02*
X50260000Y-91244699D01*
X50260000Y-91244699D02*
X50212381Y-91197080D01*
X50212381Y-91197080D02*
X50260000Y-91149460D01*
X50260000Y-91149460D02*
X50260000Y-91244699D01*
X50879047Y-90673270D02*
X50783809Y-90625651D01*
X50783809Y-90625651D02*
X50736190Y-90578032D01*
X50736190Y-90578032D02*
X50688571Y-90482794D01*
X50688571Y-90482794D02*
X50688571Y-90435175D01*
X50688571Y-90435175D02*
X50736190Y-90339937D01*
X50736190Y-90339937D02*
X50783809Y-90292318D01*
X50783809Y-90292318D02*
X50879047Y-90244699D01*
X50879047Y-90244699D02*
X51069523Y-90244699D01*
X51069523Y-90244699D02*
X51164761Y-90292318D01*
X51164761Y-90292318D02*
X51212380Y-90339937D01*
X51212380Y-90339937D02*
X51259999Y-90435175D01*
X51259999Y-90435175D02*
X51259999Y-90482794D01*
X51259999Y-90482794D02*
X51212380Y-90578032D01*
X51212380Y-90578032D02*
X51164761Y-90625651D01*
X51164761Y-90625651D02*
X51069523Y-90673270D01*
X51069523Y-90673270D02*
X50879047Y-90673270D01*
X50879047Y-90673270D02*
X50783809Y-90720889D01*
X50783809Y-90720889D02*
X50736190Y-90768508D01*
X50736190Y-90768508D02*
X50688571Y-90863746D01*
X50688571Y-90863746D02*
X50688571Y-91054222D01*
X50688571Y-91054222D02*
X50736190Y-91149460D01*
X50736190Y-91149460D02*
X50783809Y-91197080D01*
X50783809Y-91197080D02*
X50879047Y-91244699D01*
X50879047Y-91244699D02*
X51069523Y-91244699D01*
X51069523Y-91244699D02*
X51164761Y-91197080D01*
X51164761Y-91197080D02*
X51212380Y-91149460D01*
X51212380Y-91149460D02*
X51259999Y-91054222D01*
X51259999Y-91054222D02*
X51259999Y-90863746D01*
X51259999Y-90863746D02*
X51212380Y-90768508D01*
X51212380Y-90768508D02*
X51164761Y-90720889D01*
X51164761Y-90720889D02*
X51069523Y-90673270D01*
X52117142Y-90244699D02*
X51926666Y-90244699D01*
X51926666Y-90244699D02*
X51831428Y-90292318D01*
X51831428Y-90292318D02*
X51783809Y-90339937D01*
X51783809Y-90339937D02*
X51688571Y-90482794D01*
X51688571Y-90482794D02*
X51640952Y-90673270D01*
X51640952Y-90673270D02*
X51640952Y-91054222D01*
X51640952Y-91054222D02*
X51688571Y-91149460D01*
X51688571Y-91149460D02*
X51736190Y-91197080D01*
X51736190Y-91197080D02*
X51831428Y-91244699D01*
X51831428Y-91244699D02*
X52021904Y-91244699D01*
X52021904Y-91244699D02*
X52117142Y-91197080D01*
X52117142Y-91197080D02*
X52164761Y-91149460D01*
X52164761Y-91149460D02*
X52212380Y-91054222D01*
X52212380Y-91054222D02*
X52212380Y-90816127D01*
X52212380Y-90816127D02*
X52164761Y-90720889D01*
X52164761Y-90720889D02*
X52117142Y-90673270D01*
X52117142Y-90673270D02*
X52021904Y-90625651D01*
X52021904Y-90625651D02*
X51831428Y-90625651D01*
X51831428Y-90625651D02*
X51736190Y-90673270D01*
X51736190Y-90673270D02*
X51688571Y-90720889D01*
X51688571Y-90720889D02*
X51640952Y-90816127D01*
D12*
%TO.C,R18*%
X38620000Y-108310000D02*
X38620000Y-114850000D01*
X38620000Y-114850000D02*
X38950000Y-114850000D01*
X38950000Y-108310000D02*
X38620000Y-108310000D01*
X41030000Y-108310000D02*
X41360000Y-108310000D01*
X41360000Y-108310000D02*
X41360000Y-114850000D01*
X41360000Y-114850000D02*
X41030000Y-114850000D01*
%TO.C,C4*%
X39647651Y-137982349D02*
X40447651Y-137982349D01*
X40047651Y-137582349D02*
X40047651Y-138382349D01*
X44057349Y-136217349D02*
X44057349Y-144377349D01*
X44097349Y-136217349D02*
X44097349Y-144377349D01*
X44137349Y-136218349D02*
X44137349Y-144376349D01*
X44177349Y-136219349D02*
X44177349Y-144375349D01*
X44217349Y-136220349D02*
X44217349Y-144374349D01*
X44257349Y-136222349D02*
X44257349Y-144372349D01*
X44297349Y-136224349D02*
X44297349Y-144370349D01*
X44337349Y-136227349D02*
X44337349Y-144367349D01*
X44377349Y-136229349D02*
X44377349Y-144365349D01*
X44417349Y-136233349D02*
X44417349Y-144361349D01*
X44457349Y-136236349D02*
X44457349Y-144358349D01*
X44497349Y-136241349D02*
X44497349Y-144353349D01*
X44537349Y-136245349D02*
X44537349Y-144349349D01*
X44577349Y-136250349D02*
X44577349Y-144344349D01*
X44617349Y-136255349D02*
X44617349Y-144339349D01*
X44657349Y-136261349D02*
X44657349Y-144333349D01*
X44697349Y-136267349D02*
X44697349Y-144327349D01*
X44737349Y-136274349D02*
X44737349Y-144320349D01*
X44777349Y-136280349D02*
X44777349Y-139257349D01*
X44777349Y-141337349D02*
X44777349Y-144314349D01*
X44817349Y-136288349D02*
X44817349Y-139257349D01*
X44817349Y-141337349D02*
X44817349Y-144306349D01*
X44857349Y-136295349D02*
X44857349Y-139257349D01*
X44857349Y-141337349D02*
X44857349Y-144299349D01*
X44897349Y-136304349D02*
X44897349Y-139257349D01*
X44897349Y-141337349D02*
X44897349Y-144290349D01*
X44937349Y-136312349D02*
X44937349Y-139257349D01*
X44937349Y-141337349D02*
X44937349Y-144282349D01*
X44977349Y-136321349D02*
X44977349Y-139257349D01*
X44977349Y-141337349D02*
X44977349Y-144273349D01*
X45017349Y-136330349D02*
X45017349Y-139257349D01*
X45017349Y-141337349D02*
X45017349Y-144264349D01*
X45057349Y-136340349D02*
X45057349Y-139257349D01*
X45057349Y-141337349D02*
X45057349Y-144254349D01*
X45097349Y-136350349D02*
X45097349Y-139257349D01*
X45097349Y-141337349D02*
X45097349Y-144244349D01*
X45137349Y-136361349D02*
X45137349Y-139257349D01*
X45137349Y-141337349D02*
X45137349Y-144233349D01*
X45177349Y-136372349D02*
X45177349Y-139257349D01*
X45177349Y-141337349D02*
X45177349Y-144222349D01*
X45217349Y-136384349D02*
X45217349Y-139257349D01*
X45217349Y-141337349D02*
X45217349Y-144210349D01*
X45257349Y-136396349D02*
X45257349Y-139257349D01*
X45257349Y-141337349D02*
X45257349Y-144198349D01*
X45297349Y-136408349D02*
X45297349Y-139257349D01*
X45297349Y-141337349D02*
X45297349Y-144186349D01*
X45337349Y-136421349D02*
X45337349Y-139257349D01*
X45337349Y-141337349D02*
X45337349Y-144173349D01*
X45377349Y-136434349D02*
X45377349Y-139257349D01*
X45377349Y-141337349D02*
X45377349Y-144160349D01*
X45417349Y-136448349D02*
X45417349Y-139257349D01*
X45417349Y-141337349D02*
X45417349Y-144146349D01*
X45457349Y-136462349D02*
X45457349Y-139257349D01*
X45457349Y-141337349D02*
X45457349Y-144132349D01*
X45497349Y-136477349D02*
X45497349Y-139257349D01*
X45497349Y-141337349D02*
X45497349Y-144117349D01*
X45537349Y-136492349D02*
X45537349Y-139257349D01*
X45537349Y-141337349D02*
X45537349Y-144102349D01*
X45577349Y-136508349D02*
X45577349Y-139257349D01*
X45577349Y-141337349D02*
X45577349Y-144086349D01*
X45617349Y-136524349D02*
X45617349Y-139257349D01*
X45617349Y-141337349D02*
X45617349Y-144070349D01*
X45657349Y-136540349D02*
X45657349Y-139257349D01*
X45657349Y-141337349D02*
X45657349Y-144054349D01*
X45697349Y-136557349D02*
X45697349Y-139257349D01*
X45697349Y-141337349D02*
X45697349Y-144037349D01*
X45737349Y-136575349D02*
X45737349Y-139257349D01*
X45737349Y-141337349D02*
X45737349Y-144019349D01*
X45777349Y-136593349D02*
X45777349Y-139257349D01*
X45777349Y-141337349D02*
X45777349Y-144001349D01*
X45817349Y-136612349D02*
X45817349Y-139257349D01*
X45817349Y-141337349D02*
X45817349Y-143982349D01*
X45857349Y-136631349D02*
X45857349Y-139257349D01*
X45857349Y-141337349D02*
X45857349Y-143963349D01*
X45897349Y-136651349D02*
X45897349Y-139257349D01*
X45897349Y-141337349D02*
X45897349Y-143943349D01*
X45937349Y-136671349D02*
X45937349Y-139257349D01*
X45937349Y-141337349D02*
X45937349Y-143923349D01*
X45977349Y-136692349D02*
X45977349Y-139257349D01*
X45977349Y-141337349D02*
X45977349Y-143902349D01*
X46017349Y-136713349D02*
X46017349Y-139257349D01*
X46017349Y-141337349D02*
X46017349Y-143881349D01*
X46057349Y-136735349D02*
X46057349Y-139257349D01*
X46057349Y-141337349D02*
X46057349Y-143859349D01*
X46097349Y-136758349D02*
X46097349Y-139257349D01*
X46097349Y-141337349D02*
X46097349Y-143836349D01*
X46137349Y-136781349D02*
X46137349Y-139257349D01*
X46137349Y-141337349D02*
X46137349Y-143813349D01*
X46177349Y-136804349D02*
X46177349Y-139257349D01*
X46177349Y-141337349D02*
X46177349Y-143790349D01*
X46217349Y-136829349D02*
X46217349Y-139257349D01*
X46217349Y-141337349D02*
X46217349Y-143765349D01*
X46257349Y-136854349D02*
X46257349Y-139257349D01*
X46257349Y-141337349D02*
X46257349Y-143740349D01*
X46297349Y-136879349D02*
X46297349Y-139257349D01*
X46297349Y-141337349D02*
X46297349Y-143715349D01*
X46337349Y-136905349D02*
X46337349Y-139257349D01*
X46337349Y-141337349D02*
X46337349Y-143689349D01*
X46377349Y-136932349D02*
X46377349Y-139257349D01*
X46377349Y-141337349D02*
X46377349Y-143662349D01*
X46417349Y-136960349D02*
X46417349Y-139257349D01*
X46417349Y-141337349D02*
X46417349Y-143634349D01*
X46457349Y-136988349D02*
X46457349Y-139257349D01*
X46457349Y-141337349D02*
X46457349Y-143606349D01*
X46497349Y-137017349D02*
X46497349Y-139257349D01*
X46497349Y-141337349D02*
X46497349Y-143577349D01*
X46537349Y-137047349D02*
X46537349Y-139257349D01*
X46537349Y-141337349D02*
X46537349Y-143547349D01*
X46577349Y-137078349D02*
X46577349Y-139257349D01*
X46577349Y-141337349D02*
X46577349Y-143516349D01*
X46617349Y-137109349D02*
X46617349Y-139257349D01*
X46617349Y-141337349D02*
X46617349Y-143485349D01*
X46657349Y-137141349D02*
X46657349Y-139257349D01*
X46657349Y-141337349D02*
X46657349Y-143453349D01*
X46697349Y-137174349D02*
X46697349Y-139257349D01*
X46697349Y-141337349D02*
X46697349Y-143420349D01*
X46737349Y-137208349D02*
X46737349Y-139257349D01*
X46737349Y-141337349D02*
X46737349Y-143386349D01*
X46777349Y-137242349D02*
X46777349Y-139257349D01*
X46777349Y-141337349D02*
X46777349Y-143352349D01*
X46817349Y-137278349D02*
X46817349Y-139257349D01*
X46817349Y-141337349D02*
X46817349Y-143316349D01*
X46857349Y-137315349D02*
X46857349Y-143279349D01*
X46897349Y-137352349D02*
X46897349Y-143242349D01*
X46937349Y-137391349D02*
X46937349Y-143203349D01*
X46977349Y-137430349D02*
X46977349Y-143164349D01*
X47017349Y-137471349D02*
X47017349Y-143123349D01*
X47057349Y-137513349D02*
X47057349Y-143081349D01*
X47097349Y-137556349D02*
X47097349Y-143038349D01*
X47137349Y-137601349D02*
X47137349Y-142993349D01*
X47177349Y-137646349D02*
X47177349Y-142948349D01*
X47217349Y-137693349D02*
X47217349Y-142901349D01*
X47257349Y-137742349D02*
X47257349Y-142852349D01*
X47297349Y-137792349D02*
X47297349Y-142802349D01*
X47337349Y-137844349D02*
X47337349Y-142750349D01*
X47377349Y-137897349D02*
X47377349Y-142697349D01*
X47417349Y-137953349D02*
X47417349Y-142641349D01*
X47457349Y-138010349D02*
X47457349Y-142584349D01*
X47497349Y-138070349D02*
X47497349Y-142524349D01*
X47537349Y-138132349D02*
X47537349Y-142462349D01*
X47577349Y-138196349D02*
X47577349Y-142398349D01*
X47617349Y-138263349D02*
X47617349Y-142331349D01*
X47657349Y-138333349D02*
X47657349Y-142261349D01*
X47697349Y-138407349D02*
X47697349Y-142187349D01*
X47737349Y-138484349D02*
X47737349Y-142110349D01*
X47777349Y-138566349D02*
X47777349Y-142028349D01*
X47817349Y-138653349D02*
X47817349Y-141941349D01*
X47857349Y-138745349D02*
X47857349Y-141849349D01*
X47897349Y-138844349D02*
X47897349Y-141750349D01*
X47937349Y-138951349D02*
X47937349Y-141643349D01*
X47977349Y-139069349D02*
X47977349Y-141525349D01*
X48017349Y-139200349D02*
X48017349Y-141394349D01*
X48057349Y-139350349D02*
X48057349Y-141244349D01*
X48097349Y-139529349D02*
X48097349Y-141065349D01*
X48137349Y-139764349D02*
X48137349Y-140830349D01*
X48177349Y-140297349D02*
G75*
G02*
X39937349Y-140297349I-4120000J0D01*
G01*
X39937349Y-140297349D02*
G75*
G02*
X48177349Y-140297349I4120000J0D01*
G01*
%TO.C,C1*%
X56190000Y-123580000D02*
X60730000Y-123580000D01*
X56190000Y-123636000D02*
X56190000Y-123580000D01*
X60730000Y-125664000D02*
X60730000Y-125720000D01*
X60730000Y-125720000D02*
X56190000Y-125720000D01*
%TO.C,Q3*%
X92600000Y-68830000D02*
X92600000Y-79050000D01*
X92600000Y-68830000D02*
X108470000Y-68830000D01*
X92600000Y-70915000D02*
X90160000Y-70915000D01*
X92600000Y-71885000D02*
X90160000Y-71885000D01*
X92600000Y-73455000D02*
X90160000Y-73455000D01*
X92600000Y-74425000D02*
X90160000Y-74425000D01*
X92600000Y-75995000D02*
X90160000Y-75995000D01*
X92600000Y-76965000D02*
X90160000Y-76965000D01*
X92600000Y-79050000D02*
X108470000Y-79050000D01*
X108470000Y-68830000D02*
X108470000Y-79050000D01*
%TO.C,J10*%
X45610000Y-101600000D02*
X45610000Y-98950000D01*
X48370000Y-98950000D02*
X45610000Y-98950000D01*
X48370000Y-101600000D02*
X45610000Y-101600000D01*
X48370000Y-101600000D02*
X48370000Y-98950000D01*
X48370000Y-102870000D02*
X48370000Y-104250000D01*
X48370000Y-104250000D02*
X46990000Y-104250000D01*
%TO.C,J9*%
X113320000Y-145680000D02*
X120060000Y-145680000D01*
X113320000Y-147020000D02*
X113320000Y-145680000D01*
X113320000Y-151500000D02*
X113320000Y-147620000D01*
X114240000Y-145680000D02*
X114240000Y-151500000D01*
X115240000Y-145680000D02*
X115240000Y-151500000D01*
X118340000Y-145680000D02*
X118340000Y-151500000D01*
X120060000Y-145680000D02*
X120060000Y-151500000D01*
X120060000Y-151500000D02*
X113320000Y-151500000D01*
X113320000Y-147320000D02*
X112710000Y-147760000D01*
X112710000Y-146880000D01*
X113320000Y-147320000D01*
G36*
X113320000Y-147320000D02*
G01*
X112710000Y-147760000D01*
X112710000Y-146880000D01*
X113320000Y-147320000D01*
G37*
%TO.C,R9*%
X74200000Y-100230000D02*
X74200000Y-100560000D01*
X74200000Y-102970000D02*
X74200000Y-102640000D01*
X80740000Y-100230000D02*
X74200000Y-100230000D01*
X80740000Y-100560000D02*
X80740000Y-100230000D01*
X80740000Y-102640000D02*
X80740000Y-102970000D01*
X80740000Y-102970000D02*
X74200000Y-102970000D01*
%TO.C,Q7*%
X92600000Y-129510000D02*
X92600000Y-139730000D01*
X92600000Y-129510000D02*
X108470000Y-129510000D01*
X92600000Y-131595000D02*
X90160000Y-131595000D01*
X92600000Y-132565000D02*
X90160000Y-132565000D01*
X92600000Y-134135000D02*
X90160000Y-134135000D01*
X92600000Y-135105000D02*
X90160000Y-135105000D01*
X92600000Y-136675000D02*
X90160000Y-136675000D01*
X92600000Y-137645000D02*
X90160000Y-137645000D01*
X92600000Y-139730000D02*
X108470000Y-139730000D01*
X108470000Y-129510000D02*
X108470000Y-139730000D01*
%TO.C,R7*%
X74200000Y-85270000D02*
X74200000Y-85600000D01*
X74200000Y-88010000D02*
X74200000Y-87680000D01*
X80740000Y-85270000D02*
X74200000Y-85270000D01*
X80740000Y-85600000D02*
X80740000Y-85270000D01*
X80740000Y-87680000D02*
X80740000Y-88010000D01*
X80740000Y-88010000D02*
X74200000Y-88010000D01*
%TO.C,R1*%
X74200000Y-39270000D02*
X74200000Y-39600000D01*
X74200000Y-42010000D02*
X74200000Y-41680000D01*
X80740000Y-39270000D02*
X74200000Y-39270000D01*
X80740000Y-39600000D02*
X80740000Y-39270000D01*
X80740000Y-41680000D02*
X80740000Y-42010000D01*
X80740000Y-42010000D02*
X74200000Y-42010000D01*
%TO.C,R3*%
X74200000Y-54510000D02*
X74200000Y-54840000D01*
X74200000Y-57250000D02*
X74200000Y-56920000D01*
X80740000Y-54510000D02*
X74200000Y-54510000D01*
X80740000Y-54840000D02*
X80740000Y-54510000D01*
X80740000Y-56920000D02*
X80740000Y-57250000D01*
X80740000Y-57250000D02*
X74200000Y-57250000D01*
%TO.C,R16*%
X74200000Y-150470000D02*
X80740000Y-150470000D01*
X74200000Y-150800000D02*
X74200000Y-150470000D01*
X74200000Y-152880000D02*
X74200000Y-153210000D01*
X74200000Y-153210000D02*
X80740000Y-153210000D01*
X80740000Y-150470000D02*
X80740000Y-150800000D01*
X80740000Y-153210000D02*
X80740000Y-152880000D01*
%TO.C,R17*%
X45620000Y-108490000D02*
X45620000Y-115030000D01*
X45620000Y-115030000D02*
X45950000Y-115030000D01*
X45950000Y-108490000D02*
X45620000Y-108490000D01*
X48030000Y-108490000D02*
X48360000Y-108490000D01*
X48360000Y-108490000D02*
X48360000Y-115030000D01*
X48360000Y-115030000D02*
X48030000Y-115030000D01*
%TO.C,Q2*%
X92600000Y-53310000D02*
X92600000Y-63530000D01*
X92600000Y-53310000D02*
X108470000Y-53310000D01*
X92600000Y-55395000D02*
X90160000Y-55395000D01*
X92600000Y-56365000D02*
X90160000Y-56365000D01*
X92600000Y-57935000D02*
X90160000Y-57935000D01*
X92600000Y-58905000D02*
X90160000Y-58905000D01*
X92600000Y-60475000D02*
X90160000Y-60475000D01*
X92600000Y-61445000D02*
X90160000Y-61445000D01*
X92600000Y-63530000D02*
X108470000Y-63530000D01*
X108470000Y-53310000D02*
X108470000Y-63530000D01*
%TO.C,U1*%
X53310000Y-134360000D02*
X53310000Y-150230000D01*
X55395000Y-134360000D02*
X55395000Y-131920000D01*
X56365000Y-134360000D02*
X56365000Y-131920000D01*
X57935000Y-134360000D02*
X57935000Y-131920000D01*
X58905000Y-134360000D02*
X58905000Y-131920000D01*
X60475000Y-134360000D02*
X60475000Y-131920000D01*
X61445000Y-134360000D02*
X61445000Y-131920000D01*
X63530000Y-134360000D02*
X53310000Y-134360000D01*
X63530000Y-134360000D02*
X63530000Y-150230000D01*
X63530000Y-150230000D02*
X53310000Y-150230000D01*
%TO.C,J5*%
X113320000Y-85000000D02*
X120060000Y-85000000D01*
X113320000Y-86340000D02*
X113320000Y-85000000D01*
X113320000Y-90820000D02*
X113320000Y-86940000D01*
X114240000Y-85000000D02*
X114240000Y-90820000D01*
X115240000Y-85000000D02*
X115240000Y-90820000D01*
X118340000Y-85000000D02*
X118340000Y-90820000D01*
X120060000Y-85000000D02*
X120060000Y-90820000D01*
X120060000Y-90820000D02*
X113320000Y-90820000D01*
X113320000Y-86640000D02*
X112710000Y-87080000D01*
X112710000Y-86200000D01*
X113320000Y-86640000D01*
G36*
X113320000Y-86640000D02*
G01*
X112710000Y-87080000D01*
X112710000Y-86200000D01*
X113320000Y-86640000D01*
G37*
%TO.C,R2*%
X74200000Y-44350000D02*
X80740000Y-44350000D01*
X74200000Y-44680000D02*
X74200000Y-44350000D01*
X74200000Y-46760000D02*
X74200000Y-47090000D01*
X74200000Y-47090000D02*
X80740000Y-47090000D01*
X80740000Y-44350000D02*
X80740000Y-44680000D01*
X80740000Y-47090000D02*
X80740000Y-46760000D01*
%TO.C,J6*%
X113320000Y-99960000D02*
X120060000Y-99960000D01*
X113320000Y-101300000D02*
X113320000Y-99960000D01*
X113320000Y-105780000D02*
X113320000Y-101900000D01*
X114240000Y-99960000D02*
X114240000Y-105780000D01*
X115240000Y-99960000D02*
X115240000Y-105780000D01*
X118340000Y-99960000D02*
X118340000Y-105780000D01*
X120060000Y-99960000D02*
X120060000Y-105780000D01*
X120060000Y-105780000D02*
X113320000Y-105780000D01*
X113320000Y-101600000D02*
X112710000Y-102040000D01*
X112710000Y-101160000D01*
X113320000Y-101600000D01*
G36*
X113320000Y-101600000D02*
G01*
X112710000Y-102040000D01*
X112710000Y-101160000D01*
X113320000Y-101600000D01*
G37*
%TO.C,R4*%
X74200000Y-59590000D02*
X80740000Y-59590000D01*
X74200000Y-59920000D02*
X74200000Y-59590000D01*
X74200000Y-62000000D02*
X74200000Y-62330000D01*
X74200000Y-62330000D02*
X80740000Y-62330000D01*
X80740000Y-59590000D02*
X80740000Y-59920000D01*
X80740000Y-62330000D02*
X80740000Y-62000000D01*
%TO.C,J4*%
X113320000Y-69760000D02*
X120060000Y-69760000D01*
X113320000Y-71100000D02*
X113320000Y-69760000D01*
X113320000Y-75580000D02*
X113320000Y-71700000D01*
X114240000Y-69760000D02*
X114240000Y-75580000D01*
X115240000Y-69760000D02*
X115240000Y-75580000D01*
X118340000Y-69760000D02*
X118340000Y-75580000D01*
X120060000Y-69760000D02*
X120060000Y-75580000D01*
X120060000Y-75580000D02*
X113320000Y-75580000D01*
X113320000Y-71400000D02*
X112710000Y-71840000D01*
X112710000Y-70960000D01*
X113320000Y-71400000D01*
G36*
X113320000Y-71400000D02*
G01*
X112710000Y-71840000D01*
X112710000Y-70960000D01*
X113320000Y-71400000D01*
G37*
%TO.C,R14*%
X74200000Y-135790000D02*
X80740000Y-135790000D01*
X74200000Y-136120000D02*
X74200000Y-135790000D01*
X74200000Y-138200000D02*
X74200000Y-138530000D01*
X74200000Y-138530000D02*
X80740000Y-138530000D01*
X80740000Y-135790000D02*
X80740000Y-136120000D01*
X80740000Y-138530000D02*
X80740000Y-138200000D01*
%TO.C,R5*%
X74200000Y-70030000D02*
X74200000Y-70360000D01*
X74200000Y-72770000D02*
X74200000Y-72440000D01*
X80740000Y-70030000D02*
X74200000Y-70030000D01*
X80740000Y-70360000D02*
X80740000Y-70030000D01*
X80740000Y-72440000D02*
X80740000Y-72770000D01*
X80740000Y-72770000D02*
X74200000Y-72770000D01*
%TO.C,R10*%
X74200000Y-105310000D02*
X80740000Y-105310000D01*
X74200000Y-105640000D02*
X74200000Y-105310000D01*
X74200000Y-107720000D02*
X74200000Y-108050000D01*
X74200000Y-108050000D02*
X80740000Y-108050000D01*
X80740000Y-105310000D02*
X80740000Y-105640000D01*
X80740000Y-108050000D02*
X80740000Y-107720000D01*
%TO.C,R15*%
X74200000Y-145950000D02*
X74200000Y-146280000D01*
X74200000Y-148690000D02*
X74200000Y-148360000D01*
X80740000Y-145950000D02*
X74200000Y-145950000D01*
X80740000Y-146280000D02*
X80740000Y-145950000D01*
X80740000Y-148360000D02*
X80740000Y-148690000D01*
X80740000Y-148690000D02*
X74200000Y-148690000D01*
%TO.C,Q8*%
X92600000Y-144750000D02*
X92600000Y-154970000D01*
X92600000Y-144750000D02*
X108470000Y-144750000D01*
X92600000Y-146835000D02*
X90160000Y-146835000D01*
X92600000Y-147805000D02*
X90160000Y-147805000D01*
X92600000Y-149375000D02*
X90160000Y-149375000D01*
X92600000Y-150345000D02*
X90160000Y-150345000D01*
X92600000Y-151915000D02*
X90160000Y-151915000D01*
X92600000Y-152885000D02*
X90160000Y-152885000D01*
X92600000Y-154970000D02*
X108470000Y-154970000D01*
X108470000Y-144750000D02*
X108470000Y-154970000D01*
%TO.C,J8*%
X113320000Y-130440000D02*
X120060000Y-130440000D01*
X113320000Y-131780000D02*
X113320000Y-130440000D01*
X113320000Y-136260000D02*
X113320000Y-132380000D01*
X114240000Y-130440000D02*
X114240000Y-136260000D01*
X115240000Y-130440000D02*
X115240000Y-136260000D01*
X118340000Y-130440000D02*
X118340000Y-136260000D01*
X120060000Y-130440000D02*
X120060000Y-136260000D01*
X120060000Y-136260000D02*
X113320000Y-136260000D01*
X113320000Y-132080000D02*
X112710000Y-132520000D01*
X112710000Y-131640000D01*
X113320000Y-132080000D01*
G36*
X113320000Y-132080000D02*
G01*
X112710000Y-132520000D01*
X112710000Y-131640000D01*
X113320000Y-132080000D01*
G37*
%TO.C,Q5*%
X92600000Y-99030000D02*
X92600000Y-109250000D01*
X92600000Y-99030000D02*
X108470000Y-99030000D01*
X92600000Y-101115000D02*
X90160000Y-101115000D01*
X92600000Y-102085000D02*
X90160000Y-102085000D01*
X92600000Y-103655000D02*
X90160000Y-103655000D01*
X92600000Y-104625000D02*
X90160000Y-104625000D01*
X92600000Y-106195000D02*
X90160000Y-106195000D01*
X92600000Y-107165000D02*
X90160000Y-107165000D01*
X92600000Y-109250000D02*
X108470000Y-109250000D01*
X108470000Y-99030000D02*
X108470000Y-109250000D01*
%TO.C,J11*%
X38610000Y-101420000D02*
X38610000Y-98770000D01*
X41370000Y-98770000D02*
X38610000Y-98770000D01*
X41370000Y-101420000D02*
X38610000Y-101420000D01*
X41370000Y-101420000D02*
X41370000Y-98770000D01*
X41370000Y-102690000D02*
X41370000Y-104070000D01*
X41370000Y-104070000D02*
X39990000Y-104070000D01*
%TO.C,Q1*%
X92600000Y-38070000D02*
X92600000Y-48290000D01*
X92600000Y-38070000D02*
X108470000Y-38070000D01*
X92600000Y-40155000D02*
X90160000Y-40155000D01*
X92600000Y-41125000D02*
X90160000Y-41125000D01*
X92600000Y-42695000D02*
X90160000Y-42695000D01*
X92600000Y-43665000D02*
X90160000Y-43665000D01*
X92600000Y-45235000D02*
X90160000Y-45235000D01*
X92600000Y-46205000D02*
X90160000Y-46205000D01*
X92600000Y-48290000D02*
X108470000Y-48290000D01*
X108470000Y-38070000D02*
X108470000Y-48290000D01*
%TO.C,R8*%
X74200000Y-90350000D02*
X80740000Y-90350000D01*
X74200000Y-90680000D02*
X74200000Y-90350000D01*
X74200000Y-92760000D02*
X74200000Y-93090000D01*
X74200000Y-93090000D02*
X80740000Y-93090000D01*
X80740000Y-90350000D02*
X80740000Y-90680000D01*
X80740000Y-93090000D02*
X80740000Y-92760000D01*
%TO.C,J7*%
X113320000Y-114920000D02*
X120060000Y-114920000D01*
X113320000Y-116260000D02*
X113320000Y-114920000D01*
X113320000Y-120740000D02*
X113320000Y-116860000D01*
X114240000Y-114920000D02*
X114240000Y-120740000D01*
X115240000Y-114920000D02*
X115240000Y-120740000D01*
X118340000Y-114920000D02*
X118340000Y-120740000D01*
X120060000Y-114920000D02*
X120060000Y-120740000D01*
X120060000Y-120740000D02*
X113320000Y-120740000D01*
X113320000Y-116560000D02*
X112710000Y-117000000D01*
X112710000Y-116120000D01*
X113320000Y-116560000D01*
G36*
X113320000Y-116560000D02*
G01*
X112710000Y-117000000D01*
X112710000Y-116120000D01*
X113320000Y-116560000D01*
G37*
%TO.C,J1*%
X39650000Y-149217349D02*
X39650000Y-159377349D01*
X39650000Y-159377349D02*
X47270000Y-159377349D01*
X46000000Y-149217349D02*
X46000000Y-159377349D01*
X47270000Y-149217349D02*
X39650000Y-149217349D01*
X47270000Y-159377349D02*
X47270000Y-149217349D01*
%TO.C,R12*%
X74200000Y-120270000D02*
X80740000Y-120270000D01*
X74200000Y-120600000D02*
X74200000Y-120270000D01*
X74200000Y-122680000D02*
X74200000Y-123010000D01*
X74200000Y-123010000D02*
X80740000Y-123010000D01*
X80740000Y-120270000D02*
X80740000Y-120600000D01*
X80740000Y-123010000D02*
X80740000Y-122680000D01*
%TO.C,J3*%
X113320000Y-54240000D02*
X120060000Y-54240000D01*
X113320000Y-55580000D02*
X113320000Y-54240000D01*
X113320000Y-60060000D02*
X113320000Y-56180000D01*
X114240000Y-54240000D02*
X114240000Y-60060000D01*
X115240000Y-54240000D02*
X115240000Y-60060000D01*
X118340000Y-54240000D02*
X118340000Y-60060000D01*
X120060000Y-54240000D02*
X120060000Y-60060000D01*
X120060000Y-60060000D02*
X113320000Y-60060000D01*
X113320000Y-55880000D02*
X112710000Y-56320000D01*
X112710000Y-55440000D01*
X113320000Y-55880000D01*
G36*
X113320000Y-55880000D02*
G01*
X112710000Y-56320000D01*
X112710000Y-55440000D01*
X113320000Y-55880000D01*
G37*
%TO.C,R13*%
X74200000Y-130710000D02*
X74200000Y-131040000D01*
X74200000Y-133450000D02*
X74200000Y-133120000D01*
X80740000Y-130710000D02*
X74200000Y-130710000D01*
X80740000Y-131040000D02*
X80740000Y-130710000D01*
X80740000Y-133120000D02*
X80740000Y-133450000D01*
X80740000Y-133450000D02*
X74200000Y-133450000D01*
%TO.C,R11*%
X74200000Y-115190000D02*
X74200000Y-115520000D01*
X74200000Y-117930000D02*
X74200000Y-117600000D01*
X80740000Y-115190000D02*
X74200000Y-115190000D01*
X80740000Y-115520000D02*
X80740000Y-115190000D01*
X80740000Y-117600000D02*
X80740000Y-117930000D01*
X80740000Y-117930000D02*
X74200000Y-117930000D01*
%TO.C,Q4*%
X92600000Y-84070000D02*
X92600000Y-94290000D01*
X92600000Y-84070000D02*
X108470000Y-84070000D01*
X92600000Y-86155000D02*
X90160000Y-86155000D01*
X92600000Y-87125000D02*
X90160000Y-87125000D01*
X92600000Y-88695000D02*
X90160000Y-88695000D01*
X92600000Y-89665000D02*
X90160000Y-89665000D01*
X92600000Y-91235000D02*
X90160000Y-91235000D01*
X92600000Y-92205000D02*
X90160000Y-92205000D01*
X92600000Y-94290000D02*
X108470000Y-94290000D01*
X108470000Y-84070000D02*
X108470000Y-94290000D01*
%TO.C,J2*%
X113320000Y-39000000D02*
X120060000Y-39000000D01*
X113320000Y-40340000D02*
X113320000Y-39000000D01*
X113320000Y-44820000D02*
X113320000Y-40940000D01*
X114240000Y-39000000D02*
X114240000Y-44820000D01*
X115240000Y-39000000D02*
X115240000Y-44820000D01*
X118340000Y-39000000D02*
X118340000Y-44820000D01*
X120060000Y-39000000D02*
X120060000Y-44820000D01*
X120060000Y-44820000D02*
X113320000Y-44820000D01*
X113320000Y-40640000D02*
X112710000Y-41080000D01*
X112710000Y-40200000D01*
X113320000Y-40640000D01*
G36*
X113320000Y-40640000D02*
G01*
X112710000Y-41080000D01*
X112710000Y-40200000D01*
X113320000Y-40640000D01*
G37*
%TO.C,Q6*%
X92600000Y-113990000D02*
X92600000Y-124210000D01*
X92600000Y-113990000D02*
X108470000Y-113990000D01*
X92600000Y-116075000D02*
X90160000Y-116075000D01*
X92600000Y-117045000D02*
X90160000Y-117045000D01*
X92600000Y-118615000D02*
X90160000Y-118615000D01*
X92600000Y-119585000D02*
X90160000Y-119585000D01*
X92600000Y-121155000D02*
X90160000Y-121155000D01*
X92600000Y-122125000D02*
X90160000Y-122125000D01*
X92600000Y-124210000D02*
X108470000Y-124210000D01*
X108470000Y-113990000D02*
X108470000Y-124210000D01*
%TO.C,R6*%
X74200000Y-75110000D02*
X80740000Y-75110000D01*
X74200000Y-75440000D02*
X74200000Y-75110000D01*
X74200000Y-77520000D02*
X74200000Y-77850000D01*
X74200000Y-77850000D02*
X80740000Y-77850000D01*
X80740000Y-75110000D02*
X80740000Y-75440000D01*
X80740000Y-77850000D02*
X80740000Y-77520000D01*
%TO.C,C2*%
X56190000Y-118500000D02*
X60730000Y-118500000D01*
X56190000Y-118556000D02*
X56190000Y-118500000D01*
X60730000Y-120584000D02*
X60730000Y-120640000D01*
X60730000Y-120640000D02*
X56190000Y-120640000D01*
%TO.C,U2*%
D11*
X65440000Y-81527280D02*
X35040000Y-81527280D01*
X35040000Y-42717280D01*
X65440000Y-42717280D01*
X65440000Y-81527280D01*
X56330000Y-87007280D02*
X44330000Y-87007280D01*
X44330000Y-81507280D01*
X56330000Y-81507280D01*
X56330000Y-87007280D01*
X48307619Y-90339937D02*
X48355238Y-90292318D01*
X48355238Y-90292318D02*
X48450476Y-90244699D01*
X48450476Y-90244699D02*
X48688571Y-90244699D01*
X48688571Y-90244699D02*
X48783809Y-90292318D01*
X48783809Y-90292318D02*
X48831428Y-90339937D01*
X48831428Y-90339937D02*
X48879047Y-90435175D01*
X48879047Y-90435175D02*
X48879047Y-90530413D01*
X48879047Y-90530413D02*
X48831428Y-90673270D01*
X48831428Y-90673270D02*
X48260000Y-91244699D01*
X48260000Y-91244699D02*
X48879047Y-91244699D01*
X49736190Y-90244699D02*
X49545714Y-90244699D01*
X49545714Y-90244699D02*
X49450476Y-90292318D01*
X49450476Y-90292318D02*
X49402857Y-90339937D01*
X49402857Y-90339937D02*
X49307619Y-90482794D01*
X49307619Y-90482794D02*
X49260000Y-90673270D01*
X49260000Y-90673270D02*
X49260000Y-91054222D01*
X49260000Y-91054222D02*
X49307619Y-91149460D01*
X49307619Y-91149460D02*
X49355238Y-91197080D01*
X49355238Y-91197080D02*
X49450476Y-91244699D01*
X49450476Y-91244699D02*
X49640952Y-91244699D01*
X49640952Y-91244699D02*
X49736190Y-91197080D01*
X49736190Y-91197080D02*
X49783809Y-91149460D01*
X49783809Y-91149460D02*
X49831428Y-91054222D01*
X49831428Y-91054222D02*
X49831428Y-90816127D01*
X49831428Y-90816127D02*
X49783809Y-90720889D01*
X49783809Y-90720889D02*
X49736190Y-90673270D01*
X49736190Y-90673270D02*
X49640952Y-90625651D01*
X49640952Y-90625651D02*
X49450476Y-90625651D01*
X49450476Y-90625651D02*
X49355238Y-90673270D01*
X49355238Y-90673270D02*
X49307619Y-90720889D01*
X49307619Y-90720889D02*
X49260000Y-90816127D01*
X50260000Y-91149460D02*
X50307619Y-91197080D01*
X50307619Y-91197080D02*
X50260000Y-91244699D01*
X50260000Y-91244699D02*
X50212381Y-91197080D01*
X50212381Y-91197080D02*
X50260000Y-91149460D01*
X50260000Y-91149460D02*
X50260000Y-91244699D01*
X50879047Y-90673270D02*
X50783809Y-90625651D01*
X50783809Y-90625651D02*
X50736190Y-90578032D01*
X50736190Y-90578032D02*
X50688571Y-90482794D01*
X50688571Y-90482794D02*
X50688571Y-90435175D01*
X50688571Y-90435175D02*
X50736190Y-90339937D01*
X50736190Y-90339937D02*
X50783809Y-90292318D01*
X50783809Y-90292318D02*
X50879047Y-90244699D01*
X50879047Y-90244699D02*
X51069523Y-90244699D01*
X51069523Y-90244699D02*
X51164761Y-90292318D01*
X51164761Y-90292318D02*
X51212380Y-90339937D01*
X51212380Y-90339937D02*
X51259999Y-90435175D01*
X51259999Y-90435175D02*
X51259999Y-90482794D01*
X51259999Y-90482794D02*
X51212380Y-90578032D01*
X51212380Y-90578032D02*
X51164761Y-90625651D01*
X51164761Y-90625651D02*
X51069523Y-90673270D01*
X51069523Y-90673270D02*
X50879047Y-90673270D01*
X50879047Y-90673270D02*
X50783809Y-90720889D01*
X50783809Y-90720889D02*
X50736190Y-90768508D01*
X50736190Y-90768508D02*
X50688571Y-90863746D01*
X50688571Y-90863746D02*
X50688571Y-91054222D01*
X50688571Y-91054222D02*
X50736190Y-91149460D01*
X50736190Y-91149460D02*
X50783809Y-91197080D01*
X50783809Y-91197080D02*
X50879047Y-91244699D01*
X50879047Y-91244699D02*
X51069523Y-91244699D01*
X51069523Y-91244699D02*
X51164761Y-91197080D01*
X51164761Y-91197080D02*
X51212380Y-91149460D01*
X51212380Y-91149460D02*
X51259999Y-91054222D01*
X51259999Y-91054222D02*
X51259999Y-90863746D01*
X51259999Y-90863746D02*
X51212380Y-90768508D01*
X51212380Y-90768508D02*
X51164761Y-90720889D01*
X51164761Y-90720889D02*
X51069523Y-90673270D01*
X52117142Y-90244699D02*
X51926666Y-90244699D01*
X51926666Y-90244699D02*
X51831428Y-90292318D01*
X51831428Y-90292318D02*
X51783809Y-90339937D01*
X51783809Y-90339937D02*
X51688571Y-90482794D01*
X51688571Y-90482794D02*
X51640952Y-90673270D01*
X51640952Y-90673270D02*
X51640952Y-91054222D01*
X51640952Y-91054222D02*
X51688571Y-91149460D01*
X51688571Y-91149460D02*
X51736190Y-91197080D01*
X51736190Y-91197080D02*
X51831428Y-91244699D01*
X51831428Y-91244699D02*
X52021904Y-91244699D01*
X52021904Y-91244699D02*
X52117142Y-91197080D01*
X52117142Y-91197080D02*
X52164761Y-91149460D01*
X52164761Y-91149460D02*
X52212380Y-91054222D01*
X52212380Y-91054222D02*
X52212380Y-90816127D01*
X52212380Y-90816127D02*
X52164761Y-90720889D01*
X52164761Y-90720889D02*
X52117142Y-90673270D01*
X52117142Y-90673270D02*
X52021904Y-90625651D01*
X52021904Y-90625651D02*
X51831428Y-90625651D01*
X51831428Y-90625651D02*
X51736190Y-90673270D01*
X51736190Y-90673270D02*
X51688571Y-90720889D01*
X51688571Y-90720889D02*
X51640952Y-90816127D01*
X36830000Y-80507280D02*
X36830000Y-92473700D01*
X63690000Y-92473700D02*
X63690000Y-80387280D01*
X36830000Y-91887280D02*
X63690000Y-91887280D01*
X36830000Y-91887280D02*
X37956504Y-91300859D01*
X36830000Y-91887280D02*
X37956504Y-92473701D01*
X63690000Y-91887280D02*
X62563496Y-92473701D01*
X63690000Y-91887280D02*
X62563496Y-91300859D01*
%TD*%
M02*
