M48
; DRILL file {KiCad 9.0.7} date 2026-02-06T13:46:29+0000
; FORMAT={-:-/ absolute / metric / decimal}
; #@! TF.CreationDate,2026-02-06T13:46:29+00:00
; #@! TF.GenerationSoftware,Kicad,Pcbnew,9.0.7
; #@! TF.FileFunction,Plated,1,2,PTH
FMAT,2
METRIC
; #@! TA.AperFunction,Plated,PTH,ViaDrill
T1C0.400
; #@! TA.AperFunction,Plated,PTH,ComponentDrill
T2C0.800
; #@! TA.AperFunction,Plated,PTH,ComponentDrill
T3C1.000
; #@! TA.AperFunction,Plated,PTH,ComponentDrill
T4C1.100
; #@! TA.AperFunction,Plated,PTH,ComponentDrill
T5C1.520
%
G90
G05
T1
X38.5Y-56.5
X38.75Y-64.25
T2
X38.14Y-75.08
X38.14Y-77.62
X38.14Y-80.16
X38.14Y-82.7
X38.14Y-85.24
X38.14Y-87.78
X38.14Y-90.32
X38.14Y-92.86
X38.14Y-95.4
X38.14Y-97.94
X38.14Y-100.48
X38.14Y-103.02
X38.14Y-105.56
X38.144Y-70.003
X38.144Y-72.543
X38.307Y-143.96
X41.807Y-143.96
X44.5Y-53.2
X44.5Y-60.82
X51.5Y-53.38
X51.5Y-61.0
X51.96Y-123.233
X51.96Y-128.313
X56.96Y-123.233
X56.96Y-128.313
X61.0Y-70.0
X61.0Y-72.54
X61.0Y-75.08
X61.0Y-77.62
X61.0Y-80.16
X61.0Y-82.7
X61.0Y-85.24
X61.0Y-87.78
X61.0Y-90.32
X61.0Y-92.86
X61.0Y-95.4
X61.0Y-97.94
X61.0Y-100.48
X61.0Y-103.02
X61.0Y-105.56
X73.66Y-40.64
X73.66Y-45.72
X73.66Y-55.88
X73.66Y-60.96
X73.66Y-71.4
X73.66Y-76.48
X73.66Y-86.64
X73.66Y-91.72
X73.66Y-101.6
X73.66Y-106.68
X73.66Y-116.56
X73.66Y-121.64
X73.66Y-132.08
X73.66Y-137.16
X73.66Y-147.32
X73.66Y-151.84
X81.28Y-40.64
X81.28Y-45.72
X81.28Y-55.88
X81.28Y-60.96
X81.28Y-71.4
X81.28Y-76.48
X81.28Y-86.64
X81.28Y-91.72
X81.28Y-101.6
X81.28Y-106.68
X81.28Y-116.56
X81.28Y-121.64
X81.28Y-132.08
X81.28Y-137.16
X81.28Y-147.32
X81.28Y-151.84
T3
X44.5Y-45.58
X44.5Y-48.12
X51.5Y-45.76
X51.5Y-48.3
T4
X51.88Y-134.323
X54.42Y-134.323
X56.96Y-134.323
X88.9Y-40.64
X88.9Y-43.18
X88.9Y-45.72
X88.9Y-55.88
X88.9Y-58.42
X88.9Y-60.96
X88.9Y-71.4
X88.9Y-73.94
X88.9Y-76.48
X88.9Y-86.64
X88.9Y-89.18
X88.9Y-91.72
X88.9Y-101.6
X88.9Y-104.14
X88.9Y-106.68
X88.9Y-116.56
X88.9Y-119.1
X88.9Y-121.64
X88.9Y-132.08
X88.9Y-134.62
X88.9Y-137.16
X88.9Y-147.32
X88.9Y-149.86
X88.9Y-152.4
T5
X39.46Y-155.42
X39.46Y-160.5
X116.84Y-40.64
X116.84Y-45.72
X116.84Y-55.88
X116.84Y-60.96
X116.84Y-71.4
X116.84Y-76.48
X116.84Y-86.64
X116.84Y-91.72
X116.84Y-101.6
X116.84Y-106.68
X116.84Y-116.56
X116.84Y-121.64
X116.84Y-132.08
X116.84Y-137.16
X116.84Y-147.32
X116.84Y-152.4
M30
