%TF.GenerationSoftware,KiCad,Pcbnew,9.0.7*%
%TF.CreationDate,2026-02-16T10:21:59+00:00*%
%TF.ProjectId,VANDIMMER-8CH,56414e44-494d-44d4-9552-2d3843482e6b,rev?*%
%TF.SameCoordinates,Original*%
%TF.FileFunction,Legend,Top*%
%TF.FilePolarity,Positive*%
%FSLAX46Y46*%
G04 Gerber Fmt 4.6, Leading zero omitted, Abs format (unit mm)*
G04 Created by KiCad (PCBNEW 9.0.7) date 2026-02-16 10:21:59*
%MOMM*%
%LPD*%
G01*
G04 APERTURE LIST*
%ADD10C,0.150000*%
%ADD11C,0.100000*%
%ADD12C,0.120000*%
G04 APERTURE END LIST*
D10*
X61964649Y-92391246D02*
X61964649Y-93091246D01*
X61964649Y-93091246D02*
X61797982Y-93091246D01*
X61797982Y-93091246D02*
X61697982Y-93057913D01*
X61697982Y-93057913D02*
X61631316Y-92991246D01*
X61631316Y-92991246D02*
X61597982Y-92924580D01*
X61597982Y-92924580D02*
X61564649Y-92791246D01*
X61564649Y-92791246D02*
X61564649Y-92691246D01*
X61564649Y-92691246D02*
X61597982Y-92557913D01*
X61597982Y-92557913D02*
X61631316Y-92491246D01*
X61631316Y-92491246D02*
X61697982Y-92424580D01*
X61697982Y-92424580D02*
X61797982Y-92391246D01*
X61797982Y-92391246D02*
X61964649Y-92391246D01*
X61331316Y-93091246D02*
X60897982Y-93091246D01*
X60897982Y-93091246D02*
X61131316Y-92824580D01*
X61131316Y-92824580D02*
X61031316Y-92824580D01*
X61031316Y-92824580D02*
X60964649Y-92791246D01*
X60964649Y-92791246D02*
X60931316Y-92757913D01*
X60931316Y-92757913D02*
X60897982Y-92691246D01*
X60897982Y-92691246D02*
X60897982Y-92524580D01*
X60897982Y-92524580D02*
X60931316Y-92457913D01*
X60931316Y-92457913D02*
X60964649Y-92424580D01*
X60964649Y-92424580D02*
X61031316Y-92391246D01*
X61031316Y-92391246D02*
X61231316Y-92391246D01*
X61231316Y-92391246D02*
X61297982Y-92424580D01*
X61297982Y-92424580D02*
X61331316Y-92457913D01*
X60631315Y-93024580D02*
X60597982Y-93057913D01*
X60597982Y-93057913D02*
X60531315Y-93091246D01*
X60531315Y-93091246D02*
X60364649Y-93091246D01*
X60364649Y-93091246D02*
X60297982Y-93057913D01*
X60297982Y-93057913D02*
X60264649Y-93024580D01*
X60264649Y-93024580D02*
X60231315Y-92957913D01*
X60231315Y-92957913D02*
X60231315Y-92891246D01*
X60231315Y-92891246D02*
X60264649Y-92791246D01*
X60264649Y-92791246D02*
X60664649Y-92391246D01*
X60664649Y-92391246D02*
X60231315Y-92391246D01*
D11*
X51538224Y-62664860D02*
X51538224Y-61855337D01*
X51538224Y-61855337D02*
X51490605Y-61760099D01*
X51490605Y-61760099D02*
X51442986Y-61712480D01*
X51442986Y-61712480D02*
X51347748Y-61664860D01*
X51347748Y-61664860D02*
X51157272Y-61664860D01*
X51157272Y-61664860D02*
X51062034Y-61712480D01*
X51062034Y-61712480D02*
X51014415Y-61760099D01*
X51014415Y-61760099D02*
X50966796Y-61855337D01*
X50966796Y-61855337D02*
X50966796Y-62664860D01*
X50538224Y-62569622D02*
X50490605Y-62617241D01*
X50490605Y-62617241D02*
X50395367Y-62664860D01*
X50395367Y-62664860D02*
X50157272Y-62664860D01*
X50157272Y-62664860D02*
X50062034Y-62617241D01*
X50062034Y-62617241D02*
X50014415Y-62569622D01*
X50014415Y-62569622D02*
X49966796Y-62474384D01*
X49966796Y-62474384D02*
X49966796Y-62379146D01*
X49966796Y-62379146D02*
X50014415Y-62236289D01*
X50014415Y-62236289D02*
X50585843Y-61664860D01*
X50585843Y-61664860D02*
X49966796Y-61664860D01*
D10*
X62690969Y-59351246D02*
X62690969Y-60051246D01*
X62690969Y-60051246D02*
X62524302Y-60051246D01*
X62524302Y-60051246D02*
X62424302Y-60017913D01*
X62424302Y-60017913D02*
X62357636Y-59951246D01*
X62357636Y-59951246D02*
X62324302Y-59884580D01*
X62324302Y-59884580D02*
X62290969Y-59751246D01*
X62290969Y-59751246D02*
X62290969Y-59651246D01*
X62290969Y-59651246D02*
X62324302Y-59517913D01*
X62324302Y-59517913D02*
X62357636Y-59451246D01*
X62357636Y-59451246D02*
X62424302Y-59384580D01*
X62424302Y-59384580D02*
X62524302Y-59351246D01*
X62524302Y-59351246D02*
X62690969Y-59351246D01*
X62024302Y-59984580D02*
X61990969Y-60017913D01*
X61990969Y-60017913D02*
X61924302Y-60051246D01*
X61924302Y-60051246D02*
X61757636Y-60051246D01*
X61757636Y-60051246D02*
X61690969Y-60017913D01*
X61690969Y-60017913D02*
X61657636Y-59984580D01*
X61657636Y-59984580D02*
X61624302Y-59917913D01*
X61624302Y-59917913D02*
X61624302Y-59851246D01*
X61624302Y-59851246D02*
X61657636Y-59751246D01*
X61657636Y-59751246D02*
X62057636Y-59351246D01*
X62057636Y-59351246D02*
X61624302Y-59351246D01*
X61024302Y-60051246D02*
X61157635Y-60051246D01*
X61157635Y-60051246D02*
X61224302Y-60017913D01*
X61224302Y-60017913D02*
X61257635Y-59984580D01*
X61257635Y-59984580D02*
X61324302Y-59884580D01*
X61324302Y-59884580D02*
X61357635Y-59751246D01*
X61357635Y-59751246D02*
X61357635Y-59484580D01*
X61357635Y-59484580D02*
X61324302Y-59417913D01*
X61324302Y-59417913D02*
X61290969Y-59384580D01*
X61290969Y-59384580D02*
X61224302Y-59351246D01*
X61224302Y-59351246D02*
X61090969Y-59351246D01*
X61090969Y-59351246D02*
X61024302Y-59384580D01*
X61024302Y-59384580D02*
X60990969Y-59417913D01*
X60990969Y-59417913D02*
X60957635Y-59484580D01*
X60957635Y-59484580D02*
X60957635Y-59651246D01*
X60957635Y-59651246D02*
X60990969Y-59717913D01*
X60990969Y-59717913D02*
X61024302Y-59751246D01*
X61024302Y-59751246D02*
X61090969Y-59784580D01*
X61090969Y-59784580D02*
X61224302Y-59784580D01*
X61224302Y-59784580D02*
X61290969Y-59751246D01*
X61290969Y-59751246D02*
X61324302Y-59717913D01*
X61324302Y-59717913D02*
X61357635Y-59651246D01*
X62790969Y-44811246D02*
X62557636Y-44111246D01*
X62557636Y-44111246D02*
X62324302Y-44811246D01*
X62090969Y-44111246D02*
X62090969Y-44811246D01*
X61757636Y-44111246D02*
X61757636Y-44811246D01*
X61757636Y-44811246D02*
X61357636Y-44111246D01*
X61357636Y-44111246D02*
X61357636Y-44811246D01*
X42101671Y-72071246D02*
X42335004Y-72404580D01*
X42501671Y-72071246D02*
X42501671Y-72771246D01*
X42501671Y-72771246D02*
X42235004Y-72771246D01*
X42235004Y-72771246D02*
X42168338Y-72737913D01*
X42168338Y-72737913D02*
X42135004Y-72704580D01*
X42135004Y-72704580D02*
X42101671Y-72637913D01*
X42101671Y-72637913D02*
X42101671Y-72537913D01*
X42101671Y-72537913D02*
X42135004Y-72471246D01*
X42135004Y-72471246D02*
X42168338Y-72437913D01*
X42168338Y-72437913D02*
X42235004Y-72404580D01*
X42235004Y-72404580D02*
X42501671Y-72404580D01*
X41868338Y-72071246D02*
X41501671Y-72537913D01*
X41868338Y-72537913D02*
X41501671Y-72071246D01*
X41101671Y-72771246D02*
X41035004Y-72771246D01*
X41035004Y-72771246D02*
X40968337Y-72737913D01*
X40968337Y-72737913D02*
X40935004Y-72704580D01*
X40935004Y-72704580D02*
X40901671Y-72637913D01*
X40901671Y-72637913D02*
X40868337Y-72504580D01*
X40868337Y-72504580D02*
X40868337Y-72337913D01*
X40868337Y-72337913D02*
X40901671Y-72204580D01*
X40901671Y-72204580D02*
X40935004Y-72137913D01*
X40935004Y-72137913D02*
X40968337Y-72104580D01*
X40968337Y-72104580D02*
X41035004Y-72071246D01*
X41035004Y-72071246D02*
X41101671Y-72071246D01*
X41101671Y-72071246D02*
X41168337Y-72104580D01*
X41168337Y-72104580D02*
X41201671Y-72137913D01*
X41201671Y-72137913D02*
X41235004Y-72204580D01*
X41235004Y-72204580D02*
X41268337Y-72337913D01*
X41268337Y-72337913D02*
X41268337Y-72504580D01*
X41268337Y-72504580D02*
X41235004Y-72637913D01*
X41235004Y-72637913D02*
X41201671Y-72704580D01*
X41201671Y-72704580D02*
X41168337Y-72737913D01*
X41168337Y-72737913D02*
X41101671Y-72771246D01*
X62690969Y-72051246D02*
X62690969Y-72751246D01*
X62690969Y-72751246D02*
X62524302Y-72751246D01*
X62524302Y-72751246D02*
X62424302Y-72717913D01*
X62424302Y-72717913D02*
X62357636Y-72651246D01*
X62357636Y-72651246D02*
X62324302Y-72584580D01*
X62324302Y-72584580D02*
X62290969Y-72451246D01*
X62290969Y-72451246D02*
X62290969Y-72351246D01*
X62290969Y-72351246D02*
X62324302Y-72217913D01*
X62324302Y-72217913D02*
X62357636Y-72151246D01*
X62357636Y-72151246D02*
X62424302Y-72084580D01*
X62424302Y-72084580D02*
X62524302Y-72051246D01*
X62524302Y-72051246D02*
X62690969Y-72051246D01*
X62057636Y-72751246D02*
X61624302Y-72751246D01*
X61624302Y-72751246D02*
X61857636Y-72484580D01*
X61857636Y-72484580D02*
X61757636Y-72484580D01*
X61757636Y-72484580D02*
X61690969Y-72451246D01*
X61690969Y-72451246D02*
X61657636Y-72417913D01*
X61657636Y-72417913D02*
X61624302Y-72351246D01*
X61624302Y-72351246D02*
X61624302Y-72184580D01*
X61624302Y-72184580D02*
X61657636Y-72117913D01*
X61657636Y-72117913D02*
X61690969Y-72084580D01*
X61690969Y-72084580D02*
X61757636Y-72051246D01*
X61757636Y-72051246D02*
X61957636Y-72051246D01*
X61957636Y-72051246D02*
X62024302Y-72084580D01*
X62024302Y-72084580D02*
X62057636Y-72117913D01*
X61024302Y-72517913D02*
X61024302Y-72051246D01*
X61190969Y-72784580D02*
X61357635Y-72284580D01*
X61357635Y-72284580D02*
X60924302Y-72284580D01*
X41935004Y-61911246D02*
X41935004Y-62611246D01*
X41935004Y-62611246D02*
X41768337Y-62611246D01*
X41768337Y-62611246D02*
X41668337Y-62577913D01*
X41668337Y-62577913D02*
X41601671Y-62511246D01*
X41601671Y-62511246D02*
X41568337Y-62444580D01*
X41568337Y-62444580D02*
X41535004Y-62311246D01*
X41535004Y-62311246D02*
X41535004Y-62211246D01*
X41535004Y-62211246D02*
X41568337Y-62077913D01*
X41568337Y-62077913D02*
X41601671Y-62011246D01*
X41601671Y-62011246D02*
X41668337Y-61944580D01*
X41668337Y-61944580D02*
X41768337Y-61911246D01*
X41768337Y-61911246D02*
X41935004Y-61911246D01*
X40901671Y-62611246D02*
X41235004Y-62611246D01*
X41235004Y-62611246D02*
X41268337Y-62277913D01*
X41268337Y-62277913D02*
X41235004Y-62311246D01*
X41235004Y-62311246D02*
X41168337Y-62344580D01*
X41168337Y-62344580D02*
X41001671Y-62344580D01*
X41001671Y-62344580D02*
X40935004Y-62311246D01*
X40935004Y-62311246D02*
X40901671Y-62277913D01*
X40901671Y-62277913D02*
X40868337Y-62211246D01*
X40868337Y-62211246D02*
X40868337Y-62044580D01*
X40868337Y-62044580D02*
X40901671Y-61977913D01*
X40901671Y-61977913D02*
X40935004Y-61944580D01*
X40935004Y-61944580D02*
X41001671Y-61911246D01*
X41001671Y-61911246D02*
X41168337Y-61911246D01*
X41168337Y-61911246D02*
X41235004Y-61944580D01*
X41235004Y-61944580D02*
X41268337Y-61977913D01*
X42601671Y-66991246D02*
X42601671Y-67691246D01*
X42601671Y-67691246D02*
X42435004Y-67691246D01*
X42435004Y-67691246D02*
X42335004Y-67657913D01*
X42335004Y-67657913D02*
X42268338Y-67591246D01*
X42268338Y-67591246D02*
X42235004Y-67524580D01*
X42235004Y-67524580D02*
X42201671Y-67391246D01*
X42201671Y-67391246D02*
X42201671Y-67291246D01*
X42201671Y-67291246D02*
X42235004Y-67157913D01*
X42235004Y-67157913D02*
X42268338Y-67091246D01*
X42268338Y-67091246D02*
X42335004Y-67024580D01*
X42335004Y-67024580D02*
X42435004Y-66991246D01*
X42435004Y-66991246D02*
X42601671Y-66991246D01*
X41535004Y-66991246D02*
X41935004Y-66991246D01*
X41735004Y-66991246D02*
X41735004Y-67691246D01*
X41735004Y-67691246D02*
X41801671Y-67591246D01*
X41801671Y-67591246D02*
X41868338Y-67524580D01*
X41868338Y-67524580D02*
X41935004Y-67491246D01*
X41201671Y-66991246D02*
X41068337Y-66991246D01*
X41068337Y-66991246D02*
X41001671Y-67024580D01*
X41001671Y-67024580D02*
X40968337Y-67057913D01*
X40968337Y-67057913D02*
X40901671Y-67157913D01*
X40901671Y-67157913D02*
X40868337Y-67291246D01*
X40868337Y-67291246D02*
X40868337Y-67557913D01*
X40868337Y-67557913D02*
X40901671Y-67624580D01*
X40901671Y-67624580D02*
X40935004Y-67657913D01*
X40935004Y-67657913D02*
X41001671Y-67691246D01*
X41001671Y-67691246D02*
X41135004Y-67691246D01*
X41135004Y-67691246D02*
X41201671Y-67657913D01*
X41201671Y-67657913D02*
X41235004Y-67624580D01*
X41235004Y-67624580D02*
X41268337Y-67557913D01*
X41268337Y-67557913D02*
X41268337Y-67391246D01*
X41268337Y-67391246D02*
X41235004Y-67324580D01*
X41235004Y-67324580D02*
X41201671Y-67291246D01*
X41201671Y-67291246D02*
X41135004Y-67257913D01*
X41135004Y-67257913D02*
X41001671Y-67257913D01*
X41001671Y-67257913D02*
X40935004Y-67291246D01*
X40935004Y-67291246D02*
X40901671Y-67324580D01*
X40901671Y-67324580D02*
X40868337Y-67391246D01*
X42435004Y-75311246D02*
X42035004Y-75311246D01*
X42235004Y-74611246D02*
X42235004Y-75311246D01*
X41868338Y-74611246D02*
X41501671Y-75077913D01*
X41868338Y-75077913D02*
X41501671Y-74611246D01*
X41101671Y-75311246D02*
X41035004Y-75311246D01*
X41035004Y-75311246D02*
X40968337Y-75277913D01*
X40968337Y-75277913D02*
X40935004Y-75244580D01*
X40935004Y-75244580D02*
X40901671Y-75177913D01*
X40901671Y-75177913D02*
X40868337Y-75044580D01*
X40868337Y-75044580D02*
X40868337Y-74877913D01*
X40868337Y-74877913D02*
X40901671Y-74744580D01*
X40901671Y-74744580D02*
X40935004Y-74677913D01*
X40935004Y-74677913D02*
X40968337Y-74644580D01*
X40968337Y-74644580D02*
X41035004Y-74611246D01*
X41035004Y-74611246D02*
X41101671Y-74611246D01*
X41101671Y-74611246D02*
X41168337Y-74644580D01*
X41168337Y-74644580D02*
X41201671Y-74677913D01*
X41201671Y-74677913D02*
X41235004Y-74744580D01*
X41235004Y-74744580D02*
X41268337Y-74877913D01*
X41268337Y-74877913D02*
X41268337Y-75044580D01*
X41268337Y-75044580D02*
X41235004Y-75177913D01*
X41235004Y-75177913D02*
X41201671Y-75244580D01*
X41201671Y-75244580D02*
X41168337Y-75277913D01*
X41168337Y-75277913D02*
X41101671Y-75311246D01*
X42601671Y-49211246D02*
X42601671Y-49911246D01*
X42601671Y-49911246D02*
X42435004Y-49911246D01*
X42435004Y-49911246D02*
X42335004Y-49877913D01*
X42335004Y-49877913D02*
X42268338Y-49811246D01*
X42268338Y-49811246D02*
X42235004Y-49744580D01*
X42235004Y-49744580D02*
X42201671Y-49611246D01*
X42201671Y-49611246D02*
X42201671Y-49511246D01*
X42201671Y-49511246D02*
X42235004Y-49377913D01*
X42235004Y-49377913D02*
X42268338Y-49311246D01*
X42268338Y-49311246D02*
X42335004Y-49244580D01*
X42335004Y-49244580D02*
X42435004Y-49211246D01*
X42435004Y-49211246D02*
X42601671Y-49211246D01*
X41535004Y-49211246D02*
X41935004Y-49211246D01*
X41735004Y-49211246D02*
X41735004Y-49911246D01*
X41735004Y-49911246D02*
X41801671Y-49811246D01*
X41801671Y-49811246D02*
X41868338Y-49744580D01*
X41868338Y-49744580D02*
X41935004Y-49711246D01*
X40901671Y-49911246D02*
X41235004Y-49911246D01*
X41235004Y-49911246D02*
X41268337Y-49577913D01*
X41268337Y-49577913D02*
X41235004Y-49611246D01*
X41235004Y-49611246D02*
X41168337Y-49644580D01*
X41168337Y-49644580D02*
X41001671Y-49644580D01*
X41001671Y-49644580D02*
X40935004Y-49611246D01*
X40935004Y-49611246D02*
X40901671Y-49577913D01*
X40901671Y-49577913D02*
X40868337Y-49511246D01*
X40868337Y-49511246D02*
X40868337Y-49344580D01*
X40868337Y-49344580D02*
X40901671Y-49277913D01*
X40901671Y-49277913D02*
X40935004Y-49244580D01*
X40935004Y-49244580D02*
X41001671Y-49211246D01*
X41001671Y-49211246D02*
X41168337Y-49211246D01*
X41168337Y-49211246D02*
X41235004Y-49244580D01*
X41235004Y-49244580D02*
X41268337Y-49277913D01*
X42601671Y-69531246D02*
X42601671Y-70231246D01*
X42601671Y-70231246D02*
X42435004Y-70231246D01*
X42435004Y-70231246D02*
X42335004Y-70197913D01*
X42335004Y-70197913D02*
X42268338Y-70131246D01*
X42268338Y-70131246D02*
X42235004Y-70064580D01*
X42235004Y-70064580D02*
X42201671Y-69931246D01*
X42201671Y-69931246D02*
X42201671Y-69831246D01*
X42201671Y-69831246D02*
X42235004Y-69697913D01*
X42235004Y-69697913D02*
X42268338Y-69631246D01*
X42268338Y-69631246D02*
X42335004Y-69564580D01*
X42335004Y-69564580D02*
X42435004Y-69531246D01*
X42435004Y-69531246D02*
X42601671Y-69531246D01*
X41935004Y-70164580D02*
X41901671Y-70197913D01*
X41901671Y-70197913D02*
X41835004Y-70231246D01*
X41835004Y-70231246D02*
X41668338Y-70231246D01*
X41668338Y-70231246D02*
X41601671Y-70197913D01*
X41601671Y-70197913D02*
X41568338Y-70164580D01*
X41568338Y-70164580D02*
X41535004Y-70097913D01*
X41535004Y-70097913D02*
X41535004Y-70031246D01*
X41535004Y-70031246D02*
X41568338Y-69931246D01*
X41568338Y-69931246D02*
X41968338Y-69531246D01*
X41968338Y-69531246D02*
X41535004Y-69531246D01*
X40868337Y-69531246D02*
X41268337Y-69531246D01*
X41068337Y-69531246D02*
X41068337Y-70231246D01*
X41068337Y-70231246D02*
X41135004Y-70131246D01*
X41135004Y-70131246D02*
X41201671Y-70064580D01*
X41201671Y-70064580D02*
X41268337Y-70031246D01*
X42835004Y-44831246D02*
X42401670Y-44831246D01*
X42401670Y-44831246D02*
X42635004Y-44564580D01*
X42635004Y-44564580D02*
X42535004Y-44564580D01*
X42535004Y-44564580D02*
X42468337Y-44531246D01*
X42468337Y-44531246D02*
X42435004Y-44497913D01*
X42435004Y-44497913D02*
X42401670Y-44431246D01*
X42401670Y-44431246D02*
X42401670Y-44264580D01*
X42401670Y-44264580D02*
X42435004Y-44197913D01*
X42435004Y-44197913D02*
X42468337Y-44164580D01*
X42468337Y-44164580D02*
X42535004Y-44131246D01*
X42535004Y-44131246D02*
X42735004Y-44131246D01*
X42735004Y-44131246D02*
X42801670Y-44164580D01*
X42801670Y-44164580D02*
X42835004Y-44197913D01*
X42101670Y-44197913D02*
X42068337Y-44164580D01*
X42068337Y-44164580D02*
X42101670Y-44131246D01*
X42101670Y-44131246D02*
X42135003Y-44164580D01*
X42135003Y-44164580D02*
X42101670Y-44197913D01*
X42101670Y-44197913D02*
X42101670Y-44131246D01*
X41835004Y-44831246D02*
X41401670Y-44831246D01*
X41401670Y-44831246D02*
X41635004Y-44564580D01*
X41635004Y-44564580D02*
X41535004Y-44564580D01*
X41535004Y-44564580D02*
X41468337Y-44531246D01*
X41468337Y-44531246D02*
X41435004Y-44497913D01*
X41435004Y-44497913D02*
X41401670Y-44431246D01*
X41401670Y-44431246D02*
X41401670Y-44264580D01*
X41401670Y-44264580D02*
X41435004Y-44197913D01*
X41435004Y-44197913D02*
X41468337Y-44164580D01*
X41468337Y-44164580D02*
X41535004Y-44131246D01*
X41535004Y-44131246D02*
X41735004Y-44131246D01*
X41735004Y-44131246D02*
X41801670Y-44164580D01*
X41801670Y-44164580D02*
X41835004Y-44197913D01*
X41168337Y-44597913D02*
X41001670Y-44131246D01*
X41001670Y-44131246D02*
X40835003Y-44597913D01*
X62690969Y-61891246D02*
X62690969Y-62591246D01*
X62690969Y-62591246D02*
X62524302Y-62591246D01*
X62524302Y-62591246D02*
X62424302Y-62557913D01*
X62424302Y-62557913D02*
X62357636Y-62491246D01*
X62357636Y-62491246D02*
X62324302Y-62424580D01*
X62324302Y-62424580D02*
X62290969Y-62291246D01*
X62290969Y-62291246D02*
X62290969Y-62191246D01*
X62290969Y-62191246D02*
X62324302Y-62057913D01*
X62324302Y-62057913D02*
X62357636Y-61991246D01*
X62357636Y-61991246D02*
X62424302Y-61924580D01*
X62424302Y-61924580D02*
X62524302Y-61891246D01*
X62524302Y-61891246D02*
X62690969Y-61891246D01*
X62024302Y-62524580D02*
X61990969Y-62557913D01*
X61990969Y-62557913D02*
X61924302Y-62591246D01*
X61924302Y-62591246D02*
X61757636Y-62591246D01*
X61757636Y-62591246D02*
X61690969Y-62557913D01*
X61690969Y-62557913D02*
X61657636Y-62524580D01*
X61657636Y-62524580D02*
X61624302Y-62457913D01*
X61624302Y-62457913D02*
X61624302Y-62391246D01*
X61624302Y-62391246D02*
X61657636Y-62291246D01*
X61657636Y-62291246D02*
X62057636Y-61891246D01*
X62057636Y-61891246D02*
X61624302Y-61891246D01*
X60990969Y-62591246D02*
X61324302Y-62591246D01*
X61324302Y-62591246D02*
X61357635Y-62257913D01*
X61357635Y-62257913D02*
X61324302Y-62291246D01*
X61324302Y-62291246D02*
X61257635Y-62324580D01*
X61257635Y-62324580D02*
X61090969Y-62324580D01*
X61090969Y-62324580D02*
X61024302Y-62291246D01*
X61024302Y-62291246D02*
X60990969Y-62257913D01*
X60990969Y-62257913D02*
X60957635Y-62191246D01*
X60957635Y-62191246D02*
X60957635Y-62024580D01*
X60957635Y-62024580D02*
X60990969Y-61957913D01*
X60990969Y-61957913D02*
X61024302Y-61924580D01*
X61024302Y-61924580D02*
X61090969Y-61891246D01*
X61090969Y-61891246D02*
X61257635Y-61891246D01*
X61257635Y-61891246D02*
X61324302Y-61924580D01*
X61324302Y-61924580D02*
X61357635Y-61957913D01*
X62690969Y-69511246D02*
X62690969Y-70211246D01*
X62690969Y-70211246D02*
X62524302Y-70211246D01*
X62524302Y-70211246D02*
X62424302Y-70177913D01*
X62424302Y-70177913D02*
X62357636Y-70111246D01*
X62357636Y-70111246D02*
X62324302Y-70044580D01*
X62324302Y-70044580D02*
X62290969Y-69911246D01*
X62290969Y-69911246D02*
X62290969Y-69811246D01*
X62290969Y-69811246D02*
X62324302Y-69677913D01*
X62324302Y-69677913D02*
X62357636Y-69611246D01*
X62357636Y-69611246D02*
X62424302Y-69544580D01*
X62424302Y-69544580D02*
X62524302Y-69511246D01*
X62524302Y-69511246D02*
X62690969Y-69511246D01*
X62057636Y-70211246D02*
X61624302Y-70211246D01*
X61624302Y-70211246D02*
X61857636Y-69944580D01*
X61857636Y-69944580D02*
X61757636Y-69944580D01*
X61757636Y-69944580D02*
X61690969Y-69911246D01*
X61690969Y-69911246D02*
X61657636Y-69877913D01*
X61657636Y-69877913D02*
X61624302Y-69811246D01*
X61624302Y-69811246D02*
X61624302Y-69644580D01*
X61624302Y-69644580D02*
X61657636Y-69577913D01*
X61657636Y-69577913D02*
X61690969Y-69544580D01*
X61690969Y-69544580D02*
X61757636Y-69511246D01*
X61757636Y-69511246D02*
X61957636Y-69511246D01*
X61957636Y-69511246D02*
X62024302Y-69544580D01*
X62024302Y-69544580D02*
X62057636Y-69577913D01*
X60990969Y-70211246D02*
X61324302Y-70211246D01*
X61324302Y-70211246D02*
X61357635Y-69877913D01*
X61357635Y-69877913D02*
X61324302Y-69911246D01*
X61324302Y-69911246D02*
X61257635Y-69944580D01*
X61257635Y-69944580D02*
X61090969Y-69944580D01*
X61090969Y-69944580D02*
X61024302Y-69911246D01*
X61024302Y-69911246D02*
X60990969Y-69877913D01*
X60990969Y-69877913D02*
X60957635Y-69811246D01*
X60957635Y-69811246D02*
X60957635Y-69644580D01*
X60957635Y-69644580D02*
X60990969Y-69577913D01*
X60990969Y-69577913D02*
X61024302Y-69544580D01*
X61024302Y-69544580D02*
X61090969Y-69511246D01*
X61090969Y-69511246D02*
X61257635Y-69511246D01*
X61257635Y-69511246D02*
X61324302Y-69544580D01*
X61324302Y-69544580D02*
X61357635Y-69577913D01*
X41935004Y-51751246D02*
X41935004Y-52451246D01*
X41935004Y-52451246D02*
X41768337Y-52451246D01*
X41768337Y-52451246D02*
X41668337Y-52417913D01*
X41668337Y-52417913D02*
X41601671Y-52351246D01*
X41601671Y-52351246D02*
X41568337Y-52284580D01*
X41568337Y-52284580D02*
X41535004Y-52151246D01*
X41535004Y-52151246D02*
X41535004Y-52051246D01*
X41535004Y-52051246D02*
X41568337Y-51917913D01*
X41568337Y-51917913D02*
X41601671Y-51851246D01*
X41601671Y-51851246D02*
X41668337Y-51784580D01*
X41668337Y-51784580D02*
X41768337Y-51751246D01*
X41768337Y-51751246D02*
X41935004Y-51751246D01*
X41268337Y-52384580D02*
X41235004Y-52417913D01*
X41235004Y-52417913D02*
X41168337Y-52451246D01*
X41168337Y-52451246D02*
X41001671Y-52451246D01*
X41001671Y-52451246D02*
X40935004Y-52417913D01*
X40935004Y-52417913D02*
X40901671Y-52384580D01*
X40901671Y-52384580D02*
X40868337Y-52317913D01*
X40868337Y-52317913D02*
X40868337Y-52251246D01*
X40868337Y-52251246D02*
X40901671Y-52151246D01*
X40901671Y-52151246D02*
X41301671Y-51751246D01*
X41301671Y-51751246D02*
X40868337Y-51751246D01*
X62690969Y-64431246D02*
X62690969Y-65131246D01*
X62690969Y-65131246D02*
X62524302Y-65131246D01*
X62524302Y-65131246D02*
X62424302Y-65097913D01*
X62424302Y-65097913D02*
X62357636Y-65031246D01*
X62357636Y-65031246D02*
X62324302Y-64964580D01*
X62324302Y-64964580D02*
X62290969Y-64831246D01*
X62290969Y-64831246D02*
X62290969Y-64731246D01*
X62290969Y-64731246D02*
X62324302Y-64597913D01*
X62324302Y-64597913D02*
X62357636Y-64531246D01*
X62357636Y-64531246D02*
X62424302Y-64464580D01*
X62424302Y-64464580D02*
X62524302Y-64431246D01*
X62524302Y-64431246D02*
X62690969Y-64431246D01*
X62057636Y-65131246D02*
X61624302Y-65131246D01*
X61624302Y-65131246D02*
X61857636Y-64864580D01*
X61857636Y-64864580D02*
X61757636Y-64864580D01*
X61757636Y-64864580D02*
X61690969Y-64831246D01*
X61690969Y-64831246D02*
X61657636Y-64797913D01*
X61657636Y-64797913D02*
X61624302Y-64731246D01*
X61624302Y-64731246D02*
X61624302Y-64564580D01*
X61624302Y-64564580D02*
X61657636Y-64497913D01*
X61657636Y-64497913D02*
X61690969Y-64464580D01*
X61690969Y-64464580D02*
X61757636Y-64431246D01*
X61757636Y-64431246D02*
X61957636Y-64431246D01*
X61957636Y-64431246D02*
X62024302Y-64464580D01*
X62024302Y-64464580D02*
X62057636Y-64497913D01*
X61390969Y-65131246D02*
X60957635Y-65131246D01*
X60957635Y-65131246D02*
X61190969Y-64864580D01*
X61190969Y-64864580D02*
X61090969Y-64864580D01*
X61090969Y-64864580D02*
X61024302Y-64831246D01*
X61024302Y-64831246D02*
X60990969Y-64797913D01*
X60990969Y-64797913D02*
X60957635Y-64731246D01*
X60957635Y-64731246D02*
X60957635Y-64564580D01*
X60957635Y-64564580D02*
X60990969Y-64497913D01*
X60990969Y-64497913D02*
X61024302Y-64464580D01*
X61024302Y-64464580D02*
X61090969Y-64431246D01*
X61090969Y-64431246D02*
X61290969Y-64431246D01*
X61290969Y-64431246D02*
X61357635Y-64464580D01*
X61357635Y-64464580D02*
X61390969Y-64497913D01*
X62790969Y-75291246D02*
X62557636Y-74591246D01*
X62557636Y-74591246D02*
X62324302Y-75291246D01*
X62090969Y-74591246D02*
X62090969Y-75291246D01*
X62090969Y-75291246D02*
X61690969Y-74591246D01*
X61690969Y-74591246D02*
X61690969Y-75291246D01*
X62790969Y-77831246D02*
X62557636Y-77131246D01*
X62557636Y-77131246D02*
X62324302Y-77831246D01*
X62090969Y-77131246D02*
X62090969Y-77831246D01*
X62090969Y-77831246D02*
X61824302Y-77831246D01*
X61824302Y-77831246D02*
X61757636Y-77797913D01*
X61757636Y-77797913D02*
X61724302Y-77764580D01*
X61724302Y-77764580D02*
X61690969Y-77697913D01*
X61690969Y-77697913D02*
X61690969Y-77597913D01*
X61690969Y-77597913D02*
X61724302Y-77531246D01*
X61724302Y-77531246D02*
X61757636Y-77497913D01*
X61757636Y-77497913D02*
X61824302Y-77464580D01*
X61824302Y-77464580D02*
X62090969Y-77464580D01*
X62324302Y-47317913D02*
X62390969Y-47351246D01*
X62390969Y-47351246D02*
X62490969Y-47351246D01*
X62490969Y-47351246D02*
X62590969Y-47317913D01*
X62590969Y-47317913D02*
X62657636Y-47251246D01*
X62657636Y-47251246D02*
X62690969Y-47184580D01*
X62690969Y-47184580D02*
X62724302Y-47051246D01*
X62724302Y-47051246D02*
X62724302Y-46951246D01*
X62724302Y-46951246D02*
X62690969Y-46817913D01*
X62690969Y-46817913D02*
X62657636Y-46751246D01*
X62657636Y-46751246D02*
X62590969Y-46684580D01*
X62590969Y-46684580D02*
X62490969Y-46651246D01*
X62490969Y-46651246D02*
X62424302Y-46651246D01*
X62424302Y-46651246D02*
X62324302Y-46684580D01*
X62324302Y-46684580D02*
X62290969Y-46717913D01*
X62290969Y-46717913D02*
X62290969Y-46951246D01*
X62290969Y-46951246D02*
X62424302Y-46951246D01*
X61990969Y-46651246D02*
X61990969Y-47351246D01*
X61990969Y-47351246D02*
X61590969Y-46651246D01*
X61590969Y-46651246D02*
X61590969Y-47351246D01*
X61257636Y-46651246D02*
X61257636Y-47351246D01*
X61257636Y-47351246D02*
X61090969Y-47351246D01*
X61090969Y-47351246D02*
X60990969Y-47317913D01*
X60990969Y-47317913D02*
X60924303Y-47251246D01*
X60924303Y-47251246D02*
X60890969Y-47184580D01*
X60890969Y-47184580D02*
X60857636Y-47051246D01*
X60857636Y-47051246D02*
X60857636Y-46951246D01*
X60857636Y-46951246D02*
X60890969Y-46817913D01*
X60890969Y-46817913D02*
X60924303Y-46751246D01*
X60924303Y-46751246D02*
X60990969Y-46684580D01*
X60990969Y-46684580D02*
X61090969Y-46651246D01*
X61090969Y-46651246D02*
X61257636Y-46651246D01*
X42601671Y-64451246D02*
X42601671Y-65151246D01*
X42601671Y-65151246D02*
X42435004Y-65151246D01*
X42435004Y-65151246D02*
X42335004Y-65117913D01*
X42335004Y-65117913D02*
X42268338Y-65051246D01*
X42268338Y-65051246D02*
X42235004Y-64984580D01*
X42235004Y-64984580D02*
X42201671Y-64851246D01*
X42201671Y-64851246D02*
X42201671Y-64751246D01*
X42201671Y-64751246D02*
X42235004Y-64617913D01*
X42235004Y-64617913D02*
X42268338Y-64551246D01*
X42268338Y-64551246D02*
X42335004Y-64484580D01*
X42335004Y-64484580D02*
X42435004Y-64451246D01*
X42435004Y-64451246D02*
X42601671Y-64451246D01*
X41535004Y-64451246D02*
X41935004Y-64451246D01*
X41735004Y-64451246D02*
X41735004Y-65151246D01*
X41735004Y-65151246D02*
X41801671Y-65051246D01*
X41801671Y-65051246D02*
X41868338Y-64984580D01*
X41868338Y-64984580D02*
X41935004Y-64951246D01*
X41135004Y-64851246D02*
X41201671Y-64884580D01*
X41201671Y-64884580D02*
X41235004Y-64917913D01*
X41235004Y-64917913D02*
X41268337Y-64984580D01*
X41268337Y-64984580D02*
X41268337Y-65017913D01*
X41268337Y-65017913D02*
X41235004Y-65084580D01*
X41235004Y-65084580D02*
X41201671Y-65117913D01*
X41201671Y-65117913D02*
X41135004Y-65151246D01*
X41135004Y-65151246D02*
X41001671Y-65151246D01*
X41001671Y-65151246D02*
X40935004Y-65117913D01*
X40935004Y-65117913D02*
X40901671Y-65084580D01*
X40901671Y-65084580D02*
X40868337Y-65017913D01*
X40868337Y-65017913D02*
X40868337Y-64984580D01*
X40868337Y-64984580D02*
X40901671Y-64917913D01*
X40901671Y-64917913D02*
X40935004Y-64884580D01*
X40935004Y-64884580D02*
X41001671Y-64851246D01*
X41001671Y-64851246D02*
X41135004Y-64851246D01*
X41135004Y-64851246D02*
X41201671Y-64817913D01*
X41201671Y-64817913D02*
X41235004Y-64784580D01*
X41235004Y-64784580D02*
X41268337Y-64717913D01*
X41268337Y-64717913D02*
X41268337Y-64584580D01*
X41268337Y-64584580D02*
X41235004Y-64517913D01*
X41235004Y-64517913D02*
X41201671Y-64484580D01*
X41201671Y-64484580D02*
X41135004Y-64451246D01*
X41135004Y-64451246D02*
X41001671Y-64451246D01*
X41001671Y-64451246D02*
X40935004Y-64484580D01*
X40935004Y-64484580D02*
X40901671Y-64517913D01*
X40901671Y-64517913D02*
X40868337Y-64584580D01*
X40868337Y-64584580D02*
X40868337Y-64717913D01*
X40868337Y-64717913D02*
X40901671Y-64784580D01*
X40901671Y-64784580D02*
X40935004Y-64817913D01*
X40935004Y-64817913D02*
X41001671Y-64851246D01*
X62690969Y-51731246D02*
X62690969Y-52431246D01*
X62690969Y-52431246D02*
X62524302Y-52431246D01*
X62524302Y-52431246D02*
X62424302Y-52397913D01*
X62424302Y-52397913D02*
X62357636Y-52331246D01*
X62357636Y-52331246D02*
X62324302Y-52264580D01*
X62324302Y-52264580D02*
X62290969Y-52131246D01*
X62290969Y-52131246D02*
X62290969Y-52031246D01*
X62290969Y-52031246D02*
X62324302Y-51897913D01*
X62324302Y-51897913D02*
X62357636Y-51831246D01*
X62357636Y-51831246D02*
X62424302Y-51764580D01*
X62424302Y-51764580D02*
X62524302Y-51731246D01*
X62524302Y-51731246D02*
X62690969Y-51731246D01*
X61624302Y-51731246D02*
X62024302Y-51731246D01*
X61824302Y-51731246D02*
X61824302Y-52431246D01*
X61824302Y-52431246D02*
X61890969Y-52331246D01*
X61890969Y-52331246D02*
X61957636Y-52264580D01*
X61957636Y-52264580D02*
X62024302Y-52231246D01*
X61357635Y-52364580D02*
X61324302Y-52397913D01*
X61324302Y-52397913D02*
X61257635Y-52431246D01*
X61257635Y-52431246D02*
X61090969Y-52431246D01*
X61090969Y-52431246D02*
X61024302Y-52397913D01*
X61024302Y-52397913D02*
X60990969Y-52364580D01*
X60990969Y-52364580D02*
X60957635Y-52297913D01*
X60957635Y-52297913D02*
X60957635Y-52231246D01*
X60957635Y-52231246D02*
X60990969Y-52131246D01*
X60990969Y-52131246D02*
X61390969Y-51731246D01*
X61390969Y-51731246D02*
X60957635Y-51731246D01*
X42335003Y-47337913D02*
X42401670Y-47371246D01*
X42401670Y-47371246D02*
X42501670Y-47371246D01*
X42501670Y-47371246D02*
X42601670Y-47337913D01*
X42601670Y-47337913D02*
X42668337Y-47271246D01*
X42668337Y-47271246D02*
X42701670Y-47204580D01*
X42701670Y-47204580D02*
X42735003Y-47071246D01*
X42735003Y-47071246D02*
X42735003Y-46971246D01*
X42735003Y-46971246D02*
X42701670Y-46837913D01*
X42701670Y-46837913D02*
X42668337Y-46771246D01*
X42668337Y-46771246D02*
X42601670Y-46704580D01*
X42601670Y-46704580D02*
X42501670Y-46671246D01*
X42501670Y-46671246D02*
X42435003Y-46671246D01*
X42435003Y-46671246D02*
X42335003Y-46704580D01*
X42335003Y-46704580D02*
X42301670Y-46737913D01*
X42301670Y-46737913D02*
X42301670Y-46971246D01*
X42301670Y-46971246D02*
X42435003Y-46971246D01*
X42001670Y-46671246D02*
X42001670Y-47371246D01*
X42001670Y-47371246D02*
X41601670Y-46671246D01*
X41601670Y-46671246D02*
X41601670Y-47371246D01*
X41268337Y-46671246D02*
X41268337Y-47371246D01*
X41268337Y-47371246D02*
X41101670Y-47371246D01*
X41101670Y-47371246D02*
X41001670Y-47337913D01*
X41001670Y-47337913D02*
X40935004Y-47271246D01*
X40935004Y-47271246D02*
X40901670Y-47204580D01*
X40901670Y-47204580D02*
X40868337Y-47071246D01*
X40868337Y-47071246D02*
X40868337Y-46971246D01*
X40868337Y-46971246D02*
X40901670Y-46837913D01*
X40901670Y-46837913D02*
X40935004Y-46771246D01*
X40935004Y-46771246D02*
X41001670Y-46704580D01*
X41001670Y-46704580D02*
X41101670Y-46671246D01*
X41101670Y-46671246D02*
X41268337Y-46671246D01*
X42101671Y-56831246D02*
X42335004Y-57164580D01*
X42501671Y-56831246D02*
X42501671Y-57531246D01*
X42501671Y-57531246D02*
X42235004Y-57531246D01*
X42235004Y-57531246D02*
X42168338Y-57497913D01*
X42168338Y-57497913D02*
X42135004Y-57464580D01*
X42135004Y-57464580D02*
X42101671Y-57397913D01*
X42101671Y-57397913D02*
X42101671Y-57297913D01*
X42101671Y-57297913D02*
X42135004Y-57231246D01*
X42135004Y-57231246D02*
X42168338Y-57197913D01*
X42168338Y-57197913D02*
X42235004Y-57164580D01*
X42235004Y-57164580D02*
X42501671Y-57164580D01*
X41868338Y-56831246D02*
X41501671Y-57297913D01*
X41868338Y-57297913D02*
X41501671Y-56831246D01*
X41268337Y-57464580D02*
X41235004Y-57497913D01*
X41235004Y-57497913D02*
X41168337Y-57531246D01*
X41168337Y-57531246D02*
X41001671Y-57531246D01*
X41001671Y-57531246D02*
X40935004Y-57497913D01*
X40935004Y-57497913D02*
X40901671Y-57464580D01*
X40901671Y-57464580D02*
X40868337Y-57397913D01*
X40868337Y-57397913D02*
X40868337Y-57331246D01*
X40868337Y-57331246D02*
X40901671Y-57231246D01*
X40901671Y-57231246D02*
X41301671Y-56831246D01*
X41301671Y-56831246D02*
X40868337Y-56831246D01*
X41935004Y-54291246D02*
X41935004Y-54991246D01*
X41935004Y-54991246D02*
X41768337Y-54991246D01*
X41768337Y-54991246D02*
X41668337Y-54957913D01*
X41668337Y-54957913D02*
X41601671Y-54891246D01*
X41601671Y-54891246D02*
X41568337Y-54824580D01*
X41568337Y-54824580D02*
X41535004Y-54691246D01*
X41535004Y-54691246D02*
X41535004Y-54591246D01*
X41535004Y-54591246D02*
X41568337Y-54457913D01*
X41568337Y-54457913D02*
X41601671Y-54391246D01*
X41601671Y-54391246D02*
X41668337Y-54324580D01*
X41668337Y-54324580D02*
X41768337Y-54291246D01*
X41768337Y-54291246D02*
X41935004Y-54291246D01*
X40935004Y-54757913D02*
X40935004Y-54291246D01*
X41101671Y-55024580D02*
X41268337Y-54524580D01*
X41268337Y-54524580D02*
X40835004Y-54524580D01*
X62690969Y-56811246D02*
X62690969Y-57511246D01*
X62690969Y-57511246D02*
X62524302Y-57511246D01*
X62524302Y-57511246D02*
X62424302Y-57477913D01*
X62424302Y-57477913D02*
X62357636Y-57411246D01*
X62357636Y-57411246D02*
X62324302Y-57344580D01*
X62324302Y-57344580D02*
X62290969Y-57211246D01*
X62290969Y-57211246D02*
X62290969Y-57111246D01*
X62290969Y-57111246D02*
X62324302Y-56977913D01*
X62324302Y-56977913D02*
X62357636Y-56911246D01*
X62357636Y-56911246D02*
X62424302Y-56844580D01*
X62424302Y-56844580D02*
X62524302Y-56811246D01*
X62524302Y-56811246D02*
X62690969Y-56811246D01*
X62024302Y-57444580D02*
X61990969Y-57477913D01*
X61990969Y-57477913D02*
X61924302Y-57511246D01*
X61924302Y-57511246D02*
X61757636Y-57511246D01*
X61757636Y-57511246D02*
X61690969Y-57477913D01*
X61690969Y-57477913D02*
X61657636Y-57444580D01*
X61657636Y-57444580D02*
X61624302Y-57377913D01*
X61624302Y-57377913D02*
X61624302Y-57311246D01*
X61624302Y-57311246D02*
X61657636Y-57211246D01*
X61657636Y-57211246D02*
X62057636Y-56811246D01*
X62057636Y-56811246D02*
X61624302Y-56811246D01*
X61390969Y-57511246D02*
X60924302Y-57511246D01*
X60924302Y-57511246D02*
X61224302Y-56811246D01*
X62690969Y-80037913D02*
X62457636Y-80037913D01*
X62357636Y-79671246D02*
X62690969Y-79671246D01*
X62690969Y-79671246D02*
X62690969Y-80371246D01*
X62690969Y-80371246D02*
X62357636Y-80371246D01*
X62057636Y-79671246D02*
X62057636Y-80371246D01*
X62057636Y-80371246D02*
X61657636Y-79671246D01*
X61657636Y-79671246D02*
X61657636Y-80371246D01*
X42435004Y-60071246D02*
X42035004Y-60071246D01*
X42235004Y-59371246D02*
X42235004Y-60071246D01*
X41868338Y-59371246D02*
X41501671Y-59837913D01*
X41868338Y-59837913D02*
X41501671Y-59371246D01*
X41268337Y-60004580D02*
X41235004Y-60037913D01*
X41235004Y-60037913D02*
X41168337Y-60071246D01*
X41168337Y-60071246D02*
X41001671Y-60071246D01*
X41001671Y-60071246D02*
X40935004Y-60037913D01*
X40935004Y-60037913D02*
X40901671Y-60004580D01*
X40901671Y-60004580D02*
X40868337Y-59937913D01*
X40868337Y-59937913D02*
X40868337Y-59871246D01*
X40868337Y-59871246D02*
X40901671Y-59771246D01*
X40901671Y-59771246D02*
X41301671Y-59371246D01*
X41301671Y-59371246D02*
X40868337Y-59371246D01*
X62690969Y-49191246D02*
X62690969Y-49891246D01*
X62690969Y-49891246D02*
X62524302Y-49891246D01*
X62524302Y-49891246D02*
X62424302Y-49857913D01*
X62424302Y-49857913D02*
X62357636Y-49791246D01*
X62357636Y-49791246D02*
X62324302Y-49724580D01*
X62324302Y-49724580D02*
X62290969Y-49591246D01*
X62290969Y-49591246D02*
X62290969Y-49491246D01*
X62290969Y-49491246D02*
X62324302Y-49357913D01*
X62324302Y-49357913D02*
X62357636Y-49291246D01*
X62357636Y-49291246D02*
X62424302Y-49224580D01*
X62424302Y-49224580D02*
X62524302Y-49191246D01*
X62524302Y-49191246D02*
X62690969Y-49191246D01*
X61624302Y-49191246D02*
X62024302Y-49191246D01*
X61824302Y-49191246D02*
X61824302Y-49891246D01*
X61824302Y-49891246D02*
X61890969Y-49791246D01*
X61890969Y-49791246D02*
X61957636Y-49724580D01*
X61957636Y-49724580D02*
X62024302Y-49691246D01*
X61390969Y-49891246D02*
X60957635Y-49891246D01*
X60957635Y-49891246D02*
X61190969Y-49624580D01*
X61190969Y-49624580D02*
X61090969Y-49624580D01*
X61090969Y-49624580D02*
X61024302Y-49591246D01*
X61024302Y-49591246D02*
X60990969Y-49557913D01*
X60990969Y-49557913D02*
X60957635Y-49491246D01*
X60957635Y-49491246D02*
X60957635Y-49324580D01*
X60957635Y-49324580D02*
X60990969Y-49257913D01*
X60990969Y-49257913D02*
X61024302Y-49224580D01*
X61024302Y-49224580D02*
X61090969Y-49191246D01*
X61090969Y-49191246D02*
X61290969Y-49191246D01*
X61290969Y-49191246D02*
X61357635Y-49224580D01*
X61357635Y-49224580D02*
X61390969Y-49257913D01*
X42601671Y-77151246D02*
X42601671Y-77851246D01*
X42601671Y-77851246D02*
X42435004Y-77851246D01*
X42435004Y-77851246D02*
X42335004Y-77817913D01*
X42335004Y-77817913D02*
X42268338Y-77751246D01*
X42268338Y-77751246D02*
X42235004Y-77684580D01*
X42235004Y-77684580D02*
X42201671Y-77551246D01*
X42201671Y-77551246D02*
X42201671Y-77451246D01*
X42201671Y-77451246D02*
X42235004Y-77317913D01*
X42235004Y-77317913D02*
X42268338Y-77251246D01*
X42268338Y-77251246D02*
X42335004Y-77184580D01*
X42335004Y-77184580D02*
X42435004Y-77151246D01*
X42435004Y-77151246D02*
X42601671Y-77151246D01*
X41935004Y-77784580D02*
X41901671Y-77817913D01*
X41901671Y-77817913D02*
X41835004Y-77851246D01*
X41835004Y-77851246D02*
X41668338Y-77851246D01*
X41668338Y-77851246D02*
X41601671Y-77817913D01*
X41601671Y-77817913D02*
X41568338Y-77784580D01*
X41568338Y-77784580D02*
X41535004Y-77717913D01*
X41535004Y-77717913D02*
X41535004Y-77651246D01*
X41535004Y-77651246D02*
X41568338Y-77551246D01*
X41568338Y-77551246D02*
X41968338Y-77151246D01*
X41968338Y-77151246D02*
X41535004Y-77151246D01*
X41268337Y-77784580D02*
X41235004Y-77817913D01*
X41235004Y-77817913D02*
X41168337Y-77851246D01*
X41168337Y-77851246D02*
X41001671Y-77851246D01*
X41001671Y-77851246D02*
X40935004Y-77817913D01*
X40935004Y-77817913D02*
X40901671Y-77784580D01*
X40901671Y-77784580D02*
X40868337Y-77717913D01*
X40868337Y-77717913D02*
X40868337Y-77651246D01*
X40868337Y-77651246D02*
X40901671Y-77551246D01*
X40901671Y-77551246D02*
X41301671Y-77151246D01*
X41301671Y-77151246D02*
X40868337Y-77151246D01*
X62690969Y-66971246D02*
X62690969Y-67671246D01*
X62690969Y-67671246D02*
X62524302Y-67671246D01*
X62524302Y-67671246D02*
X62424302Y-67637913D01*
X62424302Y-67637913D02*
X62357636Y-67571246D01*
X62357636Y-67571246D02*
X62324302Y-67504580D01*
X62324302Y-67504580D02*
X62290969Y-67371246D01*
X62290969Y-67371246D02*
X62290969Y-67271246D01*
X62290969Y-67271246D02*
X62324302Y-67137913D01*
X62324302Y-67137913D02*
X62357636Y-67071246D01*
X62357636Y-67071246D02*
X62424302Y-67004580D01*
X62424302Y-67004580D02*
X62524302Y-66971246D01*
X62524302Y-66971246D02*
X62690969Y-66971246D01*
X62057636Y-67671246D02*
X61624302Y-67671246D01*
X61624302Y-67671246D02*
X61857636Y-67404580D01*
X61857636Y-67404580D02*
X61757636Y-67404580D01*
X61757636Y-67404580D02*
X61690969Y-67371246D01*
X61690969Y-67371246D02*
X61657636Y-67337913D01*
X61657636Y-67337913D02*
X61624302Y-67271246D01*
X61624302Y-67271246D02*
X61624302Y-67104580D01*
X61624302Y-67104580D02*
X61657636Y-67037913D01*
X61657636Y-67037913D02*
X61690969Y-67004580D01*
X61690969Y-67004580D02*
X61757636Y-66971246D01*
X61757636Y-66971246D02*
X61957636Y-66971246D01*
X61957636Y-66971246D02*
X62024302Y-67004580D01*
X62024302Y-67004580D02*
X62057636Y-67037913D01*
X61357635Y-67604580D02*
X61324302Y-67637913D01*
X61324302Y-67637913D02*
X61257635Y-67671246D01*
X61257635Y-67671246D02*
X61090969Y-67671246D01*
X61090969Y-67671246D02*
X61024302Y-67637913D01*
X61024302Y-67637913D02*
X60990969Y-67604580D01*
X60990969Y-67604580D02*
X60957635Y-67537913D01*
X60957635Y-67537913D02*
X60957635Y-67471246D01*
X60957635Y-67471246D02*
X60990969Y-67371246D01*
X60990969Y-67371246D02*
X61390969Y-66971246D01*
X61390969Y-66971246D02*
X60957635Y-66971246D01*
X42601671Y-79691246D02*
X42601671Y-80391246D01*
X42601671Y-80391246D02*
X42435004Y-80391246D01*
X42435004Y-80391246D02*
X42335004Y-80357913D01*
X42335004Y-80357913D02*
X42268338Y-80291246D01*
X42268338Y-80291246D02*
X42235004Y-80224580D01*
X42235004Y-80224580D02*
X42201671Y-80091246D01*
X42201671Y-80091246D02*
X42201671Y-79991246D01*
X42201671Y-79991246D02*
X42235004Y-79857913D01*
X42235004Y-79857913D02*
X42268338Y-79791246D01*
X42268338Y-79791246D02*
X42335004Y-79724580D01*
X42335004Y-79724580D02*
X42435004Y-79691246D01*
X42435004Y-79691246D02*
X42601671Y-79691246D01*
X41935004Y-80324580D02*
X41901671Y-80357913D01*
X41901671Y-80357913D02*
X41835004Y-80391246D01*
X41835004Y-80391246D02*
X41668338Y-80391246D01*
X41668338Y-80391246D02*
X41601671Y-80357913D01*
X41601671Y-80357913D02*
X41568338Y-80324580D01*
X41568338Y-80324580D02*
X41535004Y-80257913D01*
X41535004Y-80257913D02*
X41535004Y-80191246D01*
X41535004Y-80191246D02*
X41568338Y-80091246D01*
X41568338Y-80091246D02*
X41968338Y-79691246D01*
X41968338Y-79691246D02*
X41535004Y-79691246D01*
X41301671Y-80391246D02*
X40868337Y-80391246D01*
X40868337Y-80391246D02*
X41101671Y-80124580D01*
X41101671Y-80124580D02*
X41001671Y-80124580D01*
X41001671Y-80124580D02*
X40935004Y-80091246D01*
X40935004Y-80091246D02*
X40901671Y-80057913D01*
X40901671Y-80057913D02*
X40868337Y-79991246D01*
X40868337Y-79991246D02*
X40868337Y-79824580D01*
X40868337Y-79824580D02*
X40901671Y-79757913D01*
X40901671Y-79757913D02*
X40935004Y-79724580D01*
X40935004Y-79724580D02*
X41001671Y-79691246D01*
X41001671Y-79691246D02*
X41201671Y-79691246D01*
X41201671Y-79691246D02*
X41268337Y-79724580D01*
X41268337Y-79724580D02*
X41301671Y-79757913D01*
X62690969Y-54271246D02*
X62690969Y-54971246D01*
X62690969Y-54971246D02*
X62524302Y-54971246D01*
X62524302Y-54971246D02*
X62424302Y-54937913D01*
X62424302Y-54937913D02*
X62357636Y-54871246D01*
X62357636Y-54871246D02*
X62324302Y-54804580D01*
X62324302Y-54804580D02*
X62290969Y-54671246D01*
X62290969Y-54671246D02*
X62290969Y-54571246D01*
X62290969Y-54571246D02*
X62324302Y-54437913D01*
X62324302Y-54437913D02*
X62357636Y-54371246D01*
X62357636Y-54371246D02*
X62424302Y-54304580D01*
X62424302Y-54304580D02*
X62524302Y-54271246D01*
X62524302Y-54271246D02*
X62690969Y-54271246D01*
X61624302Y-54271246D02*
X62024302Y-54271246D01*
X61824302Y-54271246D02*
X61824302Y-54971246D01*
X61824302Y-54971246D02*
X61890969Y-54871246D01*
X61890969Y-54871246D02*
X61957636Y-54804580D01*
X61957636Y-54804580D02*
X62024302Y-54771246D01*
X61024302Y-54737913D02*
X61024302Y-54271246D01*
X61190969Y-55004580D02*
X61357635Y-54504580D01*
X61357635Y-54504580D02*
X60924302Y-54504580D01*
X42814819Y-112222857D02*
X42338628Y-112556190D01*
X42814819Y-112794285D02*
X41814819Y-112794285D01*
X41814819Y-112794285D02*
X41814819Y-112413333D01*
X41814819Y-112413333D02*
X41862438Y-112318095D01*
X41862438Y-112318095D02*
X41910057Y-112270476D01*
X41910057Y-112270476D02*
X42005295Y-112222857D01*
X42005295Y-112222857D02*
X42148152Y-112222857D01*
X42148152Y-112222857D02*
X42243390Y-112270476D01*
X42243390Y-112270476D02*
X42291009Y-112318095D01*
X42291009Y-112318095D02*
X42338628Y-112413333D01*
X42338628Y-112413333D02*
X42338628Y-112794285D01*
X42814819Y-111270476D02*
X42814819Y-111841904D01*
X42814819Y-111556190D02*
X41814819Y-111556190D01*
X41814819Y-111556190D02*
X41957676Y-111651428D01*
X41957676Y-111651428D02*
X42052914Y-111746666D01*
X42052914Y-111746666D02*
X42100533Y-111841904D01*
X42243390Y-110699047D02*
X42195771Y-110794285D01*
X42195771Y-110794285D02*
X42148152Y-110841904D01*
X42148152Y-110841904D02*
X42052914Y-110889523D01*
X42052914Y-110889523D02*
X42005295Y-110889523D01*
X42005295Y-110889523D02*
X41910057Y-110841904D01*
X41910057Y-110841904D02*
X41862438Y-110794285D01*
X41862438Y-110794285D02*
X41814819Y-110699047D01*
X41814819Y-110699047D02*
X41814819Y-110508571D01*
X41814819Y-110508571D02*
X41862438Y-110413333D01*
X41862438Y-110413333D02*
X41910057Y-110365714D01*
X41910057Y-110365714D02*
X42005295Y-110318095D01*
X42005295Y-110318095D02*
X42052914Y-110318095D01*
X42052914Y-110318095D02*
X42148152Y-110365714D01*
X42148152Y-110365714D02*
X42195771Y-110413333D01*
X42195771Y-110413333D02*
X42243390Y-110508571D01*
X42243390Y-110508571D02*
X42243390Y-110699047D01*
X42243390Y-110699047D02*
X42291009Y-110794285D01*
X42291009Y-110794285D02*
X42338628Y-110841904D01*
X42338628Y-110841904D02*
X42433866Y-110889523D01*
X42433866Y-110889523D02*
X42624342Y-110889523D01*
X42624342Y-110889523D02*
X42719580Y-110841904D01*
X42719580Y-110841904D02*
X42767200Y-110794285D01*
X42767200Y-110794285D02*
X42814819Y-110699047D01*
X42814819Y-110699047D02*
X42814819Y-110508571D01*
X42814819Y-110508571D02*
X42767200Y-110413333D01*
X42767200Y-110413333D02*
X42719580Y-110365714D01*
X42719580Y-110365714D02*
X42624342Y-110318095D01*
X42624342Y-110318095D02*
X42433866Y-110318095D01*
X42433866Y-110318095D02*
X42338628Y-110365714D01*
X42338628Y-110365714D02*
X42291009Y-110413333D01*
X42291009Y-110413333D02*
X42243390Y-110508571D01*
X43890682Y-135406929D02*
X43843063Y-135454549D01*
X43843063Y-135454549D02*
X43700206Y-135502168D01*
X43700206Y-135502168D02*
X43604968Y-135502168D01*
X43604968Y-135502168D02*
X43462111Y-135454549D01*
X43462111Y-135454549D02*
X43366873Y-135359310D01*
X43366873Y-135359310D02*
X43319254Y-135264072D01*
X43319254Y-135264072D02*
X43271635Y-135073596D01*
X43271635Y-135073596D02*
X43271635Y-134930739D01*
X43271635Y-134930739D02*
X43319254Y-134740263D01*
X43319254Y-134740263D02*
X43366873Y-134645025D01*
X43366873Y-134645025D02*
X43462111Y-134549787D01*
X43462111Y-134549787D02*
X43604968Y-134502168D01*
X43604968Y-134502168D02*
X43700206Y-134502168D01*
X43700206Y-134502168D02*
X43843063Y-134549787D01*
X43843063Y-134549787D02*
X43890682Y-134597406D01*
X44747825Y-134835501D02*
X44747825Y-135502168D01*
X44509730Y-134454549D02*
X44271635Y-135168834D01*
X44271635Y-135168834D02*
X44890682Y-135168834D01*
X58293333Y-122809580D02*
X58245714Y-122857200D01*
X58245714Y-122857200D02*
X58102857Y-122904819D01*
X58102857Y-122904819D02*
X58007619Y-122904819D01*
X58007619Y-122904819D02*
X57864762Y-122857200D01*
X57864762Y-122857200D02*
X57769524Y-122761961D01*
X57769524Y-122761961D02*
X57721905Y-122666723D01*
X57721905Y-122666723D02*
X57674286Y-122476247D01*
X57674286Y-122476247D02*
X57674286Y-122333390D01*
X57674286Y-122333390D02*
X57721905Y-122142914D01*
X57721905Y-122142914D02*
X57769524Y-122047676D01*
X57769524Y-122047676D02*
X57864762Y-121952438D01*
X57864762Y-121952438D02*
X58007619Y-121904819D01*
X58007619Y-121904819D02*
X58102857Y-121904819D01*
X58102857Y-121904819D02*
X58245714Y-121952438D01*
X58245714Y-121952438D02*
X58293333Y-122000057D01*
X59245714Y-122904819D02*
X58674286Y-122904819D01*
X58960000Y-122904819D02*
X58960000Y-121904819D01*
X58960000Y-121904819D02*
X58864762Y-122047676D01*
X58864762Y-122047676D02*
X58769524Y-122142914D01*
X58769524Y-122142914D02*
X58674286Y-122190533D01*
X109860057Y-74035238D02*
X109812438Y-74130476D01*
X109812438Y-74130476D02*
X109717200Y-74225714D01*
X109717200Y-74225714D02*
X109574342Y-74368571D01*
X109574342Y-74368571D02*
X109526723Y-74463809D01*
X109526723Y-74463809D02*
X109526723Y-74559047D01*
X109764819Y-74511428D02*
X109717200Y-74606666D01*
X109717200Y-74606666D02*
X109621961Y-74701904D01*
X109621961Y-74701904D02*
X109431485Y-74749523D01*
X109431485Y-74749523D02*
X109098152Y-74749523D01*
X109098152Y-74749523D02*
X108907676Y-74701904D01*
X108907676Y-74701904D02*
X108812438Y-74606666D01*
X108812438Y-74606666D02*
X108764819Y-74511428D01*
X108764819Y-74511428D02*
X108764819Y-74320952D01*
X108764819Y-74320952D02*
X108812438Y-74225714D01*
X108812438Y-74225714D02*
X108907676Y-74130476D01*
X108907676Y-74130476D02*
X109098152Y-74082857D01*
X109098152Y-74082857D02*
X109431485Y-74082857D01*
X109431485Y-74082857D02*
X109621961Y-74130476D01*
X109621961Y-74130476D02*
X109717200Y-74225714D01*
X109717200Y-74225714D02*
X109764819Y-74320952D01*
X109764819Y-74320952D02*
X109764819Y-74511428D01*
X108764819Y-73749523D02*
X108764819Y-73130476D01*
X108764819Y-73130476D02*
X109145771Y-73463809D01*
X109145771Y-73463809D02*
X109145771Y-73320952D01*
X109145771Y-73320952D02*
X109193390Y-73225714D01*
X109193390Y-73225714D02*
X109241009Y-73178095D01*
X109241009Y-73178095D02*
X109336247Y-73130476D01*
X109336247Y-73130476D02*
X109574342Y-73130476D01*
X109574342Y-73130476D02*
X109669580Y-73178095D01*
X109669580Y-73178095D02*
X109717200Y-73225714D01*
X109717200Y-73225714D02*
X109764819Y-73320952D01*
X109764819Y-73320952D02*
X109764819Y-73606666D01*
X109764819Y-73606666D02*
X109717200Y-73701904D01*
X109717200Y-73701904D02*
X109669580Y-73749523D01*
X46180476Y-104704819D02*
X46180476Y-105419104D01*
X46180476Y-105419104D02*
X46132857Y-105561961D01*
X46132857Y-105561961D02*
X46037619Y-105657200D01*
X46037619Y-105657200D02*
X45894762Y-105704819D01*
X45894762Y-105704819D02*
X45799524Y-105704819D01*
X47180476Y-105704819D02*
X46609048Y-105704819D01*
X46894762Y-105704819D02*
X46894762Y-104704819D01*
X46894762Y-104704819D02*
X46799524Y-104847676D01*
X46799524Y-104847676D02*
X46704286Y-104942914D01*
X46704286Y-104942914D02*
X46609048Y-104990533D01*
X47799524Y-104704819D02*
X47894762Y-104704819D01*
X47894762Y-104704819D02*
X47990000Y-104752438D01*
X47990000Y-104752438D02*
X48037619Y-104800057D01*
X48037619Y-104800057D02*
X48085238Y-104895295D01*
X48085238Y-104895295D02*
X48132857Y-105085771D01*
X48132857Y-105085771D02*
X48132857Y-105323866D01*
X48132857Y-105323866D02*
X48085238Y-105514342D01*
X48085238Y-105514342D02*
X48037619Y-105609580D01*
X48037619Y-105609580D02*
X47990000Y-105657200D01*
X47990000Y-105657200D02*
X47894762Y-105704819D01*
X47894762Y-105704819D02*
X47799524Y-105704819D01*
X47799524Y-105704819D02*
X47704286Y-105657200D01*
X47704286Y-105657200D02*
X47656667Y-105609580D01*
X47656667Y-105609580D02*
X47609048Y-105514342D01*
X47609048Y-105514342D02*
X47561429Y-105323866D01*
X47561429Y-105323866D02*
X47561429Y-105085771D01*
X47561429Y-105085771D02*
X47609048Y-104895295D01*
X47609048Y-104895295D02*
X47656667Y-104800057D01*
X47656667Y-104800057D02*
X47704286Y-104752438D01*
X47704286Y-104752438D02*
X47799524Y-104704819D01*
X117974819Y-148923333D02*
X118689104Y-148923333D01*
X118689104Y-148923333D02*
X118831961Y-148970952D01*
X118831961Y-148970952D02*
X118927200Y-149066190D01*
X118927200Y-149066190D02*
X118974819Y-149209047D01*
X118974819Y-149209047D02*
X118974819Y-149304285D01*
X118974819Y-148399523D02*
X118974819Y-148209047D01*
X118974819Y-148209047D02*
X118927200Y-148113809D01*
X118927200Y-148113809D02*
X118879580Y-148066190D01*
X118879580Y-148066190D02*
X118736723Y-147970952D01*
X118736723Y-147970952D02*
X118546247Y-147923333D01*
X118546247Y-147923333D02*
X118165295Y-147923333D01*
X118165295Y-147923333D02*
X118070057Y-147970952D01*
X118070057Y-147970952D02*
X118022438Y-148018571D01*
X118022438Y-148018571D02*
X117974819Y-148113809D01*
X117974819Y-148113809D02*
X117974819Y-148304285D01*
X117974819Y-148304285D02*
X118022438Y-148399523D01*
X118022438Y-148399523D02*
X118070057Y-148447142D01*
X118070057Y-148447142D02*
X118165295Y-148494761D01*
X118165295Y-148494761D02*
X118403390Y-148494761D01*
X118403390Y-148494761D02*
X118498628Y-148447142D01*
X118498628Y-148447142D02*
X118546247Y-148399523D01*
X118546247Y-148399523D02*
X118593866Y-148304285D01*
X118593866Y-148304285D02*
X118593866Y-148113809D01*
X118593866Y-148113809D02*
X118546247Y-148018571D01*
X118546247Y-148018571D02*
X118498628Y-147970952D01*
X118498628Y-147970952D02*
X118403390Y-147923333D01*
X77303333Y-104424819D02*
X76970000Y-103948628D01*
X76731905Y-104424819D02*
X76731905Y-103424819D01*
X76731905Y-103424819D02*
X77112857Y-103424819D01*
X77112857Y-103424819D02*
X77208095Y-103472438D01*
X77208095Y-103472438D02*
X77255714Y-103520057D01*
X77255714Y-103520057D02*
X77303333Y-103615295D01*
X77303333Y-103615295D02*
X77303333Y-103758152D01*
X77303333Y-103758152D02*
X77255714Y-103853390D01*
X77255714Y-103853390D02*
X77208095Y-103901009D01*
X77208095Y-103901009D02*
X77112857Y-103948628D01*
X77112857Y-103948628D02*
X76731905Y-103948628D01*
X77779524Y-104424819D02*
X77970000Y-104424819D01*
X77970000Y-104424819D02*
X78065238Y-104377200D01*
X78065238Y-104377200D02*
X78112857Y-104329580D01*
X78112857Y-104329580D02*
X78208095Y-104186723D01*
X78208095Y-104186723D02*
X78255714Y-103996247D01*
X78255714Y-103996247D02*
X78255714Y-103615295D01*
X78255714Y-103615295D02*
X78208095Y-103520057D01*
X78208095Y-103520057D02*
X78160476Y-103472438D01*
X78160476Y-103472438D02*
X78065238Y-103424819D01*
X78065238Y-103424819D02*
X77874762Y-103424819D01*
X77874762Y-103424819D02*
X77779524Y-103472438D01*
X77779524Y-103472438D02*
X77731905Y-103520057D01*
X77731905Y-103520057D02*
X77684286Y-103615295D01*
X77684286Y-103615295D02*
X77684286Y-103853390D01*
X77684286Y-103853390D02*
X77731905Y-103948628D01*
X77731905Y-103948628D02*
X77779524Y-103996247D01*
X77779524Y-103996247D02*
X77874762Y-104043866D01*
X77874762Y-104043866D02*
X78065238Y-104043866D01*
X78065238Y-104043866D02*
X78160476Y-103996247D01*
X78160476Y-103996247D02*
X78208095Y-103948628D01*
X78208095Y-103948628D02*
X78255714Y-103853390D01*
X109860057Y-134715238D02*
X109812438Y-134810476D01*
X109812438Y-134810476D02*
X109717200Y-134905714D01*
X109717200Y-134905714D02*
X109574342Y-135048571D01*
X109574342Y-135048571D02*
X109526723Y-135143809D01*
X109526723Y-135143809D02*
X109526723Y-135239047D01*
X109764819Y-135191428D02*
X109717200Y-135286666D01*
X109717200Y-135286666D02*
X109621961Y-135381904D01*
X109621961Y-135381904D02*
X109431485Y-135429523D01*
X109431485Y-135429523D02*
X109098152Y-135429523D01*
X109098152Y-135429523D02*
X108907676Y-135381904D01*
X108907676Y-135381904D02*
X108812438Y-135286666D01*
X108812438Y-135286666D02*
X108764819Y-135191428D01*
X108764819Y-135191428D02*
X108764819Y-135000952D01*
X108764819Y-135000952D02*
X108812438Y-134905714D01*
X108812438Y-134905714D02*
X108907676Y-134810476D01*
X108907676Y-134810476D02*
X109098152Y-134762857D01*
X109098152Y-134762857D02*
X109431485Y-134762857D01*
X109431485Y-134762857D02*
X109621961Y-134810476D01*
X109621961Y-134810476D02*
X109717200Y-134905714D01*
X109717200Y-134905714D02*
X109764819Y-135000952D01*
X109764819Y-135000952D02*
X109764819Y-135191428D01*
X108764819Y-134429523D02*
X108764819Y-133762857D01*
X108764819Y-133762857D02*
X109764819Y-134191428D01*
X77303333Y-89464819D02*
X76970000Y-88988628D01*
X76731905Y-89464819D02*
X76731905Y-88464819D01*
X76731905Y-88464819D02*
X77112857Y-88464819D01*
X77112857Y-88464819D02*
X77208095Y-88512438D01*
X77208095Y-88512438D02*
X77255714Y-88560057D01*
X77255714Y-88560057D02*
X77303333Y-88655295D01*
X77303333Y-88655295D02*
X77303333Y-88798152D01*
X77303333Y-88798152D02*
X77255714Y-88893390D01*
X77255714Y-88893390D02*
X77208095Y-88941009D01*
X77208095Y-88941009D02*
X77112857Y-88988628D01*
X77112857Y-88988628D02*
X76731905Y-88988628D01*
X77636667Y-88464819D02*
X78303333Y-88464819D01*
X78303333Y-88464819D02*
X77874762Y-89464819D01*
X77303333Y-43464819D02*
X76970000Y-42988628D01*
X76731905Y-43464819D02*
X76731905Y-42464819D01*
X76731905Y-42464819D02*
X77112857Y-42464819D01*
X77112857Y-42464819D02*
X77208095Y-42512438D01*
X77208095Y-42512438D02*
X77255714Y-42560057D01*
X77255714Y-42560057D02*
X77303333Y-42655295D01*
X77303333Y-42655295D02*
X77303333Y-42798152D01*
X77303333Y-42798152D02*
X77255714Y-42893390D01*
X77255714Y-42893390D02*
X77208095Y-42941009D01*
X77208095Y-42941009D02*
X77112857Y-42988628D01*
X77112857Y-42988628D02*
X76731905Y-42988628D01*
X78255714Y-43464819D02*
X77684286Y-43464819D01*
X77970000Y-43464819D02*
X77970000Y-42464819D01*
X77970000Y-42464819D02*
X77874762Y-42607676D01*
X77874762Y-42607676D02*
X77779524Y-42702914D01*
X77779524Y-42702914D02*
X77684286Y-42750533D01*
X77303333Y-58704819D02*
X76970000Y-58228628D01*
X76731905Y-58704819D02*
X76731905Y-57704819D01*
X76731905Y-57704819D02*
X77112857Y-57704819D01*
X77112857Y-57704819D02*
X77208095Y-57752438D01*
X77208095Y-57752438D02*
X77255714Y-57800057D01*
X77255714Y-57800057D02*
X77303333Y-57895295D01*
X77303333Y-57895295D02*
X77303333Y-58038152D01*
X77303333Y-58038152D02*
X77255714Y-58133390D01*
X77255714Y-58133390D02*
X77208095Y-58181009D01*
X77208095Y-58181009D02*
X77112857Y-58228628D01*
X77112857Y-58228628D02*
X76731905Y-58228628D01*
X77636667Y-57704819D02*
X78255714Y-57704819D01*
X78255714Y-57704819D02*
X77922381Y-58085771D01*
X77922381Y-58085771D02*
X78065238Y-58085771D01*
X78065238Y-58085771D02*
X78160476Y-58133390D01*
X78160476Y-58133390D02*
X78208095Y-58181009D01*
X78208095Y-58181009D02*
X78255714Y-58276247D01*
X78255714Y-58276247D02*
X78255714Y-58514342D01*
X78255714Y-58514342D02*
X78208095Y-58609580D01*
X78208095Y-58609580D02*
X78160476Y-58657200D01*
X78160476Y-58657200D02*
X78065238Y-58704819D01*
X78065238Y-58704819D02*
X77779524Y-58704819D01*
X77779524Y-58704819D02*
X77684286Y-58657200D01*
X77684286Y-58657200D02*
X77636667Y-58609580D01*
X76827142Y-147384819D02*
X76493809Y-146908628D01*
X76255714Y-147384819D02*
X76255714Y-146384819D01*
X76255714Y-146384819D02*
X76636666Y-146384819D01*
X76636666Y-146384819D02*
X76731904Y-146432438D01*
X76731904Y-146432438D02*
X76779523Y-146480057D01*
X76779523Y-146480057D02*
X76827142Y-146575295D01*
X76827142Y-146575295D02*
X76827142Y-146718152D01*
X76827142Y-146718152D02*
X76779523Y-146813390D01*
X76779523Y-146813390D02*
X76731904Y-146861009D01*
X76731904Y-146861009D02*
X76636666Y-146908628D01*
X76636666Y-146908628D02*
X76255714Y-146908628D01*
X77779523Y-147384819D02*
X77208095Y-147384819D01*
X77493809Y-147384819D02*
X77493809Y-146384819D01*
X77493809Y-146384819D02*
X77398571Y-146527676D01*
X77398571Y-146527676D02*
X77303333Y-146622914D01*
X77303333Y-146622914D02*
X77208095Y-146670533D01*
X78636666Y-146384819D02*
X78446190Y-146384819D01*
X78446190Y-146384819D02*
X78350952Y-146432438D01*
X78350952Y-146432438D02*
X78303333Y-146480057D01*
X78303333Y-146480057D02*
X78208095Y-146622914D01*
X78208095Y-146622914D02*
X78160476Y-146813390D01*
X78160476Y-146813390D02*
X78160476Y-147194342D01*
X78160476Y-147194342D02*
X78208095Y-147289580D01*
X78208095Y-147289580D02*
X78255714Y-147337200D01*
X78255714Y-147337200D02*
X78350952Y-147384819D01*
X78350952Y-147384819D02*
X78541428Y-147384819D01*
X78541428Y-147384819D02*
X78636666Y-147337200D01*
X78636666Y-147337200D02*
X78684285Y-147289580D01*
X78684285Y-147289580D02*
X78731904Y-147194342D01*
X78731904Y-147194342D02*
X78731904Y-146956247D01*
X78731904Y-146956247D02*
X78684285Y-146861009D01*
X78684285Y-146861009D02*
X78636666Y-146813390D01*
X78636666Y-146813390D02*
X78541428Y-146765771D01*
X78541428Y-146765771D02*
X78350952Y-146765771D01*
X78350952Y-146765771D02*
X78255714Y-146813390D01*
X78255714Y-146813390D02*
X78208095Y-146861009D01*
X78208095Y-146861009D02*
X78160476Y-146956247D01*
X49814819Y-112402857D02*
X49338628Y-112736190D01*
X49814819Y-112974285D02*
X48814819Y-112974285D01*
X48814819Y-112974285D02*
X48814819Y-112593333D01*
X48814819Y-112593333D02*
X48862438Y-112498095D01*
X48862438Y-112498095D02*
X48910057Y-112450476D01*
X48910057Y-112450476D02*
X49005295Y-112402857D01*
X49005295Y-112402857D02*
X49148152Y-112402857D01*
X49148152Y-112402857D02*
X49243390Y-112450476D01*
X49243390Y-112450476D02*
X49291009Y-112498095D01*
X49291009Y-112498095D02*
X49338628Y-112593333D01*
X49338628Y-112593333D02*
X49338628Y-112974285D01*
X49814819Y-111450476D02*
X49814819Y-112021904D01*
X49814819Y-111736190D02*
X48814819Y-111736190D01*
X48814819Y-111736190D02*
X48957676Y-111831428D01*
X48957676Y-111831428D02*
X49052914Y-111926666D01*
X49052914Y-111926666D02*
X49100533Y-112021904D01*
X48814819Y-111117142D02*
X48814819Y-110450476D01*
X48814819Y-110450476D02*
X49814819Y-110879047D01*
X109860057Y-58515238D02*
X109812438Y-58610476D01*
X109812438Y-58610476D02*
X109717200Y-58705714D01*
X109717200Y-58705714D02*
X109574342Y-58848571D01*
X109574342Y-58848571D02*
X109526723Y-58943809D01*
X109526723Y-58943809D02*
X109526723Y-59039047D01*
X109764819Y-58991428D02*
X109717200Y-59086666D01*
X109717200Y-59086666D02*
X109621961Y-59181904D01*
X109621961Y-59181904D02*
X109431485Y-59229523D01*
X109431485Y-59229523D02*
X109098152Y-59229523D01*
X109098152Y-59229523D02*
X108907676Y-59181904D01*
X108907676Y-59181904D02*
X108812438Y-59086666D01*
X108812438Y-59086666D02*
X108764819Y-58991428D01*
X108764819Y-58991428D02*
X108764819Y-58800952D01*
X108764819Y-58800952D02*
X108812438Y-58705714D01*
X108812438Y-58705714D02*
X108907676Y-58610476D01*
X108907676Y-58610476D02*
X109098152Y-58562857D01*
X109098152Y-58562857D02*
X109431485Y-58562857D01*
X109431485Y-58562857D02*
X109621961Y-58610476D01*
X109621961Y-58610476D02*
X109717200Y-58705714D01*
X109717200Y-58705714D02*
X109764819Y-58800952D01*
X109764819Y-58800952D02*
X109764819Y-58991428D01*
X108860057Y-58181904D02*
X108812438Y-58134285D01*
X108812438Y-58134285D02*
X108764819Y-58039047D01*
X108764819Y-58039047D02*
X108764819Y-57800952D01*
X108764819Y-57800952D02*
X108812438Y-57705714D01*
X108812438Y-57705714D02*
X108860057Y-57658095D01*
X108860057Y-57658095D02*
X108955295Y-57610476D01*
X108955295Y-57610476D02*
X109050533Y-57610476D01*
X109050533Y-57610476D02*
X109193390Y-57658095D01*
X109193390Y-57658095D02*
X109764819Y-58229523D01*
X109764819Y-58229523D02*
X109764819Y-57610476D01*
X57658095Y-150524819D02*
X57658095Y-151334342D01*
X57658095Y-151334342D02*
X57705714Y-151429580D01*
X57705714Y-151429580D02*
X57753333Y-151477200D01*
X57753333Y-151477200D02*
X57848571Y-151524819D01*
X57848571Y-151524819D02*
X58039047Y-151524819D01*
X58039047Y-151524819D02*
X58134285Y-151477200D01*
X58134285Y-151477200D02*
X58181904Y-151429580D01*
X58181904Y-151429580D02*
X58229523Y-151334342D01*
X58229523Y-151334342D02*
X58229523Y-150524819D01*
X59229523Y-151524819D02*
X58658095Y-151524819D01*
X58943809Y-151524819D02*
X58943809Y-150524819D01*
X58943809Y-150524819D02*
X58848571Y-150667676D01*
X58848571Y-150667676D02*
X58753333Y-150762914D01*
X58753333Y-150762914D02*
X58658095Y-150810533D01*
X117974819Y-88243333D02*
X118689104Y-88243333D01*
X118689104Y-88243333D02*
X118831961Y-88290952D01*
X118831961Y-88290952D02*
X118927200Y-88386190D01*
X118927200Y-88386190D02*
X118974819Y-88529047D01*
X118974819Y-88529047D02*
X118974819Y-88624285D01*
X117974819Y-87290952D02*
X117974819Y-87767142D01*
X117974819Y-87767142D02*
X118451009Y-87814761D01*
X118451009Y-87814761D02*
X118403390Y-87767142D01*
X118403390Y-87767142D02*
X118355771Y-87671904D01*
X118355771Y-87671904D02*
X118355771Y-87433809D01*
X118355771Y-87433809D02*
X118403390Y-87338571D01*
X118403390Y-87338571D02*
X118451009Y-87290952D01*
X118451009Y-87290952D02*
X118546247Y-87243333D01*
X118546247Y-87243333D02*
X118784342Y-87243333D01*
X118784342Y-87243333D02*
X118879580Y-87290952D01*
X118879580Y-87290952D02*
X118927200Y-87338571D01*
X118927200Y-87338571D02*
X118974819Y-87433809D01*
X118974819Y-87433809D02*
X118974819Y-87671904D01*
X118974819Y-87671904D02*
X118927200Y-87767142D01*
X118927200Y-87767142D02*
X118879580Y-87814761D01*
X77303333Y-43804819D02*
X76970000Y-43328628D01*
X76731905Y-43804819D02*
X76731905Y-42804819D01*
X76731905Y-42804819D02*
X77112857Y-42804819D01*
X77112857Y-42804819D02*
X77208095Y-42852438D01*
X77208095Y-42852438D02*
X77255714Y-42900057D01*
X77255714Y-42900057D02*
X77303333Y-42995295D01*
X77303333Y-42995295D02*
X77303333Y-43138152D01*
X77303333Y-43138152D02*
X77255714Y-43233390D01*
X77255714Y-43233390D02*
X77208095Y-43281009D01*
X77208095Y-43281009D02*
X77112857Y-43328628D01*
X77112857Y-43328628D02*
X76731905Y-43328628D01*
X77684286Y-42900057D02*
X77731905Y-42852438D01*
X77731905Y-42852438D02*
X77827143Y-42804819D01*
X77827143Y-42804819D02*
X78065238Y-42804819D01*
X78065238Y-42804819D02*
X78160476Y-42852438D01*
X78160476Y-42852438D02*
X78208095Y-42900057D01*
X78208095Y-42900057D02*
X78255714Y-42995295D01*
X78255714Y-42995295D02*
X78255714Y-43090533D01*
X78255714Y-43090533D02*
X78208095Y-43233390D01*
X78208095Y-43233390D02*
X77636667Y-43804819D01*
X77636667Y-43804819D02*
X78255714Y-43804819D01*
X117974819Y-103203333D02*
X118689104Y-103203333D01*
X118689104Y-103203333D02*
X118831961Y-103250952D01*
X118831961Y-103250952D02*
X118927200Y-103346190D01*
X118927200Y-103346190D02*
X118974819Y-103489047D01*
X118974819Y-103489047D02*
X118974819Y-103584285D01*
X117974819Y-102298571D02*
X117974819Y-102489047D01*
X117974819Y-102489047D02*
X118022438Y-102584285D01*
X118022438Y-102584285D02*
X118070057Y-102631904D01*
X118070057Y-102631904D02*
X118212914Y-102727142D01*
X118212914Y-102727142D02*
X118403390Y-102774761D01*
X118403390Y-102774761D02*
X118784342Y-102774761D01*
X118784342Y-102774761D02*
X118879580Y-102727142D01*
X118879580Y-102727142D02*
X118927200Y-102679523D01*
X118927200Y-102679523D02*
X118974819Y-102584285D01*
X118974819Y-102584285D02*
X118974819Y-102393809D01*
X118974819Y-102393809D02*
X118927200Y-102298571D01*
X118927200Y-102298571D02*
X118879580Y-102250952D01*
X118879580Y-102250952D02*
X118784342Y-102203333D01*
X118784342Y-102203333D02*
X118546247Y-102203333D01*
X118546247Y-102203333D02*
X118451009Y-102250952D01*
X118451009Y-102250952D02*
X118403390Y-102298571D01*
X118403390Y-102298571D02*
X118355771Y-102393809D01*
X118355771Y-102393809D02*
X118355771Y-102584285D01*
X118355771Y-102584285D02*
X118403390Y-102679523D01*
X118403390Y-102679523D02*
X118451009Y-102727142D01*
X118451009Y-102727142D02*
X118546247Y-102774761D01*
X77303333Y-58874819D02*
X76970000Y-58398628D01*
X76731905Y-58874819D02*
X76731905Y-57874819D01*
X76731905Y-57874819D02*
X77112857Y-57874819D01*
X77112857Y-57874819D02*
X77208095Y-57922438D01*
X77208095Y-57922438D02*
X77255714Y-57970057D01*
X77255714Y-57970057D02*
X77303333Y-58065295D01*
X77303333Y-58065295D02*
X77303333Y-58208152D01*
X77303333Y-58208152D02*
X77255714Y-58303390D01*
X77255714Y-58303390D02*
X77208095Y-58351009D01*
X77208095Y-58351009D02*
X77112857Y-58398628D01*
X77112857Y-58398628D02*
X76731905Y-58398628D01*
X78160476Y-58208152D02*
X78160476Y-58874819D01*
X77922381Y-57827200D02*
X77684286Y-58541485D01*
X77684286Y-58541485D02*
X78303333Y-58541485D01*
X117974819Y-73003333D02*
X118689104Y-73003333D01*
X118689104Y-73003333D02*
X118831961Y-73050952D01*
X118831961Y-73050952D02*
X118927200Y-73146190D01*
X118927200Y-73146190D02*
X118974819Y-73289047D01*
X118974819Y-73289047D02*
X118974819Y-73384285D01*
X118308152Y-72098571D02*
X118974819Y-72098571D01*
X117927200Y-72336666D02*
X118641485Y-72574761D01*
X118641485Y-72574761D02*
X118641485Y-71955714D01*
X76827142Y-135244819D02*
X76493809Y-134768628D01*
X76255714Y-135244819D02*
X76255714Y-134244819D01*
X76255714Y-134244819D02*
X76636666Y-134244819D01*
X76636666Y-134244819D02*
X76731904Y-134292438D01*
X76731904Y-134292438D02*
X76779523Y-134340057D01*
X76779523Y-134340057D02*
X76827142Y-134435295D01*
X76827142Y-134435295D02*
X76827142Y-134578152D01*
X76827142Y-134578152D02*
X76779523Y-134673390D01*
X76779523Y-134673390D02*
X76731904Y-134721009D01*
X76731904Y-134721009D02*
X76636666Y-134768628D01*
X76636666Y-134768628D02*
X76255714Y-134768628D01*
X77779523Y-135244819D02*
X77208095Y-135244819D01*
X77493809Y-135244819D02*
X77493809Y-134244819D01*
X77493809Y-134244819D02*
X77398571Y-134387676D01*
X77398571Y-134387676D02*
X77303333Y-134482914D01*
X77303333Y-134482914D02*
X77208095Y-134530533D01*
X78636666Y-134578152D02*
X78636666Y-135244819D01*
X78398571Y-134197200D02*
X78160476Y-134911485D01*
X78160476Y-134911485D02*
X78779523Y-134911485D01*
X77303333Y-74224819D02*
X76970000Y-73748628D01*
X76731905Y-74224819D02*
X76731905Y-73224819D01*
X76731905Y-73224819D02*
X77112857Y-73224819D01*
X77112857Y-73224819D02*
X77208095Y-73272438D01*
X77208095Y-73272438D02*
X77255714Y-73320057D01*
X77255714Y-73320057D02*
X77303333Y-73415295D01*
X77303333Y-73415295D02*
X77303333Y-73558152D01*
X77303333Y-73558152D02*
X77255714Y-73653390D01*
X77255714Y-73653390D02*
X77208095Y-73701009D01*
X77208095Y-73701009D02*
X77112857Y-73748628D01*
X77112857Y-73748628D02*
X76731905Y-73748628D01*
X78208095Y-73224819D02*
X77731905Y-73224819D01*
X77731905Y-73224819D02*
X77684286Y-73701009D01*
X77684286Y-73701009D02*
X77731905Y-73653390D01*
X77731905Y-73653390D02*
X77827143Y-73605771D01*
X77827143Y-73605771D02*
X78065238Y-73605771D01*
X78065238Y-73605771D02*
X78160476Y-73653390D01*
X78160476Y-73653390D02*
X78208095Y-73701009D01*
X78208095Y-73701009D02*
X78255714Y-73796247D01*
X78255714Y-73796247D02*
X78255714Y-74034342D01*
X78255714Y-74034342D02*
X78208095Y-74129580D01*
X78208095Y-74129580D02*
X78160476Y-74177200D01*
X78160476Y-74177200D02*
X78065238Y-74224819D01*
X78065238Y-74224819D02*
X77827143Y-74224819D01*
X77827143Y-74224819D02*
X77731905Y-74177200D01*
X77731905Y-74177200D02*
X77684286Y-74129580D01*
X76827142Y-104764819D02*
X76493809Y-104288628D01*
X76255714Y-104764819D02*
X76255714Y-103764819D01*
X76255714Y-103764819D02*
X76636666Y-103764819D01*
X76636666Y-103764819D02*
X76731904Y-103812438D01*
X76731904Y-103812438D02*
X76779523Y-103860057D01*
X76779523Y-103860057D02*
X76827142Y-103955295D01*
X76827142Y-103955295D02*
X76827142Y-104098152D01*
X76827142Y-104098152D02*
X76779523Y-104193390D01*
X76779523Y-104193390D02*
X76731904Y-104241009D01*
X76731904Y-104241009D02*
X76636666Y-104288628D01*
X76636666Y-104288628D02*
X76255714Y-104288628D01*
X77779523Y-104764819D02*
X77208095Y-104764819D01*
X77493809Y-104764819D02*
X77493809Y-103764819D01*
X77493809Y-103764819D02*
X77398571Y-103907676D01*
X77398571Y-103907676D02*
X77303333Y-104002914D01*
X77303333Y-104002914D02*
X77208095Y-104050533D01*
X78398571Y-103764819D02*
X78493809Y-103764819D01*
X78493809Y-103764819D02*
X78589047Y-103812438D01*
X78589047Y-103812438D02*
X78636666Y-103860057D01*
X78636666Y-103860057D02*
X78684285Y-103955295D01*
X78684285Y-103955295D02*
X78731904Y-104145771D01*
X78731904Y-104145771D02*
X78731904Y-104383866D01*
X78731904Y-104383866D02*
X78684285Y-104574342D01*
X78684285Y-104574342D02*
X78636666Y-104669580D01*
X78636666Y-104669580D02*
X78589047Y-104717200D01*
X78589047Y-104717200D02*
X78493809Y-104764819D01*
X78493809Y-104764819D02*
X78398571Y-104764819D01*
X78398571Y-104764819D02*
X78303333Y-104717200D01*
X78303333Y-104717200D02*
X78255714Y-104669580D01*
X78255714Y-104669580D02*
X78208095Y-104574342D01*
X78208095Y-104574342D02*
X78160476Y-104383866D01*
X78160476Y-104383866D02*
X78160476Y-104145771D01*
X78160476Y-104145771D02*
X78208095Y-103955295D01*
X78208095Y-103955295D02*
X78255714Y-103860057D01*
X78255714Y-103860057D02*
X78303333Y-103812438D01*
X78303333Y-103812438D02*
X78398571Y-103764819D01*
X76827142Y-150144819D02*
X76493809Y-149668628D01*
X76255714Y-150144819D02*
X76255714Y-149144819D01*
X76255714Y-149144819D02*
X76636666Y-149144819D01*
X76636666Y-149144819D02*
X76731904Y-149192438D01*
X76731904Y-149192438D02*
X76779523Y-149240057D01*
X76779523Y-149240057D02*
X76827142Y-149335295D01*
X76827142Y-149335295D02*
X76827142Y-149478152D01*
X76827142Y-149478152D02*
X76779523Y-149573390D01*
X76779523Y-149573390D02*
X76731904Y-149621009D01*
X76731904Y-149621009D02*
X76636666Y-149668628D01*
X76636666Y-149668628D02*
X76255714Y-149668628D01*
X77779523Y-150144819D02*
X77208095Y-150144819D01*
X77493809Y-150144819D02*
X77493809Y-149144819D01*
X77493809Y-149144819D02*
X77398571Y-149287676D01*
X77398571Y-149287676D02*
X77303333Y-149382914D01*
X77303333Y-149382914D02*
X77208095Y-149430533D01*
X78684285Y-149144819D02*
X78208095Y-149144819D01*
X78208095Y-149144819D02*
X78160476Y-149621009D01*
X78160476Y-149621009D02*
X78208095Y-149573390D01*
X78208095Y-149573390D02*
X78303333Y-149525771D01*
X78303333Y-149525771D02*
X78541428Y-149525771D01*
X78541428Y-149525771D02*
X78636666Y-149573390D01*
X78636666Y-149573390D02*
X78684285Y-149621009D01*
X78684285Y-149621009D02*
X78731904Y-149716247D01*
X78731904Y-149716247D02*
X78731904Y-149954342D01*
X78731904Y-149954342D02*
X78684285Y-150049580D01*
X78684285Y-150049580D02*
X78636666Y-150097200D01*
X78636666Y-150097200D02*
X78541428Y-150144819D01*
X78541428Y-150144819D02*
X78303333Y-150144819D01*
X78303333Y-150144819D02*
X78208095Y-150097200D01*
X78208095Y-150097200D02*
X78160476Y-150049580D01*
X109860057Y-147415238D02*
X109812438Y-147510476D01*
X109812438Y-147510476D02*
X109717200Y-147605714D01*
X109717200Y-147605714D02*
X109574342Y-147748571D01*
X109574342Y-147748571D02*
X109526723Y-147843809D01*
X109526723Y-147843809D02*
X109526723Y-147939047D01*
X109764819Y-147891428D02*
X109717200Y-147986666D01*
X109717200Y-147986666D02*
X109621961Y-148081904D01*
X109621961Y-148081904D02*
X109431485Y-148129523D01*
X109431485Y-148129523D02*
X109098152Y-148129523D01*
X109098152Y-148129523D02*
X108907676Y-148081904D01*
X108907676Y-148081904D02*
X108812438Y-147986666D01*
X108812438Y-147986666D02*
X108764819Y-147891428D01*
X108764819Y-147891428D02*
X108764819Y-147700952D01*
X108764819Y-147700952D02*
X108812438Y-147605714D01*
X108812438Y-147605714D02*
X108907676Y-147510476D01*
X108907676Y-147510476D02*
X109098152Y-147462857D01*
X109098152Y-147462857D02*
X109431485Y-147462857D01*
X109431485Y-147462857D02*
X109621961Y-147510476D01*
X109621961Y-147510476D02*
X109717200Y-147605714D01*
X109717200Y-147605714D02*
X109764819Y-147700952D01*
X109764819Y-147700952D02*
X109764819Y-147891428D01*
X109193390Y-146891428D02*
X109145771Y-146986666D01*
X109145771Y-146986666D02*
X109098152Y-147034285D01*
X109098152Y-147034285D02*
X109002914Y-147081904D01*
X109002914Y-147081904D02*
X108955295Y-147081904D01*
X108955295Y-147081904D02*
X108860057Y-147034285D01*
X108860057Y-147034285D02*
X108812438Y-146986666D01*
X108812438Y-146986666D02*
X108764819Y-146891428D01*
X108764819Y-146891428D02*
X108764819Y-146700952D01*
X108764819Y-146700952D02*
X108812438Y-146605714D01*
X108812438Y-146605714D02*
X108860057Y-146558095D01*
X108860057Y-146558095D02*
X108955295Y-146510476D01*
X108955295Y-146510476D02*
X109002914Y-146510476D01*
X109002914Y-146510476D02*
X109098152Y-146558095D01*
X109098152Y-146558095D02*
X109145771Y-146605714D01*
X109145771Y-146605714D02*
X109193390Y-146700952D01*
X109193390Y-146700952D02*
X109193390Y-146891428D01*
X109193390Y-146891428D02*
X109241009Y-146986666D01*
X109241009Y-146986666D02*
X109288628Y-147034285D01*
X109288628Y-147034285D02*
X109383866Y-147081904D01*
X109383866Y-147081904D02*
X109574342Y-147081904D01*
X109574342Y-147081904D02*
X109669580Y-147034285D01*
X109669580Y-147034285D02*
X109717200Y-146986666D01*
X109717200Y-146986666D02*
X109764819Y-146891428D01*
X109764819Y-146891428D02*
X109764819Y-146700952D01*
X109764819Y-146700952D02*
X109717200Y-146605714D01*
X109717200Y-146605714D02*
X109669580Y-146558095D01*
X109669580Y-146558095D02*
X109574342Y-146510476D01*
X109574342Y-146510476D02*
X109383866Y-146510476D01*
X109383866Y-146510476D02*
X109288628Y-146558095D01*
X109288628Y-146558095D02*
X109241009Y-146605714D01*
X109241009Y-146605714D02*
X109193390Y-146700952D01*
X117974819Y-133683333D02*
X118689104Y-133683333D01*
X118689104Y-133683333D02*
X118831961Y-133730952D01*
X118831961Y-133730952D02*
X118927200Y-133826190D01*
X118927200Y-133826190D02*
X118974819Y-133969047D01*
X118974819Y-133969047D02*
X118974819Y-134064285D01*
X118403390Y-133064285D02*
X118355771Y-133159523D01*
X118355771Y-133159523D02*
X118308152Y-133207142D01*
X118308152Y-133207142D02*
X118212914Y-133254761D01*
X118212914Y-133254761D02*
X118165295Y-133254761D01*
X118165295Y-133254761D02*
X118070057Y-133207142D01*
X118070057Y-133207142D02*
X118022438Y-133159523D01*
X118022438Y-133159523D02*
X117974819Y-133064285D01*
X117974819Y-133064285D02*
X117974819Y-132873809D01*
X117974819Y-132873809D02*
X118022438Y-132778571D01*
X118022438Y-132778571D02*
X118070057Y-132730952D01*
X118070057Y-132730952D02*
X118165295Y-132683333D01*
X118165295Y-132683333D02*
X118212914Y-132683333D01*
X118212914Y-132683333D02*
X118308152Y-132730952D01*
X118308152Y-132730952D02*
X118355771Y-132778571D01*
X118355771Y-132778571D02*
X118403390Y-132873809D01*
X118403390Y-132873809D02*
X118403390Y-133064285D01*
X118403390Y-133064285D02*
X118451009Y-133159523D01*
X118451009Y-133159523D02*
X118498628Y-133207142D01*
X118498628Y-133207142D02*
X118593866Y-133254761D01*
X118593866Y-133254761D02*
X118784342Y-133254761D01*
X118784342Y-133254761D02*
X118879580Y-133207142D01*
X118879580Y-133207142D02*
X118927200Y-133159523D01*
X118927200Y-133159523D02*
X118974819Y-133064285D01*
X118974819Y-133064285D02*
X118974819Y-132873809D01*
X118974819Y-132873809D02*
X118927200Y-132778571D01*
X118927200Y-132778571D02*
X118879580Y-132730952D01*
X118879580Y-132730952D02*
X118784342Y-132683333D01*
X118784342Y-132683333D02*
X118593866Y-132683333D01*
X118593866Y-132683333D02*
X118498628Y-132730952D01*
X118498628Y-132730952D02*
X118451009Y-132778571D01*
X118451009Y-132778571D02*
X118403390Y-132873809D01*
X109860057Y-104235238D02*
X109812438Y-104330476D01*
X109812438Y-104330476D02*
X109717200Y-104425714D01*
X109717200Y-104425714D02*
X109574342Y-104568571D01*
X109574342Y-104568571D02*
X109526723Y-104663809D01*
X109526723Y-104663809D02*
X109526723Y-104759047D01*
X109764819Y-104711428D02*
X109717200Y-104806666D01*
X109717200Y-104806666D02*
X109621961Y-104901904D01*
X109621961Y-104901904D02*
X109431485Y-104949523D01*
X109431485Y-104949523D02*
X109098152Y-104949523D01*
X109098152Y-104949523D02*
X108907676Y-104901904D01*
X108907676Y-104901904D02*
X108812438Y-104806666D01*
X108812438Y-104806666D02*
X108764819Y-104711428D01*
X108764819Y-104711428D02*
X108764819Y-104520952D01*
X108764819Y-104520952D02*
X108812438Y-104425714D01*
X108812438Y-104425714D02*
X108907676Y-104330476D01*
X108907676Y-104330476D02*
X109098152Y-104282857D01*
X109098152Y-104282857D02*
X109431485Y-104282857D01*
X109431485Y-104282857D02*
X109621961Y-104330476D01*
X109621961Y-104330476D02*
X109717200Y-104425714D01*
X109717200Y-104425714D02*
X109764819Y-104520952D01*
X109764819Y-104520952D02*
X109764819Y-104711428D01*
X108764819Y-103378095D02*
X108764819Y-103854285D01*
X108764819Y-103854285D02*
X109241009Y-103901904D01*
X109241009Y-103901904D02*
X109193390Y-103854285D01*
X109193390Y-103854285D02*
X109145771Y-103759047D01*
X109145771Y-103759047D02*
X109145771Y-103520952D01*
X109145771Y-103520952D02*
X109193390Y-103425714D01*
X109193390Y-103425714D02*
X109241009Y-103378095D01*
X109241009Y-103378095D02*
X109336247Y-103330476D01*
X109336247Y-103330476D02*
X109574342Y-103330476D01*
X109574342Y-103330476D02*
X109669580Y-103378095D01*
X109669580Y-103378095D02*
X109717200Y-103425714D01*
X109717200Y-103425714D02*
X109764819Y-103520952D01*
X109764819Y-103520952D02*
X109764819Y-103759047D01*
X109764819Y-103759047D02*
X109717200Y-103854285D01*
X109717200Y-103854285D02*
X109669580Y-103901904D01*
X39180476Y-104524819D02*
X39180476Y-105239104D01*
X39180476Y-105239104D02*
X39132857Y-105381961D01*
X39132857Y-105381961D02*
X39037619Y-105477200D01*
X39037619Y-105477200D02*
X38894762Y-105524819D01*
X38894762Y-105524819D02*
X38799524Y-105524819D01*
X40180476Y-105524819D02*
X39609048Y-105524819D01*
X39894762Y-105524819D02*
X39894762Y-104524819D01*
X39894762Y-104524819D02*
X39799524Y-104667676D01*
X39799524Y-104667676D02*
X39704286Y-104762914D01*
X39704286Y-104762914D02*
X39609048Y-104810533D01*
X41132857Y-105524819D02*
X40561429Y-105524819D01*
X40847143Y-105524819D02*
X40847143Y-104524819D01*
X40847143Y-104524819D02*
X40751905Y-104667676D01*
X40751905Y-104667676D02*
X40656667Y-104762914D01*
X40656667Y-104762914D02*
X40561429Y-104810533D01*
X109860057Y-43275238D02*
X109812438Y-43370476D01*
X109812438Y-43370476D02*
X109717200Y-43465714D01*
X109717200Y-43465714D02*
X109574342Y-43608571D01*
X109574342Y-43608571D02*
X109526723Y-43703809D01*
X109526723Y-43703809D02*
X109526723Y-43799047D01*
X109764819Y-43751428D02*
X109717200Y-43846666D01*
X109717200Y-43846666D02*
X109621961Y-43941904D01*
X109621961Y-43941904D02*
X109431485Y-43989523D01*
X109431485Y-43989523D02*
X109098152Y-43989523D01*
X109098152Y-43989523D02*
X108907676Y-43941904D01*
X108907676Y-43941904D02*
X108812438Y-43846666D01*
X108812438Y-43846666D02*
X108764819Y-43751428D01*
X108764819Y-43751428D02*
X108764819Y-43560952D01*
X108764819Y-43560952D02*
X108812438Y-43465714D01*
X108812438Y-43465714D02*
X108907676Y-43370476D01*
X108907676Y-43370476D02*
X109098152Y-43322857D01*
X109098152Y-43322857D02*
X109431485Y-43322857D01*
X109431485Y-43322857D02*
X109621961Y-43370476D01*
X109621961Y-43370476D02*
X109717200Y-43465714D01*
X109717200Y-43465714D02*
X109764819Y-43560952D01*
X109764819Y-43560952D02*
X109764819Y-43751428D01*
X109764819Y-42370476D02*
X109764819Y-42941904D01*
X109764819Y-42656190D02*
X108764819Y-42656190D01*
X108764819Y-42656190D02*
X108907676Y-42751428D01*
X108907676Y-42751428D02*
X109002914Y-42846666D01*
X109002914Y-42846666D02*
X109050533Y-42941904D01*
X77303333Y-89804819D02*
X76970000Y-89328628D01*
X76731905Y-89804819D02*
X76731905Y-88804819D01*
X76731905Y-88804819D02*
X77112857Y-88804819D01*
X77112857Y-88804819D02*
X77208095Y-88852438D01*
X77208095Y-88852438D02*
X77255714Y-88900057D01*
X77255714Y-88900057D02*
X77303333Y-88995295D01*
X77303333Y-88995295D02*
X77303333Y-89138152D01*
X77303333Y-89138152D02*
X77255714Y-89233390D01*
X77255714Y-89233390D02*
X77208095Y-89281009D01*
X77208095Y-89281009D02*
X77112857Y-89328628D01*
X77112857Y-89328628D02*
X76731905Y-89328628D01*
X77874762Y-89233390D02*
X77779524Y-89185771D01*
X77779524Y-89185771D02*
X77731905Y-89138152D01*
X77731905Y-89138152D02*
X77684286Y-89042914D01*
X77684286Y-89042914D02*
X77684286Y-88995295D01*
X77684286Y-88995295D02*
X77731905Y-88900057D01*
X77731905Y-88900057D02*
X77779524Y-88852438D01*
X77779524Y-88852438D02*
X77874762Y-88804819D01*
X77874762Y-88804819D02*
X78065238Y-88804819D01*
X78065238Y-88804819D02*
X78160476Y-88852438D01*
X78160476Y-88852438D02*
X78208095Y-88900057D01*
X78208095Y-88900057D02*
X78255714Y-88995295D01*
X78255714Y-88995295D02*
X78255714Y-89042914D01*
X78255714Y-89042914D02*
X78208095Y-89138152D01*
X78208095Y-89138152D02*
X78160476Y-89185771D01*
X78160476Y-89185771D02*
X78065238Y-89233390D01*
X78065238Y-89233390D02*
X77874762Y-89233390D01*
X77874762Y-89233390D02*
X77779524Y-89281009D01*
X77779524Y-89281009D02*
X77731905Y-89328628D01*
X77731905Y-89328628D02*
X77684286Y-89423866D01*
X77684286Y-89423866D02*
X77684286Y-89614342D01*
X77684286Y-89614342D02*
X77731905Y-89709580D01*
X77731905Y-89709580D02*
X77779524Y-89757200D01*
X77779524Y-89757200D02*
X77874762Y-89804819D01*
X77874762Y-89804819D02*
X78065238Y-89804819D01*
X78065238Y-89804819D02*
X78160476Y-89757200D01*
X78160476Y-89757200D02*
X78208095Y-89709580D01*
X78208095Y-89709580D02*
X78255714Y-89614342D01*
X78255714Y-89614342D02*
X78255714Y-89423866D01*
X78255714Y-89423866D02*
X78208095Y-89328628D01*
X78208095Y-89328628D02*
X78160476Y-89281009D01*
X78160476Y-89281009D02*
X78065238Y-89233390D01*
X117974819Y-118163333D02*
X118689104Y-118163333D01*
X118689104Y-118163333D02*
X118831961Y-118210952D01*
X118831961Y-118210952D02*
X118927200Y-118306190D01*
X118927200Y-118306190D02*
X118974819Y-118449047D01*
X118974819Y-118449047D02*
X118974819Y-118544285D01*
X117974819Y-117782380D02*
X117974819Y-117115714D01*
X117974819Y-117115714D02*
X118974819Y-117544285D01*
X37834819Y-154630682D02*
X38549104Y-154630682D01*
X38549104Y-154630682D02*
X38691961Y-154678301D01*
X38691961Y-154678301D02*
X38787200Y-154773539D01*
X38787200Y-154773539D02*
X38834819Y-154916396D01*
X38834819Y-154916396D02*
X38834819Y-155011634D01*
X38834819Y-153630682D02*
X38834819Y-154202110D01*
X38834819Y-153916396D02*
X37834819Y-153916396D01*
X37834819Y-153916396D02*
X37977676Y-154011634D01*
X37977676Y-154011634D02*
X38072914Y-154106872D01*
X38072914Y-154106872D02*
X38120533Y-154202110D01*
X76827142Y-119724819D02*
X76493809Y-119248628D01*
X76255714Y-119724819D02*
X76255714Y-118724819D01*
X76255714Y-118724819D02*
X76636666Y-118724819D01*
X76636666Y-118724819D02*
X76731904Y-118772438D01*
X76731904Y-118772438D02*
X76779523Y-118820057D01*
X76779523Y-118820057D02*
X76827142Y-118915295D01*
X76827142Y-118915295D02*
X76827142Y-119058152D01*
X76827142Y-119058152D02*
X76779523Y-119153390D01*
X76779523Y-119153390D02*
X76731904Y-119201009D01*
X76731904Y-119201009D02*
X76636666Y-119248628D01*
X76636666Y-119248628D02*
X76255714Y-119248628D01*
X77779523Y-119724819D02*
X77208095Y-119724819D01*
X77493809Y-119724819D02*
X77493809Y-118724819D01*
X77493809Y-118724819D02*
X77398571Y-118867676D01*
X77398571Y-118867676D02*
X77303333Y-118962914D01*
X77303333Y-118962914D02*
X77208095Y-119010533D01*
X78160476Y-118820057D02*
X78208095Y-118772438D01*
X78208095Y-118772438D02*
X78303333Y-118724819D01*
X78303333Y-118724819D02*
X78541428Y-118724819D01*
X78541428Y-118724819D02*
X78636666Y-118772438D01*
X78636666Y-118772438D02*
X78684285Y-118820057D01*
X78684285Y-118820057D02*
X78731904Y-118915295D01*
X78731904Y-118915295D02*
X78731904Y-119010533D01*
X78731904Y-119010533D02*
X78684285Y-119153390D01*
X78684285Y-119153390D02*
X78112857Y-119724819D01*
X78112857Y-119724819D02*
X78731904Y-119724819D01*
X117974819Y-57483333D02*
X118689104Y-57483333D01*
X118689104Y-57483333D02*
X118831961Y-57530952D01*
X118831961Y-57530952D02*
X118927200Y-57626190D01*
X118927200Y-57626190D02*
X118974819Y-57769047D01*
X118974819Y-57769047D02*
X118974819Y-57864285D01*
X117974819Y-57102380D02*
X117974819Y-56483333D01*
X117974819Y-56483333D02*
X118355771Y-56816666D01*
X118355771Y-56816666D02*
X118355771Y-56673809D01*
X118355771Y-56673809D02*
X118403390Y-56578571D01*
X118403390Y-56578571D02*
X118451009Y-56530952D01*
X118451009Y-56530952D02*
X118546247Y-56483333D01*
X118546247Y-56483333D02*
X118784342Y-56483333D01*
X118784342Y-56483333D02*
X118879580Y-56530952D01*
X118879580Y-56530952D02*
X118927200Y-56578571D01*
X118927200Y-56578571D02*
X118974819Y-56673809D01*
X118974819Y-56673809D02*
X118974819Y-56959523D01*
X118974819Y-56959523D02*
X118927200Y-57054761D01*
X118927200Y-57054761D02*
X118879580Y-57102380D01*
X76827142Y-134904819D02*
X76493809Y-134428628D01*
X76255714Y-134904819D02*
X76255714Y-133904819D01*
X76255714Y-133904819D02*
X76636666Y-133904819D01*
X76636666Y-133904819D02*
X76731904Y-133952438D01*
X76731904Y-133952438D02*
X76779523Y-134000057D01*
X76779523Y-134000057D02*
X76827142Y-134095295D01*
X76827142Y-134095295D02*
X76827142Y-134238152D01*
X76827142Y-134238152D02*
X76779523Y-134333390D01*
X76779523Y-134333390D02*
X76731904Y-134381009D01*
X76731904Y-134381009D02*
X76636666Y-134428628D01*
X76636666Y-134428628D02*
X76255714Y-134428628D01*
X77779523Y-134904819D02*
X77208095Y-134904819D01*
X77493809Y-134904819D02*
X77493809Y-133904819D01*
X77493809Y-133904819D02*
X77398571Y-134047676D01*
X77398571Y-134047676D02*
X77303333Y-134142914D01*
X77303333Y-134142914D02*
X77208095Y-134190533D01*
X78112857Y-133904819D02*
X78731904Y-133904819D01*
X78731904Y-133904819D02*
X78398571Y-134285771D01*
X78398571Y-134285771D02*
X78541428Y-134285771D01*
X78541428Y-134285771D02*
X78636666Y-134333390D01*
X78636666Y-134333390D02*
X78684285Y-134381009D01*
X78684285Y-134381009D02*
X78731904Y-134476247D01*
X78731904Y-134476247D02*
X78731904Y-134714342D01*
X78731904Y-134714342D02*
X78684285Y-134809580D01*
X78684285Y-134809580D02*
X78636666Y-134857200D01*
X78636666Y-134857200D02*
X78541428Y-134904819D01*
X78541428Y-134904819D02*
X78255714Y-134904819D01*
X78255714Y-134904819D02*
X78160476Y-134857200D01*
X78160476Y-134857200D02*
X78112857Y-134809580D01*
X76827142Y-119384819D02*
X76493809Y-118908628D01*
X76255714Y-119384819D02*
X76255714Y-118384819D01*
X76255714Y-118384819D02*
X76636666Y-118384819D01*
X76636666Y-118384819D02*
X76731904Y-118432438D01*
X76731904Y-118432438D02*
X76779523Y-118480057D01*
X76779523Y-118480057D02*
X76827142Y-118575295D01*
X76827142Y-118575295D02*
X76827142Y-118718152D01*
X76827142Y-118718152D02*
X76779523Y-118813390D01*
X76779523Y-118813390D02*
X76731904Y-118861009D01*
X76731904Y-118861009D02*
X76636666Y-118908628D01*
X76636666Y-118908628D02*
X76255714Y-118908628D01*
X77779523Y-119384819D02*
X77208095Y-119384819D01*
X77493809Y-119384819D02*
X77493809Y-118384819D01*
X77493809Y-118384819D02*
X77398571Y-118527676D01*
X77398571Y-118527676D02*
X77303333Y-118622914D01*
X77303333Y-118622914D02*
X77208095Y-118670533D01*
X78731904Y-119384819D02*
X78160476Y-119384819D01*
X78446190Y-119384819D02*
X78446190Y-118384819D01*
X78446190Y-118384819D02*
X78350952Y-118527676D01*
X78350952Y-118527676D02*
X78255714Y-118622914D01*
X78255714Y-118622914D02*
X78160476Y-118670533D01*
X109860057Y-89275238D02*
X109812438Y-89370476D01*
X109812438Y-89370476D02*
X109717200Y-89465714D01*
X109717200Y-89465714D02*
X109574342Y-89608571D01*
X109574342Y-89608571D02*
X109526723Y-89703809D01*
X109526723Y-89703809D02*
X109526723Y-89799047D01*
X109764819Y-89751428D02*
X109717200Y-89846666D01*
X109717200Y-89846666D02*
X109621961Y-89941904D01*
X109621961Y-89941904D02*
X109431485Y-89989523D01*
X109431485Y-89989523D02*
X109098152Y-89989523D01*
X109098152Y-89989523D02*
X108907676Y-89941904D01*
X108907676Y-89941904D02*
X108812438Y-89846666D01*
X108812438Y-89846666D02*
X108764819Y-89751428D01*
X108764819Y-89751428D02*
X108764819Y-89560952D01*
X108764819Y-89560952D02*
X108812438Y-89465714D01*
X108812438Y-89465714D02*
X108907676Y-89370476D01*
X108907676Y-89370476D02*
X109098152Y-89322857D01*
X109098152Y-89322857D02*
X109431485Y-89322857D01*
X109431485Y-89322857D02*
X109621961Y-89370476D01*
X109621961Y-89370476D02*
X109717200Y-89465714D01*
X109717200Y-89465714D02*
X109764819Y-89560952D01*
X109764819Y-89560952D02*
X109764819Y-89751428D01*
X109098152Y-88465714D02*
X109764819Y-88465714D01*
X108717200Y-88703809D02*
X109431485Y-88941904D01*
X109431485Y-88941904D02*
X109431485Y-88322857D01*
X117974819Y-42243333D02*
X118689104Y-42243333D01*
X118689104Y-42243333D02*
X118831961Y-42290952D01*
X118831961Y-42290952D02*
X118927200Y-42386190D01*
X118927200Y-42386190D02*
X118974819Y-42529047D01*
X118974819Y-42529047D02*
X118974819Y-42624285D01*
X118070057Y-41814761D02*
X118022438Y-41767142D01*
X118022438Y-41767142D02*
X117974819Y-41671904D01*
X117974819Y-41671904D02*
X117974819Y-41433809D01*
X117974819Y-41433809D02*
X118022438Y-41338571D01*
X118022438Y-41338571D02*
X118070057Y-41290952D01*
X118070057Y-41290952D02*
X118165295Y-41243333D01*
X118165295Y-41243333D02*
X118260533Y-41243333D01*
X118260533Y-41243333D02*
X118403390Y-41290952D01*
X118403390Y-41290952D02*
X118974819Y-41862380D01*
X118974819Y-41862380D02*
X118974819Y-41243333D01*
X109860057Y-119195238D02*
X109812438Y-119290476D01*
X109812438Y-119290476D02*
X109717200Y-119385714D01*
X109717200Y-119385714D02*
X109574342Y-119528571D01*
X109574342Y-119528571D02*
X109526723Y-119623809D01*
X109526723Y-119623809D02*
X109526723Y-119719047D01*
X109764819Y-119671428D02*
X109717200Y-119766666D01*
X109717200Y-119766666D02*
X109621961Y-119861904D01*
X109621961Y-119861904D02*
X109431485Y-119909523D01*
X109431485Y-119909523D02*
X109098152Y-119909523D01*
X109098152Y-119909523D02*
X108907676Y-119861904D01*
X108907676Y-119861904D02*
X108812438Y-119766666D01*
X108812438Y-119766666D02*
X108764819Y-119671428D01*
X108764819Y-119671428D02*
X108764819Y-119480952D01*
X108764819Y-119480952D02*
X108812438Y-119385714D01*
X108812438Y-119385714D02*
X108907676Y-119290476D01*
X108907676Y-119290476D02*
X109098152Y-119242857D01*
X109098152Y-119242857D02*
X109431485Y-119242857D01*
X109431485Y-119242857D02*
X109621961Y-119290476D01*
X109621961Y-119290476D02*
X109717200Y-119385714D01*
X109717200Y-119385714D02*
X109764819Y-119480952D01*
X109764819Y-119480952D02*
X109764819Y-119671428D01*
X108764819Y-118385714D02*
X108764819Y-118576190D01*
X108764819Y-118576190D02*
X108812438Y-118671428D01*
X108812438Y-118671428D02*
X108860057Y-118719047D01*
X108860057Y-118719047D02*
X109002914Y-118814285D01*
X109002914Y-118814285D02*
X109193390Y-118861904D01*
X109193390Y-118861904D02*
X109574342Y-118861904D01*
X109574342Y-118861904D02*
X109669580Y-118814285D01*
X109669580Y-118814285D02*
X109717200Y-118766666D01*
X109717200Y-118766666D02*
X109764819Y-118671428D01*
X109764819Y-118671428D02*
X109764819Y-118480952D01*
X109764819Y-118480952D02*
X109717200Y-118385714D01*
X109717200Y-118385714D02*
X109669580Y-118338095D01*
X109669580Y-118338095D02*
X109574342Y-118290476D01*
X109574342Y-118290476D02*
X109336247Y-118290476D01*
X109336247Y-118290476D02*
X109241009Y-118338095D01*
X109241009Y-118338095D02*
X109193390Y-118385714D01*
X109193390Y-118385714D02*
X109145771Y-118480952D01*
X109145771Y-118480952D02*
X109145771Y-118671428D01*
X109145771Y-118671428D02*
X109193390Y-118766666D01*
X109193390Y-118766666D02*
X109241009Y-118814285D01*
X109241009Y-118814285D02*
X109336247Y-118861904D01*
X77303333Y-74564819D02*
X76970000Y-74088628D01*
X76731905Y-74564819D02*
X76731905Y-73564819D01*
X76731905Y-73564819D02*
X77112857Y-73564819D01*
X77112857Y-73564819D02*
X77208095Y-73612438D01*
X77208095Y-73612438D02*
X77255714Y-73660057D01*
X77255714Y-73660057D02*
X77303333Y-73755295D01*
X77303333Y-73755295D02*
X77303333Y-73898152D01*
X77303333Y-73898152D02*
X77255714Y-73993390D01*
X77255714Y-73993390D02*
X77208095Y-74041009D01*
X77208095Y-74041009D02*
X77112857Y-74088628D01*
X77112857Y-74088628D02*
X76731905Y-74088628D01*
X78160476Y-73564819D02*
X77970000Y-73564819D01*
X77970000Y-73564819D02*
X77874762Y-73612438D01*
X77874762Y-73612438D02*
X77827143Y-73660057D01*
X77827143Y-73660057D02*
X77731905Y-73802914D01*
X77731905Y-73802914D02*
X77684286Y-73993390D01*
X77684286Y-73993390D02*
X77684286Y-74374342D01*
X77684286Y-74374342D02*
X77731905Y-74469580D01*
X77731905Y-74469580D02*
X77779524Y-74517200D01*
X77779524Y-74517200D02*
X77874762Y-74564819D01*
X77874762Y-74564819D02*
X78065238Y-74564819D01*
X78065238Y-74564819D02*
X78160476Y-74517200D01*
X78160476Y-74517200D02*
X78208095Y-74469580D01*
X78208095Y-74469580D02*
X78255714Y-74374342D01*
X78255714Y-74374342D02*
X78255714Y-74136247D01*
X78255714Y-74136247D02*
X78208095Y-74041009D01*
X78208095Y-74041009D02*
X78160476Y-73993390D01*
X78160476Y-73993390D02*
X78065238Y-73945771D01*
X78065238Y-73945771D02*
X77874762Y-73945771D01*
X77874762Y-73945771D02*
X77779524Y-73993390D01*
X77779524Y-73993390D02*
X77731905Y-74041009D01*
X77731905Y-74041009D02*
X77684286Y-74136247D01*
X58293333Y-117729580D02*
X58245714Y-117777200D01*
X58245714Y-117777200D02*
X58102857Y-117824819D01*
X58102857Y-117824819D02*
X58007619Y-117824819D01*
X58007619Y-117824819D02*
X57864762Y-117777200D01*
X57864762Y-117777200D02*
X57769524Y-117681961D01*
X57769524Y-117681961D02*
X57721905Y-117586723D01*
X57721905Y-117586723D02*
X57674286Y-117396247D01*
X57674286Y-117396247D02*
X57674286Y-117253390D01*
X57674286Y-117253390D02*
X57721905Y-117062914D01*
X57721905Y-117062914D02*
X57769524Y-116967676D01*
X57769524Y-116967676D02*
X57864762Y-116872438D01*
X57864762Y-116872438D02*
X58007619Y-116824819D01*
X58007619Y-116824819D02*
X58102857Y-116824819D01*
X58102857Y-116824819D02*
X58245714Y-116872438D01*
X58245714Y-116872438D02*
X58293333Y-116920057D01*
X58674286Y-116920057D02*
X58721905Y-116872438D01*
X58721905Y-116872438D02*
X58817143Y-116824819D01*
X58817143Y-116824819D02*
X59055238Y-116824819D01*
X59055238Y-116824819D02*
X59150476Y-116872438D01*
X59150476Y-116872438D02*
X59198095Y-116920057D01*
X59198095Y-116920057D02*
X59245714Y-117015295D01*
X59245714Y-117015295D02*
X59245714Y-117110533D01*
X59245714Y-117110533D02*
X59198095Y-117253390D01*
X59198095Y-117253390D02*
X58626667Y-117824819D01*
X58626667Y-117824819D02*
X59245714Y-117824819D01*
%TO.C,U2*%
D11*
X65976320Y-81527280D02*
X37576320Y-81527280D01*
X37576320Y-42717280D01*
X65976320Y-42717280D01*
X65976320Y-81527280D01*
X57866320Y-87007280D02*
X45866320Y-87007280D01*
X45866320Y-81507280D01*
X57866320Y-81507280D01*
X57866320Y-87007280D01*
D12*
%TO.C,R18*%
X38620000Y-108310000D02*
X38620000Y-114850000D01*
X38620000Y-114850000D02*
X38950000Y-114850000D01*
X38950000Y-108310000D02*
X38620000Y-108310000D01*
X41030000Y-108310000D02*
X41360000Y-108310000D01*
X41360000Y-108310000D02*
X41360000Y-114850000D01*
X41360000Y-114850000D02*
X41030000Y-114850000D01*
%TO.C,C4*%
X39647651Y-137982349D02*
X40447651Y-137982349D01*
X40047651Y-137582349D02*
X40047651Y-138382349D01*
X44057349Y-136217349D02*
X44057349Y-144377349D01*
X44097349Y-136217349D02*
X44097349Y-144377349D01*
X44137349Y-136218349D02*
X44137349Y-144376349D01*
X44177349Y-136219349D02*
X44177349Y-144375349D01*
X44217349Y-136220349D02*
X44217349Y-144374349D01*
X44257349Y-136222349D02*
X44257349Y-144372349D01*
X44297349Y-136224349D02*
X44297349Y-144370349D01*
X44337349Y-136227349D02*
X44337349Y-144367349D01*
X44377349Y-136229349D02*
X44377349Y-144365349D01*
X44417349Y-136233349D02*
X44417349Y-144361349D01*
X44457349Y-136236349D02*
X44457349Y-144358349D01*
X44497349Y-136241349D02*
X44497349Y-144353349D01*
X44537349Y-136245349D02*
X44537349Y-144349349D01*
X44577349Y-136250349D02*
X44577349Y-144344349D01*
X44617349Y-136255349D02*
X44617349Y-144339349D01*
X44657349Y-136261349D02*
X44657349Y-144333349D01*
X44697349Y-136267349D02*
X44697349Y-144327349D01*
X44737349Y-136274349D02*
X44737349Y-144320349D01*
X44777349Y-136280349D02*
X44777349Y-139257349D01*
X44777349Y-141337349D02*
X44777349Y-144314349D01*
X44817349Y-136288349D02*
X44817349Y-139257349D01*
X44817349Y-141337349D02*
X44817349Y-144306349D01*
X44857349Y-136295349D02*
X44857349Y-139257349D01*
X44857349Y-141337349D02*
X44857349Y-144299349D01*
X44897349Y-136304349D02*
X44897349Y-139257349D01*
X44897349Y-141337349D02*
X44897349Y-144290349D01*
X44937349Y-136312349D02*
X44937349Y-139257349D01*
X44937349Y-141337349D02*
X44937349Y-144282349D01*
X44977349Y-136321349D02*
X44977349Y-139257349D01*
X44977349Y-141337349D02*
X44977349Y-144273349D01*
X45017349Y-136330349D02*
X45017349Y-139257349D01*
X45017349Y-141337349D02*
X45017349Y-144264349D01*
X45057349Y-136340349D02*
X45057349Y-139257349D01*
X45057349Y-141337349D02*
X45057349Y-144254349D01*
X45097349Y-136350349D02*
X45097349Y-139257349D01*
X45097349Y-141337349D02*
X45097349Y-144244349D01*
X45137349Y-136361349D02*
X45137349Y-139257349D01*
X45137349Y-141337349D02*
X45137349Y-144233349D01*
X45177349Y-136372349D02*
X45177349Y-139257349D01*
X45177349Y-141337349D02*
X45177349Y-144222349D01*
X45217349Y-136384349D02*
X45217349Y-139257349D01*
X45217349Y-141337349D02*
X45217349Y-144210349D01*
X45257349Y-136396349D02*
X45257349Y-139257349D01*
X45257349Y-141337349D02*
X45257349Y-144198349D01*
X45297349Y-136408349D02*
X45297349Y-139257349D01*
X45297349Y-141337349D02*
X45297349Y-144186349D01*
X45337349Y-136421349D02*
X45337349Y-139257349D01*
X45337349Y-141337349D02*
X45337349Y-144173349D01*
X45377349Y-136434349D02*
X45377349Y-139257349D01*
X45377349Y-141337349D02*
X45377349Y-144160349D01*
X45417349Y-136448349D02*
X45417349Y-139257349D01*
X45417349Y-141337349D02*
X45417349Y-144146349D01*
X45457349Y-136462349D02*
X45457349Y-139257349D01*
X45457349Y-141337349D02*
X45457349Y-144132349D01*
X45497349Y-136477349D02*
X45497349Y-139257349D01*
X45497349Y-141337349D02*
X45497349Y-144117349D01*
X45537349Y-136492349D02*
X45537349Y-139257349D01*
X45537349Y-141337349D02*
X45537349Y-144102349D01*
X45577349Y-136508349D02*
X45577349Y-139257349D01*
X45577349Y-141337349D02*
X45577349Y-144086349D01*
X45617349Y-136524349D02*
X45617349Y-139257349D01*
X45617349Y-141337349D02*
X45617349Y-144070349D01*
X45657349Y-136540349D02*
X45657349Y-139257349D01*
X45657349Y-141337349D02*
X45657349Y-144054349D01*
X45697349Y-136557349D02*
X45697349Y-139257349D01*
X45697349Y-141337349D02*
X45697349Y-144037349D01*
X45737349Y-136575349D02*
X45737349Y-139257349D01*
X45737349Y-141337349D02*
X45737349Y-144019349D01*
X45777349Y-136593349D02*
X45777349Y-139257349D01*
X45777349Y-141337349D02*
X45777349Y-144001349D01*
X45817349Y-136612349D02*
X45817349Y-139257349D01*
X45817349Y-141337349D02*
X45817349Y-143982349D01*
X45857349Y-136631349D02*
X45857349Y-139257349D01*
X45857349Y-141337349D02*
X45857349Y-143963349D01*
X45897349Y-136651349D02*
X45897349Y-139257349D01*
X45897349Y-141337349D02*
X45897349Y-143943349D01*
X45937349Y-136671349D02*
X45937349Y-139257349D01*
X45937349Y-141337349D02*
X45937349Y-143923349D01*
X45977349Y-136692349D02*
X45977349Y-139257349D01*
X45977349Y-141337349D02*
X45977349Y-143902349D01*
X46017349Y-136713349D02*
X46017349Y-139257349D01*
X46017349Y-141337349D02*
X46017349Y-143881349D01*
X46057349Y-136735349D02*
X46057349Y-139257349D01*
X46057349Y-141337349D02*
X46057349Y-143859349D01*
X46097349Y-136758349D02*
X46097349Y-139257349D01*
X46097349Y-141337349D02*
X46097349Y-143836349D01*
X46137349Y-136781349D02*
X46137349Y-139257349D01*
X46137349Y-141337349D02*
X46137349Y-143813349D01*
X46177349Y-136804349D02*
X46177349Y-139257349D01*
X46177349Y-141337349D02*
X46177349Y-143790349D01*
X46217349Y-136829349D02*
X46217349Y-139257349D01*
X46217349Y-141337349D02*
X46217349Y-143765349D01*
X46257349Y-136854349D02*
X46257349Y-139257349D01*
X46257349Y-141337349D02*
X46257349Y-143740349D01*
X46297349Y-136879349D02*
X46297349Y-139257349D01*
X46297349Y-141337349D02*
X46297349Y-143715349D01*
X46337349Y-136905349D02*
X46337349Y-139257349D01*
X46337349Y-141337349D02*
X46337349Y-143689349D01*
X46377349Y-136932349D02*
X46377349Y-139257349D01*
X46377349Y-141337349D02*
X46377349Y-143662349D01*
X46417349Y-136960349D02*
X46417349Y-139257349D01*
X46417349Y-141337349D02*
X46417349Y-143634349D01*
X46457349Y-136988349D02*
X46457349Y-139257349D01*
X46457349Y-141337349D02*
X46457349Y-143606349D01*
X46497349Y-137017349D02*
X46497349Y-139257349D01*
X46497349Y-141337349D02*
X46497349Y-143577349D01*
X46537349Y-137047349D02*
X46537349Y-139257349D01*
X46537349Y-141337349D02*
X46537349Y-143547349D01*
X46577349Y-137078349D02*
X46577349Y-139257349D01*
X46577349Y-141337349D02*
X46577349Y-143516349D01*
X46617349Y-137109349D02*
X46617349Y-139257349D01*
X46617349Y-141337349D02*
X46617349Y-143485349D01*
X46657349Y-137141349D02*
X46657349Y-139257349D01*
X46657349Y-141337349D02*
X46657349Y-143453349D01*
X46697349Y-137174349D02*
X46697349Y-139257349D01*
X46697349Y-141337349D02*
X46697349Y-143420349D01*
X46737349Y-137208349D02*
X46737349Y-139257349D01*
X46737349Y-141337349D02*
X46737349Y-143386349D01*
X46777349Y-137242349D02*
X46777349Y-139257349D01*
X46777349Y-141337349D02*
X46777349Y-143352349D01*
X46817349Y-137278349D02*
X46817349Y-139257349D01*
X46817349Y-141337349D02*
X46817349Y-143316349D01*
X46857349Y-137315349D02*
X46857349Y-143279349D01*
X46897349Y-137352349D02*
X46897349Y-143242349D01*
X46937349Y-137391349D02*
X46937349Y-143203349D01*
X46977349Y-137430349D02*
X46977349Y-143164349D01*
X47017349Y-137471349D02*
X47017349Y-143123349D01*
X47057349Y-137513349D02*
X47057349Y-143081349D01*
X47097349Y-137556349D02*
X47097349Y-143038349D01*
X47137349Y-137601349D02*
X47137349Y-142993349D01*
X47177349Y-137646349D02*
X47177349Y-142948349D01*
X47217349Y-137693349D02*
X47217349Y-142901349D01*
X47257349Y-137742349D02*
X47257349Y-142852349D01*
X47297349Y-137792349D02*
X47297349Y-142802349D01*
X47337349Y-137844349D02*
X47337349Y-142750349D01*
X47377349Y-137897349D02*
X47377349Y-142697349D01*
X47417349Y-137953349D02*
X47417349Y-142641349D01*
X47457349Y-138010349D02*
X47457349Y-142584349D01*
X47497349Y-138070349D02*
X47497349Y-142524349D01*
X47537349Y-138132349D02*
X47537349Y-142462349D01*
X47577349Y-138196349D02*
X47577349Y-142398349D01*
X47617349Y-138263349D02*
X47617349Y-142331349D01*
X47657349Y-138333349D02*
X47657349Y-142261349D01*
X47697349Y-138407349D02*
X47697349Y-142187349D01*
X47737349Y-138484349D02*
X47737349Y-142110349D01*
X47777349Y-138566349D02*
X47777349Y-142028349D01*
X47817349Y-138653349D02*
X47817349Y-141941349D01*
X47857349Y-138745349D02*
X47857349Y-141849349D01*
X47897349Y-138844349D02*
X47897349Y-141750349D01*
X47937349Y-138951349D02*
X47937349Y-141643349D01*
X47977349Y-139069349D02*
X47977349Y-141525349D01*
X48017349Y-139200349D02*
X48017349Y-141394349D01*
X48057349Y-139350349D02*
X48057349Y-141244349D01*
X48097349Y-139529349D02*
X48097349Y-141065349D01*
X48137349Y-139764349D02*
X48137349Y-140830349D01*
X48177349Y-140297349D02*
G75*
G02*
X39937349Y-140297349I-4120000J0D01*
G01*
X39937349Y-140297349D02*
G75*
G02*
X48177349Y-140297349I4120000J0D01*
G01*
%TO.C,C1*%
X56190000Y-123580000D02*
X60730000Y-123580000D01*
X56190000Y-123636000D02*
X56190000Y-123580000D01*
X60730000Y-125664000D02*
X60730000Y-125720000D01*
X60730000Y-125720000D02*
X56190000Y-125720000D01*
%TO.C,Q3*%
X92600000Y-68830000D02*
X92600000Y-79050000D01*
X92600000Y-68830000D02*
X108470000Y-68830000D01*
X92600000Y-70915000D02*
X90160000Y-70915000D01*
X92600000Y-71885000D02*
X90160000Y-71885000D01*
X92600000Y-73455000D02*
X90160000Y-73455000D01*
X92600000Y-74425000D02*
X90160000Y-74425000D01*
X92600000Y-75995000D02*
X90160000Y-75995000D01*
X92600000Y-76965000D02*
X90160000Y-76965000D01*
X92600000Y-79050000D02*
X108470000Y-79050000D01*
X108470000Y-68830000D02*
X108470000Y-79050000D01*
%TO.C,J10*%
X45610000Y-101600000D02*
X45610000Y-98950000D01*
X48370000Y-98950000D02*
X45610000Y-98950000D01*
X48370000Y-101600000D02*
X45610000Y-101600000D01*
X48370000Y-101600000D02*
X48370000Y-98950000D01*
X48370000Y-102870000D02*
X48370000Y-104250000D01*
X48370000Y-104250000D02*
X46990000Y-104250000D01*
%TO.C,J9*%
X110780000Y-145680000D02*
X117520000Y-145680000D01*
X110780000Y-147020000D02*
X110780000Y-145680000D01*
X110780000Y-151500000D02*
X110780000Y-147620000D01*
X111700000Y-145680000D02*
X111700000Y-151500000D01*
X112700000Y-145680000D02*
X112700000Y-151500000D01*
X115800000Y-145680000D02*
X115800000Y-151500000D01*
X117520000Y-145680000D02*
X117520000Y-151500000D01*
X117520000Y-151500000D02*
X110780000Y-151500000D01*
X110780000Y-147320000D02*
X110170000Y-147760000D01*
X110170000Y-146880000D01*
X110780000Y-147320000D01*
G36*
X110780000Y-147320000D02*
G01*
X110170000Y-147760000D01*
X110170000Y-146880000D01*
X110780000Y-147320000D01*
G37*
%TO.C,R9*%
X74200000Y-100230000D02*
X74200000Y-100560000D01*
X74200000Y-102970000D02*
X74200000Y-102640000D01*
X80740000Y-100230000D02*
X74200000Y-100230000D01*
X80740000Y-100560000D02*
X80740000Y-100230000D01*
X80740000Y-102640000D02*
X80740000Y-102970000D01*
X80740000Y-102970000D02*
X74200000Y-102970000D01*
%TO.C,Q7*%
X92600000Y-129510000D02*
X92600000Y-139730000D01*
X92600000Y-129510000D02*
X108470000Y-129510000D01*
X92600000Y-131595000D02*
X90160000Y-131595000D01*
X92600000Y-132565000D02*
X90160000Y-132565000D01*
X92600000Y-134135000D02*
X90160000Y-134135000D01*
X92600000Y-135105000D02*
X90160000Y-135105000D01*
X92600000Y-136675000D02*
X90160000Y-136675000D01*
X92600000Y-137645000D02*
X90160000Y-137645000D01*
X92600000Y-139730000D02*
X108470000Y-139730000D01*
X108470000Y-129510000D02*
X108470000Y-139730000D01*
%TO.C,R7*%
X74200000Y-85270000D02*
X74200000Y-85600000D01*
X74200000Y-88010000D02*
X74200000Y-87680000D01*
X80740000Y-85270000D02*
X74200000Y-85270000D01*
X80740000Y-85600000D02*
X80740000Y-85270000D01*
X80740000Y-87680000D02*
X80740000Y-88010000D01*
X80740000Y-88010000D02*
X74200000Y-88010000D01*
%TO.C,R1*%
X74200000Y-39270000D02*
X74200000Y-39600000D01*
X74200000Y-42010000D02*
X74200000Y-41680000D01*
X80740000Y-39270000D02*
X74200000Y-39270000D01*
X80740000Y-39600000D02*
X80740000Y-39270000D01*
X80740000Y-41680000D02*
X80740000Y-42010000D01*
X80740000Y-42010000D02*
X74200000Y-42010000D01*
%TO.C,R3*%
X74200000Y-54510000D02*
X74200000Y-54840000D01*
X74200000Y-57250000D02*
X74200000Y-56920000D01*
X80740000Y-54510000D02*
X74200000Y-54510000D01*
X80740000Y-54840000D02*
X80740000Y-54510000D01*
X80740000Y-56920000D02*
X80740000Y-57250000D01*
X80740000Y-57250000D02*
X74200000Y-57250000D01*
%TO.C,R16*%
X74200000Y-150470000D02*
X80740000Y-150470000D01*
X74200000Y-150800000D02*
X74200000Y-150470000D01*
X74200000Y-152880000D02*
X74200000Y-153210000D01*
X74200000Y-153210000D02*
X80740000Y-153210000D01*
X80740000Y-150470000D02*
X80740000Y-150800000D01*
X80740000Y-153210000D02*
X80740000Y-152880000D01*
%TO.C,R17*%
X45620000Y-108490000D02*
X45620000Y-115030000D01*
X45620000Y-115030000D02*
X45950000Y-115030000D01*
X45950000Y-108490000D02*
X45620000Y-108490000D01*
X48030000Y-108490000D02*
X48360000Y-108490000D01*
X48360000Y-108490000D02*
X48360000Y-115030000D01*
X48360000Y-115030000D02*
X48030000Y-115030000D01*
%TO.C,Q2*%
X92600000Y-53310000D02*
X92600000Y-63530000D01*
X92600000Y-53310000D02*
X108470000Y-53310000D01*
X92600000Y-55395000D02*
X90160000Y-55395000D01*
X92600000Y-56365000D02*
X90160000Y-56365000D01*
X92600000Y-57935000D02*
X90160000Y-57935000D01*
X92600000Y-58905000D02*
X90160000Y-58905000D01*
X92600000Y-60475000D02*
X90160000Y-60475000D01*
X92600000Y-61445000D02*
X90160000Y-61445000D01*
X92600000Y-63530000D02*
X108470000Y-63530000D01*
X108470000Y-53310000D02*
X108470000Y-63530000D01*
%TO.C,U1*%
X53310000Y-134360000D02*
X53310000Y-150230000D01*
X55395000Y-134360000D02*
X55395000Y-131920000D01*
X56365000Y-134360000D02*
X56365000Y-131920000D01*
X57935000Y-134360000D02*
X57935000Y-131920000D01*
X58905000Y-134360000D02*
X58905000Y-131920000D01*
X60475000Y-134360000D02*
X60475000Y-131920000D01*
X61445000Y-134360000D02*
X61445000Y-131920000D01*
X63530000Y-134360000D02*
X53310000Y-134360000D01*
X63530000Y-134360000D02*
X63530000Y-150230000D01*
X63530000Y-150230000D02*
X53310000Y-150230000D01*
%TO.C,J5*%
X110780000Y-85000000D02*
X117520000Y-85000000D01*
X110780000Y-86340000D02*
X110780000Y-85000000D01*
X110780000Y-90820000D02*
X110780000Y-86940000D01*
X111700000Y-85000000D02*
X111700000Y-90820000D01*
X112700000Y-85000000D02*
X112700000Y-90820000D01*
X115800000Y-85000000D02*
X115800000Y-90820000D01*
X117520000Y-85000000D02*
X117520000Y-90820000D01*
X117520000Y-90820000D02*
X110780000Y-90820000D01*
X110780000Y-86640000D02*
X110170000Y-87080000D01*
X110170000Y-86200000D01*
X110780000Y-86640000D01*
G36*
X110780000Y-86640000D02*
G01*
X110170000Y-87080000D01*
X110170000Y-86200000D01*
X110780000Y-86640000D01*
G37*
%TO.C,R2*%
X74200000Y-44350000D02*
X80740000Y-44350000D01*
X74200000Y-44680000D02*
X74200000Y-44350000D01*
X74200000Y-46760000D02*
X74200000Y-47090000D01*
X74200000Y-47090000D02*
X80740000Y-47090000D01*
X80740000Y-44350000D02*
X80740000Y-44680000D01*
X80740000Y-47090000D02*
X80740000Y-46760000D01*
%TO.C,J6*%
X110780000Y-99960000D02*
X117520000Y-99960000D01*
X110780000Y-101300000D02*
X110780000Y-99960000D01*
X110780000Y-105780000D02*
X110780000Y-101900000D01*
X111700000Y-99960000D02*
X111700000Y-105780000D01*
X112700000Y-99960000D02*
X112700000Y-105780000D01*
X115800000Y-99960000D02*
X115800000Y-105780000D01*
X117520000Y-99960000D02*
X117520000Y-105780000D01*
X117520000Y-105780000D02*
X110780000Y-105780000D01*
X110780000Y-101600000D02*
X110170000Y-102040000D01*
X110170000Y-101160000D01*
X110780000Y-101600000D01*
G36*
X110780000Y-101600000D02*
G01*
X110170000Y-102040000D01*
X110170000Y-101160000D01*
X110780000Y-101600000D01*
G37*
%TO.C,R4*%
X74200000Y-59590000D02*
X80740000Y-59590000D01*
X74200000Y-59920000D02*
X74200000Y-59590000D01*
X74200000Y-62000000D02*
X74200000Y-62330000D01*
X74200000Y-62330000D02*
X80740000Y-62330000D01*
X80740000Y-59590000D02*
X80740000Y-59920000D01*
X80740000Y-62330000D02*
X80740000Y-62000000D01*
%TO.C,J4*%
X110780000Y-69760000D02*
X117520000Y-69760000D01*
X110780000Y-71100000D02*
X110780000Y-69760000D01*
X110780000Y-75580000D02*
X110780000Y-71700000D01*
X111700000Y-69760000D02*
X111700000Y-75580000D01*
X112700000Y-69760000D02*
X112700000Y-75580000D01*
X115800000Y-69760000D02*
X115800000Y-75580000D01*
X117520000Y-69760000D02*
X117520000Y-75580000D01*
X117520000Y-75580000D02*
X110780000Y-75580000D01*
X110780000Y-71400000D02*
X110170000Y-71840000D01*
X110170000Y-70960000D01*
X110780000Y-71400000D01*
G36*
X110780000Y-71400000D02*
G01*
X110170000Y-71840000D01*
X110170000Y-70960000D01*
X110780000Y-71400000D01*
G37*
%TO.C,R14*%
X74200000Y-135790000D02*
X80740000Y-135790000D01*
X74200000Y-136120000D02*
X74200000Y-135790000D01*
X74200000Y-138200000D02*
X74200000Y-138530000D01*
X74200000Y-138530000D02*
X80740000Y-138530000D01*
X80740000Y-135790000D02*
X80740000Y-136120000D01*
X80740000Y-138530000D02*
X80740000Y-138200000D01*
%TO.C,R5*%
X74200000Y-70030000D02*
X74200000Y-70360000D01*
X74200000Y-72770000D02*
X74200000Y-72440000D01*
X80740000Y-70030000D02*
X74200000Y-70030000D01*
X80740000Y-70360000D02*
X80740000Y-70030000D01*
X80740000Y-72440000D02*
X80740000Y-72770000D01*
X80740000Y-72770000D02*
X74200000Y-72770000D01*
%TO.C,R10*%
X74200000Y-105310000D02*
X80740000Y-105310000D01*
X74200000Y-105640000D02*
X74200000Y-105310000D01*
X74200000Y-107720000D02*
X74200000Y-108050000D01*
X74200000Y-108050000D02*
X80740000Y-108050000D01*
X80740000Y-105310000D02*
X80740000Y-105640000D01*
X80740000Y-108050000D02*
X80740000Y-107720000D01*
%TO.C,R15*%
X74200000Y-145950000D02*
X74200000Y-146280000D01*
X74200000Y-148690000D02*
X74200000Y-148360000D01*
X80740000Y-145950000D02*
X74200000Y-145950000D01*
X80740000Y-146280000D02*
X80740000Y-145950000D01*
X80740000Y-148360000D02*
X80740000Y-148690000D01*
X80740000Y-148690000D02*
X74200000Y-148690000D01*
%TO.C,Q8*%
X92600000Y-144750000D02*
X92600000Y-154970000D01*
X92600000Y-144750000D02*
X108470000Y-144750000D01*
X92600000Y-146835000D02*
X90160000Y-146835000D01*
X92600000Y-147805000D02*
X90160000Y-147805000D01*
X92600000Y-149375000D02*
X90160000Y-149375000D01*
X92600000Y-150345000D02*
X90160000Y-150345000D01*
X92600000Y-151915000D02*
X90160000Y-151915000D01*
X92600000Y-152885000D02*
X90160000Y-152885000D01*
X92600000Y-154970000D02*
X108470000Y-154970000D01*
X108470000Y-144750000D02*
X108470000Y-154970000D01*
%TO.C,J8*%
X110780000Y-130440000D02*
X117520000Y-130440000D01*
X110780000Y-131780000D02*
X110780000Y-130440000D01*
X110780000Y-136260000D02*
X110780000Y-132380000D01*
X111700000Y-130440000D02*
X111700000Y-136260000D01*
X112700000Y-130440000D02*
X112700000Y-136260000D01*
X115800000Y-130440000D02*
X115800000Y-136260000D01*
X117520000Y-130440000D02*
X117520000Y-136260000D01*
X117520000Y-136260000D02*
X110780000Y-136260000D01*
X110780000Y-132080000D02*
X110170000Y-132520000D01*
X110170000Y-131640000D01*
X110780000Y-132080000D01*
G36*
X110780000Y-132080000D02*
G01*
X110170000Y-132520000D01*
X110170000Y-131640000D01*
X110780000Y-132080000D01*
G37*
%TO.C,Q5*%
X92600000Y-99030000D02*
X92600000Y-109250000D01*
X92600000Y-99030000D02*
X108470000Y-99030000D01*
X92600000Y-101115000D02*
X90160000Y-101115000D01*
X92600000Y-102085000D02*
X90160000Y-102085000D01*
X92600000Y-103655000D02*
X90160000Y-103655000D01*
X92600000Y-104625000D02*
X90160000Y-104625000D01*
X92600000Y-106195000D02*
X90160000Y-106195000D01*
X92600000Y-107165000D02*
X90160000Y-107165000D01*
X92600000Y-109250000D02*
X108470000Y-109250000D01*
X108470000Y-99030000D02*
X108470000Y-109250000D01*
%TO.C,J11*%
X38610000Y-101420000D02*
X38610000Y-98770000D01*
X41370000Y-98770000D02*
X38610000Y-98770000D01*
X41370000Y-101420000D02*
X38610000Y-101420000D01*
X41370000Y-101420000D02*
X41370000Y-98770000D01*
X41370000Y-102690000D02*
X41370000Y-104070000D01*
X41370000Y-104070000D02*
X39990000Y-104070000D01*
%TO.C,Q1*%
X92600000Y-38070000D02*
X92600000Y-48290000D01*
X92600000Y-38070000D02*
X108470000Y-38070000D01*
X92600000Y-40155000D02*
X90160000Y-40155000D01*
X92600000Y-41125000D02*
X90160000Y-41125000D01*
X92600000Y-42695000D02*
X90160000Y-42695000D01*
X92600000Y-43665000D02*
X90160000Y-43665000D01*
X92600000Y-45235000D02*
X90160000Y-45235000D01*
X92600000Y-46205000D02*
X90160000Y-46205000D01*
X92600000Y-48290000D02*
X108470000Y-48290000D01*
X108470000Y-38070000D02*
X108470000Y-48290000D01*
%TO.C,R8*%
X74200000Y-90350000D02*
X80740000Y-90350000D01*
X74200000Y-90680000D02*
X74200000Y-90350000D01*
X74200000Y-92760000D02*
X74200000Y-93090000D01*
X74200000Y-93090000D02*
X80740000Y-93090000D01*
X80740000Y-90350000D02*
X80740000Y-90680000D01*
X80740000Y-93090000D02*
X80740000Y-92760000D01*
%TO.C,J7*%
X110780000Y-114920000D02*
X117520000Y-114920000D01*
X110780000Y-116260000D02*
X110780000Y-114920000D01*
X110780000Y-120740000D02*
X110780000Y-116860000D01*
X111700000Y-114920000D02*
X111700000Y-120740000D01*
X112700000Y-114920000D02*
X112700000Y-120740000D01*
X115800000Y-114920000D02*
X115800000Y-120740000D01*
X117520000Y-114920000D02*
X117520000Y-120740000D01*
X117520000Y-120740000D02*
X110780000Y-120740000D01*
X110780000Y-116560000D02*
X110170000Y-117000000D01*
X110170000Y-116120000D01*
X110780000Y-116560000D01*
G36*
X110780000Y-116560000D02*
G01*
X110170000Y-117000000D01*
X110170000Y-116120000D01*
X110780000Y-116560000D01*
G37*
%TO.C,J1*%
X39650000Y-149217349D02*
X39650000Y-159377349D01*
X39650000Y-159377349D02*
X47270000Y-159377349D01*
X46000000Y-149217349D02*
X46000000Y-159377349D01*
X47270000Y-149217349D02*
X39650000Y-149217349D01*
X47270000Y-159377349D02*
X47270000Y-149217349D01*
%TO.C,R12*%
X74200000Y-120270000D02*
X80740000Y-120270000D01*
X74200000Y-120600000D02*
X74200000Y-120270000D01*
X74200000Y-122680000D02*
X74200000Y-123010000D01*
X74200000Y-123010000D02*
X80740000Y-123010000D01*
X80740000Y-120270000D02*
X80740000Y-120600000D01*
X80740000Y-123010000D02*
X80740000Y-122680000D01*
%TO.C,J3*%
X110780000Y-54240000D02*
X117520000Y-54240000D01*
X110780000Y-55580000D02*
X110780000Y-54240000D01*
X110780000Y-60060000D02*
X110780000Y-56180000D01*
X111700000Y-54240000D02*
X111700000Y-60060000D01*
X112700000Y-54240000D02*
X112700000Y-60060000D01*
X115800000Y-54240000D02*
X115800000Y-60060000D01*
X117520000Y-54240000D02*
X117520000Y-60060000D01*
X117520000Y-60060000D02*
X110780000Y-60060000D01*
X110780000Y-55880000D02*
X110170000Y-56320000D01*
X110170000Y-55440000D01*
X110780000Y-55880000D01*
G36*
X110780000Y-55880000D02*
G01*
X110170000Y-56320000D01*
X110170000Y-55440000D01*
X110780000Y-55880000D01*
G37*
%TO.C,R13*%
X74200000Y-130710000D02*
X74200000Y-131040000D01*
X74200000Y-133450000D02*
X74200000Y-133120000D01*
X80740000Y-130710000D02*
X74200000Y-130710000D01*
X80740000Y-131040000D02*
X80740000Y-130710000D01*
X80740000Y-133120000D02*
X80740000Y-133450000D01*
X80740000Y-133450000D02*
X74200000Y-133450000D01*
%TO.C,R11*%
X74200000Y-115190000D02*
X74200000Y-115520000D01*
X74200000Y-117930000D02*
X74200000Y-117600000D01*
X80740000Y-115190000D02*
X74200000Y-115190000D01*
X80740000Y-115520000D02*
X80740000Y-115190000D01*
X80740000Y-117600000D02*
X80740000Y-117930000D01*
X80740000Y-117930000D02*
X74200000Y-117930000D01*
%TO.C,Q4*%
X92600000Y-84070000D02*
X92600000Y-94290000D01*
X92600000Y-84070000D02*
X108470000Y-84070000D01*
X92600000Y-86155000D02*
X90160000Y-86155000D01*
X92600000Y-87125000D02*
X90160000Y-87125000D01*
X92600000Y-88695000D02*
X90160000Y-88695000D01*
X92600000Y-89665000D02*
X90160000Y-89665000D01*
X92600000Y-91235000D02*
X90160000Y-91235000D01*
X92600000Y-92205000D02*
X90160000Y-92205000D01*
X92600000Y-94290000D02*
X108470000Y-94290000D01*
X108470000Y-84070000D02*
X108470000Y-94290000D01*
%TO.C,J2*%
X110780000Y-39000000D02*
X117520000Y-39000000D01*
X110780000Y-40340000D02*
X110780000Y-39000000D01*
X110780000Y-44820000D02*
X110780000Y-40940000D01*
X111700000Y-39000000D02*
X111700000Y-44820000D01*
X112700000Y-39000000D02*
X112700000Y-44820000D01*
X115800000Y-39000000D02*
X115800000Y-44820000D01*
X117520000Y-39000000D02*
X117520000Y-44820000D01*
X117520000Y-44820000D02*
X110780000Y-44820000D01*
X110780000Y-40640000D02*
X110170000Y-41080000D01*
X110170000Y-40200000D01*
X110780000Y-40640000D01*
G36*
X110780000Y-40640000D02*
G01*
X110170000Y-41080000D01*
X110170000Y-40200000D01*
X110780000Y-40640000D01*
G37*
%TO.C,Q6*%
X92600000Y-113990000D02*
X92600000Y-124210000D01*
X92600000Y-113990000D02*
X108470000Y-113990000D01*
X92600000Y-116075000D02*
X90160000Y-116075000D01*
X92600000Y-117045000D02*
X90160000Y-117045000D01*
X92600000Y-118615000D02*
X90160000Y-118615000D01*
X92600000Y-119585000D02*
X90160000Y-119585000D01*
X92600000Y-121155000D02*
X90160000Y-121155000D01*
X92600000Y-122125000D02*
X90160000Y-122125000D01*
X92600000Y-124210000D02*
X108470000Y-124210000D01*
X108470000Y-113990000D02*
X108470000Y-124210000D01*
%TO.C,R6*%
X74200000Y-75110000D02*
X80740000Y-75110000D01*
X74200000Y-75440000D02*
X74200000Y-75110000D01*
X74200000Y-77520000D02*
X74200000Y-77850000D01*
X74200000Y-77850000D02*
X80740000Y-77850000D01*
X80740000Y-75110000D02*
X80740000Y-75440000D01*
X80740000Y-77850000D02*
X80740000Y-77520000D01*
%TO.C,C2*%
X56190000Y-118500000D02*
X60730000Y-118500000D01*
X56190000Y-118556000D02*
X56190000Y-118500000D01*
X60730000Y-120584000D02*
X60730000Y-120640000D01*
X60730000Y-120640000D02*
X56190000Y-120640000D01*
%TD*%
M02*
