%TF.GenerationSoftware,KiCad,Pcbnew,9.0.7*%
%TF.CreationDate,2026-02-17T16:05:45+00:00*%
%TF.ProjectId,VANDIMMER-8CH,56414e44-494d-44d4-9552-2d3843482e6b,rev?*%
%TF.SameCoordinates,Original*%
%TF.FileFunction,Copper,L2,Bot*%
%TF.FilePolarity,Positive*%
%FSLAX46Y46*%
G04 Gerber Fmt 4.6, Leading zero omitted, Abs format (unit mm)*
G04 Created by KiCad (PCBNEW 9.0.7) date 2026-02-17 16:05:45*
%MOMM*%
%LPD*%
G01*
G04 APERTURE LIST*
G04 Aperture macros list*
%AMRoundRect*
0 Rectangle with rounded corners*
0 $1 Rounding radius*
0 $2 $3 $4 $5 $6 $7 $8 $9 X,Y pos of 4 corners*
0 Add a 4 corners polygon primitive as box body*
4,1,4,$2,$3,$4,$5,$6,$7,$8,$9,$2,$3,0*
0 Add four circle primitives for the rounded corners*
1,1,$1+$1,$2,$3*
1,1,$1+$1,$4,$5*
1,1,$1+$1,$6,$7*
1,1,$1+$1,$8,$9*
0 Add four rect primitives between the rounded corners*
20,1,$1+$1,$2,$3,$4,$5,0*
20,1,$1+$1,$4,$5,$6,$7,0*
20,1,$1+$1,$6,$7,$8,$9,0*
20,1,$1+$1,$8,$9,$2,$3,0*%
G04 Aperture macros list end*
%TA.AperFunction,NonConductor*%
%ADD10C,0.200000*%
%TD*%
%ADD11C,0.300000*%
%TA.AperFunction,NonConductor*%
%ADD12C,0.300000*%
%TD*%
%TA.AperFunction,ComponentPad*%
%ADD13C,1.600000*%
%TD*%
%TA.AperFunction,ComponentPad*%
%ADD14RoundRect,0.250000X-0.550000X-0.550000X0.550000X-0.550000X0.550000X0.550000X-0.550000X0.550000X0*%
%TD*%
%TA.AperFunction,ComponentPad*%
%ADD15R,2.000000X1.905000*%
%TD*%
%TA.AperFunction,ComponentPad*%
%ADD16O,2.000000X1.905000*%
%TD*%
%TA.AperFunction,ComponentPad*%
%ADD17R,1.700000X1.700000*%
%TD*%
%TA.AperFunction,ComponentPad*%
%ADD18C,1.700000*%
%TD*%
%TA.AperFunction,ComponentPad*%
%ADD19RoundRect,0.250000X-0.750000X0.750000X-0.750000X-0.750000X0.750000X-0.750000X0.750000X0.750000X0*%
%TD*%
%TA.AperFunction,ComponentPad*%
%ADD20C,2.000000*%
%TD*%
%TA.AperFunction,ComponentPad*%
%ADD21R,1.905000X2.000000*%
%TD*%
%TA.AperFunction,ComponentPad*%
%ADD22O,1.905000X2.000000*%
%TD*%
%TA.AperFunction,ComponentPad*%
%ADD23R,2.000000X1.200000*%
%TD*%
%TA.AperFunction,ComponentPad*%
%ADD24O,2.000000X1.200000*%
%TD*%
%TA.AperFunction,ComponentPad*%
%ADD25R,3.000000X3.000000*%
%TD*%
%TA.AperFunction,ComponentPad*%
%ADD26C,3.000000*%
%TD*%
%TA.AperFunction,Conductor*%
%ADD27C,1.250000*%
%TD*%
%TA.AperFunction,Conductor*%
%ADD28C,3.000000*%
%TD*%
%TA.AperFunction,Conductor*%
%ADD29C,1.500000*%
%TD*%
%TA.AperFunction,Conductor*%
%ADD30C,2.500000*%
%TD*%
%TA.AperFunction,Conductor*%
%ADD31C,1.750000*%
%TD*%
%TA.AperFunction,Conductor*%
%ADD32C,0.250000*%
%TD*%
%TA.AperFunction,Conductor*%
%ADD33C,1.000000*%
%TD*%
G04 APERTURE END LIST*
D10*
X36830000Y-39370000D02*
G75*
G02*
X34290000Y-39370000I-1270000J0D01*
G01*
X34290000Y-39370000D02*
G75*
G02*
X36830000Y-39370000I1270000J0D01*
G01*
D11*
D12*
X40085489Y-161789400D02*
X38942632Y-161789400D01*
X39514060Y-162360828D02*
X39514060Y-161217971D01*
D11*
D12*
X113745489Y-128769400D02*
X112602632Y-128769400D01*
X113174060Y-129340828D02*
X113174060Y-128197971D01*
D11*
D12*
X113745489Y-144009400D02*
X112602632Y-144009400D01*
X113174060Y-144580828D02*
X113174060Y-143437971D01*
D11*
D12*
X113745489Y-83049400D02*
X112602632Y-83049400D01*
X113174060Y-83620828D02*
X113174060Y-82477971D01*
D11*
D12*
X116285489Y-37329400D02*
X115142632Y-37329400D01*
X115714060Y-37900828D02*
X115714060Y-36757971D01*
D11*
D12*
X113745489Y-52569400D02*
X112602632Y-52569400D01*
X113174060Y-53140828D02*
X113174060Y-51997971D01*
D11*
D12*
X113745489Y-113529400D02*
X112602632Y-113529400D01*
X113174060Y-114100828D02*
X113174060Y-112957971D01*
D11*
D12*
X113745489Y-67809400D02*
X112602632Y-67809400D01*
X113174060Y-68380828D02*
X113174060Y-67237971D01*
D11*
D12*
X113745489Y-98289400D02*
X112602632Y-98289400D01*
X113174060Y-98860828D02*
X113174060Y-97717971D01*
D11*
G36*
X34715000Y-135921841D02*
G01*
X34715000Y-136478562D01*
X36942494Y-137160000D01*
X36942494Y-136683573D01*
X35601143Y-136306065D01*
X35161506Y-136184860D01*
X35626789Y-136058464D01*
X36942494Y-135684467D01*
X36942494Y-135237045D01*
X34715000Y-135921841D01*
G37*
G36*
X36045228Y-133413223D02*
G01*
X36206545Y-133435243D01*
X36344252Y-133469490D01*
X36475881Y-133520781D01*
X36587544Y-133584888D01*
X36681765Y-133661526D01*
X36761763Y-133752733D01*
X36827305Y-133858817D01*
X36878533Y-133981789D01*
X36925519Y-134183069D01*
X36942494Y-134429975D01*
X36942494Y-135090957D01*
X34715000Y-135090957D01*
X34715000Y-134524009D01*
X34716887Y-134486456D01*
X35066709Y-134486456D01*
X35066709Y-134670860D01*
X36590785Y-134670860D01*
X36590785Y-134457300D01*
X36576957Y-134293179D01*
X36539646Y-134168788D01*
X36476389Y-134063732D01*
X36390658Y-133983469D01*
X36284708Y-133925389D01*
X36151453Y-133885161D01*
X36005053Y-133863841D01*
X35829663Y-133856157D01*
X35627614Y-133868398D01*
X35469003Y-133901627D01*
X35345613Y-133951810D01*
X35250655Y-134016747D01*
X35172599Y-134102832D01*
X35115624Y-134207066D01*
X35079588Y-134333211D01*
X35066709Y-134486456D01*
X34716887Y-134486456D01*
X34724854Y-134327934D01*
X34752569Y-134160148D01*
X34795905Y-134016747D01*
X34858974Y-133881387D01*
X34935642Y-133766364D01*
X35025951Y-133669311D01*
X35130819Y-133587692D01*
X35250322Y-133521090D01*
X35386362Y-133469490D01*
X35604986Y-133422053D01*
X35856835Y-133405376D01*
X36045228Y-133413223D01*
G37*
G36*
X34715000Y-130155267D02*
G01*
X34715000Y-130711988D01*
X36942494Y-131393426D01*
X36942494Y-130917000D01*
X35601143Y-130539492D01*
X35161506Y-130418286D01*
X35626789Y-130291891D01*
X36942494Y-129917894D01*
X36942494Y-129470471D01*
X34715000Y-130155267D01*
G37*
G36*
X35535655Y-127959829D02*
G01*
X36942494Y-127959829D01*
X36942494Y-128533647D01*
X35525428Y-129404678D01*
X35164406Y-129404678D01*
X35164406Y-128996488D01*
X35535655Y-128996488D01*
X36539341Y-128361151D01*
X35535655Y-128361151D01*
X35535655Y-128996488D01*
X35164406Y-128996488D01*
X35164406Y-128366341D01*
X34715000Y-128366341D01*
X34715000Y-127959829D01*
X35164406Y-127959829D01*
X35164406Y-127621706D01*
X35535655Y-127621706D01*
X35535655Y-127959829D01*
G37*
G36*
X35350031Y-126597870D02*
G01*
X35343239Y-126528154D01*
X35323317Y-126464758D01*
X35291799Y-126407048D01*
X35251113Y-126358054D01*
X35201784Y-126317827D01*
X35143646Y-126287071D01*
X35080067Y-126267919D01*
X35011297Y-126261426D01*
X34944091Y-126267898D01*
X34881390Y-126287071D01*
X34823996Y-126317765D01*
X34774686Y-126358054D01*
X34734121Y-126407037D01*
X34702635Y-126464758D01*
X34682713Y-126528154D01*
X34675921Y-126597870D01*
X34682665Y-126664322D01*
X34702635Y-126725945D01*
X34734056Y-126782115D01*
X34774686Y-126830206D01*
X34823921Y-126869647D01*
X34881390Y-126900121D01*
X34944091Y-126919294D01*
X35011297Y-126925766D01*
X35080067Y-126919273D01*
X35143646Y-126900121D01*
X35201860Y-126869585D01*
X35251113Y-126830206D01*
X35291865Y-126782104D01*
X35323317Y-126725945D01*
X35343287Y-126664322D01*
X35350031Y-126597870D01*
G37*
G36*
X36041386Y-123802207D02*
G01*
X36213447Y-123823969D01*
X36359059Y-123857618D01*
X36500082Y-123907401D01*
X36617265Y-123966021D01*
X36713822Y-124032710D01*
X36798601Y-124112987D01*
X36865782Y-124201724D01*
X36916696Y-124299850D01*
X36964988Y-124460633D01*
X36981573Y-124639806D01*
X36972429Y-124779204D01*
X36945980Y-124904931D01*
X36903110Y-125018993D01*
X36842991Y-125124575D01*
X36767429Y-125218155D01*
X36675354Y-125300788D01*
X36571706Y-125369193D01*
X36450576Y-125427702D01*
X36309600Y-125475727D01*
X36084908Y-125520389D01*
X35818519Y-125536330D01*
X35617373Y-125528562D01*
X35445824Y-125506816D01*
X35300114Y-125473132D01*
X35159134Y-125423323D01*
X35041617Y-125364454D01*
X34944435Y-125297277D01*
X34859128Y-125216309D01*
X34791660Y-125127205D01*
X34784210Y-125112874D01*
X35711510Y-125112874D01*
X35769060Y-125116232D01*
X35829815Y-125116232D01*
X36030678Y-125106809D01*
X36189616Y-125081275D01*
X36333181Y-125038011D01*
X36441796Y-124985562D01*
X36531343Y-124917728D01*
X36590937Y-124842985D01*
X36627452Y-124757639D01*
X36639633Y-124665451D01*
X36630377Y-124579548D01*
X36603361Y-124503145D01*
X36558270Y-124434031D01*
X36498385Y-124376085D01*
X36416420Y-124323220D01*
X36307463Y-124276037D01*
X35711510Y-125112874D01*
X34784210Y-125112874D01*
X34740645Y-125029068D01*
X34692465Y-124868312D01*
X34675921Y-124689265D01*
X34677479Y-124665451D01*
X35017861Y-124665451D01*
X35026843Y-124750292D01*
X35053135Y-124826443D01*
X35097087Y-124895956D01*
X35155844Y-124954261D01*
X35235397Y-125005692D01*
X35340261Y-125049676D01*
X35936214Y-124217876D01*
X35880343Y-124216197D01*
X35822946Y-124214518D01*
X35624756Y-124223702D01*
X35466199Y-124248712D01*
X35322838Y-124291320D01*
X35215239Y-124343509D01*
X35126916Y-124411369D01*
X35067015Y-124487001D01*
X35030133Y-124573043D01*
X35017861Y-124665451D01*
X34677479Y-124665451D01*
X34685117Y-124548743D01*
X34711614Y-124423126D01*
X34754384Y-124310231D01*
X34814379Y-124205569D01*
X34889875Y-124112215D01*
X34981987Y-124029199D01*
X35085817Y-123960328D01*
X35206951Y-123901824D01*
X35347741Y-123854260D01*
X35572532Y-123810162D01*
X35838975Y-123794420D01*
X36041386Y-123802207D01*
G37*
D13*
%TO.P,R18,1*%
%TO.N,Net-(J11-Pin_1)*%
X39990000Y-107770000D03*
%TO.P,R18,2*%
%TO.N,+3.3V*%
X39990000Y-115390000D03*
%TD*%
D14*
%TO.P,C4,1*%
%TO.N,VIN*%
X42307349Y-140297349D03*
D13*
%TO.P,C4,2*%
%TO.N,GND*%
X45807349Y-140297349D03*
%TD*%
%TO.P,C1,1*%
%TO.N,VIN*%
X55960000Y-124650000D03*
%TO.P,C1,2*%
%TO.N,GND*%
X60960000Y-124650000D03*
%TD*%
D15*
%TO.P,Q3,1,G*%
%TO.N,Net-(Q3-G)*%
X88900000Y-71400000D03*
D16*
%TO.P,Q3,2,S*%
%TO.N,Net-(J4-Pin_2)*%
X88900000Y-73940000D03*
%TO.P,Q3,3,D*%
%TO.N,GND*%
X88900000Y-76480000D03*
%TD*%
D17*
%TO.P,J10,1,Pin_1*%
%TO.N,Net-(J10-Pin_1)*%
X46990000Y-102870000D03*
D18*
%TO.P,J10,2,Pin_2*%
%TO.N,GND*%
X46990000Y-100330000D03*
%TD*%
D19*
%TO.P,J9,1,Pin_1*%
%TO.N,VIN*%
X114300000Y-147320000D03*
D20*
%TO.P,J9,2,Pin_2*%
%TO.N,Net-(J9-Pin_2)*%
X114300000Y-149860000D03*
%TD*%
D13*
%TO.P,R9,1*%
%TO.N,Net-(Q5-G)*%
X81280000Y-101600000D03*
%TO.P,R9,2*%
%TO.N,CH5*%
X73660000Y-101600000D03*
%TD*%
D15*
%TO.P,Q7,1,G*%
%TO.N,Net-(Q7-G)*%
X88900000Y-132080000D03*
D16*
%TO.P,Q7,2,S*%
%TO.N,Net-(J8-Pin_2)*%
X88900000Y-134620000D03*
%TO.P,Q7,3,D*%
%TO.N,GND*%
X88900000Y-137160000D03*
%TD*%
D13*
%TO.P,R7,1*%
%TO.N,Net-(Q4-G)*%
X81280000Y-86640000D03*
%TO.P,R7,2*%
%TO.N,CH4*%
X73660000Y-86640000D03*
%TD*%
%TO.P,R1,1*%
%TO.N,Net-(Q1-G)*%
X81280000Y-40640000D03*
%TO.P,R1,2*%
%TO.N,CH1*%
X73660000Y-40640000D03*
%TD*%
%TO.P,R3,1*%
%TO.N,Net-(Q2-G)*%
X81280000Y-55880000D03*
%TO.P,R3,2*%
%TO.N,CH2*%
X73660000Y-55880000D03*
%TD*%
%TO.P,R16,1*%
%TO.N,GND*%
X73660000Y-151840000D03*
%TO.P,R16,2*%
%TO.N,Net-(Q8-G)*%
X81280000Y-151840000D03*
%TD*%
%TO.P,R17,1*%
%TO.N,Net-(J10-Pin_1)*%
X46990000Y-107950000D03*
%TO.P,R17,2*%
%TO.N,+3.3V*%
X46990000Y-115570000D03*
%TD*%
D15*
%TO.P,Q2,1,G*%
%TO.N,Net-(Q2-G)*%
X88900000Y-55880000D03*
D16*
%TO.P,Q2,2,S*%
%TO.N,Net-(J3-Pin_2)*%
X88900000Y-58420000D03*
%TO.P,Q2,3,D*%
%TO.N,GND*%
X88900000Y-60960000D03*
%TD*%
D21*
%TO.P,U1,1,GND*%
%TO.N,GND*%
X60960000Y-130660000D03*
D22*
%TO.P,U1,2,VO*%
%TO.N,+3.3V*%
X58420000Y-130660000D03*
%TO.P,U1,3,VI*%
%TO.N,VIN*%
X55880000Y-130660000D03*
%TD*%
D23*
%TO.P,U2,1,EN*%
%TO.N,unconnected-(U2-EN-Pad1)*%
X64226320Y-79987280D03*
D24*
%TO.P,U2,2,VP*%
%TO.N,unconnected-(U2-VP-Pad2)*%
X64226320Y-77447280D03*
%TO.P,U2,3,VN*%
%TO.N,unconnected-(U2-VN-Pad3)*%
X64226320Y-74907280D03*
%TO.P,U2,4,D34*%
%TO.N,unconnected-(U2-D34-Pad4)*%
X64226320Y-72367280D03*
%TO.P,U2,5,D35*%
%TO.N,unconnected-(U2-D35-Pad5)*%
X64226320Y-69827280D03*
%TO.P,U2,6,D32*%
%TO.N,CH8*%
X64226320Y-67287280D03*
%TO.P,U2,7,D33*%
%TO.N,CH7*%
X64226320Y-64747280D03*
%TO.P,U2,8,D25*%
%TO.N,CH6*%
X64226320Y-62207280D03*
%TO.P,U2,9,D26*%
%TO.N,CH5*%
X64226320Y-59667280D03*
%TO.P,U2,10,D27*%
%TO.N,CH4*%
X64226320Y-57127280D03*
%TO.P,U2,11,D14*%
%TO.N,CH3*%
X64226320Y-54587280D03*
%TO.P,U2,12,D12*%
%TO.N,CH2*%
X64226320Y-52047280D03*
%TO.P,U2,13,D13*%
%TO.N,CH1*%
X64226320Y-49507280D03*
%TO.P,U2,14,Gnd*%
%TO.N,GND*%
X64226320Y-46967280D03*
%TO.P,U2,15,Vin*%
%TO.N,unconnected-(U2-Vin-Pad15)*%
X64226320Y-44427280D03*
%TO.P,U2,16,3.3v*%
%TO.N,+3.3V*%
X39370000Y-44450000D03*
%TO.P,U2,17,Gnd*%
%TO.N,GND*%
X39370000Y-46990000D03*
%TO.P,U2,18,D15*%
%TO.N,unconnected-(U2-D15-Pad18)*%
X39366320Y-49527280D03*
%TO.P,U2,19,D2*%
%TO.N,unconnected-(U2-D2-Pad19)*%
X39366320Y-52067280D03*
%TO.P,U2,20,D4*%
%TO.N,unconnected-(U2-D4-Pad20)*%
X39366320Y-54607280D03*
%TO.P,U2,21,Rx2*%
%TO.N,unconnected-(U2-Rx2-Pad21)*%
X39366320Y-57147280D03*
%TO.P,U2,22,Tx2*%
%TO.N,unconnected-(U2-Tx2-Pad22)*%
X39366320Y-59687280D03*
%TO.P,U2,23,D5*%
%TO.N,unconnected-(U2-D5-Pad23)*%
X39366320Y-62227280D03*
%TO.P,U2,24,D18*%
%TO.N,Net-(J11-Pin_1)*%
X39366320Y-64767280D03*
%TO.P,U2,25,D19*%
%TO.N,Net-(J10-Pin_1)*%
X39366320Y-67307280D03*
%TO.P,U2,26,D21*%
%TO.N,unconnected-(U2-D21-Pad26)*%
X39366320Y-69847280D03*
%TO.P,U2,27,Rx0*%
%TO.N,unconnected-(U2-Rx0-Pad27)*%
X39366320Y-72387280D03*
%TO.P,U2,28,Tx0*%
%TO.N,unconnected-(U2-Tx0-Pad28)*%
X39366320Y-74927280D03*
%TO.P,U2,29,D22*%
%TO.N,unconnected-(U2-D22-Pad29)*%
X39366320Y-77467280D03*
%TO.P,U2,30,D23*%
%TO.N,unconnected-(U2-D23-Pad30)*%
X39366320Y-80007280D03*
%TD*%
D19*
%TO.P,J5,1,Pin_1*%
%TO.N,VIN*%
X114300000Y-86640000D03*
D20*
%TO.P,J5,2,Pin_2*%
%TO.N,Net-(J5-Pin_2)*%
X114300000Y-89180000D03*
%TD*%
D13*
%TO.P,R2,1*%
%TO.N,GND*%
X73660000Y-45720000D03*
%TO.P,R2,2*%
%TO.N,Net-(Q1-G)*%
X81280000Y-45720000D03*
%TD*%
D19*
%TO.P,J6,1,Pin_1*%
%TO.N,VIN*%
X114300000Y-101600000D03*
D20*
%TO.P,J6,2,Pin_2*%
%TO.N,Net-(J6-Pin_2)*%
X114300000Y-104140000D03*
%TD*%
D13*
%TO.P,R4,1*%
%TO.N,GND*%
X73660000Y-60960000D03*
%TO.P,R4,2*%
%TO.N,Net-(Q2-G)*%
X81280000Y-60960000D03*
%TD*%
D19*
%TO.P,J4,1,Pin_1*%
%TO.N,VIN*%
X114300000Y-71400000D03*
D20*
%TO.P,J4,2,Pin_2*%
%TO.N,Net-(J4-Pin_2)*%
X114300000Y-73940000D03*
%TD*%
D13*
%TO.P,R14,1*%
%TO.N,GND*%
X73660000Y-137160000D03*
%TO.P,R14,2*%
%TO.N,Net-(Q7-G)*%
X81280000Y-137160000D03*
%TD*%
%TO.P,R5,1*%
%TO.N,Net-(Q3-G)*%
X81280000Y-71400000D03*
%TO.P,R5,2*%
%TO.N,CH3*%
X73660000Y-71400000D03*
%TD*%
%TO.P,R10,1*%
%TO.N,GND*%
X73660000Y-106680000D03*
%TO.P,R10,2*%
%TO.N,Net-(Q5-G)*%
X81280000Y-106680000D03*
%TD*%
%TO.P,R15,1*%
%TO.N,Net-(Q8-G)*%
X81280000Y-147320000D03*
%TO.P,R15,2*%
%TO.N,CH8*%
X73660000Y-147320000D03*
%TD*%
D15*
%TO.P,Q8,1,G*%
%TO.N,Net-(Q8-G)*%
X88900000Y-147320000D03*
D16*
%TO.P,Q8,2,S*%
%TO.N,Net-(J9-Pin_2)*%
X88900000Y-149860000D03*
%TO.P,Q8,3,D*%
%TO.N,GND*%
X88900000Y-152400000D03*
%TD*%
D19*
%TO.P,J8,1,Pin_1*%
%TO.N,VIN*%
X114300000Y-132080000D03*
D20*
%TO.P,J8,2,Pin_2*%
%TO.N,Net-(J8-Pin_2)*%
X114300000Y-134620000D03*
%TD*%
D15*
%TO.P,Q5,1,G*%
%TO.N,Net-(Q5-G)*%
X88900000Y-101600000D03*
D16*
%TO.P,Q5,2,S*%
%TO.N,Net-(J6-Pin_2)*%
X88900000Y-104140000D03*
%TO.P,Q5,3,D*%
%TO.N,GND*%
X88900000Y-106680000D03*
%TD*%
D17*
%TO.P,J11,1,Pin_1*%
%TO.N,Net-(J11-Pin_1)*%
X39990000Y-102690000D03*
D18*
%TO.P,J11,2,Pin_2*%
%TO.N,GND*%
X39990000Y-100150000D03*
%TD*%
D15*
%TO.P,Q1,1,G*%
%TO.N,Net-(Q1-G)*%
X88900000Y-40640000D03*
D16*
%TO.P,Q1,2,S*%
%TO.N,Net-(J2-Pin_2)*%
X88900000Y-43180000D03*
%TO.P,Q1,3,D*%
%TO.N,GND*%
X88900000Y-45720000D03*
%TD*%
D13*
%TO.P,R8,1*%
%TO.N,GND*%
X73660000Y-91720000D03*
%TO.P,R8,2*%
%TO.N,Net-(Q4-G)*%
X81280000Y-91720000D03*
%TD*%
D19*
%TO.P,J7,1,Pin_1*%
%TO.N,VIN*%
X114300000Y-116560000D03*
D20*
%TO.P,J7,2,Pin_2*%
%TO.N,Net-(J7-Pin_2)*%
X114300000Y-119100000D03*
%TD*%
D25*
%TO.P,J1,1,Pin_1*%
%TO.N,VIN*%
X43460000Y-156837349D03*
D26*
%TO.P,J1,2,Pin_2*%
%TO.N,GND*%
X43460000Y-151757349D03*
%TD*%
D13*
%TO.P,R12,1*%
%TO.N,GND*%
X73660000Y-121640000D03*
%TO.P,R12,2*%
%TO.N,Net-(Q6-G)*%
X81280000Y-121640000D03*
%TD*%
D19*
%TO.P,J3,1,Pin_1*%
%TO.N,VIN*%
X114300000Y-55880000D03*
D20*
%TO.P,J3,2,Pin_2*%
%TO.N,Net-(J3-Pin_2)*%
X114300000Y-58420000D03*
%TD*%
D13*
%TO.P,R13,1*%
%TO.N,Net-(Q7-G)*%
X81280000Y-132080000D03*
%TO.P,R13,2*%
%TO.N,CH7*%
X73660000Y-132080000D03*
%TD*%
%TO.P,R11,1*%
%TO.N,Net-(Q6-G)*%
X81280000Y-116560000D03*
%TO.P,R11,2*%
%TO.N,CH6*%
X73660000Y-116560000D03*
%TD*%
D15*
%TO.P,Q4,1,G*%
%TO.N,Net-(Q4-G)*%
X88900000Y-86640000D03*
D16*
%TO.P,Q4,2,S*%
%TO.N,Net-(J5-Pin_2)*%
X88900000Y-89180000D03*
%TO.P,Q4,3,D*%
%TO.N,GND*%
X88900000Y-91720000D03*
%TD*%
D19*
%TO.P,J2,1,Pin_1*%
%TO.N,VIN*%
X114300000Y-40640000D03*
D20*
%TO.P,J2,2,Pin_2*%
%TO.N,Net-(J2-Pin_2)*%
X114300000Y-43180000D03*
%TD*%
D15*
%TO.P,Q6,1,G*%
%TO.N,Net-(Q6-G)*%
X88900000Y-116560000D03*
D16*
%TO.P,Q6,2,S*%
%TO.N,Net-(J7-Pin_2)*%
X88900000Y-119100000D03*
%TO.P,Q6,3,D*%
%TO.N,GND*%
X88900000Y-121640000D03*
%TD*%
D13*
%TO.P,R6,1*%
%TO.N,GND*%
X73660000Y-76480000D03*
%TO.P,R6,2*%
%TO.N,Net-(Q3-G)*%
X81280000Y-76480000D03*
%TD*%
%TO.P,C2,1*%
%TO.N,+3.3V*%
X55960000Y-119570000D03*
%TO.P,C2,2*%
%TO.N,GND*%
X60960000Y-119570000D03*
%TD*%
D27*
%TO.N,Net-(J5-Pin_2)*%
X99340000Y-89180000D02*
X88900000Y-89180000D01*
X101880000Y-91720000D02*
X99340000Y-89180000D01*
D28*
%TO.N,GND*%
X62230000Y-151757349D02*
X77470000Y-151757349D01*
D29*
X73742651Y-151757349D02*
X73660000Y-151840000D01*
X77470000Y-151757349D02*
X73742651Y-151757349D01*
X77470000Y-154940000D02*
X83820000Y-154940000D01*
X77470000Y-154940000D02*
X78740000Y-153670000D01*
D30*
X77470000Y-153670000D02*
X77470000Y-50800000D01*
D27*
%TO.N,Net-(J7-Pin_2)*%
X98780000Y-119100000D02*
X88900000Y-119100000D01*
X101320000Y-121640000D02*
X98780000Y-119100000D01*
%TO.N,Net-(J8-Pin_2)*%
X99060000Y-134620000D02*
X88900000Y-134620000D01*
X101600000Y-137160000D02*
X99060000Y-134620000D01*
D29*
%TO.N,GND*%
X83820000Y-142240000D02*
X88900000Y-137160000D01*
X78740000Y-142240000D02*
X83820000Y-142240000D01*
X83820000Y-127000000D02*
X83820000Y-126720000D01*
X78740000Y-127000000D02*
X83820000Y-127000000D01*
X83820000Y-126720000D02*
X88900000Y-121640000D01*
D27*
%TO.N,Net-(J6-Pin_2)*%
X99060000Y-104140000D02*
X88900000Y-104140000D01*
X101600000Y-106680000D02*
X99060000Y-104140000D01*
D29*
%TO.N,GND*%
X83820000Y-111760000D02*
X88900000Y-106680000D01*
X78740000Y-111760000D02*
X83820000Y-111760000D01*
X83820000Y-96520000D02*
X84100000Y-96520000D01*
X78740000Y-96800000D02*
X83540000Y-96800000D01*
X83540000Y-96800000D02*
X83820000Y-96520000D01*
X84100000Y-96520000D02*
X88900000Y-91720000D01*
D27*
%TO.N,Net-(J4-Pin_2)*%
X99340000Y-73940000D02*
X88900000Y-73940000D01*
X101880000Y-76480000D02*
X99340000Y-73940000D01*
D29*
%TO.N,GND*%
X88620000Y-76480000D02*
X88900000Y-76480000D01*
X78740000Y-81560000D02*
X83540000Y-81560000D01*
X83540000Y-81560000D02*
X88620000Y-76480000D01*
X83820000Y-66040000D02*
X88900000Y-60960000D01*
X78740000Y-66040000D02*
X83820000Y-66040000D01*
D27*
%TO.N,Net-(J3-Pin_2)*%
X99060000Y-58420000D02*
X88900000Y-58420000D01*
X101600000Y-60960000D02*
X99060000Y-58420000D01*
%TO.N,Net-(J2-Pin_2)*%
X99060000Y-43180000D02*
X88900000Y-43180000D01*
X101600000Y-45720000D02*
X99060000Y-43180000D01*
D29*
%TO.N,GND*%
X87630000Y-45720000D02*
X83820000Y-49530000D01*
X88900000Y-45720000D02*
X87630000Y-45720000D01*
X83820000Y-49530000D02*
X83820000Y-50800000D01*
X77470000Y-38100000D02*
X77470000Y-49530000D01*
X76370000Y-37000000D02*
X77470000Y-38100000D01*
X53340000Y-37000000D02*
X76370000Y-37000000D01*
X77470000Y-49530000D02*
X78740000Y-50800000D01*
X83820000Y-152400000D02*
X88900000Y-152400000D01*
D27*
%TO.N,Net-(J9-Pin_2)*%
X99060000Y-149860000D02*
X88900000Y-149860000D01*
X101600000Y-152400000D02*
X99060000Y-149860000D01*
D29*
%TO.N,GND*%
X43460000Y-151757349D02*
X45960000Y-149257349D01*
X73660000Y-45720000D02*
X73660000Y-50800000D01*
X73660000Y-121640000D02*
X73660000Y-127000000D01*
X78740000Y-96800000D02*
X78740000Y-101600000D01*
X73660000Y-91720000D02*
X78740000Y-86640000D01*
X60960000Y-114960000D02*
X60960000Y-119570000D01*
X78740000Y-142240000D02*
X78740000Y-146760000D01*
X73660000Y-154940000D02*
X77470000Y-154940000D01*
X60960000Y-114960000D02*
X61620000Y-114960000D01*
X78740000Y-111760000D02*
X78740000Y-116560000D01*
X73660000Y-142240000D02*
X78740000Y-142240000D01*
X52070000Y-37000000D02*
X53340000Y-37000000D01*
X52500000Y-100330000D02*
X52500000Y-37840000D01*
X62230000Y-115570000D02*
X62230000Y-151757349D01*
X78740000Y-116560000D02*
X73660000Y-121640000D01*
X78740000Y-132080000D02*
X73660000Y-137160000D01*
X60960000Y-130660000D02*
X60960000Y-119570000D01*
X83820000Y-154940000D02*
X83820000Y-152400000D01*
X78740000Y-101600000D02*
X73660000Y-106680000D01*
X78740000Y-66040000D02*
X78740000Y-71400000D01*
X78740000Y-55880000D02*
X73660000Y-60960000D01*
X52500000Y-106500000D02*
X60960000Y-114960000D01*
X78740000Y-71400000D02*
X73660000Y-76480000D01*
X61620000Y-114960000D02*
X62230000Y-115570000D01*
X69850000Y-45720000D02*
X73660000Y-45720000D01*
X45807349Y-140297349D02*
X54960000Y-140297349D01*
X39990000Y-100150000D02*
X46810000Y-100150000D01*
X78740000Y-127000000D02*
X78740000Y-132080000D01*
X73660000Y-151840000D02*
X73660000Y-154940000D01*
X60960000Y-134297349D02*
X60960000Y-130660000D01*
X73660000Y-91720000D02*
X73660000Y-96800000D01*
X45960000Y-149257349D02*
X45960000Y-140450000D01*
X46990000Y-100330000D02*
X52500000Y-100330000D01*
X54960000Y-140297349D02*
X60960000Y-134297349D01*
X45960000Y-140450000D02*
X45807349Y-140297349D01*
X73660000Y-66040000D02*
X78740000Y-66040000D01*
X61171000Y-130871000D02*
X60960000Y-130660000D01*
X78740000Y-50800000D02*
X83820000Y-50800000D01*
X73660000Y-106680000D02*
X73660000Y-111760000D01*
X73660000Y-111760000D02*
X78740000Y-111760000D01*
X78740000Y-86640000D02*
X78740000Y-81560000D01*
X73660000Y-127000000D02*
X78740000Y-127000000D01*
X68602720Y-46967280D02*
X69850000Y-45720000D01*
X73660000Y-60960000D02*
X73660000Y-66040000D01*
X78740000Y-146760000D02*
X73660000Y-151840000D01*
D28*
X43460000Y-151757349D02*
X62230000Y-151757349D01*
D29*
X52500000Y-37840000D02*
X53340000Y-37000000D01*
X39370000Y-46990000D02*
X42080000Y-46990000D01*
X73660000Y-76480000D02*
X73660000Y-81560000D01*
X73660000Y-81560000D02*
X78740000Y-81560000D01*
X42080000Y-46990000D02*
X52070000Y-37000000D01*
X73660000Y-50800000D02*
X78740000Y-50800000D01*
X39990000Y-100150000D02*
X38728000Y-100150000D01*
X73660000Y-96800000D02*
X78740000Y-96800000D01*
X46810000Y-100150000D02*
X46990000Y-100330000D01*
X63690000Y-46967280D02*
X68602720Y-46967280D01*
X52500000Y-100330000D02*
X52500000Y-106500000D01*
X78740000Y-55880000D02*
X78740000Y-50800000D01*
X73660000Y-137160000D02*
X73660000Y-142240000D01*
D28*
%TO.N,VIN*%
X65860000Y-160500000D02*
X116050000Y-160500000D01*
D31*
X114300000Y-40640000D02*
X118110000Y-40640000D01*
D29*
X37960000Y-156797349D02*
X38000000Y-156837349D01*
X42307349Y-142450000D02*
X37960000Y-146797349D01*
D31*
X114300000Y-147320000D02*
X118110000Y-143510000D01*
D29*
X55880000Y-130660000D02*
X45597349Y-130660000D01*
X41960000Y-134297349D02*
X42307349Y-134644698D01*
D28*
X118110000Y-93980000D02*
X118110000Y-86360000D01*
D29*
X118110000Y-63500000D02*
X118110000Y-71120000D01*
X45597349Y-130660000D02*
X41960000Y-134297349D01*
D28*
X118110000Y-124460000D02*
X118110000Y-116840000D01*
X118110000Y-139700000D02*
X118110000Y-124460000D01*
D29*
X37960000Y-146797349D02*
X37960000Y-156797349D01*
D31*
X114300000Y-71120000D02*
X118110000Y-67310000D01*
X114300000Y-132080000D02*
X118110000Y-128270000D01*
D28*
X118110000Y-116840000D02*
X118110000Y-93980000D01*
D29*
X66340000Y-160980000D02*
X65860000Y-160500000D01*
X43460000Y-156837349D02*
X43460000Y-157760000D01*
D31*
X114300000Y-101600000D02*
X118110000Y-97790000D01*
D29*
X55880000Y-124730000D02*
X55960000Y-124650000D01*
D28*
X46200000Y-160500000D02*
X63500000Y-160500000D01*
X118110000Y-48260000D02*
X118110000Y-40640000D01*
D29*
X42307349Y-140297349D02*
X42307349Y-142450000D01*
D28*
X43460000Y-157760000D02*
X46200000Y-160500000D01*
D29*
X114300000Y-86640000D02*
X114300000Y-86360000D01*
D28*
X118110000Y-86360000D02*
X118110000Y-71120000D01*
D29*
X45597349Y-129662651D02*
X45597349Y-130660000D01*
D31*
X114300000Y-116560000D02*
X114580000Y-116560000D01*
D29*
X118110000Y-78740000D02*
X118110000Y-86360000D01*
X50800000Y-124460000D02*
X45597349Y-129662651D01*
D31*
X114580000Y-116560000D02*
X118110000Y-113030000D01*
X114300000Y-55880000D02*
X118110000Y-52070000D01*
D29*
X55880000Y-124730000D02*
X51070000Y-124730000D01*
D28*
X65860000Y-160500000D02*
X63500000Y-160500000D01*
X118110000Y-158440000D02*
X118110000Y-139700000D01*
D29*
X114300000Y-71400000D02*
X114300000Y-71120000D01*
X51070000Y-124730000D02*
X50800000Y-124460000D01*
X38000000Y-156837349D02*
X43460000Y-156837349D01*
D31*
X114300000Y-86360000D02*
X118110000Y-82550000D01*
D28*
X116050000Y-160500000D02*
X118110000Y-158440000D01*
D29*
X42307349Y-134644698D02*
X42307349Y-140297349D01*
X118110000Y-109220000D02*
X118110000Y-116840000D01*
X55880000Y-130660000D02*
X55669000Y-130871000D01*
D28*
X118110000Y-71120000D02*
X118110000Y-48260000D01*
D32*
%TO.N,+3.3V*%
X40310000Y-115390000D02*
X40490000Y-115570000D01*
X40490000Y-115570000D02*
X46990000Y-115570000D01*
D33*
X34290000Y-110490000D02*
X43370000Y-119570000D01*
X35580000Y-44450000D02*
X39370000Y-44450000D01*
X55960000Y-119570000D02*
X48260000Y-119570000D01*
D32*
X39990000Y-115390000D02*
X40310000Y-115390000D01*
D33*
X43370000Y-119570000D02*
X48260000Y-119570000D01*
X34290000Y-82550000D02*
X34290000Y-109200000D01*
X55960000Y-119570000D02*
X58420000Y-122030000D01*
X34290000Y-82550000D02*
X34290000Y-45740000D01*
X58420000Y-130660000D02*
X58420000Y-122030000D01*
X34290000Y-45740000D02*
X35580000Y-44450000D01*
X34290000Y-109200000D02*
X34290000Y-110490000D01*
D32*
X48260000Y-119570000D02*
X47732651Y-119570000D01*
D27*
%TO.N,Net-(J2-Pin_2)*%
X114300000Y-43180000D02*
X114300000Y-44450000D01*
X104140000Y-48260000D02*
X106680000Y-48260000D01*
X109220000Y-45720000D02*
X113030000Y-45720000D01*
X106680000Y-48260000D02*
X109220000Y-45720000D01*
X101600000Y-45720000D02*
X104140000Y-48260000D01*
X114300000Y-44450000D02*
X113030000Y-45720000D01*
%TO.N,Net-(J3-Pin_2)*%
X109220000Y-60960000D02*
X114300000Y-60960000D01*
X106680000Y-63500000D02*
X109220000Y-60960000D01*
X114300000Y-60960000D02*
X114300000Y-58420000D01*
X101600000Y-60960000D02*
X104140000Y-63500000D01*
X104140000Y-63500000D02*
X106680000Y-63500000D01*
%TO.N,Net-(J4-Pin_2)*%
X106680000Y-78740000D02*
X104140000Y-78740000D01*
X104140000Y-78740000D02*
X101880000Y-76480000D01*
X114300000Y-76480000D02*
X108940000Y-76480000D01*
X114300000Y-73940000D02*
X114300000Y-76480000D01*
X108940000Y-76480000D02*
X106680000Y-78740000D01*
%TO.N,Net-(J5-Pin_2)*%
X104140000Y-93980000D02*
X101880000Y-91720000D01*
X106680000Y-93980000D02*
X104140000Y-93980000D01*
X108940000Y-91720000D02*
X106680000Y-93980000D01*
X114300000Y-91720000D02*
X108940000Y-91720000D01*
X114300000Y-89180000D02*
X114300000Y-91720000D01*
%TO.N,Net-(J6-Pin_2)*%
X101600000Y-106680000D02*
X104140000Y-109220000D01*
X104140000Y-109220000D02*
X106680000Y-109220000D01*
X109220000Y-106680000D02*
X114300000Y-106680000D01*
X114300000Y-106680000D02*
X114300000Y-104140000D01*
X106680000Y-109220000D02*
X109220000Y-106680000D01*
%TO.N,Net-(J7-Pin_2)*%
X101320000Y-121640000D02*
X104140000Y-124460000D01*
X104140000Y-124460000D02*
X106960000Y-124460000D01*
X106960000Y-124460000D02*
X109780000Y-121640000D01*
X114300000Y-121640000D02*
X114300000Y-119100000D01*
X109780000Y-121640000D02*
X114300000Y-121640000D01*
%TO.N,Net-(J8-Pin_2)*%
X109220000Y-137160000D02*
X114300000Y-137160000D01*
X104140000Y-139700000D02*
X106680000Y-139700000D01*
X101600000Y-137160000D02*
X104140000Y-139700000D01*
X106680000Y-139700000D02*
X109220000Y-137160000D01*
X114300000Y-137160000D02*
X114300000Y-134620000D01*
%TO.N,Net-(J9-Pin_2)*%
X104140000Y-154940000D02*
X106733725Y-154940000D01*
X106733725Y-154940000D02*
X109273725Y-152400000D01*
X114300000Y-152400000D02*
X114300000Y-149860000D01*
X101600000Y-152400000D02*
X104140000Y-154940000D01*
X109273725Y-152400000D02*
X114300000Y-152400000D01*
D32*
%TO.N,Net-(Q1-G)*%
X81280000Y-45720000D02*
X81280000Y-40640000D01*
X81280000Y-40640000D02*
X88900000Y-40640000D01*
%TO.N,Net-(Q2-G)*%
X81280000Y-55880000D02*
X81280000Y-60960000D01*
X88900000Y-55880000D02*
X81280000Y-55880000D01*
%TO.N,Net-(Q3-G)*%
X81280000Y-71400000D02*
X88900000Y-71400000D01*
X81280000Y-76480000D02*
X81280000Y-71400000D01*
%TO.N,Net-(Q4-G)*%
X81280000Y-86640000D02*
X81280000Y-91720000D01*
X88900000Y-86640000D02*
X81280000Y-86640000D01*
%TO.N,Net-(Q5-G)*%
X81280000Y-106680000D02*
X81280000Y-101600000D01*
X81280000Y-101600000D02*
X88900000Y-101600000D01*
%TO.N,Net-(Q6-G)*%
X81280000Y-121640000D02*
X81280000Y-116560000D01*
X81280000Y-116560000D02*
X88900000Y-116560000D01*
%TO.N,Net-(Q7-G)*%
X81280000Y-132080000D02*
X81560000Y-131800000D01*
X88620000Y-131800000D02*
X88900000Y-132080000D01*
X81280000Y-137160000D02*
X81280000Y-132080000D01*
X81280000Y-132080000D02*
X88900000Y-132080000D01*
%TO.N,Net-(Q8-G)*%
X81280000Y-151840000D02*
X81280000Y-147320000D01*
X81280000Y-147320000D02*
X88900000Y-147320000D01*
%TO.N,CH1*%
X58420000Y-48260000D02*
X59690000Y-49530000D01*
X59690000Y-40640000D02*
X58420000Y-41910000D01*
X58420000Y-41910000D02*
X58420000Y-48260000D01*
X59712720Y-49507280D02*
X63690000Y-49507280D01*
X59690000Y-49530000D02*
X59712720Y-49507280D01*
X73660000Y-40640000D02*
X59690000Y-40640000D01*
%TO.N,CH2*%
X71120000Y-53340000D02*
X71120000Y-54610000D01*
X69827280Y-52047280D02*
X71120000Y-53340000D01*
X72390000Y-55880000D02*
X73660000Y-55880000D01*
X63690000Y-52047280D02*
X69827280Y-52047280D01*
X71120000Y-54610000D02*
X72390000Y-55880000D01*
%TO.N,CH3*%
X72390000Y-71400000D02*
X73660000Y-71400000D01*
X69850000Y-55880000D02*
X71120000Y-57150000D01*
X63690000Y-54587280D02*
X69827280Y-54587280D01*
X71120000Y-70130000D02*
X72390000Y-71400000D01*
X69827280Y-54587280D02*
X69850000Y-54610000D01*
X69850000Y-54610000D02*
X69850000Y-55880000D01*
X71120000Y-57150000D02*
X71120000Y-70130000D01*
%TO.N,CH4*%
X72390000Y-86640000D02*
X73660000Y-86640000D01*
X71120000Y-74930000D02*
X71120000Y-85370000D01*
X69850000Y-73660000D02*
X71120000Y-74930000D01*
X71120000Y-85370000D02*
X72390000Y-86640000D01*
X63690000Y-57127280D02*
X68557280Y-57127280D01*
X69850000Y-58420000D02*
X69850000Y-73660000D01*
X68557280Y-57127280D02*
X69850000Y-58420000D01*
%TO.N,CH5*%
X68580000Y-60960000D02*
X68580000Y-74930000D01*
X69850000Y-76200000D02*
X69850000Y-90170000D01*
X71120000Y-91440000D02*
X71120000Y-100330000D01*
X68580000Y-74930000D02*
X69850000Y-76200000D01*
X63690000Y-59667280D02*
X67287280Y-59667280D01*
X69850000Y-90170000D02*
X71120000Y-91440000D01*
X72390000Y-101600000D02*
X73660000Y-101600000D01*
X67287280Y-59667280D02*
X68580000Y-60960000D01*
X71120000Y-100330000D02*
X72390000Y-101600000D01*
%TO.N,CH6*%
X68580000Y-77470000D02*
X68580000Y-91440000D01*
X71120000Y-104140000D02*
X71120000Y-115570000D01*
X72670000Y-116560000D02*
X73660000Y-116560000D01*
X67310000Y-76200000D02*
X68580000Y-77470000D01*
X72390000Y-116840000D02*
X72670000Y-116560000D01*
X69850000Y-92710000D02*
X69850000Y-102870000D01*
X71120000Y-115570000D02*
X72390000Y-116840000D01*
X67310000Y-63500000D02*
X67310000Y-76200000D01*
X66017280Y-62207280D02*
X67310000Y-63500000D01*
X68580000Y-91440000D02*
X69850000Y-92710000D01*
X63690000Y-62207280D02*
X66017280Y-62207280D01*
X69850000Y-102870000D02*
X71120000Y-104140000D01*
%TO.N,CH7*%
X67310000Y-93980000D02*
X68580000Y-95250000D01*
X68580000Y-95250000D02*
X68580000Y-105410000D01*
X68580000Y-105410000D02*
X69850000Y-106680000D01*
X64747280Y-64747280D02*
X66040000Y-66040000D01*
X71120000Y-130810000D02*
X72390000Y-132080000D01*
X66040000Y-66040000D02*
X66040000Y-77470000D01*
X69850000Y-124460000D02*
X71120000Y-125730000D01*
X66040000Y-77470000D02*
X67310000Y-78740000D01*
X63690000Y-64747280D02*
X64747280Y-64747280D01*
X72390000Y-132080000D02*
X73660000Y-132080000D01*
X71120000Y-125730000D02*
X71120000Y-130810000D01*
X67310000Y-78740000D02*
X67310000Y-93980000D01*
X69850000Y-106680000D02*
X69850000Y-124460000D01*
%TO.N,CH8*%
X68580000Y-129540000D02*
X68580000Y-107950000D01*
X69850000Y-130810000D02*
X68580000Y-129540000D01*
X66040000Y-105410000D02*
X66040000Y-91440000D01*
X69850000Y-146050000D02*
X69850000Y-130810000D01*
X66040000Y-91440000D02*
X59690000Y-85090000D01*
X59690000Y-68580000D02*
X60982720Y-67287280D01*
X68580000Y-107950000D02*
X66040000Y-105410000D01*
X73660000Y-147320000D02*
X71120000Y-147320000D01*
X71120000Y-147320000D02*
X69850000Y-146050000D01*
X60982720Y-67287280D02*
X63690000Y-67287280D01*
X59690000Y-85090000D02*
X59690000Y-68580000D01*
%TO.N,unconnected-(U2-VP-Pad2)*%
X64500000Y-77620000D02*
X64620000Y-77620000D01*
%TO.N,Net-(J10-Pin_1)*%
X45720000Y-111760000D02*
X39370000Y-111760000D01*
X43180000Y-68580000D02*
X41907280Y-67307280D01*
X43180000Y-86360000D02*
X43180000Y-68580000D01*
X39370000Y-111760000D02*
X35560000Y-107950000D01*
X46990000Y-107950000D02*
X46990000Y-102870000D01*
X35560000Y-107950000D02*
X35560000Y-93980000D01*
X46990000Y-110490000D02*
X45720000Y-111760000D01*
X41907280Y-67307280D02*
X39366320Y-67307280D01*
X35560000Y-93980000D02*
X43180000Y-86360000D01*
X46990000Y-107950000D02*
X46990000Y-110490000D01*
%TO.N,Net-(J11-Pin_1)*%
X45717280Y-64767280D02*
X39366320Y-64767280D01*
X45720000Y-87630000D02*
X45720000Y-64770000D01*
X39990000Y-107770000D02*
X36830000Y-104610000D01*
X39990000Y-107770000D02*
X39990000Y-102690000D01*
X36830000Y-96520000D02*
X45720000Y-87630000D01*
X36830000Y-104610000D02*
X36830000Y-96520000D01*
X45720000Y-64770000D02*
X45717280Y-64767280D01*
%TD*%
M02*
