%TF.GenerationSoftware,KiCad,Pcbnew,9.0.7*%
%TF.CreationDate,2026-02-12T14:15:23+00:00*%
%TF.ProjectId,VANDIMMER-8CH,56414e44-494d-44d4-9552-2d3843482e6b,rev?*%
%TF.SameCoordinates,Original*%
%TF.FileFunction,Soldermask,Bot*%
%TF.FilePolarity,Negative*%
%FSLAX46Y46*%
G04 Gerber Fmt 4.6, Leading zero omitted, Abs format (unit mm)*
G04 Created by KiCad (PCBNEW 9.0.7) date 2026-02-12 14:15:23*
%MOMM*%
%LPD*%
G01*
G04 APERTURE LIST*
G04 Aperture macros list*
%AMRoundRect*
0 Rectangle with rounded corners*
0 $1 Rounding radius*
0 $2 $3 $4 $5 $6 $7 $8 $9 X,Y pos of 4 corners*
0 Add a 4 corners polygon primitive as box body*
4,1,4,$2,$3,$4,$5,$6,$7,$8,$9,$2,$3,0*
0 Add four circle primitives for the rounded corners*
1,1,$1+$1,$2,$3*
1,1,$1+$1,$4,$5*
1,1,$1+$1,$6,$7*
1,1,$1+$1,$8,$9*
0 Add four rect primitives between the rounded corners*
20,1,$1+$1,$2,$3,$4,$5,0*
20,1,$1+$1,$4,$5,$6,$7,0*
20,1,$1+$1,$6,$7,$8,$9,0*
20,1,$1+$1,$8,$9,$2,$3,0*%
G04 Aperture macros list end*
%ADD10C,1.600000*%
%ADD11RoundRect,0.250000X-0.550000X-0.550000X0.550000X-0.550000X0.550000X0.550000X-0.550000X0.550000X0*%
%ADD12C,3.500000*%
%ADD13R,2.000000X1.905000*%
%ADD14O,2.000000X1.905000*%
%ADD15R,1.700000X1.700000*%
%ADD16C,1.700000*%
%ADD17RoundRect,0.250000X-0.750000X0.750000X-0.750000X-0.750000X0.750000X-0.750000X0.750000X0.750000X0*%
%ADD18C,2.000000*%
%ADD19R,1.905000X2.000000*%
%ADD20O,1.905000X2.000000*%
%ADD21R,3.000000X3.000000*%
%ADD22C,3.000000*%
%ADD23R,2.000000X1.200000*%
%ADD24O,2.000000X1.200000*%
G04 APERTURE END LIST*
D10*
%TO.C,R18*%
X39990000Y-107770000D03*
X39990000Y-115390000D03*
%TD*%
D11*
%TO.C,C4*%
X42307349Y-140297349D03*
D10*
X45807349Y-140297349D03*
%TD*%
%TO.C,C1*%
X55960000Y-124650000D03*
X60960000Y-124650000D03*
%TD*%
D12*
%TO.C,Q3*%
X105560000Y-73940000D03*
D13*
X88900000Y-71400000D03*
D14*
X88900000Y-73940000D03*
X88900000Y-76480000D03*
%TD*%
D15*
%TO.C,J10*%
X46990000Y-102870000D03*
D16*
X46990000Y-100330000D03*
%TD*%
D17*
%TO.C,J9*%
X116840000Y-147320000D03*
D18*
X116840000Y-149860000D03*
%TD*%
D10*
%TO.C,R9*%
X81280000Y-101600000D03*
X73660000Y-101600000D03*
%TD*%
D12*
%TO.C,Q7*%
X105560000Y-134620000D03*
D13*
X88900000Y-132080000D03*
D14*
X88900000Y-134620000D03*
X88900000Y-137160000D03*
%TD*%
D10*
%TO.C,R7*%
X81280000Y-86640000D03*
X73660000Y-86640000D03*
%TD*%
%TO.C,R1*%
X81280000Y-40640000D03*
X73660000Y-40640000D03*
%TD*%
%TO.C,R3*%
X81280000Y-55880000D03*
X73660000Y-55880000D03*
%TD*%
%TO.C,R16*%
X73660000Y-151840000D03*
X81280000Y-151840000D03*
%TD*%
%TO.C,R17*%
X46990000Y-107950000D03*
X46990000Y-115570000D03*
%TD*%
D12*
%TO.C,Q2*%
X105560000Y-58420000D03*
D13*
X88900000Y-55880000D03*
D14*
X88900000Y-58420000D03*
X88900000Y-60960000D03*
%TD*%
D12*
%TO.C,U1*%
X58420000Y-147320000D03*
D19*
X60960000Y-130660000D03*
D20*
X58420000Y-130660000D03*
X55880000Y-130660000D03*
%TD*%
D17*
%TO.C,J5*%
X116840000Y-86640000D03*
D18*
X116840000Y-89180000D03*
%TD*%
D10*
%TO.C,R2*%
X73660000Y-45720000D03*
X81280000Y-45720000D03*
%TD*%
D17*
%TO.C,J6*%
X116840000Y-101600000D03*
D18*
X116840000Y-104140000D03*
%TD*%
D10*
%TO.C,R4*%
X73660000Y-60960000D03*
X81280000Y-60960000D03*
%TD*%
D17*
%TO.C,J4*%
X116840000Y-71400000D03*
D18*
X116840000Y-73940000D03*
%TD*%
D10*
%TO.C,R14*%
X73660000Y-137160000D03*
X81280000Y-137160000D03*
%TD*%
%TO.C,R5*%
X81280000Y-71400000D03*
X73660000Y-71400000D03*
%TD*%
%TO.C,R10*%
X73660000Y-106680000D03*
X81280000Y-106680000D03*
%TD*%
%TO.C,R15*%
X81280000Y-147320000D03*
X73660000Y-147320000D03*
%TD*%
D12*
%TO.C,Q8*%
X105560000Y-149860000D03*
D13*
X88900000Y-147320000D03*
D14*
X88900000Y-149860000D03*
X88900000Y-152400000D03*
%TD*%
D17*
%TO.C,J8*%
X116840000Y-132080000D03*
D18*
X116840000Y-134620000D03*
%TD*%
D12*
%TO.C,Q5*%
X105560000Y-104140000D03*
D13*
X88900000Y-101600000D03*
D14*
X88900000Y-104140000D03*
X88900000Y-106680000D03*
%TD*%
D15*
%TO.C,J11*%
X39990000Y-102690000D03*
D16*
X39990000Y-100150000D03*
%TD*%
D12*
%TO.C,Q1*%
X105560000Y-43180000D03*
D13*
X88900000Y-40640000D03*
D14*
X88900000Y-43180000D03*
X88900000Y-45720000D03*
%TD*%
D10*
%TO.C,R8*%
X73660000Y-91720000D03*
X81280000Y-91720000D03*
%TD*%
D17*
%TO.C,J7*%
X116840000Y-116560000D03*
D18*
X116840000Y-119100000D03*
%TD*%
D21*
%TO.C,J1*%
X43460000Y-156837349D03*
D22*
X43460000Y-151757349D03*
%TD*%
D10*
%TO.C,R12*%
X73660000Y-121640000D03*
X81280000Y-121640000D03*
%TD*%
D17*
%TO.C,J3*%
X116840000Y-55880000D03*
D18*
X116840000Y-58420000D03*
%TD*%
D10*
%TO.C,R13*%
X81280000Y-132080000D03*
X73660000Y-132080000D03*
%TD*%
%TO.C,R11*%
X81280000Y-116560000D03*
X73660000Y-116560000D03*
%TD*%
D12*
%TO.C,Q4*%
X105560000Y-89180000D03*
D13*
X88900000Y-86640000D03*
D14*
X88900000Y-89180000D03*
X88900000Y-91720000D03*
%TD*%
D17*
%TO.C,J2*%
X116840000Y-40640000D03*
D18*
X116840000Y-43180000D03*
%TD*%
D12*
%TO.C,Q6*%
X105560000Y-119100000D03*
D13*
X88900000Y-116560000D03*
D14*
X88900000Y-119100000D03*
X88900000Y-121640000D03*
%TD*%
D10*
%TO.C,R6*%
X73660000Y-76480000D03*
X81280000Y-76480000D03*
%TD*%
%TO.C,C2*%
X55960000Y-119570000D03*
X60960000Y-119570000D03*
%TD*%
D23*
%TO.C,U2*%
X63690000Y-79987280D03*
D24*
X63690000Y-77447280D03*
X63690000Y-74907280D03*
X63690000Y-72367280D03*
X63690000Y-69827280D03*
X63690000Y-67287280D03*
X63690000Y-64747280D03*
X63690000Y-62207280D03*
X63690000Y-59667280D03*
X63690000Y-57127280D03*
X63690000Y-54587280D03*
X63690000Y-52047280D03*
X63690000Y-49507280D03*
X63690000Y-46967280D03*
X63690000Y-44427280D03*
X36830000Y-44450000D03*
X36830000Y-46990000D03*
X36826320Y-49527280D03*
X36826320Y-52067280D03*
X36826320Y-54607280D03*
X36826320Y-57147280D03*
X36826320Y-59687280D03*
X36826320Y-62227280D03*
X36826320Y-64767280D03*
X36826320Y-67307280D03*
X36826320Y-69847280D03*
X36826320Y-72387280D03*
X36826320Y-74927280D03*
X36826320Y-77467280D03*
X36826320Y-80007280D03*
%TD*%
M02*
