%TF.GenerationSoftware,KiCad,Pcbnew,9.0.7*%
%TF.CreationDate,2026-02-06T13:46:22+00:00*%
%TF.ProjectId,VANDIMMER-8CH,56414e44-494d-44d4-9552-2d3843482e6b,rev?*%
%TF.SameCoordinates,Original*%
%TF.FileFunction,Soldermask,Bot*%
%TF.FilePolarity,Negative*%
%FSLAX46Y46*%
G04 Gerber Fmt 4.6, Leading zero omitted, Abs format (unit mm)*
G04 Created by KiCad (PCBNEW 9.0.7) date 2026-02-06 13:46:22*
%MOMM*%
%LPD*%
G01*
G04 APERTURE LIST*
G04 Aperture macros list*
%AMRoundRect*
0 Rectangle with rounded corners*
0 $1 Rounding radius*
0 $2 $3 $4 $5 $6 $7 $8 $9 X,Y pos of 4 corners*
0 Add a 4 corners polygon primitive as box body*
4,1,4,$2,$3,$4,$5,$6,$7,$8,$9,$2,$3,0*
0 Add four circle primitives for the rounded corners*
1,1,$1+$1,$2,$3*
1,1,$1+$1,$4,$5*
1,1,$1+$1,$6,$7*
1,1,$1+$1,$8,$9*
0 Add four rect primitives between the rounded corners*
20,1,$1+$1,$2,$3,$4,$5,0*
20,1,$1+$1,$4,$5,$6,$7,0*
20,1,$1+$1,$6,$7,$8,$9,0*
20,1,$1+$1,$8,$9,$2,$3,0*%
G04 Aperture macros list end*
%ADD10C,1.600000*%
%ADD11RoundRect,0.250000X-0.550000X-0.550000X0.550000X-0.550000X0.550000X0.550000X-0.550000X0.550000X0*%
%ADD12C,3.500000*%
%ADD13R,2.000000X1.905000*%
%ADD14O,2.000000X1.905000*%
%ADD15R,1.700000X1.700000*%
%ADD16C,1.700000*%
%ADD17R,3.000000X3.000000*%
%ADD18C,3.000000*%
%ADD19R,1.905000X2.000000*%
%ADD20O,1.905000X2.000000*%
%ADD21R,2.000000X1.200000*%
%ADD22O,2.000000X1.200000*%
G04 APERTURE END LIST*
D10*
%TO.C,R18*%
X44500000Y-53200000D03*
X44500000Y-60820000D03*
%TD*%
D11*
%TO.C,C4*%
X38307349Y-143960000D03*
D10*
X41807349Y-143960000D03*
%TD*%
%TO.C,C1*%
X51960000Y-128312651D03*
X56960000Y-128312651D03*
%TD*%
D12*
%TO.C,Q3*%
X105560000Y-73940000D03*
D13*
X88900000Y-71400000D03*
D14*
X88900000Y-73940000D03*
X88900000Y-76480000D03*
%TD*%
D15*
%TO.C,J10*%
X51500000Y-48300000D03*
D16*
X51500000Y-45760000D03*
%TD*%
D17*
%TO.C,J9*%
X116840000Y-147320000D03*
D18*
X116840000Y-152400000D03*
%TD*%
D10*
%TO.C,R9*%
X81280000Y-101600000D03*
X73660000Y-101600000D03*
%TD*%
D12*
%TO.C,Q7*%
X105560000Y-134620000D03*
D13*
X88900000Y-132080000D03*
D14*
X88900000Y-134620000D03*
X88900000Y-137160000D03*
%TD*%
D10*
%TO.C,R7*%
X81280000Y-86640000D03*
X73660000Y-86640000D03*
%TD*%
%TO.C,R1*%
X81280000Y-40640000D03*
X73660000Y-40640000D03*
%TD*%
%TO.C,R3*%
X81280000Y-55880000D03*
X73660000Y-55880000D03*
%TD*%
%TO.C,R16*%
X73660000Y-151840000D03*
X81280000Y-151840000D03*
%TD*%
%TO.C,R17*%
X51500000Y-53380000D03*
X51500000Y-61000000D03*
%TD*%
D12*
%TO.C,Q2*%
X105560000Y-58420000D03*
D13*
X88900000Y-55880000D03*
D14*
X88900000Y-58420000D03*
X88900000Y-60960000D03*
%TD*%
D12*
%TO.C,U1*%
X54420000Y-150982651D03*
D19*
X56960000Y-134322651D03*
D20*
X54420000Y-134322651D03*
X51880000Y-134322651D03*
%TD*%
D17*
%TO.C,J5*%
X116840000Y-86640000D03*
D18*
X116840000Y-91720000D03*
%TD*%
D10*
%TO.C,R2*%
X73660000Y-45720000D03*
X81280000Y-45720000D03*
%TD*%
D17*
%TO.C,J6*%
X116840000Y-101600000D03*
D18*
X116840000Y-106680000D03*
%TD*%
D10*
%TO.C,R4*%
X73660000Y-60960000D03*
X81280000Y-60960000D03*
%TD*%
D17*
%TO.C,J4*%
X116840000Y-71400000D03*
D18*
X116840000Y-76480000D03*
%TD*%
D10*
%TO.C,R14*%
X73660000Y-137160000D03*
X81280000Y-137160000D03*
%TD*%
%TO.C,R5*%
X81280000Y-71400000D03*
X73660000Y-71400000D03*
%TD*%
%TO.C,R10*%
X73660000Y-106680000D03*
X81280000Y-106680000D03*
%TD*%
%TO.C,R15*%
X81280000Y-147320000D03*
X73660000Y-147320000D03*
%TD*%
D12*
%TO.C,Q8*%
X105560000Y-149860000D03*
D13*
X88900000Y-147320000D03*
D14*
X88900000Y-149860000D03*
X88900000Y-152400000D03*
%TD*%
D17*
%TO.C,J8*%
X116840000Y-132080000D03*
D18*
X116840000Y-137160000D03*
%TD*%
D12*
%TO.C,Q5*%
X105560000Y-104140000D03*
D13*
X88900000Y-101600000D03*
D14*
X88900000Y-104140000D03*
X88900000Y-106680000D03*
%TD*%
D15*
%TO.C,J11*%
X44500000Y-48120000D03*
D16*
X44500000Y-45580000D03*
%TD*%
D12*
%TO.C,Q1*%
X105560000Y-43180000D03*
D13*
X88900000Y-40640000D03*
D14*
X88900000Y-43180000D03*
X88900000Y-45720000D03*
%TD*%
D10*
%TO.C,R8*%
X73660000Y-91720000D03*
X81280000Y-91720000D03*
%TD*%
D17*
%TO.C,J7*%
X116840000Y-116560000D03*
D18*
X116840000Y-121640000D03*
%TD*%
D17*
%TO.C,J1*%
X39460000Y-160500000D03*
D18*
X39460000Y-155420000D03*
%TD*%
D10*
%TO.C,R12*%
X73660000Y-121640000D03*
X81280000Y-121640000D03*
%TD*%
D17*
%TO.C,J3*%
X116840000Y-55880000D03*
D18*
X116840000Y-60960000D03*
%TD*%
D10*
%TO.C,R13*%
X81280000Y-132080000D03*
X73660000Y-132080000D03*
%TD*%
%TO.C,R11*%
X81280000Y-116560000D03*
X73660000Y-116560000D03*
%TD*%
D12*
%TO.C,Q4*%
X105560000Y-89180000D03*
D13*
X88900000Y-86640000D03*
D14*
X88900000Y-89180000D03*
X88900000Y-91720000D03*
%TD*%
D17*
%TO.C,J2*%
X116840000Y-40640000D03*
D18*
X116840000Y-45720000D03*
%TD*%
D12*
%TO.C,Q6*%
X105560000Y-119100000D03*
D13*
X88900000Y-116560000D03*
D14*
X88900000Y-119100000D03*
X88900000Y-121640000D03*
%TD*%
D10*
%TO.C,R6*%
X73660000Y-76480000D03*
X81280000Y-76480000D03*
%TD*%
%TO.C,C2*%
X51960000Y-123232651D03*
X56960000Y-123232651D03*
%TD*%
D21*
%TO.C,U2*%
X61000000Y-105560000D03*
D22*
X61000000Y-103020000D03*
X61000000Y-100480000D03*
X61000000Y-97940000D03*
X61000000Y-95400000D03*
X61000000Y-92860000D03*
X61000000Y-90320000D03*
X61000000Y-87780000D03*
X61000000Y-85240000D03*
X61000000Y-82700000D03*
X61000000Y-80160000D03*
X61000000Y-77620000D03*
X61000000Y-75080000D03*
X61000000Y-72540000D03*
X61000000Y-70000000D03*
X38143680Y-70002720D03*
X38143680Y-72542720D03*
X38140000Y-75080000D03*
X38140000Y-77620000D03*
X38140000Y-80160000D03*
X38140000Y-82700000D03*
X38140000Y-85240000D03*
X38140000Y-87780000D03*
X38140000Y-90320000D03*
X38140000Y-92860000D03*
X38140000Y-95400000D03*
X38140000Y-97940000D03*
X38140000Y-100480000D03*
X38140000Y-103020000D03*
X38140000Y-105560000D03*
%TD*%
M02*
